<svg id="CoinABI" xmlns="http://www.w3.org/2000/svg" xmlns:xlink="http://www.w3.org/1999/xlink" width="31.645" height="40.766" viewBox="0 0 31.645 40.766">
  <defs>
    <clipPath id="clip-path">
      <path id="SVGID" d="M-4009.375,1503.109h-3.327c-7.819,0-14.158-9.125-14.158-20.38s6.339-20.386,14.158-20.386h3.327c-7.819,0-14.158,9.129-14.158,20.386S-4017.194,1503.109-4009.375,1503.109Z" transform="translate(4026.86 -1462.343)" fill="none"/>
    </clipPath>
    <linearGradient id="linear-gradient" x1="0.5" y1="1" x2="0.5" gradientUnits="objectBoundingBox">
      <stop offset="0" stop-color="#ff8c00"/>
      <stop offset="0.072" stop-color="#e87600"/>
      <stop offset="0.186" stop-color="#cb5900"/>
      <stop offset="0.3" stop-color="#b64500"/>
      <stop offset="0.411" stop-color="#aa3900"/>
      <stop offset="0.518" stop-color="#a63500"/>
      <stop offset="0.607" stop-color="#a83800"/>
      <stop offset="0.689" stop-color="#ae4300"/>
      <stop offset="0.768" stop-color="#b95600"/>
      <stop offset="0.847" stop-color="#c97000"/>
      <stop offset="0.923" stop-color="#dd9200"/>
      <stop offset="0.998" stop-color="#f5bb00"/>
      <stop offset="1" stop-color="#f6bd00"/>
    </linearGradient>
    <linearGradient id="linear-gradient-2" x1="0.144" y1="0.722" x2="0.92" y2="0.238" gradientUnits="objectBoundingBox">
      <stop offset="0" stop-color="#fee220"/>
      <stop offset="0.075" stop-color="#fed712"/>
      <stop offset="0.185" stop-color="#fecc04"/>
      <stop offset="0.282" stop-color="#ffc900"/>
      <stop offset="0.426" stop-color="#fecd07"/>
      <stop offset="0.642" stop-color="#fdd91c"/>
      <stop offset="0.903" stop-color="#fbee3d"/>
      <stop offset="1" stop-color="#fbf74c"/>
    </linearGradient>
  </defs>
  <g id="Group_298" data-name="Group 298" style="isolation: isolate">
    <g id="Group_296" data-name="Group 296" style="isolation: isolate">
      <g id="Group_295" data-name="Group 295" clip-path="url(#clip-path)">
        <path id="Path_1332" data-name="Path 1332" d="M-4022.575,1490.112a27.481,27.481,0,0,1-.756-3.944,29.156,29.156,0,0,1-.2-3.438c0-.064,0-.129,0-.193a29.228,29.228,0,0,1,.256-3.693,27.079,27.079,0,0,1,.9-4.21c1.369-4.548,3.855-8.238,6.961-10.349a11.5,11.5,0,0,1,2.91-1.442,10.142,10.142,0,0,1,2.541-.482c.194-.011.389-.017.585-.017h-3.327c-.2,0-.391.006-.586.017a10.145,10.145,0,0,0-2.541.482,11.493,11.493,0,0,0-2.91,1.442c-3.105,2.111-5.592,5.8-6.961,10.349a27.051,27.051,0,0,0-.9,4.21,29.183,29.183,0,0,0-.256,3.693c0,.064,0,.129,0,.193a29.368,29.368,0,0,0,.2,3.438,27.582,27.582,0,0,0,.757,3.944c2.054,7.607,7.19,13,13.2,13h3.327C-4015.385,1503.109-4020.521,1497.718-4022.575,1490.112Z" transform="translate(4026.86 -1462.343)" fill="url(#linear-gradient)"/>
        <g id="Group_294" data-name="Group 294" transform="translate(0.004 0.005)" style="mix-blend-mode: overlay;isolation: isolate">
          <path id="Path_1333" data-name="Path 1333" d="M-4008.271,1509.876l.24.023h-3.327l-.239-.023h3.327" transform="translate(4024.664 -1469.174)" fill="#e6e6e6"/>
          <path id="Path_1334" data-name="Path 1334" d="M-4007.991,1509.9c.079.007.16.013.241.017h-3.328c-.08,0-.161-.01-.241-.017h3.328" transform="translate(4024.624 -1469.178)" fill="#b3b3b3"/>
          <path id="Path_1335" data-name="Path 1335" d="M-4007.71,1509.923c.081.005.161.009.242.012h-3.327c-.082,0-.162-.007-.242-.012h3.327" transform="translate(4024.583 -1469.181)" fill="#666"/>
          <path id="Path_1336" data-name="Path 1336" d="M-4009.93,1509.573l.233.057h-3.327l-.233-.057h3.327" transform="translate(4024.902 -1469.131)" fill="#e6e6e6"/>
          <path id="Path_1337" data-name="Path 1337" d="M-4009.658,1509.639c.079.018.158.036.237.052h-3.327c-.079-.016-.158-.034-.236-.052h3.327" transform="translate(4024.863 -1469.14)" fill="#b3b3b3"/>
          <path id="Path_1338" data-name="Path 1338" d="M-4009.382,1509.7l.235.046h-3.327l-.235-.046h3.327" transform="translate(4024.823 -1469.149)" fill="#666"/>
          <path id="Path_1339" data-name="Path 1339" d="M-4011.53,1509.041l.225.089h-3.327l-.224-.089h3.327" transform="translate(4025.132 -1469.054)" fill="#e6e6e6"/>
          <path id="Path_1340" data-name="Path 1340" d="M-4011.268,1509.145c.075.028.15.057.226.083h-3.328c-.075-.026-.15-.055-.225-.083h3.327" transform="translate(4025.095 -1469.069)" fill="#b3b3b3"/>
          <path id="Path_1341" data-name="Path 1341" d="M-4011,1509.242c.076.028.151.053.228.079h-3.327c-.076-.026-.152-.051-.228-.079H-4011" transform="translate(4025.057 -1469.083)" fill="#666"/>
          <path id="Path_1342" data-name="Path 1342" d="M-4013.07,1508.29c.071.04.143.08.215.119h-3.327c-.072-.039-.144-.079-.215-.119h3.327" transform="translate(4025.353 -1468.946)" fill="#e6e6e6"/>
          <path id="Path_1343" data-name="Path 1343" d="M-4012.819,1508.429c.073.039.146.078.219.116h-3.327c-.074-.038-.146-.076-.219-.116h3.327" transform="translate(4025.317 -1468.966)" fill="#b3b3b3"/>
          <path id="Path_1344" data-name="Path 1344" d="M-4012.562,1508.564c.072.038.144.074.217.11h-3.327c-.073-.036-.146-.072-.218-.11h3.328" transform="translate(4025.281 -1468.986)" fill="#666"/>
          <path id="Path_1345" data-name="Path 1345" d="M-4014.535,1507.336l.2.147h-3.327l-.2-.147h3.327" transform="translate(4025.563 -1468.809)" fill="#e6e6e6"/>
          <path id="Path_1346" data-name="Path 1346" d="M-4014.3,1507.508c.069.049.137.1.206.143h-3.327c-.07-.046-.138-.094-.207-.143h3.327" transform="translate(4025.529 -1468.834)" fill="#b3b3b3"/>
          <path id="Path_1347" data-name="Path 1347" d="M-4014.056,1507.675c.069.047.138.093.207.139h-3.327c-.069-.045-.138-.092-.207-.139h3.327" transform="translate(4025.495 -1468.858)" fill="#666"/>
          <path id="Path_1348" data-name="Path 1348" d="M-4015.922,1506.186q.1.089.192.175h-3.327q-.1-.086-.192-.175h3.327" transform="translate(4025.763 -1468.644)" fill="#e6e6e6"/>
          <path id="Path_1349" data-name="Path 1349" d="M-4015.7,1506.39c.065.058.131.116.2.172h-3.327c-.066-.056-.132-.114-.2-.172h3.327" transform="translate(4025.73 -1468.674)" fill="#b3b3b3"/>
          <path id="Path_1350" data-name="Path 1350" d="M-4015.468,1506.591c.065.056.13.112.2.166h-3.327c-.066-.054-.131-.11-.2-.166h3.327" transform="translate(4025.697 -1468.702)" fill="#666"/>
          <path id="Path_1351" data-name="Path 1351" d="M-4017.218,1504.857c.059.068.119.133.179.2h-3.327c-.06-.066-.12-.132-.179-.2h3.327" transform="translate(4025.949 -1468.453)" fill="#e6e6e6"/>
          <path id="Path_1352" data-name="Path 1352" d="M-4017.009,1505.09c.06.066.121.131.181.2h-3.328q-.091-.1-.181-.2h3.327" transform="translate(4025.919 -1468.487)" fill="#b3b3b3"/>
          <path id="Path_1353" data-name="Path 1353" d="M-4016.8,1505.318c.061.065.122.128.183.192h-3.327c-.062-.063-.123-.127-.184-.192h3.328" transform="translate(4025.888 -1468.52)" fill="#666"/>
          <path id="Path_1354" data-name="Path 1354" d="M-4018.42,1503.356l.165.223h-3.327l-.165-.223h3.327" transform="translate(4026.121 -1468.238)" fill="#e6e6e6"/>
          <path id="Path_1355" data-name="Path 1355" d="M-4018.228,1503.616c.057.074.113.149.17.222h-3.327c-.057-.073-.113-.147-.169-.222h3.327" transform="translate(4026.094 -1468.275)" fill="#b3b3b3"/>
          <path id="Path_1356" data-name="Path 1356" d="M-4018.03,1503.875q.085.109.169.216h-3.327q-.085-.107-.17-.216h3.327" transform="translate(4026.065 -1468.312)" fill="#666"/>
          <path id="Path_1357" data-name="Path 1357" d="M-4019.514,1501.7q.075.123.15.244h-3.328q-.075-.121-.149-.244h3.327" transform="translate(4026.278 -1468)" fill="#e6e6e6"/>
          <path id="Path_1358" data-name="Path 1358" d="M-4019.339,1501.986q.075.122.152.241h-3.327c-.051-.08-.1-.16-.152-.241h3.328" transform="translate(4026.253 -1468.041)" fill="#b3b3b3"/>
          <path id="Path_1359" data-name="Path 1359" d="M-4019.162,1502.268l.154.237h-3.327c-.052-.078-.1-.158-.154-.237h3.327" transform="translate(4026.228 -1468.082)" fill="#666"/>
          <path id="Path_1360" data-name="Path 1360" d="M-4020.5,1499.9c.044.089.088.177.133.265h-3.327q-.067-.131-.133-.265h3.327" transform="translate(4026.42 -1467.741)" fill="#e6e6e6"/>
          <path id="Path_1361" data-name="Path 1361" d="M-4020.341,1500.2c.045.089.091.177.137.266h-3.327c-.046-.088-.092-.176-.137-.266h3.327" transform="translate(4026.397 -1467.785)" fill="#b3b3b3"/>
          <path id="Path_1362" data-name="Path 1362" d="M-4020.181,1500.515c.045.087.091.172.137.258h-3.327c-.046-.086-.092-.171-.138-.258h3.328" transform="translate(4026.375 -1467.83)" fill="#666"/>
          <path id="Path_1363" data-name="Path 1363" d="M-4021.354,1497.963c.038.094.075.188.114.282h-3.327c-.038-.094-.076-.188-.114-.282h3.327" transform="translate(4026.543 -1467.463)" fill="#e6e6e6"/>
          <path id="Path_1364" data-name="Path 1364" d="M-4021.221,1498.293c.039.094.078.188.118.28h-3.327c-.04-.093-.079-.186-.119-.28h3.328" transform="translate(4026.524 -1467.511)" fill="#b3b3b3"/>
          <path id="Path_1365" data-name="Path 1365" d="M-4021.083,1498.62c.04.094.082.188.123.28h-3.327c-.041-.093-.082-.186-.122-.28h3.327" transform="translate(4026.504 -1467.558)" fill="#666"/>
          <path id="Path_1366" data-name="Path 1366" d="M-4022.084,1495.9c.032.1.064.2.1.3h-3.327c-.032-.1-.065-.2-.1-.3h3.327" transform="translate(4026.647 -1467.167)" fill="#e6e6e6"/>
          <path id="Path_1367" data-name="Path 1367" d="M-4021.971,1496.257c.033.1.065.2.1.3h-3.327c-.034-.1-.067-.2-.1-.3h3.327" transform="translate(4026.631 -1467.218)" fill="#b3b3b3"/>
          <path id="Path_1368" data-name="Path 1368" d="M-4021.855,1496.6c.034.1.068.2.1.295h-3.327c-.035-.1-.069-.2-.1-.295h3.327" transform="translate(4026.615 -1467.268)" fill="#666"/>
          <path id="Path_1369" data-name="Path 1369" d="M-4022.674,1493.739c.025.105.05.21.075.314h-3.327c-.026-.1-.051-.209-.075-.314h3.327" transform="translate(4026.732 -1466.857)" fill="#e6e6e6"/>
          <path id="Path_1370" data-name="Path 1370" d="M-4022.586,1494.106c.027.1.052.209.08.313h-3.327q-.041-.155-.08-.312h3.327" transform="translate(4026.72 -1466.91)" fill="#b3b3b3"/>
          <path id="Path_1371" data-name="Path 1371" d="M-4022.493,1494.471c.027.1.055.209.083.313h-3.327c-.028-.1-.057-.209-.083-.313h3.327" transform="translate(4026.706 -1466.962)" fill="#666"/>
          <path id="Path_1372" data-name="Path 1372" d="M-4023.117,1491.473q.026.167.055.331h-3.327c-.019-.109-.038-.22-.055-.331h3.327" transform="translate(4026.796 -1466.531)" fill="#e6e6e6"/>
          <path id="Path_1373" data-name="Path 1373" d="M-4023.053,1491.86c.018.109.038.218.057.325h-3.327c-.02-.108-.039-.217-.057-.325h3.327" transform="translate(4026.787 -1466.587)" fill="#b3b3b3"/>
          <path id="Path_1374" data-name="Path 1374" d="M-4022.986,1492.24c.02.109.04.217.062.324h-3.327q-.032-.161-.062-.324h3.327" transform="translate(4026.777 -1466.641)" fill="#666"/>
          <path id="Path_1375" data-name="Path 1375" d="M-4023.4,1489.127c.009.113.02.226.031.339h-3.327c-.011-.113-.021-.226-.031-.339h3.328" transform="translate(4026.837 -1466.194)" fill="#e6e6e6"/>
          <path id="Path_1376" data-name="Path 1376" d="M-4023.368,1489.522c.011.113.023.225.035.338h-3.327c-.012-.112-.024-.224-.035-.337h3.327" transform="translate(4026.832 -1466.251)" fill="#b3b3b3"/>
          <path id="Path_1377" data-name="Path 1377" d="M-4023.327,1489.916c.013.114.026.227.04.34h-3.327c-.015-.113-.028-.226-.041-.34h3.327" transform="translate(4026.826 -1466.308)" fill="#666"/>
          <path id="Path_1378" data-name="Path 1378" d="M-4023.528,1486.7q0,.177.008.353h-3.327q-.005-.176-.008-.353h3.327" transform="translate(4026.855 -1465.846)" fill="#e6e6e6"/>
          <path id="Path_1379" data-name="Path 1379" d="M-4023.519,1487.114c0,.116.007.232.011.348h-3.327c0-.116-.009-.231-.011-.348h3.327" transform="translate(4026.854 -1465.905)" fill="#b3b3b3"/>
          <path id="Path_1380" data-name="Path 1380" d="M-4023.506,1487.52c0,.115.01.23.016.345h-3.328c-.005-.115-.011-.23-.016-.345h3.327" transform="translate(4026.852 -1465.964)" fill="#666"/>
          <path id="Path_1381" data-name="Path 1381" d="M-4023.484,1484.257c-.007.115-.012.23-.017.344h-3.327c.005-.115.01-.229.016-.344h3.328" transform="translate(4026.851 -1465.495)" fill="#e6e6e6"/>
          <path id="Path_1382" data-name="Path 1382" d="M-4023.5,1484.659c0,.115-.01.231-.013.347h-3.327q.005-.173.013-.347h3.327" transform="translate(4026.854 -1465.553)" fill="#b3b3b3"/>
          <path id="Path_1383" data-name="Path 1383" d="M-4023.517,1485.064c0,.117-.007.235-.009.353h-3.327c0-.118.005-.235.009-.353h3.327" transform="translate(4026.854 -1465.611)" fill="#666"/>
          <path id="Path_1384" data-name="Path 1384" d="M-4023.274,1481.87c-.014.113-.027.226-.04.339h-3.327c.013-.113.027-.226.04-.339h3.327" transform="translate(4026.824 -1465.152)" fill="#e6e6e6"/>
          <path id="Path_1385" data-name="Path 1385" d="M-4023.32,1482.266c-.013.112-.025.224-.037.337h-3.327c.012-.112.024-.224.037-.337h3.327" transform="translate(4026.83 -1465.209)" fill="#b3b3b3"/>
          <path id="Path_1386" data-name="Path 1386" d="M-4023.362,1482.659c-.011.112-.022.225-.032.338h-3.327c.01-.113.021-.226.032-.338h3.327" transform="translate(4026.836 -1465.266)" fill="#666"/>
          <path id="Path_1387" data-name="Path 1387" d="M-4022.9,1479.569c-.021.107-.043.215-.062.323h-3.327c.02-.108.041-.216.063-.323h3.327" transform="translate(4026.774 -1464.822)" fill="#e6e6e6"/>
          <path id="Path_1388" data-name="Path 1388" d="M-4022.976,1479.946c-.021.108-.04.216-.059.324h-3.327c.019-.109.039-.217.059-.324h3.327" transform="translate(4026.784 -1464.876)" fill="#b3b3b3"/>
          <path id="Path_1389" data-name="Path 1389" d="M-4023.044,1480.325c-.019.11-.038.22-.056.331h-3.327c.018-.111.037-.221.056-.331h3.327" transform="translate(4026.794 -1464.93)" fill="#666"/>
          <path id="Path_1390" data-name="Path 1390" d="M-4022.382,1477.355c-.029.1-.057.208-.085.313h-3.327c.027-.1.055-.209.085-.313h3.327" transform="translate(4026.703 -1464.504)" fill="#e6e6e6"/>
          <path id="Path_1391" data-name="Path 1391" d="M-4022.48,1477.72c-.027.1-.054.207-.079.312h-3.328c.026-.1.052-.208.08-.312h3.327" transform="translate(4026.716 -1464.556)" fill="#b3b3b3"/>
          <path id="Path_1392" data-name="Path 1392" d="M-4022.573,1478.084q-.039.155-.076.313h-3.327c.025-.105.051-.21.076-.313h3.327" transform="translate(4026.729 -1464.609)" fill="#666"/>
          <path id="Path_1393" data-name="Path 1393" d="M-4021.719,1475.249q-.053.146-.1.293h-3.327q.05-.146.1-.293h3.327" transform="translate(4026.61 -1464.202)" fill="#e6e6e6"/>
          <path id="Path_1394" data-name="Path 1394" d="M-4021.839,1475.591c-.034.1-.068.2-.1.3h-3.327c.033-.1.066-.2.1-.3h3.327" transform="translate(4026.627 -1464.251)" fill="#b3b3b3"/>
          <path id="Path_1395" data-name="Path 1395" d="M-4021.956,1475.937c-.033.1-.066.2-.1.3h-3.327c.031-.1.064-.2.1-.3h3.327" transform="translate(4026.643 -1464.3)" fill="#666"/>
          <path id="Path_1396" data-name="Path 1396" d="M-4020.921,1473.254l-.124.28h-3.327c.041-.094.082-.187.123-.28h3.327" transform="translate(4026.498 -1463.915)" fill="#e6e6e6"/>
          <path id="Path_1397" data-name="Path 1397" d="M-4021.064,1473.581q-.06.139-.118.279h-3.327c.038-.093.078-.187.118-.279h3.327" transform="translate(4026.518 -1463.962)" fill="#b3b3b3"/>
          <path id="Path_1398" data-name="Path 1398" d="M-4021.2,1473.907q-.059.14-.116.282h-3.327q.056-.141.116-.282h3.327" transform="translate(4026.537 -1464.009)" fill="#666"/>
          <path id="Path_1399" data-name="Path 1399" d="M-4020,1471.392q-.071.127-.139.257h-3.327q.068-.13.139-.257H-4020" transform="translate(4026.368 -1463.648)" fill="#e6e6e6"/>
          <path id="Path_1400" data-name="Path 1400" d="M-4020.159,1471.692c-.047.087-.093.176-.138.264h-3.327c.046-.088.091-.177.138-.264h3.327" transform="translate(4026.391 -1463.691)" fill="#b3b3b3"/>
          <path id="Path_1401" data-name="Path 1401" d="M-4020.32,1472q-.068.131-.134.264h-3.327q.066-.132.134-.264h3.327" transform="translate(4026.413 -1463.735)" fill="#666"/>
          <path id="Path_1402" data-name="Path 1402" d="M-4018.957,1469.669c-.052.078-.1.157-.155.236h-3.327c.052-.08.1-.158.155-.236h3.327" transform="translate(4026.221 -1463.4)" fill="#e6e6e6"/>
          <path id="Path_1403" data-name="Path 1403" d="M-4019.137,1469.945c-.052.08-.1.159-.153.241h-3.327c.051-.081.1-.161.152-.241h3.327" transform="translate(4026.246 -1463.44)" fill="#b3b3b3"/>
          <path id="Path_1404" data-name="Path 1404" d="M-4019.315,1470.226c-.051.081-.1.162-.15.243h-3.327c.049-.081.1-.163.15-.243h3.327" transform="translate(4026.271 -1463.48)" fill="#666"/>
          <path id="Path_1405" data-name="Path 1405" d="M-4017.8,1468.094q-.086.107-.17.214h-3.327l.17-.214h3.327" transform="translate(4026.057 -1463.174)" fill="#e6e6e6"/>
          <path id="Path_1406" data-name="Path 1406" d="M-4018,1468.344c-.057.074-.114.147-.17.221h-3.327q.083-.11.17-.221H-4018" transform="translate(4026.086 -1463.21)" fill="#b3b3b3"/>
          <path id="Path_1407" data-name="Path 1407" d="M-4018.2,1468.6l-.166.223h-3.327l.166-.223h3.327" transform="translate(4026.114 -1463.247)" fill="#666"/>
          <path id="Path_1408" data-name="Path 1408" d="M-4016.554,1466.687c-.062.063-.123.126-.184.19h-3.327q.091-.1.184-.19h3.327" transform="translate(4025.88 -1462.972)" fill="#e6e6e6"/>
          <path id="Path_1409" data-name="Path 1409" d="M-4016.769,1466.909l-.183.194h-3.327l.183-.194h3.327" transform="translate(4025.91 -1463.004)" fill="#b3b3b3"/>
          <path id="Path_1410" data-name="Path 1410" d="M-4016.981,1467.136c-.06.065-.12.132-.179.2h-3.328c.059-.067.119-.134.179-.2h3.327" transform="translate(4025.941 -1463.036)" fill="#666"/>
          <path id="Path_1411" data-name="Path 1411" d="M-4015.208,1465.452c-.066.055-.132.109-.2.165h-3.327c.065-.056.131-.11.2-.165h3.327" transform="translate(4025.688 -1462.795)" fill="#e6e6e6"/>
          <path id="Path_1412" data-name="Path 1412" d="M-4015.438,1465.645c-.066.056-.132.113-.2.17h-3.327c.065-.057.131-.115.2-.17h3.327" transform="translate(4025.722 -1462.822)" fill="#b3b3b3"/>
          <path id="Path_1413" data-name="Path 1413" d="M-4015.667,1465.844c-.065.057-.129.115-.193.174h-3.327c.063-.059.127-.116.193-.174h3.327" transform="translate(4025.753 -1462.851)" fill="#666"/>
          <path id="Path_1414" data-name="Path 1414" d="M-4013.781,1464.409c-.069.044-.139.09-.208.137h-3.327c.069-.047.139-.092.208-.137h3.327" transform="translate(4025.485 -1462.645)" fill="#e6e6e6"/>
          <path id="Path_1415" data-name="Path 1415" d="M-4014.023,1464.569c-.069.046-.138.093-.207.141h-3.327c.068-.048.137-.1.206-.141h3.327" transform="translate(4025.52 -1462.668)" fill="#b3b3b3"/>
          <path id="Path_1416" data-name="Path 1416" d="M-4014.264,1464.734c-.069.048-.137.1-.2.146h-3.327c.067-.05.136-.1.2-.146h3.327" transform="translate(4025.554 -1462.691)" fill="#666"/>
          <path id="Path_1417" data-name="Path 1417" d="M-4012.274,1463.563l-.219.108h-3.327l.219-.108h3.327" transform="translate(4025.271 -1462.523)" fill="#e6e6e6"/>
          <path id="Path_1418" data-name="Path 1418" d="M-4012.53,1463.689c-.073.037-.146.075-.22.114h-3.327c.074-.039.146-.077.22-.114h3.327" transform="translate(4025.307 -1462.542)" fill="#b3b3b3"/>
          <path id="Path_1419" data-name="Path 1419" d="M-4012.786,1463.822l-.215.118h-3.327l.215-.118h3.327" transform="translate(4025.344 -1462.56)" fill="#666"/>
          <path id="Path_1420" data-name="Path 1420" d="M-4010.7,1462.93c-.076.025-.151.05-.227.077h-3.328l.228-.077h3.327" transform="translate(4025.046 -1462.433)" fill="#e6e6e6"/>
          <path id="Path_1421" data-name="Path 1421" d="M-4010.969,1463.02l-.227.082h-3.327c.075-.029.151-.056.226-.083h3.328" transform="translate(4025.084 -1462.445)" fill="#b3b3b3"/>
          <path id="Path_1422" data-name="Path 1422" d="M-4011.233,1463.116l-.224.088h-3.327l.224-.088h3.327" transform="translate(4025.121 -1462.459)" fill="#666"/>
          <path id="Path_1423" data-name="Path 1423" d="M-4009.07,1462.521c-.079.014-.158.029-.236.045h-3.327c.078-.015.157-.031.236-.045h3.327" transform="translate(4024.813 -1462.374)" fill="#e6e6e6"/>
          <path id="Path_1424" data-name="Path 1424" d="M-4009.346,1462.573c-.08.016-.158.033-.237.051h-3.327c.079-.018.157-.034.237-.051h3.327" transform="translate(4024.852 -1462.381)" fill="#b3b3b3"/>
          <path id="Path_1425" data-name="Path 1425" d="M-4009.622,1462.632c-.078.018-.156.036-.233.056h-3.327c.077-.02.155-.038.233-.056h3.327" transform="translate(4024.891 -1462.39)" fill="#666"/>
          <path id="Path_1426" data-name="Path 1426" d="M-4007.389,1462.349c-.081,0-.162.005-.242.009h-3.327c.081,0,.161-.008.242-.009h3.328" transform="translate(4024.572 -1462.349)" fill="#e6e6e6"/>
          <path id="Path_1427" data-name="Path 1427" d="M-4007.672,1462.36l-.241.016h-3.327l.242-.016h3.327" transform="translate(4024.613 -1462.351)" fill="#b3b3b3"/>
          <path id="Path_1428" data-name="Path 1428" d="M-4007.954,1462.379c-.08.006-.16.014-.24.021h-3.327c.08-.008.159-.016.24-.021h3.327" transform="translate(4024.653 -1462.353)" fill="#666"/>
        </g>
      </g>
    </g>
    <g id="Group_297" data-name="Group 297" transform="translate(3.327)">
      <path id="Path_1429" data-name="Path 1429" d="M-4008.817,1462.343c7.819,0,14.16,9.129,14.16,20.386s-6.341,20.38-14.16,20.38-14.158-9.125-14.158-20.38S-4016.636,1462.343-4008.817,1462.343Z" transform="translate(4022.975 -1462.343)" fill="url(#linear-gradient-2)"/>
      <path id="Path_1430" data-name="Path 1430" d="M-4008.494,1500.1c-6.575,0-11.928-7.706-11.928-17.172s5.353-17.171,11.928-17.171,11.928,7.7,11.928,17.171-5.349,17.172-11.928,17.172m0-34.8c-6.752,0-12.249,7.909-12.249,17.633s5.5,17.633,12.249,17.633,12.249-7.909,12.249-17.633-5.494-17.633-12.249-17.633m8.606,28.211-8.326-22.635s-.089-.692-.477-.662-.463.617-.463.617l-7.385,22.711c-.1.692.492.617.492.617l1.686.01c.6.009.567-.477.567-.477l2.64-7.429,5.136.105c1.36-.03,2.578.315,2.638,2.872s-2.638,2.647-2.638,2.647h-1.047v-3.038c.015-.782-.432-.691-.432-.691h-2.134c-.626-.045-.477.631-.477.631v4.843a.549.549,0,0,0,.627.533l8.952,0A.533.533,0,0,0-3999.888,1493.511Zm-8.542-9.851a1.88,1.88,0,0,1-1.634-2.054,1.879,1.879,0,0,1,1.634-2.053,1.88,1.88,0,0,1,1.635,2.053A1.881,1.881,0,0,1-4008.431,1483.66Z" transform="translate(4022.655 -1462.768)" fill="#ccc" opacity="0.3" style="mix-blend-mode: screen;isolation: isolate"/>
      <path id="Path_1431" data-name="Path 1431" d="M-4008.871,1500.495c-6.576,0-11.929-7.7-11.929-17.171s5.353-17.172,11.929-17.172,11.928,7.7,11.928,17.172-5.35,17.171-11.928,17.171m0-34.8c-6.752,0-12.25,7.91-12.25,17.634s5.5,17.633,12.25,17.633,12.249-7.91,12.249-17.633-5.495-17.634-12.249-17.634m8.649,27.877-8.325-22.635s-.09-.692-.478-.662-.462.617-.462.617l-7.386,22.711c-.1.692.493.617.493.617l1.686.01c.6.009.567-.477.567-.477l2.641-7.429,5.135.105c1.361-.03,2.579.315,2.638,2.872s-2.638,2.647-2.638,2.647h-1.047V1488.9c.015-.782-.433-.691-.433-.691h-2.133c-.627-.045-.478.631-.478.631v4.843a.549.549,0,0,0,.627.533l8.952,0A.533.533,0,0,0-4000.222,1493.567Zm-8.542-9.851a1.881,1.881,0,0,1-1.635-2.054,1.88,1.88,0,0,1,1.635-2.053,1.88,1.88,0,0,1,1.634,2.053A1.881,1.881,0,0,1-4008.763,1483.716Z" transform="translate(4022.709 -1462.824)" fill="#4d4d4d" opacity="0.8" style="mix-blend-mode: color-burn;isolation: isolate"/>
    </g>
  </g>
</svg>
