<svg xmlns="http://www.w3.org/2000/svg" xmlns:xlink="http://www.w3.org/1999/xlink" width="293" height="259" viewBox="0 0 293 259">
  <defs>
    <clipPath id="clip-path">
      <rect id="Rectangle_51" data-name="Rectangle 51" width="293" height="259" transform="translate(180.615 2158.566)" fill="none" stroke="#707070" stroke-width="1"/>
    </clipPath>
    <radialGradient id="radial-gradient" cx="0.5" cy="0.5" r="0.695" gradientTransform="translate(0.211) scale(0.577 1)" gradientUnits="objectBoundingBox">
      <stop offset="0.144" stop-color="#fff"/>
      <stop offset="0.151" stop-color="#fbfbfb" stop-opacity="0.988"/>
      <stop offset="0.355" stop-color="#a3a3a3" stop-opacity="0.643"/>
      <stop offset="0.534" stop-color="#5d5d5d" stop-opacity="0.369"/>
      <stop offset="0.683" stop-color="#2a2a2a" stop-opacity="0.169"/>
      <stop offset="0.794" stop-color="#0b0b0b" stop-opacity="0.047"/>
      <stop offset="0.857" stop-opacity="0"/>
    </radialGradient>
    <radialGradient id="radial-gradient-2" cx="0.5" cy="0.5" r="0.5" gradientTransform="matrix(0.707, 0.707, -0.707, 0.707, 0.5, -0.207)" gradientUnits="objectBoundingBox">
      <stop offset="0" stop-color="#fff"/>
      <stop offset="0.29" stop-color="#a5a5a5" stop-opacity="0.651"/>
      <stop offset="0.544" stop-color="#5e5e5e" stop-opacity="0.373"/>
      <stop offset="0.755" stop-color="#2b2b2b" stop-opacity="0.169"/>
      <stop offset="0.912" stop-color="#0b0b0b" stop-opacity="0.047"/>
      <stop offset="1" stop-opacity="0"/>
    </radialGradient>
    <radialGradient id="radial-gradient-3" cx="0.5" cy="0.5" r="0.5" xlink:href="#radial-gradient-2"/>
    <radialGradient id="radial-gradient-4" cx="0.5" cy="0.5" r="0.911" gradientTransform="matrix(0.481, -0.553, 0.15, 0.392, 9.794, 6.449)" gradientUnits="objectBoundingBox">
      <stop offset="0.149" stop-color="#3b1090"/>
      <stop offset="0.341" stop-color="#3e1492" stop-opacity="0.98"/>
      <stop offset="0.482" stop-color="#4b2499" stop-opacity="0.914"/>
      <stop offset="0.606" stop-color="#613ea5" stop-opacity="0.804"/>
      <stop offset="0.72" stop-color="#7f64b7" stop-opacity="0.647"/>
      <stop offset="0.828" stop-color="#a794cd" stop-opacity="0.447"/>
      <stop offset="0.929" stop-color="#d7cee8" stop-opacity="0.204"/>
      <stop offset="1" stop-color="#fff" stop-opacity="0"/>
    </radialGradient>
    <radialGradient id="radial-gradient-5" cx="0.501" cy="0.499" fx="0.011029423214495182" r="0.965" gradientTransform="matrix(0.408, 0.707, -0.111, 0.192, -44.819, -105.493)" xlink:href="#radial-gradient-2"/>
    <radialGradient id="radial-gradient-6" cx="0.504" cy="0.501" fx="-1.3856024742126465" r="0.495" gradientTransform="matrix(-2.027, 0.884, -1.041, -0.127, -615.137, 53.963)" xlink:href="#radial-gradient-2"/>
    <radialGradient id="radial-gradient-7" cx="0.504" cy="0.501" fx="-1.3855595588684082" r="0.495" gradientTransform="matrix(-2.027, 0.884, -1.041, -0.127, -620.776, 53.809)" xlink:href="#radial-gradient-2"/>
    <radialGradient id="radial-gradient-8" cx="0.501" cy="0.493" fx="0.06541422009468079" r="2.148" gradientTransform="matrix(-0.23, -0.039, 0.002, -0.271, 54.328, 1523.952)" xlink:href="#radial-gradient-2"/>
    <radialGradient id="radial-gradient-9" cx="0.501" cy="0.493" fx="0.06540819257497787" r="2.148" gradientTransform="matrix(-0.23, -0.039, 0.002, -0.271, 53.28, 1514.806)" xlink:href="#radial-gradient-2"/>
    <radialGradient id="radial-gradient-10" cx="0.501" cy="0.493" fx="0.06540316343307495" r="2.148" gradientTransform="matrix(-0.23, -0.039, 0.002, -0.271, 52.503, 1505.854)" xlink:href="#radial-gradient-2"/>
    <linearGradient id="linear-gradient" x1="1.46" y1="-0.118" x2="0.101" y2="0.757" gradientUnits="objectBoundingBox">
      <stop offset="0" stop-color="#5730a7"/>
      <stop offset="1" stop-color="#220273"/>
    </linearGradient>
    <linearGradient id="linear-gradient-2" x1="1.671" y1="0.879" x2="0.414" y2="0.472" xlink:href="#linear-gradient"/>
    <linearGradient id="linear-gradient-3" x1="1.496" y1="1.726" x2="0.596" y2="0.618" xlink:href="#linear-gradient"/>
    <linearGradient id="linear-gradient-4" x1="0.159" y1="0.142" x2="0.85" y2="0.867" gradientUnits="objectBoundingBox">
      <stop offset="0" stop-color="#8060c1"/>
      <stop offset="1" stop-color="#d680ff"/>
    </linearGradient>
    <linearGradient id="linear-gradient-5" x1="0.158" y1="0.136" x2="0.85" y2="0.872" gradientUnits="objectBoundingBox">
      <stop offset="0" stop-color="#6c42c2"/>
      <stop offset="1" stop-color="#33098e"/>
    </linearGradient>
    <linearGradient id="linear-gradient-6" x1="0.158" y1="0.209" x2="0.823" y2="1.301" xlink:href="#linear-gradient"/>
    <radialGradient id="radial-gradient-11" cx="0.502" cy="0.5" r="0.5" gradientTransform="matrix(0, 1, -1, 0, -15.581, -23.728)" xlink:href="#radial-gradient-2"/>
    <radialGradient id="radial-gradient-12" cx="0.502" cy="0.5" r="0.5" gradientTransform="matrix(0, 1, -1, 0, -10.498, -25.454)" xlink:href="#radial-gradient-2"/>
    <linearGradient id="linear-gradient-7" x1="0.156" y1="0.097" x2="0.853" y2="0.913" gradientUnits="objectBoundingBox">
      <stop offset="0" stop-color="#8671d5"/>
      <stop offset="1" stop-color="#442ba2"/>
    </linearGradient>
    <filter id="Path_1445" x="82.069" y="95.043" width="128.29" height="73.515" filterUnits="userSpaceOnUse">
      <feOffset dx="-1" dy="7" input="SourceAlpha"/>
      <feGaussianBlur stdDeviation="1" result="blur"/>
      <feFlood flood-color="#807989" flood-opacity="0.749"/>
      <feComposite operator="in" in2="blur"/>
      <feComposite in="SourceGraphic"/>
    </filter>
    <linearGradient id="linear-gradient-8" x1="0.5" y1="-0.555" x2="0.5" y2="0.783" gradientUnits="objectBoundingBox">
      <stop offset="0" stop-color="#ec65da"/>
      <stop offset="1" stop-color="#fff" stop-opacity="0"/>
    </linearGradient>
    <linearGradient id="linear-gradient-9" x1="0.601" y1="0.796" x2="0.43" y2="0.358" gradientUnits="objectBoundingBox">
      <stop offset="0" stop-color="#cdacff"/>
      <stop offset="0.092" stop-color="#ad8ae7"/>
      <stop offset="0.217" stop-color="#8863cb"/>
      <stop offset="0.332" stop-color="#6d47b7"/>
      <stop offset="0.432" stop-color="#5c36ab"/>
      <stop offset="0.507" stop-color="#5730a7"/>
      <stop offset="0.516" stop-color="#552ea5"/>
      <stop offset="0.708" stop-color="#391689"/>
      <stop offset="0.876" stop-color="#280778"/>
      <stop offset="1" stop-color="#220273"/>
    </linearGradient>
    <linearGradient id="linear-gradient-90" x1="0.378" y1="0.291" x2="0.626" y2="0.763" gradientUnits="objectBoundingBox">
      <stop offset="0" stop-color="#fff"/>
      <stop offset="0.519" stop-color="#f2ebff"/>
      <stop offset="0.999" stop-color="#e4d5ff"/>
    </linearGradient>
    <linearGradient id="linear-gradient-91" x1="0.5" y1="1.001" x2="0.5" y2="-0.018" gradientUnits="objectBoundingBox">
      <stop offset="0" stop-color="#fff"/>
      <stop offset="0.075" stop-color="#fff" stop-opacity="0.82"/>
      <stop offset="0.166" stop-color="#fff" stop-opacity="0.627"/>
      <stop offset="0.262" stop-color="#fff" stop-opacity="0.459"/>
      <stop offset="0.362" stop-color="#fff" stop-opacity="0.318"/>
      <stop offset="0.465" stop-color="#fff" stop-opacity="0.204"/>
      <stop offset="0.575" stop-color="#fff" stop-opacity="0.114"/>
      <stop offset="0.692" stop-color="#fff" stop-opacity="0.051"/>
      <stop offset="0.824" stop-color="#fff" stop-opacity="0.012"/>
      <stop offset="1" stop-color="#fff" stop-opacity="0"/>
    </linearGradient>
    <radialGradient id="radial-gradient-13" cx="0.5" cy="0.5" r="1.191" gradientTransform="matrix(0.306, -0.662, 0.132, 0.366, 62.558, 3.728)" gradientUnits="objectBoundingBox">
      <stop offset="0" stop-color="#8872da"/>
      <stop offset="0.149" stop-color="#8974da" stop-opacity="0.984"/>
      <stop offset="0.271" stop-color="#8f7adc" stop-opacity="0.937"/>
      <stop offset="0.385" stop-color="#9885df" stop-opacity="0.859"/>
      <stop offset="0.493" stop-color="#a695e3" stop-opacity="0.749"/>
      <stop offset="0.597" stop-color="#b7a9e8" stop-opacity="0.604"/>
      <stop offset="0.698" stop-color="#ccc2ef" stop-opacity="0.427"/>
      <stop offset="0.795" stop-color="#e4dff6" stop-opacity="0.224"/>
      <stop offset="0.884" stop-color="#fff" stop-opacity="0"/>
    </radialGradient>
    <linearGradient id="linear-gradient-92" x1="0.441" y1="0.15" x2="0.89" y2="0.892" xlink:href="#linear-gradient-7"/>
    <linearGradient id="linear-gradient-93" x1="0.169" y1="1.027" x2="0.527" y2="0.185" xlink:href="#linear-gradient-4"/>
    <radialGradient id="radial-gradient-14" cx="0.496" cy="0.5" r="0.5" gradientTransform="translate(55.705 134.083) rotate(90)" gradientUnits="objectBoundingBox">
      <stop offset="0" stop-color="#fff"/>
      <stop offset="0.016" stop-color="#f6f6f6" stop-opacity="0.969"/>
      <stop offset="0.133" stop-color="#bdbdbd" stop-opacity="0.745"/>
      <stop offset="0.252" stop-color="#8a8a8a" stop-opacity="0.545"/>
      <stop offset="0.373" stop-color="#606060" stop-opacity="0.376"/>
      <stop offset="0.494" stop-color="#3d3d3d" stop-opacity="0.239"/>
      <stop offset="0.617" stop-color="#222" stop-opacity="0.133"/>
      <stop offset="0.74" stop-color="#0f0f0f" stop-opacity="0.059"/>
      <stop offset="0.867" stop-color="#030303" stop-opacity="0.016"/>
      <stop offset="1" stop-opacity="0"/>
    </radialGradient>
    <radialGradient id="radial-gradient-15" cx="0.499" cy="0.5" r="0.5" gradientTransform="translate(14.652 230.24) rotate(90)" gradientUnits="objectBoundingBox">
      <stop offset="0" stop-color="#ec65da"/>
      <stop offset="0.026" stop-color="#e461d3" stop-opacity="0.969"/>
      <stop offset="0.39" stop-color="#843879" stop-opacity="0.561"/>
      <stop offset="0.684" stop-color="#3c1a38" stop-opacity="0.259"/>
      <stop offset="0.894" stop-color="#10070f" stop-opacity="0.071"/>
      <stop offset="1" stop-opacity="0"/>
    </radialGradient>
    <radialGradient id="radial-gradient-16" cx="0.496" cy="0.5" r="0.5" gradientTransform="translate(58.159 130.982) rotate(90)" xlink:href="#radial-gradient-14"/>
    <radialGradient id="radial-gradient-17" cx="0.499" cy="0.5" r="0.5" gradientTransform="translate(16.078 227.043) rotate(90)" xlink:href="#radial-gradient-15"/>
    <radialGradient id="radial-gradient-18" cx="0.499" cy="0.5" r="0.569" gradientTransform="matrix(-0.874, 0.879, -0.096, -0.029, 24.465, 201.284)" xlink:href="#radial-gradient-14"/>
    <radialGradient id="radial-gradient-19" cx="0.5" cy="0.497" r="0.927" gradientTransform="matrix(-0.539, 0, 0, -0.539, -49.616, 537.499)" xlink:href="#radial-gradient-15"/>
    <radialGradient id="radial-gradient-20" cx="0.5" cy="0.5" r="0.564" gradientTransform="matrix(0.88, 0.886, -0.101, 0.028, -0.475, 7.114)" xlink:href="#radial-gradient-14"/>
    <radialGradient id="radial-gradient-21" cx="0.5" cy="0.5" r="0.5" gradientTransform="matrix(0, 1, -1, 0, -71.464, 160.618)" xlink:href="#radial-gradient-15"/>
    <radialGradient id="radial-gradient-22" cx="0.499" cy="0.5" r="0.564" gradientTransform="matrix(-0.88, 0.886, 0.101, 0.028, 18.699, -139.276)" xlink:href="#radial-gradient-14"/>
    <radialGradient id="radial-gradient-23" cx="0.5" cy="0.497" r="0.927" gradientTransform="matrix(-0.539, 0, 0, 0.539, -50.771, -52.385)" xlink:href="#radial-gradient-15"/>
    <radialGradient id="radial-gradient-24" cx="0.5" cy="0.5" r="0.569" gradientTransform="matrix(0.874, 0.879, 0.096, -0.029, -6.085, 61.987)" xlink:href="#radial-gradient-14"/>
    <radialGradient id="radial-gradient-25" cx="0.501" cy="0.5" r="0.5" gradientTransform="matrix(0, 1, 1, 0, -202.21, 202.172)" xlink:href="#radial-gradient-15"/>
  </defs>
  <g id="Icon_NFT" data-name="Icon NFT" transform="translate(-180.615 -2158.566)" clip-path="url(#clip-path)">
    <g id="Group_323" data-name="Group 323" transform="translate(57.372 2132.116)">
      <path id="Path_1437" data-name="Path 1437" d="M-1557.078-4805.843l-30.533-17.628-.479.277,30.533,17.627Zm-2.374,1.37-30.533-17.628-.479.276,30.533,17.628Zm-4.746,2.74-30.533-17.628-.479.277,30.533,17.627Zm-9.493,5.48-30.533-17.627-.479.276,30.533,17.628Zm4.746-2.74-30.533-17.628-.479.276,30.533,17.628Zm2.373-1.371-30.533-17.627-.479.275,30.533,17.628Zm4.746-2.74-30.533-17.628-.479.276,30.533,17.627Zm7.12-4.11-30.533-17.628-.479.277,30.533,17.627Zm7.119-4.11-30.533-17.628-.479.276,30.533,17.628Zm-23.732,13.7-30.533-17.628-.479.276,30.533,17.628Zm21.359-12.331-30.533-17.628-.479.276,30.533,17.628Zm-2.374,1.37-30.533-17.628-.479.276,30.533,17.628Zm163.407-94.343-30.533-17.627-.479.276,30.533,17.628Zm-11.866,6.851-30.533-17.628-.479.276,30.534,17.627Zm2.373-1.37-30.533-17.628-.479.276,30.533,17.628Zm16.612-9.591-30.533-17.628-.479.277,30.533,17.627Zm2.374-1.371-30.533-17.628-.479.277,30.533,17.627Zm-4.746,2.74-30.533-17.627-.479.277,30.533,17.627Zm7.12-4.109-30.533-17.629-.479.277,30.533,17.628Zm2.373-1.371-30.533-17.627-.479.276,30.533,17.628Zm-21.359,12.332-30.533-17.628-.479.276,30.533,17.628Zm4.747-2.74-30.533-17.628-.479.277,30.533,17.627Zm-2.373,1.37-30.533-17.628-.479.277,30.533,17.627Zm7.12-4.111-30.533-17.628-.479.277,30.533,17.627Zm-14.228,200.207,30.533,17.629.479-.278-30.533-17.628Zm-2.374,1.37,30.534,17.628.479-.276L-1402.674-4703Zm-2.373,1.37,30.533,17.628.479-.277-30.533-17.628Zm7.12-4.11,30.533,17.628.479-.276-30.533-17.629Zm-9.493,5.48,30.533,17.628.479-.276-30.533-17.628Zm23.732-13.7,30.533,17.628.479-.276-30.533-17.628Zm-2.373,1.37,30.533,17.628.479-.276-30.533-17.628Zm-2.374,1.371,30.533,17.628.479-.276-30.533-17.629Zm7.12-4.11,30.533,17.628.479-.277-30.533-17.628Zm-14.239,8.221,30.534,17.628.479-.276-30.533-17.628Zm4.747-2.741,30.533,17.629.479-.276-30.533-17.629Zm-2.373,1.37,30.533,17.629.479-.276-30.533-17.628Zm177.646-102.563,30.533,17.628.479-.277-30.533-17.627Zm2.373-1.37,30.533,17.628.479-.276-30.533-17.629Zm4.746-2.74,30.533,17.628.479-.277-30.533-17.628Zm-2.373,1.37,30.533,17.629.479-.277-30.533-17.629Zm-7.12,4.11,30.533,17.629.479-.276-30.533-17.629Zm-14.239,8.222,30.533,17.628.479-.277-30.533-17.628Zm11.866-6.852,30.533,17.628.479-.275-30.533-17.629Zm-9.493,5.481,30.533,17.628.479-.277-30.533-17.628Zm-4.746,2.74,30.533,17.629.479-.277-30.534-17.628Zm7.12-4.11,30.533,17.628.479-.276-30.533-17.629Zm4.747-2.741,30.533,17.629.479-.276-30.533-17.629Zm-2.374,1.371,30.534,17.629.479-.277-30.533-17.628Zm-279.775,92.184,41.99-24.243h-16.8l-23.676,13.67a2.01,2.01,0,0,0-1.525.117.548.548,0,0,0,0,1.039,1.987,1.987,0,0,0,1.8,0c.413-.239.478-.6.2-.88l23.478-13.556h14.888l-40.833,23.575Zm13.274,1.921a.549.549,0,0,0,0,1.04,1.993,1.993,0,0,0,1.8,0c.413-.239.478-.6.2-.88l21.189-12.234-.479-.276-21.189,12.234A2.01,2.01,0,0,0-1492.008-4711.179Zm-40.023-60.745,56.176-32.434-.479-.277-56.176,32.433Zm-1.534-13.121v-10.236h-.678v10.4l4.608,2.661,28.717-16.58-82.886-47.854-.479.276,82.407,47.578-27.759,16.026Zm-1.98,6.234,2.845-1.643-4.615-2.664v-10.928l-9.808,5.662,4.971,2.871.479-.276-4.492-2.594,8.173-4.717v10.146l4.335,2.5-1.887,1.09-13.225-7.636-.479.276Zm36.864,68.482c.414-.239.478-.6.2-.88l28.91-16.691-.479-.276-28.91,16.69a2.014,2.014,0,0,0-1.524.117.549.549,0,0,0,0,1.04A1.987,1.987,0,0,0-1498.681-4710.328Zm20.252,12.731.479.277,27.126-15.661v-5.948l8.541,4.931-32.277,18.635.479.276,32.756-18.912-10.177-5.875v6.73Zm-65.916-107.858-18.675,10.782,11.354,6.555,18.675-10.782Zm10.4,6.555-17.717,10.229-10.4-6,17.717-10.229Zm97.748,103.822-.479-.276-12.585,7.266.479.277Zm-28.768.548,28.714-16.577,25.817,14.905h-13.076l-13.346-7.706-26.249,15.155.479.276,25.77-14.878,13.066,7.544h14.992l-27.452-15.85-29.193,16.854Zm45.51-3.629-16.375-9.455-25.9,14.953.479.276,25.42-14.676,15.9,9.178Zm-12.665,8.228-16.513,9.535.479.277,16.513-9.534Zm-2,14.287,27.852-16.081h-9.862l-22.921,13.234.479.276,22.722-13.119h7.947l-26.7,15.412Zm-77.063-122.963-17.166,9.911v-11.871l-15.972-9.222-26.9,15.534,35.292,20.375,44.231-25.536-92.39-53.343-.479.277,91.911,53.065-43.274,24.982-34.334-19.822,25.945-14.98,15.295,8.831v12.653l18.8-10.855-84.07-48.538-71.578,41.326.479.277,71.1-41.05Zm109.275,106.776-33.266,19.206.479.277,32.787-18.93,26.474,15.286,35.013-20.215-61.721-35.634-.479.276,61.242,35.358-34.056,19.662Zm-23.228,2.864-8.1-4.676-14.86,8.58-6-3.465,18.1-10.448,8.928,5.155h20.9v-.391h-20.616l-9.209-5.316-19.054,11,6.959,4.018,14.86-8.579,7.14,4.123-18.729,10.772.478.277Zm-84.583-26.7.479.276,33.026-19.067-.479-.277Zm164.769-173.186-13.7-7.911-.479.276,13.225,7.635-1.886,1.089-4.335-2.5H-1369.7l8.172-4.719,4.492,2.593.479-.276-4.971-2.869-9.808,5.663h18.928l4.615,2.665Zm-27.475-15.862-18.674,10.782,11.353,6.555,18.675-10.782Zm10.4,6.555-17.717,10.229-10.4-6,17.717-10.229Zm-25.388-63.726-68.04,39.284,9.919,5.727,68.041-39.283Zm8.961,5.728-67.082,38.73-8.96-5.173,67.082-38.73Zm22.988,68.059h-18.007v.391h17.727l3.931,2.27-27.758,16.026-82.407-47.578-.479.277,82.886,47.854,28.716-16.58Zm-16.235-21.354-26.9,15.533,15.972,9.221h20.562l-17.167,9.911-83.112-47.983,71.1-41.05-.479-.277-71.579,41.328,84.07,48.536,18.8-10.854h-21.917l-15.3-8.83,25.946-14.979,34.334,19.822-43.274,24.984-91.911-53.065-.479.276,92.39,53.342,44.231-25.537Zm-16.44-48.363-60.266,34.795,3.6,2.077,60.266-34.795Zm2.639,2.077-59.308,34.242-2.638-1.523,59.308-34.243Zm76.845,125.308c.414-.239.478-.6.2-.88l26.185-15.119v-14.524l-43.243,24.967.479.277,42.087-24.3v13.418l-25.987,15a2.011,2.011,0,0,0-1.525.116.549.549,0,0,0,0,1.041A1.993,1.993,0,0,0-1308.664-4830.428Zm20.2-18.648a.549.549,0,0,0,0-1.04,1.991,1.991,0,0,0-1.8,0c-.413.239-.478.6-.2.881l-36.742,21.212a2.012,2.012,0,0,0-1.525.117.549.549,0,0,0,0,1.04,1.993,1.993,0,0,0,1.8,0c.414-.239.478-.6.2-.881l36.741-21.212A2.021,2.021,0,0,0-1288.463-4849.076Zm-37.681-46.255,26.757-15.447-.479-.277-26.955,15.563v10.012l-63.81,36.842-57.926-33.444v-12.212l-31.8-18.358-.479.276,31.6,18.244v12.213l58.6,33.834,64.488-37.232Zm-63.06,40.945,56.177-32.434-.479-.276-56.176,32.434Zm-8.614-4.217.479-.277-41.9-24.193v-8.312l49.1,28.348.479-.276-50.259-29.017v9.418Zm49.358-76.881-27.852,16.081h9.862l22.921-13.234-.479-.276-22.722,13.119h-7.946l26.7-15.412Zm28.507,12.831-25.77,14.878-13.066-7.543h-14.992l27.452,15.85,29.193-16.855-.479-.276-28.714,16.578-25.817-14.906h13.076l13.347,7.706,26.249-15.155Zm-60.719,3.356,33.266-19.207-.479-.276-32.787,18.93-26.474-15.286-35.014,20.214,61.721,35.637.479-.277-61.242-35.359,34.056-19.661Zm95.473,55.022a1.99,1.99,0,0,0-1.8,0c-.414.239-.478.6-.2.88l-52.4,30.253.479.277,52.4-30.253a2.01,2.01,0,0,0,1.525-.118A.548.548,0,0,0-1285.2-4864.274Zm-77.927-48.693,16.376,9.454,25.9-14.954-.479-.276-25.42,14.677-15.9-9.178Zm55.1-2.8-.479-.276-32.756,18.912,10.176,5.876v-6.732l26.928-15.545-.479-.277-27.125,15.661v5.949l-8.542-4.931Zm-38.359-.284.479.276,12.585-7.267-.479-.276Zm-31.12-30.39-13.383,7.726,10.992,6.346,13.382-7.726Zm10.034,6.346-12.425,7.173-10.034-5.793,12.425-7.173Zm10.024,17.933,8.1,4.676,14.86-8.58,6,3.464-18.1,10.448-8.928-5.154h-20.9v.39h20.615l9.208,5.317,19.054-11-6.958-4.018-14.86,8.58-7.139-4.122,18.729-10.772-.478-.277Zm-19.348-28.3-21.052,12.155,17.241,9.954,21.052-12.155Zm16.284,9.954-20.095,11.6-16.284-9.4,20.095-11.6Zm10.049,19.305,16.513-9.534-.479-.276-16.513,9.533Zm-25.485-34.058-30.212,17.443,24.7,14.263,30.212-17.442Zm23.746,14.263-29.255,16.889-23.746-13.709,29.254-16.89Zm60.743,74.146c-.414.238-.478.6-.2.88l-52.4,30.254.479.276,52.4-30.252a2.015,2.015,0,0,0,1.525-.118.549.549,0,0,0,0-1.04A1.987,1.987,0,0,0-1291.455-4866.847Zm-163.9,39.981a1.994,1.994,0,0,0,1.8,0,.549.549,0,0,0,0-1.04,2.018,2.018,0,0,0-1.525-.117l-36.741-21.211c.275-.282.21-.642-.2-.881a1.987,1.987,0,0,0-1.8,0,.549.549,0,0,0,0,1.04,2.013,2.013,0,0,0,1.525.117l36.741,21.213C-1455.83-4827.465-1455.766-4827.1-1455.353-4826.865Zm12.671-6.276-52.4-30.253c.275-.28.211-.642-.2-.88a1.99,1.99,0,0,0-1.8,0,.549.549,0,0,0,0,1.04,2.02,2.02,0,0,0,1.525.118l52.4,30.252Zm147.268,90.315-43.243-24.967-.479.276,42.087,24.3h-23.239l-25.987-15c.274-.281.21-.642-.2-.881a1.994,1.994,0,0,0-1.8,0,.549.549,0,0,0,0,1.04,2.014,2.014,0,0,0,1.525.117l26.186,15.119Zm-227.768-136.792c.275-.282.211-.643-.2-.882a1.994,1.994,0,0,0-1.8,0,.549.549,0,0,0,0,1.041,2.013,2.013,0,0,0,1.525.117l20.56,11.871v4.737l-18.28-10.554-.479.276,19.436,11.222v-5.843Zm183.578,101.4,52.4,30.253c-.275.28-.211.641.2.88a1.984,1.984,0,0,0,1.8,0,.548.548,0,0,0,0-1.039,2.011,2.011,0,0,0-1.525-.117l-52.4-30.253Zm-193.581-92.487c.275-.281.211-.643-.2-.881a1.988,1.988,0,0,0-1.8,0,.548.548,0,0,0,0,1.039,2.007,2.007,0,0,0,1.525.118l23.478,13.555v8.6l-40.833-23.575-.479.276,41.99,24.242v-9.7Zm13.979-11.208,20.758,11.985h10.12l-19.436-11.222-.479.276,18.28,10.554h-8.2l-20.559-11.87c.275-.28.21-.642-.2-.881a1.994,1.994,0,0,0-1.8,0,.55.55,0,0,0,0,1.041A2.013,2.013,0,0,0-1519.206-4881.914Zm-35.894,19.156,21.189,12.233.479-.276-21.189-12.234c.275-.28.21-.642-.2-.88a1.982,1.982,0,0,0-1.8,0,.548.548,0,0,0,0,1.039A2.011,2.011,0,0,0-1555.1-4862.758Zm8.042-11.384-.479.276,33.027,19.068.479-.276Zm47.048,13.192v14.524l26.185,15.118c-.275.28-.21.641.2.881a2,2,0,0,0,1.8,0,.549.549,0,0,0,0-1.04,2.013,2.013,0,0,0-1.525-.117l-25.987-15v-13.417l42.086,24.3.479-.277Zm147.361,91.3a1.99,1.99,0,0,0-1.8,0,.548.548,0,0,0,0,1.039,2.008,2.008,0,0,0,1.525.117l36.741,21.213c-.275.28-.211.642.2.88a1.987,1.987,0,0,0,1.8,0,.548.548,0,0,0,0-1.039,2.017,2.017,0,0,0-1.525-.119l-36.742-21.212C-1352.171-4769.048-1352.234-4769.41-1352.649-4769.648Zm-76.988-72.064a1.984,1.984,0,0,0,1.8,0,.548.548,0,0,0,0-1.039,2.017,2.017,0,0,0-1.525-.119l-36.742-21.212c.275-.28.21-.642-.2-.88a1.987,1.987,0,0,0-1.8,0,.549.549,0,0,0,0,1.04,2.017,2.017,0,0,0,1.525.117l36.741,21.212C-1430.115-4842.312-1430.05-4841.951-1429.636-4841.713Zm-66.205-62-.479.276,27.026,15.6.479-.277Zm.959,6.188,24.836,14.34.479-.277-24.836-14.34c.275-.28.211-.641-.2-.88a1.993,1.993,0,0,0-1.8,0,.549.549,0,0,0,0,1.04A2.013,2.013,0,0,0-1494.883-4897.524Zm140.434,54.773a.548.548,0,0,0,0,1.039,1.988,1.988,0,0,0,1.8,0c.414-.238.478-.6.2-.88l36.742-21.212a2.018,2.018,0,0,0,1.525-.118.548.548,0,0,0,0-1.039,1.985,1.985,0,0,0-1.8,0c-.413.239-.478.6-.2.88l-36.742,21.212A2.018,2.018,0,0,0-1354.449-4842.751Zm7.695-10.665a2.013,2.013,0,0,0-1.525.116.55.55,0,0,0,0,1.041,1.994,1.994,0,0,0,1.8,0c.413-.239.478-.6.2-.881l25.987-15h23.239l-42.087,24.3.479.276,43.243-24.966h-25.155Zm-162.489-42.558-.479.276,33.026,19.068.479-.277Zm5.47,8.286,23.677,13.669h16.8l-41.99-24.243-.479.276,40.833,23.576h-14.888l-23.478-13.555c.275-.281.21-.642-.2-.881a1.991,1.991,0,0,0-1.8,0,.548.548,0,0,0,0,1.039A2.015,2.015,0,0,0-1503.773-4887.688Zm176.84,103.193a1.988,1.988,0,0,0-1.8,0,.549.549,0,0,0,0,1.04,2.014,2.014,0,0,0,1.526.118l36.741,21.212c-.275.281-.211.642.2.881a1.988,1.988,0,0,0,1.8,0,.549.549,0,0,0,0-1.04,2.013,2.013,0,0,0-1.525-.117l-36.741-21.213C-1326.455-4783.9-1326.519-4784.256-1326.933-4784.5Zm-213.006-48.751h14.4l41.9,24.191.479-.276-42.1-24.307h-16.314l50.258,29.017.479-.276Zm257.663,82.835v-14.523l-26.186-15.119c.275-.281.211-.642-.2-.88a1.991,1.991,0,0,0-1.8,0,.548.548,0,0,0,0,1.039,2.011,2.011,0,0,0,1.525.118l25.987,15v13.418l-42.087-24.3-.479.276Zm-137.553-97.961c-.275.28-.211.642.2.88a1.988,1.988,0,0,0,1.8,0,.549.549,0,0,0,0-1.04,2.015,2.015,0,0,0-1.525-.118l-38.993-22.514h-24.111l-34.883-20.139-.479.278,35.081,20.254h24.111Zm-67.043-20.162,43.243,24.965.479-.276-42.086-24.3H-1462l25.987,15c-.275.281-.21.642.2.881a1.994,1.994,0,0,0,1.8,0,.549.549,0,0,0,0-1.041,2.014,2.014,0,0,0-1.526-.116l-26.185-15.118Zm299.015,95.95,60.266-34.8-3.6-2.076-60.266,34.794Zm-2.639-2.077,59.308-34.241,2.639,1.523-59.308,34.242Zm-40.438-65.273,27.125-15.661-.479-.276-26.927,15.546h-11.657l10.176,5.876,32.756-18.913-.479-.277L-1232.695-4835l-8.541-4.931Zm-72.6,52.333c.275-.28.211-.642-.2-.881a1.99,1.99,0,0,0-1.8,0,.549.549,0,0,0,0,1.04,2.016,2.016,0,0,0,1.524.118l42.458,24.513h17.6l26.527,15.316.479-.276-26.725-15.43h-17.6Zm-13.151-18.344,63.81-36.841h17.343l26.955-15.562-.479-.277-26.757,15.448h-17.342l-64.487,37.231,58.6,33.835h21.152l31.6,18.244.479-.276-31.8-18.359h-21.152Zm66.609-32.981-.479-.277-56.177,32.434.479.276Zm48.882,23.253v-8.656l-13.066-7.544,25.77-14.878-.479-.277-26.249,15.155,13.347,7.706v7.55l-25.817-14.906,28.714-16.578-.479-.277-29.193,16.855Zm-62.411,3.843,61.721,35.635,35.014-20.214-26.474-15.286,32.787-18.928-.479-.277L-1194.3-4811.7l26.474,15.286-34.056,19.662-61.242-35.359Zm73.074-17.032,16.513-9.534-.479-.276-16.513,9.533Zm-82.513,113.475.479-.276-33.026-19.068-.479.277Zm102.356-121.086-18.657,10.814-7.14-4.122,14.86-8.58-6.959-4.017-19.054,11,9.209,5.318v11.9h.677v-12.065l-8.928-5.154,18.1-10.447,6,3.464-14.86,8.58,8.1,4.676,19.136-11.091Zm-34.1,14.371-15.9-9.178,25.421-14.676-.479-.276-25.9,14.953,16.375,9.456Zm34.067-10.762-.479-.275-22.921,13.234v5.693l27.852-16.08-.479-.276-26.7,15.413v-4.588Zm-294.677-57.8v10.161l42.458,24.513c-.275.28-.211.642.2.881a2,2,0,0,0,1.8,0,.55.55,0,0,0,0-1.041,2.019,2.019,0,0,0-1.525-.117l-42.26-24.4v-10.161l-26.726-15.43-.479.276Zm202.314,161.211-20.758-11.984h-10.12l19.436,11.221.479-.277-18.28-10.554h8.2l20.56,11.871c-.275.28-.21.642.2.88a1.988,1.988,0,0,0,1.8,0,.548.548,0,0,0,0-1.039A2.02,2.02,0,0,0-1263.079-4729.448Zm-228.026-136.24,52.4,30.251.479-.276-52.4-30.253c.275-.281.211-.642-.2-.88a1.991,1.991,0,0,0-1.8,0,.548.548,0,0,0,0,1.039A2.02,2.02,0,0,0-1491.105-4865.688Zm199.925,120.017-52.4-30.253-.479.276,52.4,30.253c-.275.281-.21.642.2.881a1.991,1.991,0,0,0,1.8,0,.549.549,0,0,0,0-1.04A2.016,2.016,0,0,0-1291.18-4745.671Zm12.667,22-23.676-13.67h-16.8L-1277-4713.1l.479-.276-40.833-23.576h14.888l23.478,13.556c-.275.28-.21.641.2.879a1.985,1.985,0,0,0,1.8,0,.548.548,0,0,0,0-1.039A2.014,2.014,0,0,0-1278.513-4723.672Zm-83.943-39.316c.275-.28.21-.641-.2-.88a1.994,1.994,0,0,0-1.8,0,.549.549,0,0,0,0,1.04,2.015,2.015,0,0,0,1.525.117l38.993,22.513h24.112l34.882,20.139.479-.276-35.081-20.253h-24.112Zm103.353,31.246c-.275.28-.21.642.2.88a1.988,1.988,0,0,0,1.8,0,.549.549,0,0,0,0-1.04,2.021,2.021,0,0,0-1.525-.118l-20.56-11.869v-4.737l18.279,10.553.479-.276-19.436-11.221v5.843Zm31.591-11.968-28.91-16.691-.479.277,28.91,16.691c-.275.28-.211.641.2.88a2,2,0,0,0,1.8,0,.549.549,0,0,0,0-1.041A2.017,2.017,0,0,0-1227.512-4743.711Zm-91.211-46.564a.549.549,0,0,0,0,1.04,2.018,2.018,0,0,0,1.525.117l38.8,22.4v13.921l35.08,20.253.479-.277-34.882-20.139v-13.92l-38.993-22.513c.275-.281.211-.642-.2-.88A1.987,1.987,0,0,0-1318.723-4790.275Zm69.622,49.622c-.275.28-.211.641.2.88a1.99,1.99,0,0,0,1.8,0,.549.549,0,0,0,0-1.04,2.022,2.022,0,0,0-1.525-.117l-23.478-13.554v-8.6l40.834,23.576.479-.277-41.99-24.243v9.7Zm21.915-7.95-21.189-12.233-.479.277,21.189,12.233c-.275.28-.211.641.2.881a2,2,0,0,0,1.8,0,.549.549,0,0,0,0-1.04A2.018,2.018,0,0,0-1227.185-4748.6Zm-8.043,11.384.479-.276-33.026-19.068-.479.276Zm34.824-94.549.479.277,12.585-7.266-.479-.277Zm-74.116-49.383-19.436,11.222h10.12l20.759-11.985a2.013,2.013,0,0,0,1.525-.117.549.549,0,0,0,0-1.04,1.99,1.99,0,0,0-1.8,0c-.414.24-.478.6-.2.88l-20.56,11.87h-8.2l18.28-10.553Zm31.874,103.272h-14.4l-41.9-24.191-.479.276,42.1,24.307h16.314l-50.258-29.016-.479.276Zm-25.129-76.919,33.026-19.068-.479-.276-33.026,19.068Zm-10.627,10.157-38.8,22.4a2.013,2.013,0,0,0-1.525.117.549.549,0,0,0,0,1.04,1.988,1.988,0,0,0,1.8,0c.413-.239.478-.6.2-.881l38.994-22.513V-4858.4l34.883-20.139-.479-.276-35.081,20.254Zm-45.539-26.521-38.994,22.514a2.012,2.012,0,0,0-1.526.118.549.549,0,0,0,0,1.04,1.988,1.988,0,0,0,1.8,0c.413-.238.478-.6.2-.88l38.8-22.4h24.111l35.08-20.253-.479-.278-34.882,20.139Zm33.664-29.02a.548.548,0,0,0,0-1.039,1.984,1.984,0,0,0-1.8,0c-.414.239-.478.6-.2.88l-21.189,12.233.479.277,21.189-12.233A2.019,2.019,0,0,0-1290.276-4900.183Zm-27.292,9.36v10.161l-42.26,24.4a2.02,2.02,0,0,0-1.525.117.55.55,0,0,0,0,1.041,2,2,0,0,0,1.8,0c.414-.24.478-.6.2-.881l42.458-24.513v-10.162l26.527-15.315-.479-.277Zm45.469,33.946,23.478-13.555a2.015,2.015,0,0,0,1.525-.118.549.549,0,0,0,0-1.04,1.987,1.987,0,0,0-1.8,0c-.414.239-.478.6-.2.881l-23.677,13.669v9.7l41.99-24.243-.479-.276-40.834,23.576Zm-40.139-26.309,28.91-16.691a2.015,2.015,0,0,0,1.525-.118.548.548,0,0,0,0-1.039,1.984,1.984,0,0,0-1.8,0c-.414.238-.478.6-.2.879l-28.91,16.691Zm10.05,9.166,23.676-13.67a2.013,2.013,0,0,0,1.525-.117.549.549,0,0,0,0-1.04,1.987,1.987,0,0,0-1.8,0c-.413.239-.478.6-.2.881l-23.478,13.554h-14.889l40.834-23.576-.479-.276-41.99,24.243Zm-3.4-2.611,33.026-19.068-.479-.276-33.026,19.068Zm45.164,3.618-.479-.277-18.28,10.555v-4.737l20.56-11.87a2.013,2.013,0,0,0,1.525-.117.549.549,0,0,0,0-1.04,1.987,1.987,0,0,0-1.8,0c-.414.239-.478.6-.2.881l-20.759,11.985v5.843Zm-10.974,60.492,17.167-9.911v11.872l15.972,9.221,26.9-15.533-35.292-20.375-44.231,25.537,92.39,53.342.479-.277-91.911-53.065,43.273-24.984,34.334,19.823-25.946,14.979-15.295-8.83v-12.653l-18.8,10.855,84.07,48.538,71.579-41.326-.479-.277-71.1,41.05Zm33.159,6.847,18.675-10.781-11.354-6.556-18.674,10.782Zm-10.4-6.555,17.717-10.229,10.4,6-17.717,10.229Zm1.6-20.089-2.844,1.643,4.615,2.664v10.928l9.807-5.663-4.971-2.87-.479.276,4.493,2.593-8.173,4.719v-10.146l-4.334-2.5,1.886-1.089,13.226,7.636.479-.277Zm-1.98,6.235v10.234h.678v-10.4l-4.608-2.661-28.717,16.58,82.886,47.854.479-.276-82.407-47.578,27.759-16.026Zm60.438,57.567,68.041-39.284-9.919-5.726-68.041,39.283Zm-8.961-5.727,67.082-38.73,8.961,5.173-67.082,38.73Zm-32.517-91.174a.549.549,0,0,0,0-1.04,2,2,0,0,0-1.8,0c-.413.239-.478.6-.2.88l-24.837,14.34.479.277,24.837-14.34A2.01,2.01,0,0,0-1230.06-4865.417Zm-18.314,14.891,27.027-15.6-.479-.277-27.027,15.6Zm-13.179,1.976-42.458,24.514a2.013,2.013,0,0,0-1.525.117.549.549,0,0,0,0,1.04,1.987,1.987,0,0,0,1.8,0c.414-.239.478-.6.2-.88l42.26-24.4h17.6l26.725-15.429-.479-.277-26.527,15.315Zm100.881,42.752,13.383-7.727-10.993-6.346-13.382,7.726Zm-10.034-6.347,12.424-7.173,10.034,5.793-12.425,7.174Zm8.475,15.164,30.213-17.443-24.7-14.264-30.213,17.443Zm-23.746-14.263,29.254-16.891,23.746,13.711-29.254,16.889Zm24.594,9.464,21.053-12.155-17.241-9.954-21.053,12.155Zm-16.283-9.955,20.095-11.6,16.283,9.4-20.095,11.6Zm-207.1,59.209-.479.277,41.9,24.192v8.313l-49.1-28.349-.479.277,50.258,29.017v-9.418Zm-93.783-35.957c-.414.239-.478.6-.2.881l-42.26,24.4h-17.6l-26.725,15.43.479.277,26.527-15.315h17.6l42.458-24.513a2.018,2.018,0,0,0,1.525-.119.549.549,0,0,0,0-1.04A1.991,1.991,0,0,0-1478.55-4788.482Zm-114.692,3.014,7.139,4.123-14.859,8.579,6.958,4.018,19.054-11-9.209-5.316v-11.9h-.677v12.064l8.928,5.154L-1594-4769.3l-6-3.465,14.86-8.579-8.1-4.676-19.136,11.091.48.276Zm42.222,45.963,40.833-23.575v8.6l-23.478,13.555a2.016,2.016,0,0,0-1.525.117.549.549,0,0,0,0,1.04,1.99,1.99,0,0,0,1.8,0c.414-.239.478-.6.2-.881l23.677-13.669v-9.7l-41.99,24.242Zm-60.849-38.759.479.276,22.921-13.233v-5.694l-27.852,16.08.479.277,26.7-15.413v4.587Zm64.81,41.046,33.027-19.068-.479-.276-33.026,19.068Zm-5.168-8.727a.549.549,0,0,0,0,1.04,1.99,1.99,0,0,0,1.8,0c.414-.239.478-.6.2-.88l24.836-14.339-.479-.276-24.836,14.339A2.018,2.018,0,0,0-1552.225-4745.945Zm-29.956-33.414-.479-.276-12.585,7.266.479.276Zm.789-16.094v8.654l13.066,7.545-25.77,14.877.479.277,26.249-15.154-13.347-7.706v-7.55l25.817,14.906-28.714,16.577.479.276,29.193-16.853Zm-33.366-19.264,34.056-19.661,61.242,35.357.479-.277-61.721-35.633-35.013,20.214,26.474,15.285-32.787,18.929.479.276,33.265-19.205Zm75.045,43.916-10.176-5.875-32.756,18.912.479.277,32.277-18.635,8.541,4.932h-10.3l-27.125,15.661.479.275,26.927-15.546Zm-52.341-11.464-16.514,9.535.479.276,16.513-9.534Zm14.253-6.758,15.9,9.177-25.421,14.677.479.276,25.9-14.953-16.376-9.454Zm142.27,31.081a2.019,2.019,0,0,0,1.526-.117.549.549,0,0,0,0-1.04,2,2,0,0,0-1.8,0c-.413.239-.478.6-.2.881l-25.988,15h-23.239l42.087-24.3-.479-.277-43.243,24.967h25.155Zm-83.4,29.653c.414-.238.478-.6.2-.88l20.56-11.871h8.2l-18.281,10.555.479.276,19.437-11.221h-10.12l-20.758,11.984a2.015,2.015,0,0,0-1.525.117.548.548,0,0,0,0,1.039A1.981,1.981,0,0,0-1518.931-4728.291Zm-41.528-16.664,27.027-15.6-.479-.276-27.027,15.6Zm142.634-17.874a.549.549,0,0,0,0-1.04,1.994,1.994,0,0,0-1.8,0c-.414.239-.478.6-.2.88l-38.8,22.4h-24.11l-35.081,20.253.479.276,34.883-20.139h24.11l38.993-22.513A2.017,2.017,0,0,0-1417.825-4762.829Zm-105.836,30.81a2.02,2.02,0,0,0-1.525.117.548.548,0,0,0,0,1.039,1.987,1.987,0,0,0,1.8,0c.414-.238.478-.6.2-.88l20.758-11.984v-5.843l-19.436,11.221.479.277,18.281-10.554v4.737Zm94.025-37.629c-.414.239-.478.6-.2.88l-36.741,21.213a2.019,2.019,0,0,0-1.525.118.548.548,0,0,0,0,1.039,1.988,1.988,0,0,0,1.8,0c.414-.237.478-.6.2-.88l36.742-21.213a2,2,0,0,0,1.525-.117.548.548,0,0,0,0-1.039A1.991,1.991,0,0,0-1429.637-4769.648Zm-64.185,7.363a.549.549,0,0,0,0,1.04,1.991,1.991,0,0,0,1.8,0c.413-.239.478-.6.2-.88l36.742-21.213a2.014,2.014,0,0,0,1.525-.117.549.549,0,0,0,0-1.04,1.987,1.987,0,0,0-1.8,0c-.414.238-.478.6-.2.879L-1492.3-4762.4A2.01,2.01,0,0,0-1493.822-4762.285Zm28.459-27.99c-.413.239-.478.6-.2.88l-38.994,22.513v13.92l-34.883,20.139.479.276,35.08-20.252v-13.921l38.8-22.4a2.024,2.024,0,0,0,1.525-.117.549.549,0,0,0,0-1.04A1.991,1.991,0,0,0-1465.364-4790.275Zm-8.258,9.342c-.414.239-.478.6-.2.88l-26.186,15.119v14.523l43.243-24.967-.479-.276-42.087,24.3v-13.417l25.987-15a2.018,2.018,0,0,0,1.525-.117.549.549,0,0,0,0-1.04A2,2,0,0,0-1473.621-4780.933Zm34.915,5.009-52.4,30.253a2.022,2.022,0,0,0-1.525.117.549.549,0,0,0,0,1.04,1.99,1.99,0,0,0,1.8,0c.414-.239.478-.6.2-.88l52.4-30.254Zm-4.455-2.572-52.4,30.253a2.015,2.015,0,0,0-1.525.117.549.549,0,0,0,0,1.04,1.99,1.99,0,0,0,1.8,0c.414-.24.478-.6.2-.881l52.4-30.252Zm-35.113-45.54-42.458-24.514h-17.6l-26.528-15.316-.479.277,26.726,15.43h17.6l42.26,24.4c-.275.281-.211.642.2.881a1.987,1.987,0,0,0,1.8,0,.549.549,0,0,0,0-1.04A2.013,2.013,0,0,0-1478.274-4824.036Zm-98.024-33.225-.479.277,31.8,18.357h21.152l57.926,33.444-63.81,36.841h-17.343l-26.955,15.563.479.276,26.757-15.447h17.343l64.488-37.233-58.6-33.834H-1544.7Zm119.857,141.464-26.757,15.448.479.276,26.955-15.562v-10.013l63.81-36.841,57.926,33.443v12.212l31.8,18.359.479-.277-31.6-18.244v-12.212l-58.6-33.834-64.488,37.231Zm-8.276-14.9,42.26-24.4a2.017,2.017,0,0,0,1.525-.117.549.549,0,0,0,0-1.04,1.99,1.99,0,0,0-1.8,0c-.414.239-.478.6-.2.88l-42.458,24.514v10.161l-26.528,15.315.479.276,26.725-15.43Zm53.84,29.023,26.9-15.534-15.972-9.221h-20.561l17.166-9.912,83.112,47.985-71.1,41.049.479.276,71.578-41.326-84.07-48.538-18.8,10.854h21.917l15.295,8.831-25.945,14.98-34.334-19.823,43.274-24.983,91.911,53.064.479-.277-92.39-53.341-44.231,25.537Zm17.5-55.064-56.176,32.433.479.276,56.176-32.434Zm32.028.486a.548.548,0,0,0,0,1.039,2.012,2.012,0,0,0,1.525.118l42.26,24.4v10.16l26.725,15.431.479-.277-26.527-15.315v-10.161l-42.458-24.513c.275-.28.211-.641-.2-.88A1.99,1.99,0,0,0-1361.354-4756.255Zm74.91,48.606.479-.276-27.027-15.6-.479.277ZM-1556.3-4868.807a.549.549,0,0,0,0,1.04,2.013,2.013,0,0,0,1.525.118l28.909,16.691.479-.277-28.909-16.69c.275-.281.211-.642-.2-.881A1.99,1.99,0,0,0-1556.3-4868.807Zm92.735,47.722a.549.549,0,0,0,0-1.041,2.015,2.015,0,0,0-1.525-.117l-38.8-22.4v-13.919l-35.081-20.255-.479.277,34.883,20.139v13.92l38.993,22.513c-.274.281-.211.643.2.882A1.993,1.993,0,0,0-1463.562-4821.085Zm53.406,114.668,18.675-10.782-11.354-6.555-18.675,10.781Zm-10.4-6.556,17.717-10.228,10.4,6-17.717,10.229Zm133.15-.865-24.837-14.338-.479.277,24.837,14.339c-.275.28-.211.642.2.88a1.99,1.99,0,0,0,1.8,0,.549.549,0,0,0,0-1.04A2.025,2.025,0,0,0-1287.4-4713.837Zm-333.8-95.51-21.053,12.155,17.241,9.955,21.054-12.155Zm16.283,9.954-20.1,11.6-16.283-9.4,20.1-11.6Zm202.229,120.632-13.383,7.727,10.992,6.347,13.382-7.728Zm10.034,6.346-12.424,7.174-10.034-5.793,12.424-7.174Zm-227.7-141.73-30.213,17.443,24.7,14.263,30.212-17.443Zm23.746,14.263-29.254,16.889-23.746-13.709,29.254-16.89Zm1.88-38.659L-1655-4803.747l3.6,2.076,60.266-34.8Zm2.638,2.075-59.308,34.242-2.639-1.523,59.308-34.242Zm-1.913-6.145-68.04,39.283,9.919,5.727,68.039-39.283Zm8.96,5.727-67.081,38.73-8.961-5.174,67.082-38.729Zm-36.871,31.556-13.382,7.726,10.992,6.346,13.383-7.727Zm10.034,6.346-12.425,7.174-10.034-5.793,12.424-7.173Zm174.247,76.7,13.7,7.912.479-.276-13.226-7.636,1.887-1.089,4.335,2.5h17.574l-8.173,4.718-4.492-2.594-.479.277,4.971,2.871,9.808-5.664h-18.928l-4.615-2.665Zm10.518-.752h18.009v-.392h-17.728l-3.93-2.269,27.759-16.027,82.406,47.578.479-.276L-1403-4742.271l-28.717,16.58Zm90.071,28.776-68.039,39.284,9.919,5.726,68.04-39.282Zm8.961,5.728-67.082,38.729-8.961-5.173,67.082-38.73Zm-73.05.951-30.213,17.442,24.7,14.263,30.212-17.443Zm23.746,14.263-29.255,16.89-23.746-13.71,29.255-16.89Zm-24.594-9.465-21.053,12.155,17.241,9.955,21.053-12.154Zm16.283,9.955-20.1,11.6-16.283-9.4,20.1-11.6Zm47.929-17.363-60.267,34.8,3.6,2.076,60.266-34.794Zm2.639,2.078-59.309,34.241-2.639-1.523,59.309-34.243Z" transform="translate(1665.877 4980.821)" fill="url(#radial-gradient)" style="mix-blend-mode: color-dodge;isolation: isolate"/>
      <g id="Group_302" data-name="Group 302" transform="translate(125.948 45.408)">
        <circle id="Ellipse_99" data-name="Ellipse 99" cx="66.542" cy="66.542" r="66.542" transform="translate(0 94.105) rotate(-45)" fill="url(#radial-gradient-2)" style="mix-blend-mode: color-dodge;isolation: isolate"/>
        <circle id="Ellipse_100" data-name="Ellipse 100" cx="66.542" cy="66.542" r="66.542" transform="translate(99.44 158.314) rotate(-45)" fill="url(#radial-gradient-3)" style="mix-blend-mode: color-dodge;isolation: isolate"/>
      </g>
      <ellipse id="Ellipse_101" data-name="Ellipse 101" cx="89.858" cy="51.88" rx="89.858" ry="51.88" transform="translate(177.601 179.371)" fill="url(#radial-gradient-4)" style="mix-blend-mode: multiply;isolation: isolate"/>
      <g id="Group_305" data-name="Group 305" transform="translate(139.918 195.457)">
        <g id="Group_303" data-name="Group 303" transform="translate(178.85 0.126)">
          <path id="Path_1438" data-name="Path 1438" d="M-984.322-4527.429c3.517-2.031-4.138-9.742-17.1-17.225s-26.317-11.9-29.834-9.871,4.138,9.741,17.1,17.224S-987.839-4525.4-984.322-4527.429Z" transform="translate(1032.109 4581.916)" fill="url(#radial-gradient-5)" style="mix-blend-mode: color-dodge;isolation: isolate"/>
          <ellipse id="Ellipse_102" data-name="Ellipse 102" cx="6.307" cy="27.359" rx="6.307" ry="27.359" transform="translate(13.937 20.486) rotate(-61.894)" fill="url(#radial-gradient-6)" style="mix-blend-mode: color-dodge;isolation: isolate"/>
          <ellipse id="Ellipse_103" data-name="Ellipse 103" cx="6.307" cy="27.359" rx="6.307" ry="27.359" transform="matrix(0.471, -0.882, 0.882, 0.471, 34.501, 11.126)" fill="url(#radial-gradient-7)" style="mix-blend-mode: color-dodge;isolation: isolate"/>
        </g>
        <g id="Group_304" data-name="Group 304" transform="translate(0 0)">
          <ellipse id="Ellipse_104" data-name="Ellipse 104" cx="27.359" cy="6.307" rx="27.359" ry="6.307" transform="translate(0 26.764) rotate(-29.283)" fill="url(#radial-gradient-8)" style="mix-blend-mode: color-dodge;isolation: isolate"/>
          <ellipse id="Ellipse_105" data-name="Ellipse 105" cx="27.359" cy="6.307" rx="27.359" ry="6.307" transform="translate(21.757 36.774) rotate(-29.283)" fill="url(#radial-gradient-9)" style="mix-blend-mode: color-dodge;isolation: isolate"/>
          <ellipse id="Ellipse_106" data-name="Ellipse 106" cx="27.359" cy="6.307" rx="27.359" ry="6.307" transform="translate(37.861 48.716) rotate(-29.283)" fill="url(#radial-gradient-10)" style="mix-blend-mode: color-dodge;isolation: isolate"/>
        </g>
      </g>
      <g id="Group_312" data-name="Group 312" transform="translate(158.163 80.655)">
        <g id="Group_306" data-name="Group 306" transform="translate(35.88 58.859)">
          <path id="Path_1439" data-name="Path 1439" d="M-1013.678-4675.212l-.084,29.763,20.451-44.757.084-29.763Z" transform="translate(1147.715 4719.969)" fill="url(#linear-gradient)"/>
          <path id="Path_1440" data-name="Path 1440" d="M-1167.169-4618.991l-.084,29.762,77.2-11.992.084-29.763Z" transform="translate(1224.005 4675.741)" fill="url(#linear-gradient-2)"/>
          <path id="Path_1441" data-name="Path 1441" d="M-1280-4672.284l-.084,29.762,56.751,32.766.084-29.763Z" transform="translate(1280.086 4696.268)" fill="url(#linear-gradient-3)"/>
        </g>
        <g id="Group_307" data-name="Group 307" transform="translate(0 0)">
          <path id="Path_1442" data-name="Path 1442" d="M-1145.964-4707.59l20.451-44.757-56.751-32.765-77.2,11.992-20.451,44.758,56.751,32.765Z" transform="translate(1315.882 4811.206)" fill="url(#linear-gradient-4)"/>
          <path id="Path_1443" data-name="Path 1443" d="M-1274.877-4727.145l19.266-42.164,75.468-11.723,54.6,31.523-19.266,42.163-75.468,11.723Z" transform="translate(1313.376 4809.178)" fill="url(#linear-gradient-5)"/>
          <path id="Path_1444" data-name="Path 1444" d="M-1255.611-4761.865l75.468-11.723,51.908,29.969,2.691-5.89-54.6-31.523-75.468,11.723-19.266,42.164,2.691,1.554Z" transform="translate(1313.376 4809.178)" fill="url(#linear-gradient-6)"/>
          <ellipse id="Ellipse_107" data-name="Ellipse 107" cx="10.279" cy="72.124" rx="10.279" ry="72.124" transform="translate(94.969 18.056) rotate(-61.44)" fill="url(#radial-gradient-11)" style="mix-blend-mode: color-dodge;isolation: isolate"/>
          <ellipse id="Ellipse_108" data-name="Ellipse 108" cx="10.279" cy="72.124" rx="10.279" ry="72.124" transform="translate(0 75.277) rotate(-61.44)" fill="url(#radial-gradient-12)" style="mix-blend-mode: color-dodge;isolation: isolate"/>
        </g>
        <g id="Group_311" data-name="Group 311" transform="translate(51.15 40.837)">
          <g id="Group_308" data-name="Group 308">
            <g transform="matrix(1, 0, 0, 1, -86.07, -95.04)" filter="url(#Path_1445)">
              <path id="Path_1445-2" data-name="Path 1445" d="M-1127.436-4730.9l-12.834,28.084-.112.243-13.885,2.16-11.554,1.792-37.295,5.8-3.486.539-5.344-3.085-19.182-11.074-18.6-10.734,12.946-28.333,5.652-.88,19.182-2.981,8.83-1.372,32.555-5.056,4.74,2.738,11.554,6.67,14,8.081Z" transform="translate(1335.79 4850.84)" fill="url(#linear-gradient-7)"/>
            </g>
            <path id="Path_1446" data-name="Path 1446" d="M-1184.737-4750.745v57.921l37.3-5.8v-54.442l-4.74-2.737Zm-28.012,44.3,19.182,11.074v-54l-19.182,2.98Zm76.861-39.947v45.98l13.885-2.16.112-.243v-35.5Z" transform="translate(1231.347 4755.8)" fill="url(#linear-gradient-8)"/>
          </g>
          <g id="Group_310" data-name="Group 310" transform="translate(19.689 1.423)">
            <g id="Group_309" data-name="Group 309">
              <path id="Path_1447" data-name="Path 1447" d="M-1185.923-4710.129l-18.508-.952-6.148,3.549,22.185,12.809,7.289-4.208-10.078-5.819,18.508.952,6.148-3.55-22.185-12.809-7.289,4.209Zm19.715-23.021,5.8,3.349,6.5-3.752,16.385,9.46,7.479-4.318-16.385-9.46,6.5-3.751-5.8-3.349Zm3.3,23.715,7.479-4.319-7.1-4.1,9.254-5.342-5.641-3.257-9.255,5.343-3.8-2.2,10.554-6.093-5.641-3.257-18.034,10.411Z" transform="translate(1210.58 4748.995)" fill="url(#linear-gradient-9)"/>
              <path id="Path_1448" data-name="Path 1448" d="M-1185.923-4710.229l-18.508-.953-6.148,3.549,22.185,12.809,7.289-4.208-10.078-5.818,18.508.951,6.148-3.55-22.185-12.809-7.289,4.209Zm19.715-23.021,5.8,3.349,6.5-3.752,16.385,9.459,7.479-4.317-16.385-9.46,6.5-3.751-5.8-3.349Zm3.3,23.715,7.479-4.319-7.1-4.1,9.254-5.343-5.641-3.256-9.255,5.343-3.8-2.195,10.554-6.093-5.641-3.258-18.034,10.411Z" transform="translate(1210.58 4749.043)" fill="url(#linear-gradient-9)"/>
              <path id="Path_1449" data-name="Path 1449" d="M-1185.923-4710.33l-18.508-.952-6.148,3.549,22.185,12.809,7.289-4.208-10.078-5.818,18.508.951,6.148-3.55-22.185-12.809-7.289,4.209Zm19.715-23.02,5.8,3.349,6.5-3.751,16.385,9.46,7.479-4.318-16.385-9.46,6.5-3.751-5.8-3.348Zm3.3,23.715,7.479-4.319-7.1-4.1,9.254-5.344-5.641-3.256-9.255,5.343-3.8-2.2,10.554-6.093-5.641-3.257-18.034,10.412Z" transform="translate(1210.58 4749.093)" fill="url(#linear-gradient-9)"/>
              <path id="Path_1450" data-name="Path 1450" d="M-1185.923-4710.43l-18.508-.952-6.148,3.549,22.185,12.809,7.289-4.208-10.078-5.819,18.508.952,6.148-3.55-22.185-12.808-7.289,4.208Zm19.715-23.02,5.8,3.349,6.5-3.751,16.385,9.46,7.479-4.318-16.385-9.459,6.5-3.751-5.8-3.349Zm3.3,23.714,7.479-4.318-7.1-4.1,9.254-5.343-5.641-3.257-9.255,5.343-3.8-2.2,10.554-6.093-5.641-3.257-18.034,10.412Z" transform="translate(1210.58 4749.143)" fill="url(#linear-gradient-9)"/>
              <path id="Path_1451" data-name="Path 1451" d="M-1185.923-4710.529l-18.508-.952-6.148,3.55,22.185,12.809,7.289-4.208-10.078-5.819,18.508.951,6.148-3.549-22.185-12.809-7.289,4.209Zm19.715-23.02,5.8,3.349,6.5-3.751,16.385,9.46,7.479-4.318-16.385-9.459,6.5-3.751-5.8-3.349Zm3.3,23.715,7.479-4.319-7.1-4.1,9.254-5.343-5.641-3.256-9.255,5.343-3.8-2.2,10.554-6.093-5.641-3.257-18.034,10.411Z" transform="translate(1210.58 4749.192)" fill="url(#linear-gradient-9)"/>
              <path id="Path_1452" data-name="Path 1452" d="M-1185.923-4710.63l-18.508-.952-6.148,3.549,22.185,12.809,7.289-4.208-10.078-5.819,18.508.952,6.148-3.55-22.185-12.809-7.289,4.209Zm19.715-23.021,5.8,3.349,6.5-3.751,16.385,9.46,7.479-4.318-16.385-9.46,6.5-3.751-5.8-3.349Zm3.3,23.715,7.479-4.318-7.1-4.1,9.254-5.343-5.641-3.256-9.255,5.343-3.8-2.2,10.554-6.093-5.641-3.257-18.034,10.412Z" transform="translate(1210.58 4749.243)" fill="url(#linear-gradient-9)"/>
              <path id="Path_1453" data-name="Path 1453" d="M-1185.923-4710.729l-18.508-.952-6.148,3.549,22.185,12.809,7.289-4.209-10.078-5.818,18.508.951,6.148-3.55-22.185-12.809-7.289,4.208Zm19.715-23.02,5.8,3.349,6.5-3.751,16.385,9.46,7.479-4.318-16.385-9.46,6.5-3.75-5.8-3.349Zm3.3,23.714,7.479-4.318-7.1-4.1,9.254-5.343-5.641-3.257-9.255,5.343-3.8-2.2,10.554-6.093-5.641-3.258-18.034,10.412Z" transform="translate(1210.58 4749.292)" fill="url(#linear-gradient-9)"/>
              <path id="Path_1454" data-name="Path 1454" d="M-1185.923-4710.829l-18.508-.952-6.148,3.549,22.185,12.809,7.289-4.208-10.078-5.819,18.508.952,6.148-3.55-22.185-12.809-7.289,4.209Zm19.715-23.02,5.8,3.349,6.5-3.751,16.385,9.46,7.479-4.318-16.385-9.46,6.5-3.751-5.8-3.349Zm3.3,23.714,7.479-4.319-7.1-4.1,9.254-5.343-5.641-3.256-9.255,5.343-3.8-2.2,10.554-6.092-5.641-3.257-18.034,10.412Z" transform="translate(1210.58 4749.342)" fill="url(#linear-gradient-9)"/>
              <path id="Path_1455" data-name="Path 1455" d="M-1185.923-4710.929l-18.508-.952-6.148,3.55,22.185,12.809,7.289-4.208-10.078-5.819,18.508.952,6.148-3.55-22.185-12.809-7.289,4.209Zm19.715-23.021,5.8,3.349,6.5-3.751,16.385,9.459,7.479-4.317-16.385-9.46,6.5-3.751-5.8-3.349Zm3.3,23.715,7.479-4.319-7.1-4.1,9.254-5.343-5.641-3.257-9.255,5.343-3.8-2.2,10.554-6.093-5.641-3.257-18.034,10.412Z" transform="translate(1210.58 4749.391)" fill="url(#linear-gradient-9)"/>
              <path id="Path_1456" data-name="Path 1456" d="M-1185.923-4711.03l-18.508-.951-6.148,3.55,22.185,12.809,7.289-4.209-10.078-5.818,18.508.951,6.148-3.55-22.185-12.809-7.289,4.209Zm19.715-23.02,5.8,3.349,6.5-3.751,16.385,9.46,7.479-4.318-16.385-9.46,6.5-3.751-5.8-3.349Zm3.3,23.715,7.479-4.318-7.1-4.1,9.254-5.343-5.641-3.257-9.255,5.344-3.8-2.2,10.554-6.093-5.641-3.258-18.034,10.412Z" transform="translate(1210.58 4749.442)" fill="url(#linear-gradient-9)"/>
              <path id="Path_1457" data-name="Path 1457" d="M-1185.923-4711.13l-18.508-.952-6.148,3.549,22.185,12.809,7.289-4.208-10.078-5.818,18.508.951,6.148-3.55-22.185-12.809-7.289,4.209Zm19.715-23.021,5.8,3.35,6.5-3.751,16.385,9.46,7.479-4.318-16.385-9.46,6.5-3.751-5.8-3.349Zm3.3,23.715,7.479-4.319-7.1-4.1,9.254-5.344-5.641-3.256-9.255,5.343-3.8-2.2,10.554-6.093-5.641-3.257-18.034,10.411Z" transform="translate(1210.58 4749.491)" fill="url(#linear-gradient-9)"/>
              <path id="Path_1458" data-name="Path 1458" d="M-1185.923-4711.229l-18.508-.952-6.148,3.549,22.185,12.809,7.289-4.209-10.078-5.819,18.508.952,6.148-3.55-22.185-12.809-7.289,4.208Zm19.715-23.021,5.8,3.348,6.5-3.751,16.385,9.46,7.479-4.317-16.385-9.46,6.5-3.751-5.8-3.349Zm3.3,23.714,7.479-4.318-7.1-4.1,9.254-5.342-5.641-3.257-9.255,5.343-3.8-2.2,10.554-6.093-5.641-3.257-18.034,10.411Z" transform="translate(1210.58 4749.541)" fill="url(#linear-gradient-9)"/>
              <path id="Path_1459" data-name="Path 1459" d="M-1185.923-4711.329l-18.508-.952-6.148,3.55,22.185,12.808,7.289-4.208-10.078-5.819,18.508.951,6.148-3.55-22.185-12.809-7.289,4.209Zm19.715-23.02,5.8,3.349,6.5-3.751,16.385,9.459,7.479-4.318-16.385-9.459,6.5-3.751-5.8-3.349Zm3.3,23.715,7.479-4.319-7.1-4.1,9.254-5.343-5.641-3.257-9.255,5.343-3.8-2.2,10.554-6.093-5.641-3.258-18.034,10.412Z" transform="translate(1210.58 4749.59)" fill="url(#linear-gradient-9)"/>
              <path id="Path_1460" data-name="Path 1460" d="M-1185.923-4711.43l-18.508-.952-6.148,3.549,22.185,12.809,7.289-4.208-10.078-5.819,18.508.952,6.148-3.55-22.185-12.809-7.289,4.209Zm19.715-23.021,5.8,3.349,6.5-3.751,16.385,9.46,7.479-4.318-16.385-9.46,6.5-3.751-5.8-3.349Zm3.3,23.715,7.479-4.318-7.1-4.1,9.254-5.344-5.641-3.257-9.255,5.343-3.8-2.2,10.554-6.093-5.641-3.257-18.034,10.412Z" transform="translate(1210.58 4749.64)" fill="url(#linear-gradient-9)"/>
              <path id="Path_1461" data-name="Path 1461" d="M-1185.923-4711.53l-18.508-.952-6.148,3.55,22.185,12.808,7.289-4.208-10.078-5.819,18.508.952,6.148-3.55-22.185-12.809-7.289,4.208Zm19.715-23.02,5.8,3.349,6.5-3.751,16.385,9.46,7.479-4.318-16.385-9.459,6.5-3.751-5.8-3.349Zm3.3,23.714,7.479-4.318-7.1-4.1,9.254-5.343-5.641-3.257-9.255,5.344-3.8-2.2,10.554-6.093-5.641-3.257-18.034,10.412Z" transform="translate(1210.58 4749.69)" fill="url(#linear-gradient-9)"/>
              <path id="Path_1462" data-name="Path 1462" d="M-1185.923-4711.63l-18.508-.952-6.148,3.549,22.185,12.809,7.289-4.208-10.078-5.819,18.508.952,6.148-3.55-22.185-12.809-7.289,4.209Zm19.715-23.021,5.8,3.35,6.5-3.752,16.385,9.459,7.479-4.318-16.385-9.459,6.5-3.751-5.8-3.35Zm3.3,23.715,7.479-4.319-7.1-4.1,9.254-5.343-5.641-3.256-9.255,5.343-3.8-2.195,10.554-6.094-5.641-3.257-18.034,10.411Z" transform="translate(1210.58 4749.74)" fill="url(#linear-gradient-9)"/>
              <path id="Path_1463" data-name="Path 1463" d="M-1185.923-4711.729l-18.508-.953-6.148,3.55,22.185,12.809,7.289-4.208-10.078-5.819,18.508.952,6.148-3.55-22.185-12.809-7.289,4.209Zm19.715-23.021,5.8,3.348,6.5-3.751,16.385,9.461,7.479-4.318-16.385-9.46,6.5-3.751-5.8-3.349Zm3.3,23.714,7.479-4.319-7.1-4.1,9.254-5.343-5.641-3.256-9.255,5.343-3.8-2.2,10.554-6.093-5.641-3.256-18.034,10.411Z" transform="translate(1210.58 4749.79)" fill="url(#linear-gradient-9)"/>
              <path id="Path_1464" data-name="Path 1464" d="M-1185.923-4711.83l-18.508-.952-6.148,3.55,22.185,12.809,7.289-4.209-10.078-5.818,18.508.951,6.148-3.55-22.185-12.809-7.289,4.209Zm19.715-23.02,5.8,3.349,6.5-3.751,16.385,9.46,7.479-4.318-16.385-9.46,6.5-3.751-5.8-3.349Zm3.3,23.714,7.479-4.318-7.1-4.1,9.254-5.343-5.641-3.257-9.255,5.344-3.8-2.2,10.554-6.093-5.641-3.258-18.034,10.412Z" transform="translate(1210.58 4749.839)" fill="url(#linear-gradient-9)"/>
              <path id="Path_1465" data-name="Path 1465" d="M-1185.923-4711.93l-18.508-.952-6.148,3.55,22.185,12.808,7.289-4.207-10.078-5.82,18.508.952,6.148-3.549-22.185-12.809-7.289,4.209Zm19.715-23.02,5.8,3.35,6.5-3.751,16.385,9.46,7.479-4.318-16.385-9.46,6.5-3.751-5.8-3.349Zm3.3,23.714,7.479-4.318-7.1-4.1,9.254-5.343-5.641-3.256-9.255,5.343-3.8-2.2,10.554-6.093-5.641-3.257-18.034,10.411Z" transform="translate(1210.58 4749.888)" fill="url(#linear-gradient-9)"/>
              <path id="Path_1466" data-name="Path 1466" d="M-1185.923-4712.029l-18.508-.952-6.148,3.55,22.185,12.809,7.289-4.208-10.078-5.819,18.508.952,6.148-3.55-22.185-12.809-7.289,4.209Zm19.715-23.021,5.8,3.349,6.5-3.751,16.385,9.46,7.479-4.318-16.385-9.46,6.5-3.751-5.8-3.349Zm3.3,23.715,7.479-4.319-7.1-4.1,9.254-5.343-5.641-3.257-9.255,5.344-3.8-2.2,10.554-6.093-5.641-3.257-18.034,10.412Z" transform="translate(1210.58 4749.938)" fill="url(#linear-gradient-9)"/>
              <path id="Path_1467" data-name="Path 1467" d="M-1185.923-4712.13l-18.508-.952-6.148,3.549,22.185,12.809,7.289-4.208-10.078-5.819,18.508.952,6.148-3.55-22.185-12.81-7.289,4.209Zm19.715-23.02,5.8,3.349,6.5-3.751,16.385,9.459,7.479-4.318-16.385-9.46,6.5-3.751-5.8-3.349Zm3.3,23.715,7.479-4.318-7.1-4.1,9.254-5.343-5.641-3.257-9.255,5.344-3.8-2.2,10.554-6.093-5.641-3.258-18.034,10.412Z" transform="translate(1210.58 4749.988)" fill="url(#linear-gradient-9)"/>
              <path id="Path_1468" data-name="Path 1468" d="M-1185.923-4712.23l-18.508-.952-6.148,3.549,22.185,12.81,7.289-4.208-10.078-5.819,18.508.952,6.148-3.55-22.185-12.809-7.289,4.208Zm19.715-23.02,5.8,3.349,6.5-3.751,16.385,9.46,7.479-4.318-16.385-9.46,6.5-3.75-5.8-3.349Zm3.3,23.714,7.479-4.318-7.1-4.1,9.254-5.344-5.641-3.256-9.255,5.342-3.8-2.2,10.554-6.093-5.641-3.257-18.034,10.412Z" transform="translate(1210.58 4750.038)" fill="url(#linear-gradient-9)"/>
              <path id="Path_1469" data-name="Path 1469" d="M-1185.923-4712.329l-18.508-.952-6.148,3.55,22.185,12.809,7.289-4.209-10.078-5.818,18.508.952,6.148-3.55-22.185-12.808-7.289,4.208Zm19.715-23.021,5.8,3.349,6.5-3.751,16.385,9.46,7.479-4.318-16.385-9.46,6.5-3.751-5.8-3.348Zm3.3,23.714,7.479-4.318-7.1-4.1,9.254-5.343-5.641-3.257-9.255,5.343-3.8-2.2,10.554-6.093-5.641-3.257-18.034,10.412Z" transform="translate(1210.58 4750.087)" fill="url(#linear-gradient-9)"/>
              <path id="Path_1470" data-name="Path 1470" d="M-1185.923-4712.429l-18.508-.952-6.148,3.55,22.185,12.809,7.289-4.208-10.078-5.819,18.508.952,6.148-3.55-22.185-12.809-7.289,4.209Zm19.715-23.021,5.8,3.35,6.5-3.751,16.385,9.459,7.479-4.317-16.385-9.459,6.5-3.751-5.8-3.349Zm3.3,23.715,7.479-4.319-7.1-4.1,9.254-5.343-5.641-3.256-9.255,5.343-3.8-2.2,10.554-6.093-5.641-3.257-18.034,10.411Z" transform="translate(1210.58 4750.137)" fill="url(#linear-gradient-9)"/>
              <path id="Path_1471" data-name="Path 1471" d="M-1185.923-4712.53l-18.508-.951-6.148,3.549,22.185,12.809,7.289-4.208-10.078-5.819,18.508.951,6.148-3.55-22.185-12.809-7.289,4.209Zm19.715-23.02,5.8,3.349,6.5-3.751,16.385,9.46,7.479-4.318-16.385-9.46,6.5-3.751-5.8-3.349Zm3.3,23.715,7.479-4.319-7.1-4.1,9.254-5.344-5.641-3.257-9.255,5.343-3.8-2.2,10.554-6.093-5.641-3.257-18.034,10.412Z" transform="translate(1210.58 4750.187)" fill="url(#linear-gradient-9)"/>
              <path id="Path_1472" data-name="Path 1472" d="M-1185.923-4712.63l-18.508-.951-6.148,3.549,22.185,12.809,7.289-4.208-10.078-5.818,18.508.951,6.148-3.55-22.185-12.808-7.289,4.208Zm19.715-23.02,5.8,3.349,6.5-3.751,16.385,9.46,7.479-4.318-16.385-9.459,6.5-3.751-5.8-3.349Zm3.3,23.715,7.479-4.318-7.1-4.1,9.254-5.343-5.641-3.256-9.255,5.344-3.8-2.2,10.554-6.093-5.641-3.257-18.034,10.412Z" transform="translate(1210.58 4750.237)" fill="url(#linear-gradient-9)"/>
              <path id="Path_1473" data-name="Path 1473" d="M-1185.923-4712.729l-18.508-.952-6.148,3.549,22.185,12.809,7.289-4.209-10.078-5.819,18.508.952,6.148-3.55-22.185-12.809-7.289,4.209Zm19.715-23.02,5.8,3.349,6.5-3.751,16.385,9.459,7.479-4.317-16.385-9.46,6.5-3.751-5.8-3.35Zm3.3,23.715,7.479-4.319-7.1-4.1,9.254-5.343-5.641-3.256-9.255,5.342-3.8-2.2,10.554-6.093-5.641-3.257-18.034,10.411Z" transform="translate(1210.58 4750.286)" fill="url(#linear-gradient-9)"/>
              <path id="Path_1474" data-name="Path 1474" d="M-1185.923-4712.83l-18.508-.952-6.148,3.55,22.185,12.808,7.289-4.208-10.078-5.818,18.508.952,6.148-3.55-22.185-12.81-7.289,4.209Zm19.715-23.021,5.8,3.349,6.5-3.751,16.385,9.46,7.479-4.318-16.385-9.459,6.5-3.752-5.8-3.348Zm3.3,23.715,7.479-4.319-7.1-4.1,9.254-5.343-5.641-3.257-9.255,5.344-3.8-2.2,10.554-6.093-5.641-3.257-18.034,10.412Z" transform="translate(1210.58 4750.336)" fill="url(#linear-gradient-9)"/>
              <path id="Path_1475" data-name="Path 1475" d="M-1185.923-4712.93l-18.508-.952-6.148,3.55,22.185,12.809,7.289-4.208-10.078-5.819,18.508.951,6.148-3.55-22.185-12.809-7.289,4.209Zm19.715-23.02,5.8,3.349,6.5-3.751,16.385,9.459,7.479-4.318-16.385-9.459,6.5-3.751-5.8-3.348Zm3.3,23.715,7.479-4.318-7.1-4.1,9.254-5.343-5.641-3.257-9.255,5.344-3.8-2.2,10.554-6.093-5.641-3.258-18.034,10.412Z" transform="translate(1210.58 4750.385)" fill="url(#linear-gradient-9)"/>
              <path id="Path_1476" data-name="Path 1476" d="M-1185.923-4713.03l-18.508-.952-6.148,3.55,22.185,12.809,7.289-4.208-10.078-5.819,18.508.951,6.148-3.549-22.185-12.809-7.289,4.209Zm19.715-23.02,5.8,3.349,6.5-3.751,16.385,9.46,7.479-4.318-16.385-9.46,6.5-3.751-5.8-3.349Zm3.3,23.714,7.479-4.318-7.1-4.1,9.254-5.343-5.641-3.257-9.255,5.343-3.8-2.2,10.554-6.093-5.641-3.257-18.034,10.411Z" transform="translate(1210.58 4750.435)" fill="url(#linear-gradient-9)"/>
              <path id="Path_1477" data-name="Path 1477" d="M-1185.923-4713.13l-18.508-.952-6.148,3.549,22.185,12.809,7.289-4.208-10.078-5.819,18.508.952,6.148-3.55-22.185-12.809-7.289,4.208Zm19.715-23.021,5.8,3.349,6.5-3.752,16.385,9.46,7.479-4.318-16.385-9.46,6.5-3.751-5.8-3.35Zm3.3,23.715,7.479-4.319-7.1-4.1,9.254-5.342-5.641-3.257-9.255,5.343-3.8-2.2,10.554-6.093-5.641-3.257-18.034,10.411Z" transform="translate(1210.58 4750.486)" fill="url(#linear-gradient-9)"/>
              <path id="Path_1478" data-name="Path 1478" d="M-1185.923-4713.229l-18.508-.952-6.148,3.548,22.185,12.81,7.289-4.209-10.078-5.818,18.508.952,6.148-3.55-22.185-12.809-7.289,4.209Zm19.715-23.021,5.8,3.349,6.5-3.751,16.385,9.459,7.479-4.318-16.385-9.46,6.5-3.751-5.8-3.348Zm3.3,23.715,7.479-4.319-7.1-4.1,9.254-5.343-5.641-3.257-9.255,5.344-3.8-2.2,10.554-6.093-5.641-3.258-18.034,10.411Z" transform="translate(1210.58 4750.534)" fill="url(#linear-gradient-9)"/>
              <path id="Path_1479" data-name="Path 1479" d="M-1185.923-4713.33l-18.508-.952-6.148,3.549,22.185,12.809,7.289-4.208-10.078-5.819,18.508.951,6.148-3.55-22.185-12.809-7.289,4.209Zm19.715-23.021,5.8,3.349,6.5-3.751,16.385,9.46,7.479-4.318-16.385-9.46,6.5-3.751-5.8-3.349Zm3.3,23.715,7.479-4.318-7.1-4.1,9.254-5.344-5.641-3.256-9.255,5.343-3.8-2.2,10.554-6.093-5.641-3.257-18.034,10.412Z" transform="translate(1210.58 4750.584)" fill="url(#linear-gradient-9)"/>
              <path id="Path_1480" data-name="Path 1480" d="M-1185.923-4713.429l-18.508-.952-6.148,3.55,22.185,12.809,7.289-4.208-10.078-5.819,18.508.952,6.148-3.55-22.185-12.808-7.289,4.208Zm19.715-23.021,5.8,3.349,6.5-3.751,16.385,9.46,7.479-4.317-16.385-9.46,6.5-3.751-5.8-3.349Zm3.3,23.714,7.479-4.318-7.1-4.1,9.254-5.342-5.641-3.257-9.255,5.343-3.8-2.2,10.554-6.093-5.641-3.257-18.034,10.412Z" transform="translate(1210.58 4750.634)" fill="url(#linear-gradient-9)"/>
              <path id="Path_1481" data-name="Path 1481" d="M-1185.923-4713.53l-18.508-.951-6.148,3.549,22.185,12.809,7.289-4.208-10.078-5.819,18.508.952,6.148-3.55-22.185-12.809-7.289,4.209Zm19.715-23.02,5.8,3.349,6.5-3.751,16.385,9.459,7.479-4.317-16.385-9.46,6.5-3.751-5.8-3.349Zm3.3,23.715,7.479-4.319-7.1-4.1,9.254-5.343-5.641-3.256-9.255,5.343-3.8-2.2,10.554-6.093-5.641-3.258-18.034,10.412Z" transform="translate(1210.58 4750.684)" fill="url(#linear-gradient-9)"/>
              <path id="Path_1482" data-name="Path 1482" d="M-1185.923-4713.63l-18.508-.951-6.148,3.549,22.185,12.809,7.289-4.208-10.078-5.819,18.508.952,6.148-3.55-22.185-12.81-7.289,4.209Zm19.715-23.02,5.8,3.349,6.5-3.751,16.385,9.46,7.479-4.318-16.385-9.46,6.5-3.751-5.8-3.349Zm3.3,23.714,7.479-4.318-7.1-4.1,9.254-5.344-5.641-3.256-9.255,5.343-3.8-2.2,10.554-6.093-5.641-3.257-18.034,10.412Z" transform="translate(1210.58 4750.734)" fill="url(#linear-gradient-9)"/>
              <path id="Path_1483" data-name="Path 1483" d="M-1185.923-4713.729l-18.508-.952-6.148,3.549,22.185,12.809,7.289-4.208-10.078-5.819,18.508.952,6.148-3.55-22.185-12.808-7.289,4.208Zm19.715-23.02,5.8,3.349,6.5-3.751,16.385,9.46,7.479-4.318-16.385-9.46,6.5-3.751-5.8-3.349Zm3.3,23.714,7.479-4.318-7.1-4.1,9.254-5.343-5.641-3.257-9.255,5.343-3.8-2.2,10.554-6.093-5.641-3.257-18.034,10.412Z" transform="translate(1210.58 4750.783)" fill="url(#linear-gradient-9)"/>
              <path id="Path_1484" data-name="Path 1484" d="M-1185.923-4713.829l-18.508-.952-6.148,3.549,22.185,12.809,7.289-4.209-10.078-5.819,18.508.952,6.148-3.55-22.185-12.809-7.289,4.209Zm19.715-23.02,5.8,3.349,6.5-3.751,16.385,9.46,7.479-4.318-16.385-9.46,6.5-3.751-5.8-3.349Zm3.3,23.715,7.479-4.319-7.1-4.1,9.254-5.343-5.641-3.256-9.255,5.343-3.8-2.2,10.554-6.093-5.641-3.257-18.034,10.412Z" transform="translate(1210.58 4750.833)" fill="url(#linear-gradient-9)"/>
              <path id="Path_1485" data-name="Path 1485" d="M-1185.923-4713.93l-18.508-.952-6.148,3.55,22.185,12.809,7.289-4.208-10.078-5.819,18.508.952,6.148-3.55-22.185-12.809-7.289,4.209Zm19.715-23.021,5.8,3.349,6.5-3.751,16.385,9.46,7.479-4.318-16.385-9.46,6.5-3.751-5.8-3.349Zm3.3,23.715,7.479-4.318-7.1-4.1,9.254-5.343-5.641-3.257-9.255,5.343-3.8-2.2,10.554-6.093-5.641-3.257-18.034,10.412Z" transform="translate(1210.58 4750.883)" fill="url(#linear-gradient-9)"/>
              <path id="Path_1486" data-name="Path 1486" d="M-1185.923-4714.03l-18.508-.951-6.148,3.55,22.185,12.808,7.289-4.208-10.078-5.819,18.508.951,6.148-3.55-22.185-12.809-7.289,4.209Zm19.715-23.02,5.8,3.349,6.5-3.75,16.385,9.459,7.479-4.318-16.385-9.46,6.5-3.751-5.8-3.348Zm3.3,23.715,7.479-4.319-7.1-4.1,9.254-5.343-5.641-3.257-9.255,5.344-3.8-2.2,10.554-6.093-5.641-3.258-18.034,10.413Z" transform="translate(1210.58 4750.932)" fill="url(#linear-gradient-9)"/>
              <path id="Path_1487" data-name="Path 1487" d="M-1185.923-4714.129l-18.508-.952-6.148,3.549,22.185,12.809,7.289-4.208-10.078-5.818,18.508.951,6.148-3.55-22.185-12.809-7.289,4.209Zm19.715-23.021,5.8,3.349,6.5-3.751,16.385,9.46,7.479-4.318-16.385-9.46,6.5-3.751-5.8-3.349Zm3.3,23.715,7.479-4.319-7.1-4.1,9.254-5.343-5.641-3.256-9.255,5.343-3.8-2.2,10.554-6.093-5.641-3.257-18.034,10.411Z" transform="translate(1210.58 4750.982)" fill="url(#linear-gradient-9)"/>
              <path id="Path_1488" data-name="Path 1488" d="M-1185.923-4714.229l-18.508-.953-6.148,3.55,22.185,12.809,7.289-4.208-10.078-5.819,18.508.952,6.148-3.55-22.185-12.809-7.289,4.208Zm19.715-23.021,5.8,3.348,6.5-3.751,16.385,9.459,7.479-4.317-16.385-9.46,6.5-3.751-5.8-3.349Zm3.3,23.714,7.479-4.319-7.1-4.1,9.254-5.343-5.641-3.257-9.255,5.343-3.8-2.2,10.554-6.093-5.641-3.256-18.034,10.411Z" transform="translate(1210.58 4751.032)" fill="url(#linear-gradient-9)"/>
              <path id="Path_1489" data-name="Path 1489" d="M-1185.923-4714.33l-18.508-.952-6.148,3.549,22.185,12.809,7.289-4.208-10.078-5.819,18.508.952,6.148-3.549-22.185-12.809-7.289,4.208Zm19.715-23.02,5.8,3.348,6.5-3.751,16.385,9.459,7.479-4.318-16.385-9.459,6.5-3.751-5.8-3.349Zm3.3,23.714,7.479-4.319-7.1-4.1,9.254-5.343-5.641-3.257-9.255,5.343-3.8-2.2,10.554-6.092-5.641-3.258-18.034,10.411Z" transform="translate(1210.58 4751.081)" fill="url(#linear-gradient-9)"/>
              <path id="Path_1490" data-name="Path 1490" d="M-1185.923-4714.43l-18.508-.952-6.148,3.549,22.185,12.809,7.289-4.208-10.078-5.82,18.508.952,6.148-3.55-22.185-12.809-7.289,4.209Zm19.715-23.021,5.8,3.349,6.5-3.751,16.385,9.46,7.479-4.318-16.385-9.46,6.5-3.751-5.8-3.349Zm3.3,23.715,7.479-4.318-7.1-4.1,9.254-5.344-5.641-3.256-9.255,5.343-3.8-2.2,10.554-6.093-5.641-3.257-18.034,10.412Z" transform="translate(1210.58 4751.131)" fill="url(#linear-gradient-9)"/>
              <path id="Path_1491" data-name="Path 1491" d="M-1185.923-4714.529l-18.508-.952-6.148,3.55,22.185,12.809,7.289-4.208-10.078-5.818,18.508.951,6.148-3.55-22.185-12.809-7.289,4.208Zm19.715-23.021,5.8,3.349,6.5-3.751,16.385,9.46,7.479-4.318-16.385-9.46,6.5-3.751-5.8-3.349Zm3.3,23.715,7.479-4.318-7.1-4.1,9.254-5.343-5.641-3.257-9.255,5.344-3.8-2.2,10.554-6.093-5.641-3.257-18.034,10.412Z" transform="translate(1210.58 4751.181)" fill="url(#linear-gradient-9)"/>
              <path id="Path_1492" data-name="Path 1492" d="M-1185.923-4714.63l-18.508-.952-6.148,3.549,22.185,12.809,7.289-4.208-10.078-5.819,18.508.952,6.148-3.55-22.185-12.809-7.289,4.209Zm19.715-23.02,5.8,3.349,6.5-3.751,16.385,9.459,7.479-4.318-16.385-9.459,6.5-3.751-5.8-3.35Zm3.3,23.715,7.479-4.319-7.1-4.1,9.254-5.343-5.641-3.257-9.255,5.344-3.8-2.2,10.554-6.093-5.641-3.257-18.034,10.411Z" transform="translate(1210.58 4751.231)" fill="url(#linear-gradient-9)"/>
              <path id="Path_1493" data-name="Path 1493" d="M-1185.923-4714.729l-18.508-.952-6.148,3.549,22.185,12.81,7.289-4.209-10.078-5.819,18.508.952,6.148-3.55-22.185-12.809-7.289,4.209Zm19.715-23.02,5.8,3.349,6.5-3.751,16.385,9.46,7.479-4.318-16.385-9.461,6.5-3.751-5.8-3.348Zm3.3,23.714,7.479-4.318-7.1-4.1,9.254-5.343-5.641-3.257-9.255,5.343-3.8-2.2,10.554-6.093-5.641-3.257-18.034,10.412Z" transform="translate(1210.58 4751.28)" fill="url(#linear-gradient-9)"/>
              <path id="Path_1494" data-name="Path 1494" d="M-1185.923-4714.83l-18.508-.952-6.148,3.55,22.185,12.809,7.289-4.208-10.078-5.819,18.508.951,6.148-3.55-22.185-12.808-7.289,4.208Zm19.715-23.02,5.8,3.349,6.5-3.751,16.385,9.459,7.479-4.318-16.385-9.46,6.5-3.751-5.8-3.349Zm3.3,23.715,7.479-4.318-7.1-4.1,9.254-5.343-5.641-3.257-9.255,5.344-3.8-2.2,10.554-6.093-5.641-3.258-18.034,10.412Z" transform="translate(1210.58 4751.33)" fill="url(#linear-gradient-9)"/>
              <path id="Path_1495" data-name="Path 1495" d="M-1185.923-4714.929l-18.508-.952-6.148,3.55,22.185,12.809,7.289-4.209-10.078-5.819,18.508.952,6.148-3.55-22.185-12.809-7.289,4.209Zm19.715-23.021,5.8,3.35,6.5-3.752,16.385,9.46,7.479-4.317-16.385-9.46,6.5-3.751-5.8-3.349Zm3.3,23.715,7.479-4.319-7.1-4.1,9.254-5.343-5.641-3.257-9.255,5.342-3.8-2.195,10.554-6.094-5.641-3.257-18.034,10.411Z" transform="translate(1210.58 4751.38)" fill="url(#linear-gradient-9)"/>
              <path id="Path_1496" data-name="Path 1496" d="M-1185.923-4715.03l-18.508-.952-6.148,3.55,22.185,12.809,7.289-4.208-10.078-5.819,18.508.952,6.148-3.55-22.185-12.809-7.289,4.208Zm19.715-23.02,5.8,3.348,6.5-3.75,16.385,9.46,7.479-4.318-16.385-9.46,6.5-3.751-5.8-3.349Zm3.3,23.714,7.479-4.318-7.1-4.1,9.254-5.343-5.641-3.257-9.255,5.343-3.8-2.2,10.554-6.092-5.641-3.258-18.034,10.412Z" transform="translate(1210.58 4751.43)" fill="url(#linear-gradient-9)"/>
              <path id="Path_1497" data-name="Path 1497" d="M-1185.923-4715.13l-18.508-.951-6.148,3.549,22.185,12.809,7.289-4.208-10.078-5.819,18.508.952,6.148-3.55-22.185-12.809-7.289,4.209Zm19.715-23.02,5.8,3.349,6.5-3.75,16.385,9.459,7.479-4.318-16.385-9.459,6.5-3.751-5.8-3.348Zm3.3,23.715,7.479-4.318-7.1-4.1,9.254-5.344-5.641-3.256-9.255,5.343-3.8-2.2,10.554-6.093-5.641-3.258-18.034,10.412Z" transform="translate(1210.58 4751.479)" fill="url(#linear-gradient-9)"/>
              <path id="Path_1498" data-name="Path 1498" d="M-1185.923-4715.229l-18.508-.951-6.148,3.549,22.185,12.809,7.289-4.208-10.078-5.819,18.508.952,6.148-3.55-22.185-12.808-7.289,4.208Zm19.715-23.02,5.8,3.349,6.5-3.751,16.385,9.46,7.479-4.318-16.385-9.46,6.5-3.751-5.8-3.349Zm3.3,23.714,7.479-4.318-7.1-4.1,9.254-5.343-5.641-3.256-9.255,5.342-3.8-2.2,10.554-6.093-5.641-3.257-18.034,10.411Z" transform="translate(1210.58 4751.528)" fill="url(#linear-gradient-9)"/>
              <path id="Path_1499" data-name="Path 1499" d="M-1185.923-4715.329l-18.508-.952-6.148,3.55,22.185,12.808,7.289-4.208-10.078-5.819,18.508.952,6.148-3.551-22.185-12.808-7.289,4.208Zm19.715-23.021,5.8,3.349,6.5-3.752,16.385,9.46,7.479-4.318-16.385-9.46,6.5-3.751-5.8-3.349Zm3.3,23.715,7.479-4.318-7.1-4.1,9.254-5.343-5.641-3.257-9.255,5.344-3.8-2.2,10.554-6.093-5.641-3.257-18.034,10.412Z" transform="translate(1210.58 4751.579)" fill="url(#linear-gradient-9)"/>
              <path id="Path_1500" data-name="Path 1500" d="M-1185.923-4715.43l-18.508-.952-6.148,3.551,22.185,12.808,7.289-4.207-10.078-5.819,18.508.95,6.148-3.549-22.185-12.81-7.289,4.21Zm19.715-23.02,5.8,3.349,6.5-3.751,16.385,9.46,7.479-4.318-16.385-9.46,6.5-3.75-5.8-3.35Zm3.3,23.714,7.479-4.317-7.1-4.1,9.254-5.344-5.641-3.257-9.255,5.343-3.8-2.2,10.554-6.094-5.641-3.257-18.034,10.411Z" transform="translate(1210.58 4751.628)" fill="url(#linear-gradient-9)"/>
              <path id="Path_1501" data-name="Path 1501" d="M-1185.923-4715.53l-18.508-.951-6.148,3.549,22.185,12.808,7.289-4.208-10.078-5.818,18.508.951,6.148-3.55-22.185-12.809-7.289,4.209Zm19.715-23.02,5.8,3.349,6.5-3.75,16.385,9.459,7.479-4.318-16.385-9.46,6.5-3.751-5.8-3.349Zm3.3,23.714,7.479-4.319-7.1-4.1,9.254-5.344-5.641-3.256-9.255,5.343-3.8-2.2,10.554-6.093-5.641-3.257-18.034,10.412Z" transform="translate(1210.58 4751.678)" fill="url(#linear-gradient-9)"/>
              <path id="Path_1502" data-name="Path 1502" d="M-1185.923-4715.629l-18.508-.952-6.148,3.55,22.185,12.808,7.289-4.208-10.078-5.818,18.508.951,6.148-3.55-22.185-12.808-7.289,4.208Zm19.715-23.021,5.8,3.349,6.5-3.751,16.385,9.46,7.479-4.318-16.385-9.46,6.5-3.751-5.8-3.348Zm3.3,23.715,7.479-4.318-7.1-4.1,9.254-5.342-5.641-3.257-9.255,5.344-3.8-2.2,10.554-6.093-5.641-3.257-18.034,10.411Z" transform="translate(1210.58 4751.727)" fill="url(#linear-gradient-9)"/>
              <path id="Path_1503" data-name="Path 1503" d="M-1185.923-4715.729l-18.508-.952-6.148,3.549,22.185,12.809,7.289-4.208-10.078-5.818,18.508.951,6.148-3.549-22.185-12.809-7.289,4.209Zm19.715-23.021,5.8,3.349,6.5-3.751,16.385,9.46,7.479-4.318-16.385-9.46,6.5-3.751-5.8-3.349Zm3.3,23.715,7.479-4.318-7.1-4.1,9.254-5.344-5.641-3.256-9.255,5.343-3.8-2.195,10.554-6.093-5.641-3.257-18.034,10.411Z" transform="translate(1210.58 4751.777)" fill="url(#linear-gradient-9)"/>
              <path id="Path_1504" data-name="Path 1504" d="M-1185.923-4715.83l-18.508-.951-6.148,3.549,22.185,12.809,7.289-4.208-10.078-5.819,18.508.952,6.148-3.55-22.185-12.809-7.289,4.209Zm19.715-23.02,5.8,3.349,6.5-3.751,16.385,9.46,7.479-4.318-16.385-9.46,6.5-3.751-5.8-3.348Zm3.3,23.714,7.479-4.318-7.1-4.1,9.254-5.343-5.641-3.257-9.255,5.343-3.8-2.2,10.554-6.093-5.641-3.257-18.034,10.412Z" transform="translate(1210.58 4751.827)" fill="url(#linear-gradient-9)"/>
              <path id="Path_1505" data-name="Path 1505" d="M-1185.923-4715.93l-18.508-.952-6.148,3.55,22.185,12.809,7.289-4.208-10.078-5.819,18.508.952,6.148-3.55-22.185-12.808-7.289,4.208Zm19.715-23.02,5.8,3.349,6.5-3.751,16.385,9.459,7.479-4.318-16.385-9.46,6.5-3.751-5.8-3.348Zm3.3,23.715,7.479-4.318-7.1-4.1,9.254-5.343-5.641-3.256-9.255,5.343-3.8-2.2,10.554-6.093-5.641-3.257-18.034,10.412Z" transform="translate(1210.58 4751.876)" fill="url(#linear-gradient-9)"/>
              <path id="Path_1506" data-name="Path 1506" d="M-1185.923-4716.029l-18.508-.952-6.148,3.549,22.185,12.809,7.289-4.209-10.078-5.819,18.508.952,6.148-3.549-22.185-12.81-7.289,4.209Zm19.715-23.021,5.8,3.35,6.5-3.751,16.385,9.46,7.479-4.318-16.385-9.46,6.5-3.751-5.8-3.349Zm3.3,23.715,7.479-4.319-7.1-4.1,9.254-5.343-5.641-3.257-9.255,5.343-3.8-2.2,10.554-6.094-5.641-3.257-18.034,10.412Z" transform="translate(1210.58 4751.926)" fill="url(#linear-gradient-9)"/>
              <path id="Path_1507" data-name="Path 1507" d="M-1185.923-4716.13l-18.508-.952-6.148,3.55,22.185,12.809,7.289-4.208-10.078-5.819,18.508.952,6.148-3.55-22.185-12.809-7.289,4.208Zm19.715-23.021,5.8,3.349,6.5-3.751,16.385,9.46,7.479-4.318-16.385-9.46,6.5-3.751-5.8-3.349Zm3.3,23.715,7.479-4.318-7.1-4.1,9.254-5.343-5.641-3.257-9.255,5.344-3.8-2.2,10.554-6.093-5.641-3.257-18.034,10.411Z" transform="translate(1210.58 4751.977)" fill="url(#linear-gradient-9)"/>
              <path id="Path_1508" data-name="Path 1508" d="M-1185.923-4716.229l-18.508-.952-6.148,3.549,22.185,12.809,7.289-4.208-10.078-5.819,18.508.951,6.148-3.55-22.185-12.809-7.289,4.209Zm19.715-23.02,5.8,3.349,6.5-3.751,16.385,9.459,7.479-4.318-16.385-9.459,6.5-3.751-5.8-3.349Zm3.3,23.715,7.479-4.318-7.1-4.1,9.254-5.343-5.641-3.257-9.255,5.344-3.8-2.2,10.554-6.093-5.641-3.257-18.034,10.412Z" transform="translate(1210.58 4752.026)" fill="url(#linear-gradient-9)"/>
              <path id="Path_1509" data-name="Path 1509" d="M-1185.923-4716.33l-18.508-.951-6.148,3.549,22.185,12.809,7.289-4.209-10.078-5.818,18.508.951,6.148-3.55-22.185-12.809-7.289,4.209Zm19.715-23.02,5.8,3.349,6.5-3.751,16.385,9.46,7.479-4.318-16.385-9.46,6.5-3.751-5.8-3.349Zm3.3,23.714,7.479-4.318-7.1-4.1,9.254-5.344-5.641-3.256-9.255,5.343-3.8-2.2,10.554-6.093-5.641-3.257-18.034,10.412Z" transform="translate(1210.58 4752.076)" fill="url(#linear-gradient-9)"/>
              <path id="Path_1510" data-name="Path 1510" d="M-1185.923-4716.429l-18.508-.952-6.148,3.55,22.185,12.808,7.289-4.208-10.078-5.819,18.508.952,6.148-3.551-22.185-12.808-7.289,4.208Zm19.715-23.021,5.8,3.349,6.5-3.752,16.385,9.46,7.479-4.317-16.385-9.46,6.5-3.751-5.8-3.349Zm3.3,23.715,7.479-4.318-7.1-4.1,9.254-5.342-5.641-3.257-9.255,5.343-3.8-2.2,10.554-6.094-5.641-3.257-18.034,10.412Z" transform="translate(1210.58 4752.125)" fill="url(#linear-gradient-9)"/>
              <path id="Path_1511" data-name="Path 1511" d="M-1185.923-4716.53l-18.508-.952-6.148,3.549,22.185,12.81,7.289-4.209-10.078-5.819,18.508.952,6.148-3.55-22.185-12.81-7.289,4.209Zm19.715-23.02,5.8,3.349,6.5-3.751,16.385,9.459,7.479-4.317-16.385-9.46,6.5-3.751-5.8-3.349Zm3.3,23.715,7.479-4.319-7.1-4.1,9.254-5.343-5.641-3.257-9.255,5.344-3.8-2.2,10.554-6.093-5.641-3.258-18.034,10.412Z" transform="translate(1210.58 4752.176)" fill="url(#linear-gradient-9)"/>
              <path id="Path_1512" data-name="Path 1512" d="M-1185.923-4716.63l-18.508-.951-6.148,3.549,22.185,12.809,7.289-4.208-10.078-5.819,18.508.952,6.148-3.55-22.185-12.809-7.289,4.208Zm19.715-23.02,5.8,3.349,6.5-3.75,16.385,9.46,7.479-4.318-16.385-9.46,6.5-3.751-5.8-3.349Zm3.3,23.714,7.479-4.318-7.1-4.1,9.254-5.344-5.641-3.256-9.255,5.342-3.8-2.2,10.554-6.092-5.641-3.257-18.034,10.412Z" transform="translate(1210.58 4752.225)" fill="url(#linear-gradient-9)"/>
              <path id="Path_1513" data-name="Path 1513" d="M-1185.923-4716.729l-18.508-.952-6.148,3.55,22.185,12.809,7.289-4.208-10.078-5.819,18.508.952,6.148-3.55-22.185-12.808-7.289,4.208Zm19.715-23.021,5.8,3.349,6.5-3.751,16.385,9.459,7.479-4.317-16.385-9.46,6.5-3.751-5.8-3.349Zm3.3,23.714,7.479-4.318-7.1-4.1,9.254-5.342-5.641-3.257-9.255,5.343-3.8-2.2,10.554-6.093-5.641-3.257-18.034,10.411Z" transform="translate(1210.58 4752.274)" fill="url(#linear-gradient-9)"/>
              <path id="Path_1514" data-name="Path 1514" d="M-1185.923-4716.829l-18.508-.952-6.148,3.55,22.185,12.809,7.289-4.209-10.078-5.819,18.508.952,6.148-3.55-22.185-12.809-7.289,4.209Zm19.715-23.021,5.8,3.349,6.5-3.751,16.385,9.46,7.479-4.318-16.385-9.46,6.5-3.751-5.8-3.349Zm3.3,23.715,7.479-4.319-7.1-4.1,9.254-5.344-5.641-3.256-9.255,5.343-3.8-2.2,10.554-6.093-5.641-3.257-18.034,10.411Z" transform="translate(1210.58 4752.323)" fill="url(#linear-gradient-9)"/>
              <path id="Path_1515" data-name="Path 1515" d="M-1185.923-4716.93l-18.508-.952-6.148,3.549,22.185,12.809,7.289-4.208-10.078-5.819,18.508.952,6.148-3.55-22.185-12.809-7.289,4.208Zm19.715-23.02,5.8,3.349,6.5-3.751,16.385,9.46,7.479-4.318-16.385-9.46,6.5-3.751-5.8-3.349Zm3.3,23.714,7.479-4.318-7.1-4.1,9.254-5.343-5.641-3.257-9.255,5.343-3.8-2.2,10.554-6.093-5.641-3.257-18.034,10.412Z" transform="translate(1210.58 4752.374)" fill="url(#linear-gradient-9)"/>
              <path id="Path_1516" data-name="Path 1516" d="M-1185.923-4717.03l-18.508-.952-6.148,3.549,22.185,12.809,7.289-4.208-10.078-5.819,18.508.951,6.148-3.55-22.185-12.808-7.289,4.208Zm19.715-23.02,5.8,3.349,6.5-3.75,16.385,9.459,7.479-4.318-16.385-9.459,6.5-3.751-5.8-3.348Zm3.3,23.715,7.479-4.319-7.1-4.1,9.254-5.344-5.641-3.256-9.255,5.343-3.8-2.2,10.554-6.093-5.641-3.257-18.034,10.412Z" transform="translate(1210.58 4752.423)" fill="url(#linear-gradient-9)"/>
              <path id="Path_1517" data-name="Path 1517" d="M-1185.923-4717.129l-18.508-.952-6.148,3.549,22.185,12.809,7.289-4.209-10.078-5.818,18.508.952,6.148-3.55-22.185-12.809-7.289,4.209Zm19.715-23.021,5.8,3.35,6.5-3.752,16.385,9.46,7.479-4.318-16.385-9.46,6.5-3.751-5.8-3.349Zm3.3,23.715,7.479-4.319-7.1-4.1,9.254-5.343-5.641-3.256-9.255,5.343-3.8-2.2,10.554-6.093-5.641-3.257-18.034,10.411Z" transform="translate(1210.58 4752.473)" fill="url(#linear-gradient-9)"/>
              <path id="Path_1518" data-name="Path 1518" d="M-1185.923-4717.229l-18.508-.953-6.148,3.55,22.185,12.809,7.289-4.208-10.078-5.819,18.508.953,6.148-3.551-22.185-12.809-7.289,4.209Zm19.715-23.021,5.8,3.349,6.5-3.752,16.385,9.46,7.479-4.317-16.385-9.46,6.5-3.751-5.8-3.349Zm3.3,23.714,7.479-4.319-7.1-4.1,9.254-5.343-5.641-3.256-9.255,5.343-3.8-2.2,10.554-6.093-5.641-3.257-18.034,10.411Z" transform="translate(1210.58 4752.523)" fill="url(#linear-gradient-9)"/>
              <path id="Path_1519" data-name="Path 1519" d="M-1185.923-4717.331l-18.508-.951-6.148,3.549,22.185,12.809,7.289-4.208-10.078-5.819,18.508.951,6.148-3.55-22.185-12.809-7.289,4.209Zm19.715-23.019,5.8,3.349,6.5-3.751,16.385,9.46,7.479-4.318-16.385-9.459,6.5-3.751-5.8-3.349Zm3.3,23.715,7.479-4.319-7.1-4.1,9.254-5.343-5.641-3.257-9.255,5.344-3.8-2.2,10.554-6.093-5.641-3.258-18.034,10.413Z" transform="translate(1210.58 4752.572)" fill="url(#linear-gradient-9)"/>
              <path id="Path_1520" data-name="Path 1520" d="M-1185.923-4717.43l-18.508-.951-6.148,3.549,22.185,12.809,7.289-4.208-10.078-5.819,18.508.952,6.148-3.55-22.185-12.809-7.289,4.209Zm19.715-23.02,5.8,3.349,6.5-3.751,16.385,9.46,7.479-4.318-16.385-9.459,6.5-3.752-5.8-3.349Zm3.3,23.714,7.479-4.318-7.1-4.1,9.254-5.344-5.641-3.256-9.255,5.342-3.8-2.195,10.554-6.093-5.641-3.257-18.034,10.412Z" transform="translate(1210.58 4752.622)" fill="url(#linear-gradient-9)"/>
              <path id="Path_1521" data-name="Path 1521" d="M-1185.923-4717.529l-18.508-.952-6.148,3.55,22.185,12.808,7.289-4.208-10.078-5.818,18.508.952,6.148-3.55-22.185-12.809-7.289,4.208Zm19.715-23.021,5.8,3.349,6.5-3.751,16.385,9.46,7.479-4.318-16.385-9.46,6.5-3.751-5.8-3.349Zm3.3,23.715,7.479-4.319-7.1-4.1,9.254-5.343-5.641-3.257-9.255,5.344-3.8-2.2,10.554-6.094-5.641-3.257-18.034,10.412Z" transform="translate(1210.58 4752.672)" fill="url(#linear-gradient-9)"/>
              <path id="Path_1522" data-name="Path 1522" d="M-1185.923-4717.63l-18.508-.951-6.148,3.549,22.185,12.81,7.289-4.209-10.078-5.819,18.508.952,6.148-3.549-22.185-12.81-7.289,4.209Zm19.715-23.02,5.8,3.349,6.5-3.751,16.385,9.46,7.479-4.318-16.385-9.46,6.5-3.751-5.8-3.349Zm3.3,23.715,7.479-4.318-7.1-4.1,9.254-5.343-5.641-3.257-9.255,5.344-3.8-2.2,10.554-6.093-5.641-3.257-18.034,10.411Z" transform="translate(1210.58 4752.722)" fill="url(#linear-gradient-9)"/>
              <path id="Path_1523" data-name="Path 1523" d="M-1185.923-4717.729l-18.508-.952-6.148,3.549,22.185,12.81,7.289-4.208-10.078-5.819,18.508.951,6.148-3.55-22.185-12.809-7.289,4.208Zm19.715-23.02,5.8,3.349,6.5-3.751,16.385,9.46,7.479-4.318-16.385-9.46,6.5-3.751-5.8-3.348Zm3.3,23.714,7.479-4.318-7.1-4.1,9.254-5.344-5.641-3.256-9.255,5.343-3.8-2.2,10.554-6.093-5.641-3.257-18.034,10.412Z" transform="translate(1210.58 4752.771)" fill="url(#linear-gradient-9)"/>
              <path id="Path_1524" data-name="Path 1524" d="M-1185.923-4717.829l-18.508-.952-6.148,3.55,22.185,12.809,7.289-4.208-10.078-5.819,18.508.951,6.148-3.55-22.185-12.808-7.289,4.208Zm19.715-23.021,5.8,3.349,6.5-3.751,16.385,9.459,7.479-4.317-16.385-9.46,6.5-3.751-5.8-3.348Zm3.3,23.715,7.479-4.318-7.1-4.1,9.254-5.343-5.641-3.257-9.255,5.343-3.8-2.2,10.554-6.093-5.641-3.257-18.034,10.412Z" transform="translate(1210.58 4752.82)" fill="url(#linear-gradient-9)"/>
              <path id="Path_1525" data-name="Path 1525" d="M-1185.923-4717.929l-18.508-.952-6.148,3.549,22.185,12.809,7.289-4.208-10.078-5.82,18.508.952,6.148-3.55-22.185-12.809-7.289,4.209Zm19.715-23.021,5.8,3.35,6.5-3.752,16.385,9.46,7.479-4.317-16.385-9.46,6.5-3.751-5.8-3.35Zm3.3,23.715,7.479-4.318-7.1-4.1,9.254-5.342-5.641-3.257-9.255,5.343-3.8-2.2,10.554-6.094-5.641-3.257-18.034,10.412Z" transform="translate(1210.58 4752.871)" fill="url(#linear-gradient-9)"/>
              <path id="Path_1526" data-name="Path 1526" d="M-1185.923-4718.03l-18.508-.951-6.148,3.55,22.185,12.808,7.289-4.208-10.078-5.818,18.508.952,6.148-3.55-22.185-12.809-7.289,4.208Zm19.715-23.02,5.8,3.349,6.5-3.751,16.385,9.46,7.479-4.318-16.385-9.461,6.5-3.751-5.8-3.349Zm3.3,23.714,7.479-4.318-7.1-4.1,9.254-5.343-5.641-3.257-9.255,5.344-3.8-2.2,10.554-6.093-5.641-3.258-18.034,10.412Z" transform="translate(1210.58 4752.92)" fill="url(#linear-gradient-9)"/>
              <path id="Path_1527" data-name="Path 1527" d="M-1185.923-4718.13l-18.508-.951-6.148,3.549,22.185,12.808,7.289-4.208-10.078-5.819,18.508.952,6.148-3.55-22.185-12.809-7.289,4.209Zm19.715-23.021,5.8,3.349,6.5-3.75,16.385,9.46,7.479-4.318-16.385-9.46,6.5-3.75-5.8-3.349Zm3.3,23.715,7.479-4.318-7.1-4.1,9.254-5.344-5.641-3.256-9.255,5.343-3.8-2.2,10.554-6.093-5.641-3.257-18.034,10.411Z" transform="translate(1210.58 4752.97)" fill="url(#linear-gradient-9)"/>
            </g>
            <path id="Path_1528" data-name="Path 1528" d="M-1185.923-4718.13l-18.508-.951-6.148,3.549,22.185,12.808,7.289-4.208-10.078-5.819,18.508.952,6.148-3.55-22.185-12.809-7.289,4.209Zm19.715-23.021,5.8,3.349,6.5-3.75,16.385,9.46,7.479-4.318-16.385-9.46,6.5-3.75-5.8-3.349Zm3.3,23.715,7.479-4.318-7.1-4.1,9.254-5.344-5.641-3.256-9.255,5.343-3.8-2.2,10.554-6.093-5.641-3.257-18.034,10.411Z" transform="translate(1210.58 4752.97)" fill="url(#linear-gradient-90)"/>
          </g>
        </g>
      </g>
      <path id="Path_1529" data-name="Path 1529" d="M-1249.726-4858.368l43.124,24.894,66.219-10.287,12.946-28.327V-4988.74h-122.29Z" transform="translate(1459.038 4993.07)" fill="url(#linear-gradient-91)" style="mix-blend-mode: overlay;isolation: isolate"/>
      <g id="Group_322" data-name="Group 322" transform="translate(226.484 0)">
        <ellipse id="Ellipse_109" data-name="Ellipse 109" cx="27.917" cy="11.378" rx="27.917" ry="11.378" transform="translate(16.796 125.144)" fill="url(#radial-gradient-13)" style="mix-blend-mode: multiply;isolation: isolate"/>
        <g id="Group_321" data-name="Group 321">
          <g id="Group_313" data-name="Group 313" transform="translate(24.57 31.255)">
            <path id="Path_1530" data-name="Path 1530" d="M-1143.88-4850.938v-25.451l-21.1-13.129Zm-22.854-42.5,22.854,14.217v-55.988Z" transform="translate(1166.735 4935.208)" fill="url(#linear-gradient-92)"/>
            <path id="Path_1531" data-name="Path 1531" d="M-1121.3-4850.938l21.109-38.581-21.109,13.129Zm0-84.27v55.988l22.859-14.217Z" transform="translate(1144.151 4935.208)" fill="url(#linear-gradient-93)"/>
          </g>
          <g id="Group_320" data-name="Group 320">
            <g id="Group_314" data-name="Group 314" transform="translate(35.099)">
              <ellipse id="Ellipse_110" data-name="Ellipse 110" cx="3.746" cy="62.592" rx="3.746" ry="62.592" transform="translate(8.58)" fill="url(#radial-gradient-14)" style="mix-blend-mode: color-dodge;isolation: isolate"/>
              <ellipse id="Ellipse_111" data-name="Ellipse 111" cx="12.325" cy="22.861" rx="12.325" ry="22.861" transform="translate(0 39.731)" fill="url(#radial-gradient-15)" style="mix-blend-mode: screen;isolation: isolate"/>
            </g>
            <g id="Group_315" data-name="Group 315" transform="translate(35.099 40.494)">
              <ellipse id="Ellipse_112" data-name="Ellipse 112" cx="3.746" cy="62.592" rx="3.746" ry="62.592" transform="translate(8.58)" fill="url(#radial-gradient-16)" style="mix-blend-mode: color-dodge;isolation: isolate"/>
              <ellipse id="Ellipse_113" data-name="Ellipse 113" cx="12.325" cy="22.861" rx="12.325" ry="22.861" transform="translate(0 39.731)" fill="url(#radial-gradient-17)" style="mix-blend-mode: screen;isolation: isolate"/>
            </g>
            <g id="Group_316" data-name="Group 316" transform="translate(0 7.544)">
              <path id="Path_1532" data-name="Path 1532" d="M-1215.4-4872.284c1.818.987,16.654-22.846,33.137-53.232s28.371-55.818,26.552-56.8-16.654,22.847-33.137,53.232S-1217.22-4873.27-1215.4-4872.284Z" transform="translate(1215.585 4982.35)" fill="url(#radial-gradient-18)" style="mix-blend-mode: color-dodge;isolation: isolate"/>
              <ellipse id="Ellipse_114" data-name="Ellipse 114" cx="22.861" cy="12.325" rx="22.861" ry="12.325" transform="translate(8.294 69.266) rotate(-61.523)" fill="url(#radial-gradient-19)" style="mix-blend-mode: screen;isolation: isolate"/>
            </g>
            <g id="Group_317" data-name="Group 317" transform="translate(6.749 39.052)">
              <path id="Path_1533" data-name="Path 1533" d="M-1143.861-4808.8c1.832-.961-9.692-26.56-25.74-57.178s-30.543-54.66-32.375-53.7,9.692,26.56,25.74,57.177S-1145.694-4807.842-1143.861-4808.8Z" transform="translate(1202.168 4919.707)" fill="url(#radial-gradient-20)" style="mix-blend-mode: color-dodge;isolation: isolate"/>
              <ellipse id="Ellipse_115" data-name="Ellipse 115" cx="12.325" cy="22.861" rx="12.325" ry="22.861" transform="matrix(0.886, -0.464, 0.464, 0.886, 7.719, 40.94)" fill="url(#radial-gradient-21)" style="mix-blend-mode: screen;isolation: isolate"/>
            </g>
            <g id="Group_318" data-name="Group 318" transform="translate(29.606 39.052)">
              <path id="Path_1534" data-name="Path 1534" d="M-1156.532-4808.8c-1.832-.961,9.692-26.56,25.74-57.178s30.542-54.66,32.375-53.7-9.692,26.56-25.74,57.177S-1154.7-4807.842-1156.532-4808.8Z" transform="translate(1156.724 4919.707)" fill="url(#radial-gradient-22)" style="mix-blend-mode: color-dodge;isolation: isolate"/>
              <ellipse id="Ellipse_116" data-name="Ellipse 116" cx="22.861" cy="12.325" rx="22.861" ry="12.325" transform="translate(7.719 69.993) rotate(-62.339)" fill="url(#radial-gradient-23)" style="mix-blend-mode: screen;isolation: isolate"/>
            </g>
            <g id="Group_319" data-name="Group 319" transform="translate(34.793 7.544)">
              <path id="Path_1535" data-name="Path 1535" d="M-1086.537-4872.284c-1.818.987-16.654-22.846-33.137-53.232s-28.371-55.818-26.552-56.8,16.654,22.847,33.137,53.232S-1084.719-4873.27-1086.537-4872.284Z" transform="translate(1146.41 4982.35)" fill="url(#radial-gradient-24)" style="mix-blend-mode: color-dodge;isolation: isolate"/>
              <ellipse id="Ellipse_117" data-name="Ellipse 117" cx="12.325" cy="22.861" rx="12.325" ry="22.861" transform="translate(8.294 40.83) rotate(-28.477)" fill="url(#radial-gradient-25)" style="mix-blend-mode: screen;isolation: isolate"/>
            </g>
          </g>
        </g>
      </g>
    </g>
  </g>
</svg>
