<?xml version="1.0" standalone="no"?>
<!DOCTYPE svg PUBLIC "-//W3C//DTD SVG 1.1//EN" "http://www.w3.org/Graphics/SVG/1.1/DTD/svg11.dtd" >
<svg xmlns="http://www.w3.org/2000/svg" xmlns:xlink="http://www.w3.org/1999/xlink" version="1.1">
<metadata>
Created by FontForge 20201107 at Tue Jun  2 15:13:31 2015
 By Jimmy Wärting
Copyright (c) Olivier Gourvat - Mostardesign Studio, 2012. All rights reserved.
</metadata>
<defs>
<font id="SofiaW03-UltraLight" horiz-adv-x="627" >
  <font-face 
    font-family="SofiaW03-UltraLight"
    font-weight="400"
    font-stretch="normal"
    units-per-em="1000"
    panose-1="2 11 0 0 0 0 0 0 0 0"
    ascent="800"
    descent="-200"
    x-height="467"
    cap-height="689"
    bbox="-155 -234 1108 1006"
    underline-thickness="50"
    underline-position="-125"
    unicode-range="U+0020-FB04"
  />
<missing-glyph horiz-adv-x="635" 
d="M80 665h475v-665h-475v665zM247 431q0 38 21.5 60.5t52.5 22.5q30 0 55 -19.5t25 -53.5q0 -17 -7 -29.5t-17 -20.5q-15 -17 -33 -21q-40 -12 -66.5 -36t-26.5 -74v-38h62v38q0 24 14 34t36 16q41 13 70 46.5t29 84.5q0 31 -11.5 56t-31 42.5t-45 27t-53.5 9.5t-52.5 -10
t-43 -29t-29.5 -46t-11 -60h62zM237 131q0 -19 13.5 -31t32.5 -12q18 0 31.5 12t13.5 31t-13.5 31t-31.5 12q-19 0 -32.5 -12t-13.5 -31z" />
    <glyph glyph-name="uniFB00" unicode="ff" horiz-adv-x="639" 
d="M156 440v-440h-30v440h-96v27h96v79q0 41 8 77t26 62.5t48 41.5t74 15h34v-30h-34q-36 0 -60 -13t-38.5 -35.5t-21 -52.5t-6.5 -65v-79h300v79q0 41 8 77t26 62.5t48 41.5t74 15h34v-30h-34q-36 0 -60 -13t-38.5 -35.5t-21 -52.5t-6.5 -65v-79h132v-27h-132v-440h-30v440
h-300z" />
    <glyph glyph-name="uniFB01" unicode="fi" horiz-adv-x="549" 
d="M434 440h-278v-440h-30v440h-96v27h96v79q0 41 8 77t26 62.5t48 41.5t74 15h34v-30h-34q-36 0 -60 -13t-38.5 -35.5t-21 -52.5t-6.5 -65v-79h308v-467h-30v440zM418 639q0 13 9 21t22 8q14 0 23 -8t9 -21q0 -12 -9 -20t-23 -8q-13 0 -22 8t-9 20z" />
    <glyph glyph-name="uniFB02" unicode="fl" horiz-adv-x="535" 
d="M418 712h-136q-36 0 -60 -13t-38.5 -35.5t-21 -52.5t-6.5 -65v-79h132v-27h-132v-440h-30v440h-96v27h96v79q0 41 8 77t26 62.5t48 41.5t74 15h166v-742h-30v712z" />
    <glyph glyph-name="uniFB03" unicode="ffi" horiz-adv-x="879" 
d="M764 440h-278v-440h-30v440h-300v-440h-30v440h-96v27h96v79q0 41 8 77t26 62.5t48 41.5t74 15h34v-30h-34q-36 0 -60 -13t-38.5 -35.5t-21 -52.5t-6.5 -65v-79h300v79q0 41 8 77t26 62.5t48 41.5t74 15h34v-30h-34q-36 0 -60 -13t-38.5 -35.5t-21 -52.5t-6.5 -65v-79
h308v-467h-30v440zM748 639q0 13 9 21t22 8q14 0 23 -8t9 -21q0 -12 -9 -20t-23 -8q-13 0 -22 8t-9 20z" />
    <glyph glyph-name="uniFB04" unicode="ffl" horiz-adv-x="865" 
d="M748 712h-136q-36 0 -60 -13t-38.5 -35.5t-21 -52.5t-6.5 -65v-79h132v-27h-132v-440h-30v440h-300v-440h-30v440h-96v27h96v79q0 41 8 77t26 62.5t48 41.5t74 15h34v-30h-34q-36 0 -60 -13t-38.5 -35.5t-21 -52.5t-6.5 -65v-79h300v79q0 41 8 77t26 62.5t48 41.5t74 15
h166v-742h-30v712z" />
    <glyph glyph-name="f_f_j.liga" unicode="ffj" horiz-adv-x="893" 
d="M808 -34q0 -41 -8 -77t-26 -62.5t-48 -41.5t-74 -15h-34v30h34q36 0 60 13t38.5 35.5t21 52.5t6.5 65v474h-292v-440h-30v440h-300v-440h-30v440h-96v27h96v79q0 41 8 77t26 62.5t48 41.5t74 15h34v-30h-34q-36 0 -60 -13t-38.5 -35.5t-21 -52.5t-6.5 -65v-79h300v79
q0 41 8 77t26 62.5t48 41.5t74 15h34v-30h-34q-36 0 -60 -13t-38.5 -35.5t-21 -52.5t-6.5 -65v-79h322v-501zM762 639q0 13 9 21t22 8q14 0 23 -8t9 -21q0 -12 -9 -20t-23 -8q-13 0 -22 8t-9 20z" />
    <glyph glyph-name="f_j.liga" unicode="fj" horiz-adv-x="563" 
d="M478 -34q0 -41 -8 -77t-26 -62.5t-48 -41.5t-74 -15h-34v30h34q36 0 60 13t38.5 35.5t21 52.5t6.5 65v474h-292v-440h-30v440h-96v27h96v79q0 41 8 77t26 62.5t48 41.5t74 15h34v-30h-34q-36 0 -60 -13t-38.5 -35.5t-21 -52.5t-6.5 -65v-79h322v-501zM432 639q0 13 9 21
t22 8q14 0 23 -8t9 -21q0 -12 -9 -20t-23 -8q-13 0 -22 8t-9 20z" />
    <glyph glyph-name=".notdef" horiz-adv-x="635" 
d="M80 665h475v-665h-475v665zM247 431q0 38 21.5 60.5t52.5 22.5q30 0 55 -19.5t25 -53.5q0 -17 -7 -29.5t-17 -20.5q-15 -17 -33 -21q-40 -12 -66.5 -36t-26.5 -74v-38h62v38q0 24 14 34t36 16q41 13 70 46.5t29 84.5q0 31 -11.5 56t-31 42.5t-45 27t-53.5 9.5t-52.5 -10
t-43 -29t-29.5 -46t-11 -60h62zM237 131q0 -19 13.5 -31t32.5 -12q18 0 31.5 12t13.5 31t-13.5 31t-31.5 12q-19 0 -32.5 -12t-13.5 -31z" />
    <glyph glyph-name=".null" horiz-adv-x="0" 
 />
    <glyph glyph-name="nonmarkingreturn" horiz-adv-x="333" 
 />
    <glyph glyph-name="space" unicode=" " horiz-adv-x="274" 
 />
    <glyph glyph-name="exclam" unicode="!" horiz-adv-x="234" 
d="M132 689v-534h-30v534h30zM86 24q0 13 9 21t22 8q14 0 23 -8t9 -21q0 -12 -9 -20t-23 -8q-13 0 -22 8t-9 20z" />
    <glyph glyph-name="quotedbl" unicode="&#x22;" horiz-adv-x="286" 
d="M113 689v-247h-30v247h30zM203 689v-247h-30v247h30z" />
    <glyph glyph-name="numbersign" unicode="#" horiz-adv-x="727" 
d="M685 503l-8 -30h-144l-72 -261h144l-8 -30h-144l-50 -182h-30l50 182h-206l-50 -182h-30l50 182h-144l8 30h144l72 261h-144l8 30h145l51 186h30l-52 -186h207l51 186h30l-52 -186h144zM225 212h206l72 261h-206z" />
    <glyph glyph-name="dollar" unicode="$" horiz-adv-x="545" 
d="M291 696q37 -3 69 -16t56 -34.5t39.5 -51t18.5 -65.5h-30q-3 32 -18 57.5t-38.5 43.5t-54.5 27.5t-66 9.5q-34 0 -66.5 -11t-57.5 -30.5t-40 -46.5t-15 -60q0 -17 4 -36t18 -37.5t40 -34.5t70 -26l98 -23q40 -9 76 -25.5t61 -42t36.5 -61.5t4.5 -83q-5 -27 -20.5 -54
t-41 -49t-61.5 -37.5t-82 -18.5v-114h-30v113q-44 1 -80.5 16.5t-63.5 40t-43.5 55.5t-20.5 64h30q4 -28 19 -54.5t39 -46.5t56 -32.5t71 -12.5q45 0 80 12t60 31.5t39.5 44t19.5 48.5q6 39 -4.5 68.5t-32 51t-52.5 35.5t-66 22l-98 23q-52 11 -82.5 30.5t-47 42t-21.5 46.5
t-5 44q0 39 17 71.5t45.5 55.5t65 36.5t75.5 14.5v100h30v-101z" />
    <glyph glyph-name="percent" unicode="%" horiz-adv-x="652" 
d="M42 552q0 25 9 47t25.5 38.5t38 26t47.5 9.5q25 0 47 -9.5t38.5 -26t26 -38.5t9.5 -47q0 -26 -9.5 -47.5t-26 -38t-38.5 -25.5t-47 -9q-26 0 -47.5 9t-38 25.5t-25.5 38t-9 47.5zM175 0h-34l324 664h32zM72 552q0 -38 26 -64t64 -26q19 0 35.5 7t29 19t19.5 28.5t7 35.5
q0 38 -26.5 64.5t-64.5 26.5q-19 0 -35.5 -7t-28.5 -19.5t-19 -29t-7 -35.5zM371 111q0 25 9 47t25.5 38.5t38 26t47.5 9.5q25 0 47 -9.5t38.5 -26t26 -38.5t9.5 -47q0 -26 -9.5 -47.5t-26 -38t-38.5 -25.5t-47 -9q-26 0 -47.5 9t-38 25.5t-25.5 38t-9 47.5zM401 111
q0 -38 26 -64t64 -26q19 0 35.5 7t29 19t19.5 28.5t7 35.5q0 38 -26.5 64.5t-64.5 26.5q-19 0 -35.5 -7t-28.5 -19.5t-19 -29t-7 -35.5z" />
    <glyph glyph-name="ampersand" unicode="&#x26;" horiz-adv-x="658" 
d="M278 19q41 0 75 13.5t58.5 37t39 55.5t15.5 69v190h-187q-41 0 -75.5 -14.5t-59.5 -39.5t-39.5 -58t-14.5 -70q0 -38 14 -71.5t38.5 -58t59 -39t76.5 -14.5zM149 540q0 -27 10 -50.5t27.5 -41t41.5 -27t53 -9.5h185v91h30v-92h96v-27h-96v-182q0 -36 4 -68t16 -56
t34.5 -39.5t60.5 -18.5v-30q-24 0 -46.5 7t-41 22t-31.5 38t-18 55q-11 -33 -33 -56.5t-49.5 -38t-57.5 -21.5t-57 -7q-48 0 -88 16.5t-68.5 45.5t-44.5 68t-16 83q0 29 9.5 59.5t27 57.5t43.5 48.5t59 32.5q-39 23 -59.5 62.5t-20.5 77.5q0 33 12.5 61.5t35 49.5t53 33.5
t65.5 12.5q45 0 80.5 -16.5t58.5 -47.5l-24 -18q-19 25 -48 38.5t-67 13.5q-29 0 -54 -10t-43 -27.5t-28.5 -40.5t-10.5 -49z" />
    <glyph glyph-name="quotesingle" unicode="'" horiz-adv-x="196" 
d="M113 689v-247h-30v247h30z" />
    <glyph glyph-name="parenleft" unicode="(" horiz-adv-x="335" 
d="M59 231q0 107 17 191.5t48 143.5t75 92t98 38v-30q-95 -8 -151.5 -120.5t-56.5 -314.5t56.5 -314.5t151.5 -120.5v-30q-54 4 -98 37t-75 92.5t-48 144t-17 191.5z" />
    <glyph glyph-name="parenright" unicode=")" horiz-adv-x="335" 
d="M276 231q0 -107 -17 -191.5t-48 -144t-75 -92.5t-98 -37v30q95 8 151.5 120.5t56.5 314.5t-56.5 314.5t-151.5 120.5v30q54 -5 98 -38t75 -92t48 -143.5t17 -191.5z" />
    <glyph glyph-name="asterisk" unicode="*" horiz-adv-x="456" 
d="M115 404l98 120l-149 42l11 32l143 -56l-9 155h36l-10 -155l147 56l9 -31l-149 -40l97 -123l-7 -5l-18 -12l-82 127l-90 -130z" />
    <glyph glyph-name="plus" unicode="+" horiz-adv-x="518" 
d="M244 454h30v-180h181v-30h-181v-182h-30v182h-181v30h181v180z" />
    <glyph glyph-name="comma" unicode="," horiz-adv-x="222" 
d="M41 -132q25 35 42 81.5t15 109.5h30q1 -68 -18 -115t-46 -85z" />
    <glyph glyph-name="hyphen" unicode="-" horiz-adv-x="475" 
d="M398 240v-30h-321v30h321z" />
    <glyph glyph-name="period" unicode="." horiz-adv-x="217" 
d="M77 18q0 13 9 21t22 8q14 0 23 -8t9 -21q0 -12 -9 -20t-23 -8q-13 0 -22 8t-9 20z" />
    <glyph glyph-name="slash" unicode="/" horiz-adv-x="445" 
d="M406 689l-334 -689h-33l334 689h33z" />
    <glyph glyph-name="zero" unicode="0" horiz-adv-x="608" 
d="M73 331q0 71 10 133.5t36.5 109t71 73t113.5 26.5t113.5 -26.5t70 -73t35.5 -109t10 -133.5t-10 -133t-35.5 -108t-70 -73t-113.5 -27t-113.5 27t-71 73t-36.5 108t-10 133zM103 331q0 -64 9 -120.5t31.5 -99t61.5 -67t99 -24.5t98.5 24.5t61 67t31 99t8.5 120.5
q0 65 -8.5 122t-31 99t-61 66.5t-98.5 24.5t-99 -24.5t-61.5 -66.5t-31.5 -99t-9 -122z" />
    <glyph glyph-name="one" unicode="1" horiz-adv-x="298" 
d="M161 616l-119 -44v32l149 55v-659h-30v616z" />
    <glyph glyph-name="two" unicode="2" horiz-adv-x="505" 
d="M60 0v11l281 332q29 33 47 71t18 77q0 34 -12 62t-33 48t-50 31t-63 11q-58 0 -102 -29t-58 -80l-29 8q17 61 68.5 96t120.5 35q40 0 74.5 -13.5t60 -37.5t39.5 -57.5t14 -73.5q0 -45 -20 -87.5t-52 -79.5l-249 -294h326v-30h-381z" />
    <glyph glyph-name="three" unicode="3" horiz-adv-x="546" 
d="M424 487q3 29 -5.5 56t-28 48.5t-48.5 35.5t-68 17q-24 2 -48 -3.5t-45 -16.5t-38.5 -26.5t-27.5 -33.5l-26 15q26 46 76.5 72t110.5 22q47 -3 82 -19.5t57.5 -42t32.5 -58t6 -68.5q-3 -40 -28.5 -75t-65.5 -52q29 -7 52.5 -26t39.5 -44.5t23.5 -55.5t5.5 -58
q-4 -41 -24.5 -76t-53 -60t-74 -37.5t-86.5 -9.5q-65 5 -115 38.5t-73 84.5l4 2q2 1 4 1.5t5 2.5l14 6q20 -43 63 -71.5t100 -33.5q40 -2 76 8.5t63 31t44.5 50.5t22.5 66q0 40 -13 71t-34.5 51.5t-49.5 31t-58 10.5h-67v30h67q20 0 41.5 8t40 23t31 36.5t15.5 48.5z" />
    <glyph glyph-name="four" unicode="4" horiz-adv-x="557" 
d="M409 0h-30v145h-349l358 519h21v-489h106v-30h-106v-145zM379 175v430l-294 -430h294z" />
    <glyph glyph-name="five" unicode="5" horiz-adv-x="546" 
d="M114 360q45 20 82.5 30.5t85.5 10.5q37 0 74 -13t67 -38t49 -62.5t19 -86.5q0 -44 -15 -82t-44 -66.5t-71.5 -44.5t-96.5 -16q-30 0 -61 9.5t-59 26.5t-51.5 39.5t-38.5 48.5l26 15q13 -23 33.5 -43t45 -34.5t51.5 -23t54 -8.5q47 0 84 14t62 38t38 56.5t13 70.5
q0 42 -16 73.5t-42 53t-58 32.5t-63 11q-26 0 -48 -2.5t-44 -8.5t-45.5 -15.5t-51.5 -22.5l-12 16l58 326h307v-30h-282z" />
    <glyph glyph-name="six" unicode="6" horiz-adv-x="551" 
d="M80 203q-3 40 -4.5 91t2.5 103t16.5 101.5t38 88.5t66.5 62.5t102 23.5q53 0 98.5 -25t74.5 -90l-27 -12q-24 54 -62.5 75.5t-84.5 21.5t-78 -15.5t-53.5 -41.5t-34 -60t-19 -71.5t-8 -76t-1.5 -73.5v-26q10 33 30 57t45.5 39t55 22t59.5 6q43 -2 79 -19t61.5 -46
t39.5 -67.5t13 -83.5q-2 -43 -19 -79.5t-45 -63t-65.5 -41t-80.5 -13.5q-42 1 -76.5 17t-60.5 44t-42 66.5t-20 85.5zM110 204q0 -39 13 -72.5t36 -58t54 -38.5t67 -15q37 -1 68.5 11.5t55.5 35t38.5 54t16.5 68.5q1 38 -10.5 71t-33.5 57.5t-52.5 39t-67.5 16.5
q-37 1 -70 -11t-58 -34.5t-40.5 -54t-16.5 -69.5z" />
    <glyph glyph-name="seven" unicode="7" horiz-adv-x="493" 
d="M421 634h-363v30h413l-366 -664h-34z" />
    <glyph glyph-name="eight" unicode="8" horiz-adv-x="558" 
d="M118 521q0 32 12 59.5t33.5 48t51 32.5t63.5 12q35 0 65 -12t52 -32.5t34.5 -48t12.5 -59.5q0 -45 -24.5 -81t-65.5 -55q32 -11 59 -29.5t46 -43.5t29.5 -54.5t10.5 -62.5q0 -43 -17 -80.5t-46 -65t-69.5 -43.5t-86.5 -16q-47 0 -86.5 16t-68.5 43.5t-45.5 65t-16.5 80.5
q0 33 10 63t29 55t45 43.5t58 29.5q-39 18 -62 54t-23 81zM91 195q0 -37 14 -69t39 -55.5t59.5 -37t74.5 -13.5t74.5 13.5t60 37t40 55.5t14.5 69q0 35 -14 66t-39 55t-58.5 38.5t-72.5 15.5h-13q-38 -1 -71 -15.5t-57 -38.5t-37.5 -55t-13.5 -66zM148 521q0 -25 9.5 -47.5
t26 -39t39 -26.5t49.5 -11h11q28 1 51.5 11t40.5 26.5t27 39t10 47.5t-10.5 47.5t-28.5 39t-42.5 26t-52.5 9.5t-51.5 -9.5t-41 -26t-27.5 -39t-10 -47.5z" />
    <glyph glyph-name="nine" unicode="9" horiz-adv-x="551" 
d="M471 460q3 -40 4.5 -91t-2.5 -103t-16.5 -101.5t-38 -88.5t-66.5 -62.5t-102 -23.5q-53 0 -99 25t-74 90l27 12q24 -54 62.5 -75.5t84.5 -21.5q45 0 77.5 15.5t54 41.5t34 60t19 71.5t8 76t1.5 73.5v22q-10 -31 -30 -54t-45.5 -38t-55 -22t-59.5 -6q-43 2 -79 19
t-61.5 46t-39.5 67.5t-13 83.5q2 43 19 79.5t45 63t65.5 41t80.5 13.5q42 -1 76.5 -17t60.5 -44t42 -66.5t20 -85.5zM441 459q0 39 -13 72.5t-36 58t-54 38.5t-67 15q-37 1 -68.5 -11.5t-55.5 -35t-38.5 -54t-16.5 -68.5q-1 -38 10.5 -71t33.5 -57.5t52.5 -39.5t67.5 -16
t70 11t58 34.5t40.5 54t16.5 69.5z" />
    <glyph glyph-name="colon" unicode=":" horiz-adv-x="217" 
d="M77 448q0 13 9 21t22 8q14 0 23 -8t9 -21q0 -12 -9 -20t-23 -8q-13 0 -22 8t-9 20zM77 18q0 13 9 21t22 8q14 0 23 -8t9 -21q0 -12 -9 -20t-23 -8q-13 0 -22 8t-9 20z" />
    <glyph glyph-name="semicolon" unicode=";" horiz-adv-x="259" 
d="M68 -132q25 35 42 81.5t15 109.5h30q1 -68 -18 -115t-46 -85zM108 448q0 13 9 21t22 8q14 0 23 -8t9 -21q0 -12 -9 -20t-23 -8q-13 0 -22 8t-9 20z" />
    <glyph glyph-name="less" unicode="&#x3c;" horiz-adv-x="638" 
d="M562 72v-32l-509 195v36l509 195v-32l-473 -182z" />
    <glyph glyph-name="equal" unicode="=" horiz-adv-x="608" 
d="M527 367v-30h-446v30h446zM527 154v-30h-446v30h446z" />
    <glyph glyph-name="greater" unicode="&#x3e;" horiz-adv-x="638" 
d="M549 252l-473 182v32l509 -195v-36l-509 -195v32z" />
    <glyph glyph-name="question" unicode="?" horiz-adv-x="473" 
d="M48 532q3 38 19 68.5t41 51.5t57 32.5t68 11.5q38 0 73.5 -13t62.5 -37t43 -58t16 -76q0 -35 -11 -64t-29.5 -51.5t-43 -38.5t-52.5 -25q-23 -7 -42.5 -15t-33.5 -20.5t-22 -32t-8 -48.5v-62h-30v62q0 37 9.5 61.5t26.5 40t40 25.5t51 18q24 7 44.5 21t36.5 33t25 43
t9 53q0 35 -13.5 63.5t-36.5 48.5t-53 31t-62 11q-30 0 -57 -9.5t-48 -27t-34 -43t-16 -57.5zM140 24q0 13 9 21t22 8q14 0 23 -8t9 -21q0 -12 -9 -20t-23 -8q-13 0 -22 8t-9 20z" />
    <glyph glyph-name="at" unicode="@" horiz-adv-x="1005" 
d="M497 -200q-93 0 -173.5 35t-140 95.5t-93.5 142t-34 174.5t34 175t94 143t141 96.5t174 35.5t177 -32.5t147.5 -90t101 -136.5t37.5 -172q0 -44 -9 -93.5t-30 -91.5t-55 -69.5t-85 -27.5q-24 0 -47.5 6t-41.5 21t-29 39.5t-11 61.5v141q0 35 -13 65t-35.5 52.5t-53 35.5
t-64.5 13t-64.5 -13t-53 -35.5t-35.5 -52.5t-13 -65q0 -34 13 -64.5t35.5 -53t53 -35.5t64.5 -13q23 0 50.5 8t46.5 23v-33q-45 -28 -97 -28q-40 0 -75.5 15.5t-62.5 42.5t-42.5 62.5t-15.5 75.5q0 41 15.5 77t42.5 62.5t62.5 41.5t75.5 15t75.5 -15t62.5 -41.5t42.5 -62.5
t15.5 -77v-141q0 -28 8.5 -47t22.5 -30t31.5 -16t36.5 -5q42 0 70.5 24.5t46 62t25 82t7.5 83.5q0 87 -35 160.5t-94 127t-138 83.5t-166 30t-162.5 -33t-131 -90t-87.5 -133.5t-32 -163.5t31.5 -163t87 -132t130.5 -89t162 -33h34v-30h-34v0z" />
    <glyph glyph-name="A" unicode="A" horiz-adv-x="618" 
d="M61 0h-32l264 689h32l263 -689h-32l-73 192h-348zM145 219h328l-164 428z" />
    <glyph glyph-name="B" unicode="B" horiz-adv-x="618" 
d="M521 528q0 -50 -21.5 -95t-66.5 -65q29 -10 52.5 -30.5t40 -46t25.5 -54t9 -53.5q0 -36 -13 -69.5t-37 -59t-58.5 -40.5t-77.5 -15h-268v690h238q79 0 128 -41t49 -121zM136 352v-322h238q36 0 65 12.5t49 34t31 49.5t11 58q0 26 -9.5 53.5t-27.5 51.5t-44 40.5t-58 21.5
q-8 1 -15.5 1h-15.5h-224zM136 380h234h9.5t9.5 1q26 5 45.5 19t32 34t18.5 44t6 50q0 65 -40.5 98.5t-106.5 33.5h-208v-280z" />
    <glyph glyph-name="C" unicode="C" horiz-adv-x="657" 
d="M620 75q-45 -40 -101.5 -62.5t-121.5 -22.5q-71 0 -133 27.5t-108 75.5t-72 112.5t-26 137.5t26 137.5t72 112.5t108 76t133 28q65 0 122 -23t102 -63l-20 -22q-41 36 -92.5 57t-111.5 21q-65 0 -121.5 -25.5t-98 -69.5t-65.5 -103t-24 -126t24 -125.5t65.5 -102.5
t98 -69.5t121.5 -25.5q60 0 111 20.5t92 56.5z" />
    <glyph glyph-name="D" unicode="D" horiz-adv-x="724" 
d="M106 0v689h254q72 0 128.5 -26.5t95 -73t58.5 -110t20 -136.5t-20 -136t-58.5 -109t-95 -72t-128.5 -26h-254zM360 30q65 0 116 24t85.5 66t52.5 99t18 124t-18 125t-52.5 100.5t-85.5 66.5t-116 24h-224v-629h224z" />
    <glyph glyph-name="E" unicode="E" horiz-adv-x="548" 
d="M480 689v-30h-344v-306h301v-30h-301v-293h356v-30h-386v689h374z" />
    <glyph glyph-name="F" unicode="F" horiz-adv-x="511" 
d="M475 689v-30h-339v-306h269v-30h-269v-323h-30v689h369z" />
    <glyph glyph-name="G" unicode="G" horiz-adv-x="763" 
d="M472 288v30h250q-2 -83 -25.5 -145t-65 -103t-99 -61t-128.5 -20q-73 0 -136.5 27.5t-110 75.5t-73 112.5t-26.5 138.5q0 73 26.5 137.5t73 112.5t110 76t136.5 28q57 0 108.5 -17.5t94.5 -48.5l-18 -24q-38 28 -85 44t-100 16q-67 0 -124.5 -25.5t-100 -69.5t-67 -103
t-24.5 -126t24.5 -126t67 -103t100 -69.5t124.5 -25.5q120 0 196.5 68t89.5 201h-218z" />
    <glyph glyph-name="H" unicode="H" horiz-adv-x="712" 
d="M606 0h-30v329h-440v-329h-30v689h30v-332h440v332h30v-689z" />
    <glyph glyph-name="I" unicode="I" horiz-adv-x="242" 
d="M136 0h-30v689h30v-689z" />
    <glyph glyph-name="J" unicode="J" horiz-adv-x="242" 
d="M-101 -200q22 -3 40 -3q46 0 77.5 14.5t51.5 39t29 57.5t9 71v710h30v-710q0 -44 -10.5 -82.5t-34 -67t-61 -45.5t-91.5 -17q-22 0 -44 3z" />
    <glyph glyph-name="K" unicode="K" horiz-adv-x="518" 
d="M136 0h-30v689h30v-355l296 355h39l-306 -366l349 -323h-42l-336 310v-310z" />
    <glyph glyph-name="L" unicode="L" horiz-adv-x="475" 
d="M136 689v-659h309v-30h-339v689h30z" />
    <glyph glyph-name="M" unicode="M" horiz-adv-x="956" 
d="M479 91l292 598h31l88 -689h-30l-81 642l-284 -577h-33l-285 579l-82 -644h-29l88 689h32z" />
    <glyph glyph-name="N" unicode="N" horiz-adv-x="685" 
d="M579 0h-36l-407 644v-644h-30v689h36l407 -647v647h30v-689z" />
    <glyph glyph-name="O" unicode="O" horiz-adv-x="809" 
d="M58 343q0 73 27 137.5t73.5 112.5t109.5 76t136 28t136.5 -28t110 -76t73.5 -112.5t27 -137.5t-27 -137.5t-73.5 -112.5t-110 -75.5t-136.5 -27.5t-136 27.5t-109.5 75.5t-73.5 112.5t-27 137.5zM88 343q0 -67 24.5 -125.5t67 -102.5t100.5 -69.5t124 -25.5
q67 0 124.5 25.5t100.5 69.5t67.5 102.5t24.5 125.5t-24.5 126t-67.5 103t-100.5 69.5t-124.5 25.5q-66 0 -124 -25.5t-100.5 -69.5t-67 -103t-24.5 -126z" />
    <glyph glyph-name="P" unicode="P" horiz-adv-x="598" 
d="M136 0h-30v689h266q51 0 86 -17t57.5 -45.5t32.5 -65t10 -75.5t-10 -75t-33 -64.5t-59.5 -45.5t-88.5 -17h-231v-284zM136 659v-345h231q44 0 75 14.5t50 38.5t27.5 55t8.5 64t-8.5 64t-27 55.5t-48.5 39t-72 14.5h-236z" />
    <glyph glyph-name="Q" unicode="Q" horiz-adv-x="809" 
d="M58 343q0 73 27 137.5t73.5 112.5t109.5 76t136 28t136.5 -28t110 -76t73.5 -112.5t27 -137.5q0 -103 -50 -185t-133 -127l84 -131l-26 -16l-85 133q-32 -13 -66 -20t-71 -7q-73 0 -136 27.5t-109.5 75.5t-73.5 112.5t-27 137.5zM440 176l26 16l86 -136q38 20 69 50
t53.5 67t34.5 80t12 90q0 67 -24.5 126t-67.5 103t-100.5 69.5t-124.5 25.5q-66 0 -124 -25.5t-100.5 -69.5t-67 -103t-24.5 -126t24.5 -125.5t67 -102.5t100.5 -69.5t124 -25.5q63 0 120 23z" />
    <glyph glyph-name="R" unicode="R" horiz-adv-x="601" 
d="M136 0h-30v689h252q51 0 86 -17t57.5 -45.5t32.5 -65t10 -75.5t-10 -75t-33 -64.5t-59.5 -45.5t-88.5 -17h-27l201 -284h-36l-202 284h-153v-284zM136 659v-345h217q44 0 75 14.5t50 38.5t27.5 55t8.5 64t-8.5 64t-27 55.5t-48.5 39t-72 14.5h-222z" />
    <glyph glyph-name="S" unicode="S" horiz-adv-x="559" 
d="M90 166q4 -28 19 -54.5t39 -46.5t56 -32.5t71 -12.5q45 0 80 12t60 31.5t39.5 44t19.5 48.5q6 39 -4.5 68.5t-32 51t-52.5 35.5t-66 22l-98 23q-52 11 -82.5 30.5t-47 42t-21.5 46.5t-5 44q0 40 17.5 72.5t47 56t67 36.5t77.5 13q42 0 78 -11.5t63.5 -33.5t45 -53
t20.5 -70h-30q-3 32 -18 57.5t-38.5 43.5t-54.5 27.5t-66 9.5q-34 0 -66.5 -11t-57.5 -30.5t-40 -46.5t-15 -60q0 -17 4 -36t18 -37.5t40 -34.5t70 -26l98 -23q40 -9 76 -25.5t61 -42t36.5 -61.5t4.5 -83q-6 -29 -22.5 -57.5t-45 -51t-68.5 -37t-92 -14.5q-46 0 -83.5 15
t-65.5 39.5t-45 56.5t-21 65h30z" />
    <glyph glyph-name="T" unicode="T" horiz-adv-x="551" 
d="M524 689v-30h-234v-659h-30v659h-233v30h497z" />
    <glyph glyph-name="U" unicode="U" horiz-adv-x="674" 
d="M575 226q0 -54 -19 -97.5t-51.5 -74.5t-75.5 -48t-92 -17t-92 17t-75.5 48t-51.5 74.5t-19 97.5v463h30v-463q0 -47 16.5 -85t45 -65t66 -42t80.5 -15t80.5 15t66 42t45 65t16.5 85v463h30v-463z" />
    <glyph glyph-name="V" unicode="V" horiz-adv-x="539" 
d="M41 689h32l197 -656l196 656h32l-206 -689h-44z" />
    <glyph glyph-name="W" unicode="W" horiz-adv-x="924" 
d="M891 689l-234 -689h-37l-158 539l-158 -539h-37l-234 689h31l220 -648l158 538h40l157 -539l220 649h32z" />
    <glyph glyph-name="X" unicode="X" horiz-adv-x="565" 
d="M300 373l251 -373h-37l-232 349l-232 -349h-36l250 373l-212 316h36l194 -292l194 292h37z" />
    <glyph glyph-name="Y" unicode="Y" horiz-adv-x="593" 
d="M311 330v-330h-30v331l-257 358h36l236 -330l238 330h36z" />
    <glyph glyph-name="Z" unicode="Z" horiz-adv-x="523" 
d="M483 30v-30h-443v16l403 643h-403v30h443v-20l-400 -639h400z" />
    <glyph glyph-name="bracketleft" unicode="[" horiz-adv-x="273" 
d="M96 689h133v-30h-103v-855h103v-30h-133v915z" />
    <glyph glyph-name="backslash" unicode="\" horiz-adv-x="445" 
d="M72 689l334 -689h-33l-334 689h33z" />
    <glyph glyph-name="bracketright" unicode="]" horiz-adv-x="273" 
d="M177 -226h-133v30h103v855h-103v30h133v-915z" />
    <glyph glyph-name="underscore" unicode="_" horiz-adv-x="657" 
d="M581 -28v-30h-505v30h505z" />
    <glyph glyph-name="grave" unicode="`" horiz-adv-x="421" 
d="M129 665h36l79 -127h-27z" />
    <glyph glyph-name="a" unicode="a" 
d="M510 116q-31 -57 -87.5 -91.5t-126.5 -34.5q-50 0 -94.5 19t-77.5 52t-52 77.5t-19 95.5q0 50 19 94.5t52 77.5t77.5 52t94.5 19q70 0 126.5 -34.5t87.5 -91.5v116h30v-467h-30v116zM83 234q0 -44 17 -83t46 -68t67.5 -46t82.5 -17q43 0 81.5 16t67.5 43.5t46 65t19 80.5
v9q0 44 -17 82.5t-46 67.5t-68 46t-83 17t-82.5 -17t-67.5 -46t-46 -67.5t-17 -82.5z" />
    <glyph glyph-name="b" unicode="b" 
d="M117 0h-30v742h30v-391q31 57 87.5 91.5t126.5 34.5q50 0 94.5 -19t77.5 -52t52 -77.5t19 -94.5q0 -51 -19 -95.5t-52 -77.5t-77.5 -52t-94.5 -19q-70 0 -126.5 34.5t-87.5 91.5v-116zM544 234q0 44 -17 82.5t-46 67.5t-67.5 46t-82.5 17t-83 -17t-68 -46t-46 -67.5
t-17 -82.5v-9q1 -43 18.5 -80.5t46.5 -65t67.5 -43.5t81.5 -16q44 0 82.5 17t67.5 46t46 68t17 83z" />
    <glyph glyph-name="c" unicode="c" horiz-adv-x="499" 
d="M449 40q-32 -24 -71 -37t-82 -13q-50 0 -94 17.5t-77 49.5t-52.5 77t-19.5 101q0 55 19.5 100t52.5 76.5t77 48.5t94 17q42 0 81 -13.5t71 -36.5l-17 -24q-28 20 -62.5 32t-72.5 12q-44 0 -82.5 -15t-67.5 -42.5t-46 -67t-17 -87.5q0 -49 17 -88.5t46 -67.5t67.5 -43.5
t82.5 -15.5q38 0 72 11.5t63 32.5z" />
    <glyph glyph-name="d" unicode="d" 
d="M510 116q-31 -57 -87.5 -91.5t-126.5 -34.5q-50 0 -94.5 19t-77.5 52t-52 77.5t-19 95.5q0 50 19 94.5t52 77.5t77.5 52t94.5 19q70 0 126.5 -34.5t87.5 -91.5v391h30v-742h-30v116zM83 234q0 -44 17 -83t46 -68t67.5 -46t82.5 -17q43 0 81.5 16t67.5 43.5t46 65t19 80.5
v9q0 44 -17 82.5t-46 67.5t-68 46t-83 17t-82.5 -17t-67.5 -46t-46 -67.5t-17 -82.5z" />
    <glyph glyph-name="e" unicode="e" horiz-adv-x="562" 
d="M517 222h-433q2 -46 19 -83.5t44.5 -63.5t64 -40.5t77.5 -14.5q56 0 101.5 25t73.5 70l26 -16q-32 -51 -84.5 -80t-116.5 -29q-49 0 -92 17.5t-74.5 49.5t-50 77t-18.5 101q0 55 18.5 100t50 76.5t74.5 48.5t92 17t91 -17t72.5 -48.5t47.5 -76.5t17 -100v-13zM289 447
q-41 0 -77.5 -14t-64 -39.5t-44 -62.5t-19.5 -82h403q-2 45 -17.5 82t-42 62.5t-61.5 39.5t-77 14z" />
    <glyph glyph-name="f" unicode="f" horiz-adv-x="309" 
d="M30 440v27h96v79q0 41 8 77t26 62.5t48 41.5t74 15h34v-30h-34q-36 0 -60 -13t-38.5 -35.5t-21 -52.5t-6.5 -65v-79h132v-27h-132v-440h-30v440h-96z" />
    <glyph glyph-name="g" unicode="g" 
d="M83 234q0 -44 17 -83t46 -68t67.5 -46t82.5 -17q43 0 81.5 16t67.5 43.5t46 65t19 80.5v9q0 44 -17 82.5t-46 67.5t-68 46t-83 17t-82.5 -17t-67.5 -46t-46 -67.5t-17 -82.5zM123 -117q32 -45 75.5 -65.5t90.5 -20.5q49 0 89.5 12.5t69.5 43t45.5 82.5t16.5 132v49
q-31 -57 -87.5 -91.5t-126.5 -34.5q-50 0 -94.5 19t-77.5 52t-52 77.5t-19 95.5q0 50 19 94.5t52 77.5t77.5 52t94.5 19q70 0 126.5 -34.5t87.5 -91.5v116h30v-400q0 -88 -18.5 -145.5t-51.5 -92t-79.5 -48.5t-101.5 -14q-54 0 -104.5 24t-86.5 75z" />
    <glyph glyph-name="h" unicode="h" horiz-adv-x="562" 
d="M87 742h30v-378q10 31 28.5 52.5t41.5 35t50 19.5t53 6q40 0 75 -14t61 -40t40.5 -63.5t14.5 -84.5v-275h-30v275q0 40 -12.5 72t-34 54t-51 34t-63.5 12q-33 0 -63.5 -9.5t-54.5 -31t-39 -56t-16 -83.5v-267h-30v742z" />
    <glyph glyph-name="i" unicode="i" horiz-adv-x="204" 
d="M71 639q0 13 9 21t22 8q14 0 23 -8t9 -21q0 -12 -9 -20t-23 -8q-13 0 -22 8t-9 20zM87 467h30v-467h-30v467z" />
    <glyph glyph-name="j" unicode="j" horiz-adv-x="204" 
d="M117 -34q0 -41 -8 -77t-26 -62.5t-48 -41.5t-74 -15h-34v30h34q36 0 60 13t38.5 35.5t21 52.5t6.5 65v501h30v-501zM71 639q0 13 9 21t22 8q14 0 23 -8t9 -21q0 -12 -9 -20t-23 -8q-13 0 -22 8t-9 20z" />
    <glyph glyph-name="k" unicode="k" horiz-adv-x="433" 
d="M383 0l-266 254v-254h-30v742h30v-474l194 199h43l-201 -205l274 -262h-44z" />
    <glyph glyph-name="l" unicode="l" horiz-adv-x="204" 
d="M87 742h30v-742h-30v742z" />
    <glyph glyph-name="m" unicode="m" horiz-adv-x="925" 
d="M451 275q0 40 -12.5 72t-34 54t-51 34t-63.5 12q-33 0 -63.5 -9.5t-54.5 -31t-39 -56t-16 -83.5v-267h-30v467h30v-103q10 31 28.5 52.5t41.5 35t50 19.5t53 6q66 0 114 -34.5t65 -100.5q9 40 29 66.5t46 41.5t55 21t55 6q40 0 75 -14t61 -40t40.5 -63.5t14.5 -84.5v-275
h-30v275q0 40 -12.5 72t-34 54t-51 34t-63.5 12q-33 0 -63.5 -9.5t-54.5 -31t-39 -56t-16 -83.5v-267h-30v275z" />
    <glyph glyph-name="n" unicode="n" horiz-adv-x="561" 
d="M87 467h30v-103q10 31 28.5 52.5t41.5 35t50 19.5t53 6q40 0 75 -14t61 -40t40.5 -63.5t14.5 -84.5v-275h-30v275q0 40 -12.5 72t-34 54t-51 34t-63.5 12q-33 0 -63.5 -9.5t-54.5 -31t-39 -56t-16 -83.5v-267h-30v467z" />
    <glyph glyph-name="o" unicode="o" horiz-adv-x="594" 
d="M297 -10q-50 0 -94.5 17.5t-77.5 49.5t-52.5 77t-19.5 101q0 55 19.5 100t52.5 76.5t77.5 48.5t94.5 17t94.5 -17t77.5 -48.5t52.5 -76.5t19.5 -100q0 -56 -19.5 -101t-52.5 -77t-77.5 -49.5t-94.5 -17.5zM297 20q44 0 83 15t68 43t46 68t17 89t-17 88t-46 66.5t-68 42.5
t-83 15t-83 -15t-68 -42.5t-46 -66.5t-17 -88t17 -89t46 -68t68 -43t83 -15z" />
    <glyph glyph-name="p" unicode="p" 
d="M117 351q31 57 87.5 91.5t126.5 34.5q50 0 94.5 -19t77.5 -52t52 -77.5t19 -95.5q0 -50 -19 -94.5t-52 -77.5t-77.5 -52t-94.5 -19q-70 0 -126.5 34.5t-87.5 91.5v-342h-30v693h30v-116zM544 233q0 44 -17 83t-46 68t-67.5 46t-82.5 17q-43 0 -81.5 -16t-67.5 -44
t-46.5 -65t-18.5 -80v-9q0 -44 17 -82.5t46 -67.5t68 -46t83 -17t82.5 17t67.5 46t46 67.5t17 82.5z" />
    <glyph glyph-name="q" unicode="q" 
d="M510 467h30v-693h-30v342q-31 -57 -87.5 -91.5t-126.5 -34.5q-50 0 -94.5 19t-77.5 52t-52 77.5t-19 94.5q0 51 19 95.5t52 77.5t77.5 52t94.5 19q70 0 126.5 -34.5t87.5 -91.5v116zM83 233q0 -44 17 -82.5t46 -67.5t67.5 -46t82.5 -17t83 17t68 46t46 67.5t17 82.5v9
q-2 43 -19 80t-46 65t-67.5 44t-81.5 16q-44 0 -82.5 -17t-67.5 -46t-46 -68t-17 -83z" />
    <glyph glyph-name="r" unicode="r" horiz-adv-x="364" 
d="M87 467h30v-132q7 28 21.5 54t35.5 45.5t48.5 31t61.5 11.5q14 0 30 -1.5t35 -7.5l-9 -29q-17 5 -31 6.5t-25 1.5q-51 0 -83.5 -26.5t-50.5 -66.5t-25 -85.5t-8 -84.5v-184h-30v467z" />
    <glyph glyph-name="s" unicode="s" horiz-adv-x="419" 
d="M211 477q58 0 97.5 -30.5t44.5 -83.5h-31q-5 38 -35.5 61t-75.5 23q-44 0 -76.5 -20.5t-37.5 -55.5q-3 -28 4.5 -47t21 -31.5t30.5 -19.5t33 -11l69 -16q63 -16 88.5 -49.5t25.5 -75.5q0 -59 -43 -95t-116 -36q-29 0 -56 7.5t-49 22t-38 37t-22 52.5h30q6 -15 15.5 -31
t25.5 -29t39 -21t55 -8q60 0 94.5 28t34.5 73q0 32 -20 57.5t-70 38.5l-70 16q-20 5 -41.5 13.5t-38.5 24.5t-26.5 41t-5.5 62q3 24 15.5 43t32 32.5t44.5 20.5t52 7z" />
    <glyph glyph-name="t" unicode="t" horiz-adv-x="285" 
d="M143 440v-440h-30v440h-85v27h85v198h30v-198h116v-27h-116z" />
    <glyph glyph-name="u" unicode="u" horiz-adv-x="561" 
d="M474 0h-30v103q-10 -31 -28.5 -52.5t-41.5 -35t-50 -19.5t-53 -6q-41 0 -75.5 14t-60.5 40t-40.5 63.5t-14.5 84.5v275h30v-275q0 -40 12.5 -72t34 -54t51 -34t63.5 -12q33 0 63.5 9.5t54.5 31t38.5 56t16.5 83.5v267h30v-467z" />
    <glyph glyph-name="v" unicode="v" horiz-adv-x="498" 
d="M468 467l-200 -467h-39l-198 467h33l184 -436l187 436h33z" />
    <glyph glyph-name="w" unicode="w" horiz-adv-x="825" 
d="M615 0h-31l-173 447l-167 -447h-32l-180 467h32l164 -425l159 425h49l163 -423l160 423h32z" />
    <glyph glyph-name="x" unicode="x" horiz-adv-x="449" 
d="M244 259l186 -259h-38l-167 232l-168 -232h-38l187 259l-150 208h38l131 -182l130 182h38z" />
    <glyph glyph-name="y" unicode="y" horiz-adv-x="498" 
d="M171 -226h-33l93 221l-200 472h33l184 -436l187 436h33l-200 -467z" />
    <glyph glyph-name="z" unicode="z" horiz-adv-x="467" 
d="M43 0v18l335 419h-335v30h381v-20l-333 -417h333v-30h-381z" />
    <glyph glyph-name="braceleft" unicode="{" horiz-adv-x="356" 
d="M293 -226q-38 0 -71 13t-58 36.5t-39.5 57t-14.5 75.5v176q0 31 -19 56t-48 33v26q29 8 48 33t19 56v179q0 42 14.5 75.5t40 57t58.5 36.5t70 13h22v-30h-22q-31 0 -59 -10.5t-49 -30.5t-33 -48t-12 -63v-179q0 -32 -15 -59t-40 -44q23 -17 39 -44.5t16 -56.5v-176
q0 -35 12 -63t33 -48t48.5 -30.5t59.5 -10.5h22v-30h-22z" />
    <glyph glyph-name="bar" unicode="|" horiz-adv-x="222" 
d="M126 -129h-30v926h30v-926z" />
    <glyph glyph-name="braceright" unicode="}" horiz-adv-x="356" 
d="M41 -226v30h22q31 0 59 10.5t49 30.5t33 48t12 63v176q0 29 16 56.5t39 44.5q-25 17 -40 44t-15 59v179q0 35 -12 63t-33 48t-49 30.5t-59 10.5h-22v30h22q37 0 70 -13t58.5 -36.5t40 -57t14.5 -75.5v-179q0 -31 19 -56t48 -33v-26q-29 -8 -48 -33t-19 -56v-176
q0 -42 -14.5 -75.5t-39.5 -57t-58.5 -36.5t-70.5 -13h-22z" />
    <glyph glyph-name="exclamdown" unicode="&#xa1;" horiz-adv-x="210" 
d="M90 -226v545h30v-545h-30zM74 450q0 12 9 20t22 8q14 0 23 -8t9 -20q0 -13 -9 -21t-23 -8q-13 0 -22 8t-9 21z" />
    <glyph glyph-name="cent" unicode="&#xa2;" horiz-adv-x="520" 
d="M303 -119h-30v110q-45 4 -84.5 23.5t-69 51t-46 74.5t-16.5 95q0 51 16.5 93.5t46 74t69 50t84.5 23.5v100h30v-99q42 -1 79.5 -14.5t69.5 -35.5l-17 -24q-28 20 -62.5 32t-72.5 12q-44 0 -82.5 -15t-67.5 -42.5t-46 -67t-17 -87.5q0 -49 17 -88.5t46 -67.5t67.5 -43.5
t82.5 -15.5q38 0 72 11.5t63 32.5l18 -24q-64 -48 -150 -50v-109z" />
    <glyph glyph-name="sterling" unicode="&#xa3;" horiz-adv-x="630" 
d="M65 301v28h85v190q0 42 16.5 76t43.5 58t62 37t73 13q36 0 68.5 -11.5t57.5 -32.5t40.5 -51.5t18.5 -68.5h-30q-3 31 -16.5 56t-34 42t-47.5 26.5t-57 9.5q-32 0 -61.5 -11t-52.5 -31t-37 -48.5t-14 -63.5v-190h121v-28h-121v-271h322q18 0 30 13t12 33v43h30v-43
q0 -32 -21 -54t-51 -22h-455v30h103v271h-85z" />
    <glyph glyph-name="currency" unicode="&#xa4;" horiz-adv-x="595" 
d="M101 564l79 -79q25 21 55 31.5t61.5 10t61.5 -11.5t55 -32l81 81l21 -21l-81 -81q21 -25 31.5 -55t11 -61t-9.5 -61.5t-31 -55.5l80 -80l-21 -21l-80 80q-26 -22 -56.5 -33.5t-62 -11.5t-62.5 10.5t-57 31.5l-76 -75l-21 21l76 75q-21 26 -32 57t-10.5 63t11.5 62.5
t33 56.5l-78 78zM188 452q-23 -22 -34 -50t-11 -57t11 -57.5t34 -50.5q22 -22 50 -33t57 -11t57 11t51 33q22 22 33 50.5t11 57.5t-11 57t-33 50q-23 22 -51 33t-57 11t-57 -11t-50 -33z" />
    <glyph glyph-name="yen" unicode="&#xa5;" horiz-adv-x="615" 
d="M292 120h-165v30h165v92h-165v30h165v59l-257 358h36l236 -330l238 330h36l-259 -359v-58h165v-30h-165v-92h165v-30h-165v-120h-30v120z" />
    <glyph glyph-name="brokenbar" unicode="&#xa6;" horiz-adv-x="226" 
d="M98 797h30v-358h-30v358zM128 -129h-30v357h30v-357z" />
    <glyph glyph-name="section" unicode="&#xa7;" horiz-adv-x="496" 
d="M323 199q-15 -5 -31.5 -7.5t-33.5 -2.5q-38 0 -72 13t-59.5 37t-40 58t-14.5 76v140q0 42 14.5 76t40 58t59.5 37t72 13q54 0 99 -25.5t68 -71.5l-27 -13q-18 38 -56 59t-84 21q-32 0 -60.5 -11t-49.5 -31t-33.5 -48.5t-12.5 -63.5v-140q0 -36 12.5 -64.5t33.5 -48.5
t49.5 -30.5t60.5 -10.5q17 0 34 3t31 8v-31zM174 369q15 5 31.5 7.5t33.5 2.5q38 0 72 -13t59.5 -37t40 -58t14.5 -76v-140q0 -42 -14.5 -76t-40 -58t-59.5 -37t-72 -13q-54 0 -99 25.5t-68 71.5l27 13q18 -38 56 -59t84 -21q32 0 60.5 11t49.5 31t33.5 48.5t12.5 63.5v140
q0 36 -12.5 64.5t-33.5 48.5t-49.5 30.5t-60.5 10.5q-17 0 -34 -3t-31 -8v31z" />
    <glyph glyph-name="dieresis" unicode="&#xa8;" horiz-adv-x="456" 
d="M120 621q0 13 9 21t22 8q14 0 23 -8t9 -21q0 -12 -9 -20t-23 -8q-13 0 -22 8t-9 20zM273 621q0 13 9 21t22 8q14 0 23 -8t9 -21q0 -12 -9 -20t-23 -8q-13 0 -22 8t-9 20z" />
    <glyph glyph-name="copyright" unicode="&#xa9;" horiz-adv-x="823" 
d="M62 343q0 73 27 137.5t74.5 112.5t111 76t136.5 28t137 -28t111 -76t74.5 -112.5t27.5 -137.5t-27.5 -137.5t-74.5 -112.5t-111 -75.5t-137 -27.5t-136.5 27.5t-111 75.5t-74.5 112.5t-27 137.5zM92 343q0 -67 25 -125.5t68 -102.5t101 -69.5t125 -25.5t125 25.5
t101.5 69.5t68.5 102.5t25 125.5t-25 126t-68.5 103t-101.5 69.5t-125 25.5t-125 -25.5t-101 -69.5t-68 -103t-25 -126zM528 209q-23 -20 -51.5 -31t-60.5 -11q-36 0 -66.5 14t-53.5 38t-36 56t-13 68q0 37 13 69t36 56t53.5 38t66.5 14q32 0 61 -11.5t51 -31.5l-20 -22
q-18 17 -42 26t-50 9q-29 0 -54.5 -11.5t-44.5 -31.5t-29.5 -47t-10.5 -57t10.5 -56.5t29.5 -46.5t44.5 -31.5t54.5 -11.5q26 0 49.5 9t42.5 26z" />
    <glyph glyph-name="ordfeminine" unicode="&#xaa;" horiz-adv-x="489" 
d="M371 421q-21 -31 -55 -49.5t-76 -18.5q-33 0 -62 12.5t-51 34t-34.5 51t-12.5 62.5t12.5 62t34.5 51t51 34.5t62 12.5q42 0 76 -18.5t55 -50.5v62h30v-307h-30v62zM110 513q0 -27 10.5 -51t28 -41.5t41 -28t50.5 -10.5t50.5 10t41 27t28 39.5t11.5 48.5v6
q0 27 -10.5 50.5t-28 41.5t-41.5 28t-51 10t-50.5 -10t-41 -28t-28 -41.5t-10.5 -50.5zM91 300h305v-29h-305v29z" />
    <glyph glyph-name="guillemotleft" unicode="&#xab;" horiz-adv-x="401" 
d="M230 25h-37l-138 207l138 207h36l-138 -207zM343 25h-37l-138 207l138 207h36l-138 -207z" />
    <glyph glyph-name="logicalnot" unicode="&#xac;" horiz-adv-x="654" 
d="M573 133h-30v169h-449v30h479v-199z" />
    <glyph glyph-name="registered" unicode="&#xae;" horiz-adv-x="823" 
d="M62 343q0 73 27 137.5t74.5 112.5t111 76t136.5 28t137 -28t111 -76t74.5 -112.5t27.5 -137.5t-27.5 -137.5t-74.5 -112.5t-111 -75.5t-137 -27.5t-136.5 27.5t-111 75.5t-74.5 112.5t-27 137.5zM92 343q0 -67 25 -125.5t68 -102.5t101 -69.5t125 -25.5t125 25.5
t101.5 69.5t68.5 102.5t25 125.5t-25 126t-68.5 103t-101.5 69.5t-125 25.5t-125 -25.5t-101 -69.5t-68 -103t-25 -126zM332 165h-30v360h132q30 0 50.5 -10t33 -26.5t18.5 -37.5t6 -43q0 -21 -5 -40t-16 -35t-28.5 -26.5t-42.5 -13.5l83 -128h-34l-83 127h-84v-127z
M332 322h100q44 0 62 26.5t18 59.5q0 16 -4 32t-13.5 28t-24.5 19.5t-36 7.5h-102v-173z" />
    <glyph glyph-name="macron" unicode="&#xaf;" horiz-adv-x="468" 
d="M348 629v-27h-228v27h228z" />
    <glyph glyph-name="degree" unicode="&#xb0;" horiz-adv-x="354" 
d="M65 585q0 24 9 44.5t24 35.5t35.5 23.5t43.5 8.5t43.5 -8.5t35.5 -23.5t24 -35.5t9 -44.5q0 -23 -9 -43.5t-24 -35.5t-35.5 -24t-43.5 -9t-43.5 9t-35.5 24t-24 35.5t-9 43.5zM95 585q0 -34 24 -58t58 -24t58 24t24 58q0 35 -24 58.5t-58 23.5t-58 -23.5t-24 -58.5z" />
    <glyph glyph-name="plusminus" unicode="&#xb1;" horiz-adv-x="554" 
d="M262 438h30v-164h181v-30h-181v-166h-30v166h-181v30h181v164zM81 0v30h392v-30h-392z" />
    <glyph glyph-name="uni00B2" unicode="&#xb2;" horiz-adv-x="315" 
d="M273 472h-234v11l167 200q16 19 26 39t10 42q0 37 -25.5 59.5t-63.5 22.5q-32 0 -57.5 -17.5t-31.5 -47.5l-28 8q8 40 40.5 63.5t76.5 23.5q51 0 85 -31t34 -81q0 -28 -12.5 -53.5t-31.5 -47.5l-136 -161h181v-30z" />
    <glyph glyph-name="uni00B3" unicode="&#xb3;" horiz-adv-x="324" 
d="M236 767q2 31 -17.5 53.5t-60.5 25.5q-26 2 -50.5 -9.5t-35.5 -31.5l-25 15q16 27 46.5 42.5t66.5 13.5q57 -4 84 -37t23 -76q-2 -24 -17.5 -44.5t-39.5 -31.5q17 -4 31 -15.5t23.5 -27t14 -33.5t3.5 -35q-2 -25 -13.5 -45.5t-30 -35.5t-42.5 -22.5t-51 -5.5
q-38 2 -64.5 16.5t-46.5 51.5l24 16q14 -28 37 -40t52 -14q43 -2 72 21.5t33 62.5q0 20 -7 36.5t-19.5 28.5t-29.5 18.5t-35 6.5h-39v29h39q28 0 50.5 19t24.5 48z" />
    <glyph glyph-name="acute" unicode="&#xb4;" horiz-adv-x="421" 
d="M156 538h-27l79 127h36z" />
    <glyph glyph-name="uni00B5" unicode="&#xb5;" horiz-adv-x="561" 
d="M94 467h30v-275q0 -40 12.5 -72t34 -54t51 -34t63.5 -12q33 0 63.5 9.5t54.5 31t38.5 56t16.5 83.5v267h30v-467h-30v103q-10 -31 -28.5 -52.5t-41.5 -35t-50 -19.5t-53 -6q-52 0 -94 22t-67 64v-214h-30v605z" />
    <glyph glyph-name="paragraph" unicode="&#xb6;" horiz-adv-x="594" 
d="M296 -73h-30v345q-48 0 -89.5 16.5t-72.5 44.5t-49 66t-18 82q0 43 16.5 81t44.5 66t66 44.5t82 16.5h50v-762zM305 -164q16 0 31 6.5t25.5 18t17 26t6.5 30.5v772h50q25 0 46.5 -9.5t38 -26t26 -38.5t9.5 -47v-63h-30v63q0 38 -26 64.5t-64 26.5h-20v-742q0 -22 -9 -42
t-24 -35.5t-35 -24.5t-42 -9h-39v30h39z" />
    <glyph glyph-name="periodcentered" unicode="&#xb7;" horiz-adv-x="217" 
d="M77 234q0 13 9 21t22 8q14 0 23 -8t9 -21q0 -12 -9 -20t-23 -8q-13 0 -22 8t-9 20z" />
    <glyph glyph-name="cedilla" unicode="&#xb8;" horiz-adv-x="499" 
d="M331 -70q15 -36 1.5 -70t-49.5 -48q-34 -14 -67 0t-48 49q-4 10 -6 19t-2 20h29q0 -14 6 -29v1q8 -18 22.5 -28t31.5 -10q14 0 23 4q18 8 28 22.5t10 32.5q0 12 -6 26l-36 86h32z" />
    <glyph glyph-name="uni00B9" unicode="&#xb9;" horiz-adv-x="188" 
d="M98 472v355l-69 -24v30l99 36v-397h-30z" />
    <glyph glyph-name="ordmasculine" unicode="&#xba;" horiz-adv-x="484" 
d="M241 353q-33 0 -62.5 11.5t-51 32.5t-34.5 50.5t-13 65.5q0 37 13 66.5t34.5 50.5t51 32t62.5 11t62 -11t51 -32t35 -50.5t13 -66.5q0 -36 -13 -65.5t-35 -50.5t-51 -32.5t-62 -11.5zM241 382q27 0 50.5 9t41.5 26.5t28.5 41.5t10.5 54t-10.5 54t-28.5 41t-41.5 26
t-50.5 9t-51 -9t-41.5 -26t-28 -41t-10.5 -54t10.5 -54t28 -41.5t41.5 -26.5t51 -9zM91 300h305v-29h-305v29z" />
    <glyph glyph-name="guillemotright" unicode="&#xbb;" horiz-adv-x="401" 
d="M310 232l-138 207h36l138 -207l-138 -207h-37zM197 232l-138 207h36l138 -207l-138 -207h-37z" />
    <glyph glyph-name="onequarter" unicode="&#xbc;" horiz-adv-x="736" 
d="M118 265v355l-69 -24v30l99 36v-397h-30zM447 114h154v225zM631 86v-86h-30v86h-209l217 313h22v-285h62v-28h-62zM126 -10h-36l448 683h36z" />
    <glyph glyph-name="onehalf" unicode="&#xbd;" horiz-adv-x="778" 
d="M118 265v355l-69 -24v30l99 36v-397h-30zM126 -10h-36l448 683h36zM722 0h-234v11l167 200q16 19 26 39t10 42q0 37 -25.5 59.5t-63.5 22.5q-32 0 -57.5 -17.5t-31.5 -47.5l-28 8q8 40 40.5 63.5t76.5 23.5q51 0 85 -31t34 -81q0 -28 -12.5 -53.5t-31.5 -47.5l-136 -161
h181v-30z" />
    <glyph glyph-name="threequarters" unicode="&#xbe;" horiz-adv-x="848" 
d="M559 114h154v225zM743 86v-86h-30v86h-209l217 313h22v-285h62v-28h-62zM238 -10h-36l448 683h36zM256 560q2 31 -17.5 53.5t-60.5 25.5q-26 2 -50.5 -9.5t-35.5 -31.5l-25 15q16 27 46.5 42.5t66.5 13.5q57 -4 84 -37t23 -76q-2 -24 -17.5 -44.5t-39.5 -31.5
q17 -4 31 -15.5t23.5 -27t14 -33.5t3.5 -35q-2 -25 -13.5 -45.5t-30 -35.5t-42.5 -22.5t-51 -5.5q-38 2 -64.5 16.5t-46.5 51.5l24 16q14 -28 37 -40t52 -14q43 -2 72 21.5t33 62.5q0 20 -7 36.5t-19.5 28.5t-29.5 18.5t-35 6.5h-39v29h39q28 0 50.5 19t24.5 48z" />
    <glyph glyph-name="questiondown" unicode="&#xbf;" horiz-adv-x="460" 
d="M419 -67q-3 -38 -19 -68.5t-41 -51.5t-57 -32.5t-68 -11.5q-38 0 -73.5 13t-62.5 37t-43 58t-16 76q0 34 11 63.5t29.5 52t43 38.5t52.5 25q23 7 42.5 15t33.5 20.5t22 32t8 48.5v71h30v-71q0 -37 -9.5 -61.5t-26.5 -40t-40 -25.5t-51 -18q-24 -8 -44.5 -21.5
t-36.5 -32.5t-25 -43t-9 -53q0 -35 13.5 -63.5t36.5 -48.5t53 -31t62 -11q30 0 57 9.5t48 27t34 43t16 57.5zM327 450q0 -13 -9 -21t-22 -8q-14 0 -23 8t-9 21q0 12 9 20t23 8q13 0 22 -8t9 -20z" />
    <glyph glyph-name="Agrave" unicode="&#xc0;" horiz-adv-x="618" 
d="M61 0h-32l264 689h32l263 -689h-32l-73 192h-348zM145 219h328l-164 428zM204 887h36l79 -127h-27z" />
    <glyph glyph-name="Aacute" unicode="&#xc1;" horiz-adv-x="618" 
d="M61 0h-32l264 689h32l263 -689h-32l-73 192h-348zM145 219h328l-164 428zM333 760h-27l79 127h36z" />
    <glyph glyph-name="Acircumflex" unicode="&#xc2;" horiz-adv-x="618" 
d="M61 0h-32l264 689h32l263 -689h-32l-73 192h-348zM145 219h328l-164 428zM332 887l110 -127h-30l-104 109l-104 -109h-30l110 127h48z" />
    <glyph glyph-name="Atilde" unicode="&#xc3;" horiz-adv-x="618" 
d="M61 0h-32l264 689h32l263 -689h-32l-73 192h-348zM145 219h328l-164 428zM301 809q-11 8 -20 14.5t-22 6.5q-11 0 -23.5 -9.5t-13.5 -34.5h-30q1 20 8 33.5t17 22t21.5 12t20.5 3.5q20 0 33 -8t25 -17q10 -8 20 -13.5t21 -5.5t23.5 9.5t13.5 34.5h30q-1 -20 -8 -33.5
t-17 -22t-21.5 -12t-20.5 -3.5q-20 0 -32.5 7t-24.5 16z" />
    <glyph glyph-name="Adieresis" unicode="&#xc4;" horiz-adv-x="618" 
d="M61 0h-32l264 689h32l263 -689h-32l-73 192h-348zM145 219h328l-164 428zM200 843q0 13 9 21t22 8q14 0 23 -8t9 -21q0 -12 -9 -20t-23 -8q-13 0 -22 8t-9 20zM353 843q0 13 9 21t22 8q14 0 23 -8t9 -21q0 -12 -9 -20t-23 -8q-13 0 -22 8t-9 20z" />
    <glyph glyph-name="Aring" unicode="&#xc5;" horiz-adv-x="618" 
d="M61 0h-32l264 689h32l263 -689h-32l-73 192h-348zM145 219h328l-164 428zM226 861q0 35 23.5 59.5t57.5 24.5q18 0 33 -6.5t26.5 -18t18 -27t6.5 -32.5q0 -35 -24.5 -58.5t-59.5 -23.5q-34 0 -57.5 23.5t-23.5 58.5zM253 861q0 -23 15.5 -39t38.5 -16q24 0 40.5 16
t16.5 39q0 24 -16.5 40.5t-40.5 16.5q-23 0 -38.5 -16.5t-15.5 -40.5z" />
    <glyph glyph-name="AE" unicode="&#xc6;" horiz-adv-x="975" 
d="M489 659l-286 -434h330v434h-44zM907 689v-30h-344v-306h301v-30h-301v-293h356v-30h-386v195h-349l-128 -195h-36l454 689h433z" />
    <glyph glyph-name="Ccedilla" unicode="&#xc7;" horiz-adv-x="658" 
d="M413 -70q15 -36 1.5 -70t-49.5 -48q-34 -14 -67 0t-48 49q-4 10 -6 19t-2 20h29q0 -14 6 -29v1q8 -18 22.5 -28t31.5 -10q14 0 23 4q18 8 28 22.5t10 32.5q0 12 -6 26l-31 74q-63 8 -117.5 38.5t-94 77t-62 106.5t-22.5 128q0 73 26 137.5t72 112.5t108 76t133 28
q65 0 122 -23t102 -63l-20 -22q-41 36 -92.5 57t-111.5 21q-65 0 -121.5 -25.5t-98 -69.5t-65.5 -103t-24 -126t24 -125.5t65.5 -102.5t98 -69.5t121.5 -25.5q60 0 111 20.5t92 56.5l20 -22q-45 -40 -101.5 -62.5t-121.5 -22.5q-3 0 -5.5 0.5t-4.5 0.5z" />
    <glyph glyph-name="Egrave" unicode="&#xc8;" horiz-adv-x="548" 
d="M480 689v-30h-344v-306h301v-30h-301v-293h356v-30h-386v689h374zM196 887h36l79 -127h-27z" />
    <glyph glyph-name="Eacute" unicode="&#xc9;" horiz-adv-x="548" 
d="M480 689v-30h-344v-306h301v-30h-301v-293h356v-30h-386v689h374zM270 760h-27l79 127h36z" />
    <glyph glyph-name="Ecircumflex" unicode="&#xca;" horiz-adv-x="548" 
d="M480 689v-30h-344v-306h301v-30h-301v-293h356v-30h-386v689h374zM303 887l110 -127h-30l-104 109l-104 -109h-30l110 127h48z" />
    <glyph glyph-name="Edieresis" unicode="&#xcb;" horiz-adv-x="548" 
d="M480 689v-30h-344v-306h301v-30h-301v-293h356v-30h-386v689h374zM171 843q0 13 9 21t22 8q14 0 23 -8t9 -21q0 -12 -9 -20t-23 -8q-13 0 -22 8t-9 20zM324 843q0 13 9 21t22 8q14 0 23 -8t9 -21q0 -12 -9 -20t-23 -8q-13 0 -22 8t-9 20z" />
    <glyph glyph-name="Igrave" unicode="&#xcc;" horiz-adv-x="242" 
d="M136 0h-30v689h30v-689zM19 887h36l79 -127h-27z" />
    <glyph glyph-name="Iacute" unicode="&#xcd;" horiz-adv-x="242" 
d="M136 0h-30v689h30v-689zM132 760h-27l79 127h36z" />
    <glyph glyph-name="Icircumflex" unicode="&#xce;" horiz-adv-x="242" 
d="M136 0h-30v689h30v-689zM145 887l110 -127h-30l-104 109l-104 -109h-30l110 127h48z" />
    <glyph glyph-name="Idieresis" unicode="&#xcf;" horiz-adv-x="242" 
d="M136 0h-30v689h30v-689zM13 843q0 13 9 21t22 8q14 0 23 -8t9 -21q0 -12 -9 -20t-23 -8q-13 0 -22 8t-9 20zM166 843q0 13 9 21t22 8q14 0 23 -8t9 -21q0 -12 -9 -20t-23 -8q-13 0 -22 8t-9 20z" />
    <glyph glyph-name="Eth" unicode="&#xd0;" horiz-adv-x="726" 
d="M108 0v325h-98v28h98v336h254q72 0 128.5 -26.5t95 -73t58.5 -110t20 -136.5t-20 -136t-58.5 -109t-95 -72t-128.5 -26h-254zM331 353v-28h-193v-295h224q65 0 116 24t85.5 66t52.5 99t18 124t-18 125t-52.5 100.5t-85.5 66.5t-116 24h-224v-306h193z" />
    <glyph glyph-name="Ntilde" unicode="&#xd1;" horiz-adv-x="685" 
d="M579 0h-36l-407 644v-644h-30v689h36l407 -647v647h30v-689zM335 809q-11 8 -20 14.5t-22 6.5q-11 0 -23.5 -9.5t-13.5 -34.5h-30q1 20 8 33.5t17 22t21.5 12t20.5 3.5q20 0 33 -8t25 -17q10 -8 20 -13.5t21 -5.5t23.5 9.5t13.5 34.5h30q-1 -20 -8 -33.5t-17 -22
t-21.5 -12t-20.5 -3.5q-20 0 -32.5 7t-24.5 16z" />
    <glyph glyph-name="Ograve" unicode="&#xd2;" horiz-adv-x="809" 
d="M58 343q0 73 27 137.5t73.5 112.5t109.5 76t136 28t136.5 -28t110 -76t73.5 -112.5t27 -137.5t-27 -137.5t-73.5 -112.5t-110 -75.5t-136.5 -27.5t-136 27.5t-109.5 75.5t-73.5 112.5t-27 137.5zM88 343q0 -67 24.5 -125.5t67 -102.5t100.5 -69.5t124 -25.5
q67 0 124.5 25.5t100.5 69.5t67.5 102.5t24.5 125.5t-24.5 126t-67.5 103t-100.5 69.5t-124.5 25.5q-66 0 -124 -25.5t-100.5 -69.5t-67 -103t-24.5 -126zM301 888h36l79 -127h-27z" />
    <glyph glyph-name="Oacute" unicode="&#xd3;" horiz-adv-x="809" 
d="M58 343q0 73 27 137.5t73.5 112.5t109.5 76t136 28t136.5 -28t110 -76t73.5 -112.5t27 -137.5t-27 -137.5t-73.5 -112.5t-110 -75.5t-136.5 -27.5t-136 27.5t-109.5 75.5t-73.5 112.5t-27 137.5zM88 343q0 -67 24.5 -125.5t67 -102.5t100.5 -69.5t124 -25.5
q67 0 124.5 25.5t100.5 69.5t67.5 102.5t24.5 125.5t-24.5 126t-67.5 103t-100.5 69.5t-124.5 25.5q-66 0 -124 -25.5t-100.5 -69.5t-67 -103t-24.5 -126zM409 761h-27l79 127h36z" />
    <glyph glyph-name="Ocircumflex" unicode="&#xd4;" horiz-adv-x="809" 
d="M58 343q0 73 27 137.5t73.5 112.5t109.5 76t136 28t136.5 -28t110 -76t73.5 -112.5t27 -137.5t-27 -137.5t-73.5 -112.5t-110 -75.5t-136.5 -27.5t-136 27.5t-109.5 75.5t-73.5 112.5t-27 137.5zM88 343q0 -67 24.5 -125.5t67 -102.5t100.5 -69.5t124 -25.5
q67 0 124.5 25.5t100.5 69.5t67.5 102.5t24.5 125.5t-24.5 126t-67.5 103t-100.5 69.5t-124.5 25.5q-66 0 -124 -25.5t-100.5 -69.5t-67 -103t-24.5 -126zM432 888l110 -127h-30l-104 109l-104 -109h-30l110 127h48z" />
    <glyph glyph-name="Otilde" unicode="&#xd5;" horiz-adv-x="809" 
d="M58 343q0 73 27 137.5t73.5 112.5t109.5 76t136 28t136.5 -28t110 -76t73.5 -112.5t27 -137.5t-27 -137.5t-73.5 -112.5t-110 -75.5t-136.5 -27.5t-136 27.5t-109.5 75.5t-73.5 112.5t-27 137.5zM88 343q0 -67 24.5 -125.5t67 -102.5t100.5 -69.5t124 -25.5
q67 0 124.5 25.5t100.5 69.5t67.5 102.5t24.5 125.5t-24.5 126t-67.5 103t-100.5 69.5t-124.5 25.5q-66 0 -124 -25.5t-100.5 -69.5t-67 -103t-24.5 -126zM401 810q-11 8 -20 14.5t-22 6.5q-11 0 -23.5 -9.5t-13.5 -34.5h-30q1 20 8 33.5t17 22t21.5 12t20.5 3.5q20 0 33 -8
t25 -17q10 -8 20 -13.5t21 -5.5t23.5 9.5t13.5 34.5h30q-1 -20 -8 -33.5t-17 -22t-21.5 -12t-20.5 -3.5q-20 0 -32.5 7t-24.5 16z" />
    <glyph glyph-name="Odieresis" unicode="&#xd6;" horiz-adv-x="809" 
d="M58 343q0 73 27 137.5t73.5 112.5t109.5 76t136 28t136.5 -28t110 -76t73.5 -112.5t27 -137.5t-27 -137.5t-73.5 -112.5t-110 -75.5t-136.5 -27.5t-136 27.5t-109.5 75.5t-73.5 112.5t-27 137.5zM88 343q0 -67 24.5 -125.5t67 -102.5t100.5 -69.5t124 -25.5
q67 0 124.5 25.5t100.5 69.5t67.5 102.5t24.5 125.5t-24.5 126t-67.5 103t-100.5 69.5t-124.5 25.5q-66 0 -124 -25.5t-100.5 -69.5t-67 -103t-24.5 -126zM300 844q0 13 9 21t22 8q14 0 23 -8t9 -21q0 -12 -9 -20t-23 -8q-13 0 -22 8t-9 20zM453 844q0 13 9 21t22 8
q14 0 23 -8t9 -21q0 -12 -9 -20t-23 -8q-13 0 -22 8t-9 20z" />
    <glyph glyph-name="multiply" unicode="&#xd7;" horiz-adv-x="458" 
d="M81 398l21 21l127 -127l128 128l21 -21l-127 -128l128 -129l-21 -21l-129 128l-128 -127l-21 21l128 128z" />
    <glyph glyph-name="Oslash" unicode="&#xd8;" horiz-adv-x="808" 
d="M76 -10l-21 21l92 93q-42 48 -66 109t-24 130q0 73 27 137.5t73.5 112.5t109.5 76t136 28q69 0 129.5 -25t107.5 -69l93 94l21 -20l-94 -95q42 -48 66 -109t24 -130q0 -73 -27 -137.5t-73.5 -112.5t-110 -75.5t-136.5 -27.5q-69 0 -129 24.5t-106 68.5zM87 343
q0 -63 21.5 -118.5t59.5 -99.5l450 456q-42 40 -97 63t-118 23q-66 0 -124 -25.5t-100.5 -69.5t-67 -103t-24.5 -126zM403 20q67 0 124.5 25.5t100.5 69.5t67.5 102.5t24.5 125.5q0 63 -21.5 118.5t-59.5 98.5l-450 -456q42 -39 96.5 -61.5t117.5 -22.5z" />
    <glyph glyph-name="Ugrave" unicode="&#xd9;" horiz-adv-x="674" 
d="M575 226q0 -54 -19 -97.5t-51.5 -74.5t-75.5 -48t-92 -17t-92 17t-75.5 48t-51.5 74.5t-19 97.5v463h30v-463q0 -47 16.5 -85t45 -65t66 -42t80.5 -15t80.5 15t66 42t45 65t16.5 85v463h30v-463zM241 887h36l79 -127h-27z" />
    <glyph glyph-name="Uacute" unicode="&#xda;" horiz-adv-x="674" 
d="M575 226q0 -54 -19 -97.5t-51.5 -74.5t-75.5 -48t-92 -17t-92 17t-75.5 48t-51.5 74.5t-19 97.5v463h30v-463q0 -47 16.5 -85t45 -65t66 -42t80.5 -15t80.5 15t66 42t45 65t16.5 85v463h30v-463zM335 760h-27l79 127h36z" />
    <glyph glyph-name="Ucircumflex" unicode="&#xdb;" horiz-adv-x="674" 
d="M575 226q0 -54 -19 -97.5t-51.5 -74.5t-75.5 -48t-92 -17t-92 17t-75.5 48t-51.5 74.5t-19 97.5v463h30v-463q0 -47 16.5 -85t45 -65t66 -42t80.5 -15t80.5 15t66 42t45 65t16.5 85v463h30v-463zM361 887l110 -127h-30l-104 109l-104 -109h-30l110 127h48z" />
    <glyph glyph-name="Udieresis" unicode="&#xdc;" horiz-adv-x="674" 
d="M575 226q0 -54 -19 -97.5t-51.5 -74.5t-75.5 -48t-92 -17t-92 17t-75.5 48t-51.5 74.5t-19 97.5v463h30v-463q0 -47 16.5 -85t45 -65t66 -42t80.5 -15t80.5 15t66 42t45 65t16.5 85v463h30v-463zM229 843q0 13 9 21t22 8q14 0 23 -8t9 -21q0 -12 -9 -20t-23 -8
q-13 0 -22 8t-9 20zM382 843q0 13 9 21t22 8q14 0 23 -8t9 -21q0 -12 -9 -20t-23 -8q-13 0 -22 8t-9 20z" />
    <glyph glyph-name="Yacute" unicode="&#xdd;" horiz-adv-x="593" 
d="M311 330v-330h-30v331l-257 358h36l236 -330l238 330h36zM287 760h-27l79 127h36z" />
    <glyph glyph-name="Thorn" unicode="&#xde;" horiz-adv-x="566" 
d="M136 0h-30v689h30v-135h191q41 0 77 -14t62.5 -40t42 -63t15.5 -82q0 -46 -15.5 -83.5t-42 -64t-62.5 -41t-77 -14.5h-191v-152zM327 182q35 0 65.5 12.5t53 35t35.5 54.5t13 71t-13 70t-35.5 53t-53 34t-65.5 12h-191v-342h191z" />
    <glyph glyph-name="germandbls" unicode="&#xdf;" horiz-adv-x="577" 
d="M495 209q-2 36 -16 68.5t-38 57t-57.5 39t-73.5 14.5h-34v28h34q28 0 52 10t41 27t26.5 39.5t9.5 48.5q0 28 -11 53.5t-30.5 44t-46.5 29.5t-58 11h-10q-73 0 -119.5 -45.5t-46.5 -130.5v-503h-30v503q0 49 14.5 87.5t40.5 64.5t62 40t79 14h10q37 0 69.5 -13t56 -36
t37 -53.5t13.5 -65.5q0 -22 -7.5 -45t-21 -42.5t-33 -33t-42.5 -17.5q36 -3 65.5 -22.5t50.5 -47.5t32.5 -60.5t11.5 -62.5q0 -46 -16.5 -86t-46 -69.5t-71 -46.5t-90.5 -17q-51 -2 -103 20l11 28q23 -9 46.5 -14t44.5 -4q43 0 79 14.5t61.5 40t40 59.5t14.5 74z" />
    <glyph glyph-name="agrave" unicode="&#xe0;" 
d="M510 116q-31 -57 -87.5 -91.5t-126.5 -34.5q-50 0 -94.5 19t-77.5 52t-52 77.5t-19 95.5q0 50 19 94.5t52 77.5t77.5 52t94.5 19q70 0 126.5 -34.5t87.5 -91.5v116h30v-467h-30v116zM83 234q0 -44 17 -83t46 -68t67.5 -46t82.5 -17q43 0 81.5 16t67.5 43.5t46 65t19 80.5
v9q0 44 -17 82.5t-46 67.5t-68 46t-83 17t-82.5 -17t-67.5 -46t-46 -67.5t-17 -82.5zM202 665h36l79 -127h-27z" />
    <glyph glyph-name="aacute" unicode="&#xe1;" 
d="M510 116q-31 -57 -87.5 -91.5t-126.5 -34.5q-50 0 -94.5 19t-77.5 52t-52 77.5t-19 95.5q0 50 19 94.5t52 77.5t77.5 52t94.5 19q70 0 126.5 -34.5t87.5 -91.5v116h30v-467h-30v116zM83 234q0 -44 17 -83t46 -68t67.5 -46t82.5 -17q43 0 81.5 16t67.5 43.5t46 65t19 80.5
v9q0 44 -17 82.5t-46 67.5t-68 46t-83 17t-82.5 -17t-67.5 -46t-46 -67.5t-17 -82.5zM307 538h-27l79 127h36z" />
    <glyph glyph-name="acircumflex" unicode="&#xe2;" 
d="M510 116q-31 -57 -87.5 -91.5t-126.5 -34.5q-50 0 -94.5 19t-77.5 52t-52 77.5t-19 95.5q0 50 19 94.5t52 77.5t77.5 52t94.5 19q70 0 126.5 -34.5t87.5 -91.5v116h30v-467h-30v116zM83 234q0 -44 17 -83t46 -68t67.5 -46t82.5 -17q43 0 81.5 16t67.5 43.5t46 65t19 80.5
v9q0 44 -17 82.5t-46 67.5t-68 46t-83 17t-82.5 -17t-67.5 -46t-46 -67.5t-17 -82.5zM335 665l110 -127h-30l-104 109l-104 -109h-30l110 127h48z" />
    <glyph glyph-name="atilde" unicode="&#xe3;" 
d="M510 116q-31 -57 -87.5 -91.5t-126.5 -34.5q-50 0 -94.5 19t-77.5 52t-52 77.5t-19 95.5q0 50 19 94.5t52 77.5t77.5 52t94.5 19q70 0 126.5 -34.5t87.5 -91.5v116h30v-467h-30v116zM83 234q0 -44 17 -83t46 -68t67.5 -46t82.5 -17q43 0 81.5 16t67.5 43.5t46 65t19 80.5
v9q0 44 -17 82.5t-46 67.5t-68 46t-83 17t-82.5 -17t-67.5 -46t-46 -67.5t-17 -82.5zM304 587q-11 8 -20 14.5t-22 6.5q-11 0 -23.5 -9.5t-13.5 -34.5h-30q1 20 8 33.5t17 22t21.5 12t20.5 3.5q20 0 33 -8t25 -17q10 -8 20 -13.5t21 -5.5t23.5 9.5t13.5 34.5h30
q-1 -20 -8 -33.5t-17 -22t-21.5 -12t-20.5 -3.5q-20 0 -32.5 7t-24.5 16z" />
    <glyph glyph-name="adieresis" unicode="&#xe4;" 
d="M510 116q-31 -57 -87.5 -91.5t-126.5 -34.5q-50 0 -94.5 19t-77.5 52t-52 77.5t-19 95.5q0 50 19 94.5t52 77.5t77.5 52t94.5 19q70 0 126.5 -34.5t87.5 -91.5v116h30v-467h-30v116zM83 234q0 -44 17 -83t46 -68t67.5 -46t82.5 -17q43 0 81.5 16t67.5 43.5t46 65t19 80.5
v9q0 44 -17 82.5t-46 67.5t-68 46t-83 17t-82.5 -17t-67.5 -46t-46 -67.5t-17 -82.5zM203 621q0 13 9 21t22 8q14 0 23 -8t9 -21q0 -12 -9 -20t-23 -8q-13 0 -22 8t-9 20zM356 621q0 13 9 21t22 8q14 0 23 -8t9 -21q0 -12 -9 -20t-23 -8q-13 0 -22 8t-9 20z" />
    <glyph glyph-name="aring" unicode="&#xe5;" 
d="M510 116q-31 -57 -87.5 -91.5t-126.5 -34.5q-50 0 -94.5 19t-77.5 52t-52 77.5t-19 95.5q0 50 19 94.5t52 77.5t77.5 52t94.5 19q70 0 126.5 -34.5t87.5 -91.5v116h30v-467h-30v116zM83 234q0 -44 17 -83t46 -68t67.5 -46t82.5 -17q43 0 81.5 16t67.5 43.5t46 65t19 80.5
v9q0 44 -17 82.5t-46 67.5t-68 46t-83 17t-82.5 -17t-67.5 -46t-46 -67.5t-17 -82.5zM229 639q0 35 23.5 59.5t57.5 24.5q18 0 33 -6.5t26.5 -18t18 -27t6.5 -32.5q0 -35 -24.5 -58.5t-59.5 -23.5q-34 0 -57.5 23.5t-23.5 58.5zM256 639q0 -23 15.5 -39t38.5 -16
q24 0 40.5 16t16.5 39q0 24 -16.5 40.5t-40.5 16.5q-23 0 -38.5 -16.5t-15.5 -40.5z" />
    <glyph glyph-name="ae" unicode="&#xe6;" horiz-adv-x="1019" 
d="M83 234q0 -44 17 -83t46 -68t67.5 -46t82.5 -17q43 0 81.5 16t67.5 43.5t46 65t19 80.5v9q0 44 -17 82.5t-46 67.5t-68 46t-83 17t-82.5 -17t-67.5 -46t-46 -67.5t-17 -82.5zM540 357q29 57 83.5 88.5t122.5 31.5q49 0 91 -17t72.5 -48.5t47.5 -76.5t17 -100v-13h-433
q2 -46 19 -83.5t44.5 -63.5t64 -40.5t77.5 -14.5q56 0 101.5 25t73.5 70l26 -16q-32 -51 -84.5 -80t-116.5 -29q-68 0 -122.5 32t-83.5 89v-111h-30v116q-31 -57 -87.5 -91.5t-126.5 -34.5q-50 0 -94.5 19t-77.5 52t-52 77.5t-19 95.5q0 50 19 94.5t52 77.5t77.5 52t94.5 19
q70 0 126.5 -34.5t87.5 -91.5v116h30v-110zM746 447q-41 0 -77.5 -14t-64 -39.5t-44 -62.5t-19.5 -82h403q-2 45 -17.5 82t-42 62.5t-61.5 39.5t-77 14z" />
    <glyph glyph-name="ccedilla" unicode="&#xe7;" horiz-adv-x="500" 
d="M320 -70q15 -36 1.5 -70t-49.5 -48q-34 -14 -67 0t-48 49q-4 10 -6 19t-2 20h29q0 -14 6 -29v1q8 -18 22.5 -28t31.5 -10q14 0 23 4q18 8 28 22.5t10 32.5q0 12 -6 26l-31 74q-44 6 -82 25.5t-66 50.5t-44 73t-16 93q0 55 19.5 100t52.5 76.5t77 48.5t94 17
q42 0 81 -13.5t71 -36.5l-17 -24q-28 20 -62.5 32t-72.5 12q-44 0 -82.5 -15t-67.5 -42.5t-46 -67t-17 -87.5q0 -49 17 -88.5t46 -67.5t67.5 -43.5t82.5 -15.5q38 0 72 11.5t63 32.5l18 -24q-32 -24 -71 -37t-82 -13h-2z" />
    <glyph glyph-name="egrave" unicode="&#xe8;" horiz-adv-x="562" 
d="M517 222h-433q2 -46 19 -83.5t44.5 -63.5t64 -40.5t77.5 -14.5q56 0 101.5 25t73.5 70l26 -16q-32 -51 -84.5 -80t-116.5 -29q-49 0 -92 17.5t-74.5 49.5t-50 77t-18.5 101q0 55 18.5 100t50 76.5t74.5 48.5t92 17t91 -17t72.5 -48.5t47.5 -76.5t17 -100v-13zM289 447
q-41 0 -77.5 -14t-64 -39.5t-44 -62.5t-19.5 -82h403q-2 45 -17.5 82t-42 62.5t-61.5 39.5t-77 14zM188 665h36l79 -127h-27z" />
    <glyph glyph-name="eacute" unicode="&#xe9;" horiz-adv-x="562" 
d="M517 222h-433q2 -46 19 -83.5t44.5 -63.5t64 -40.5t77.5 -14.5q56 0 101.5 25t73.5 70l26 -16q-32 -51 -84.5 -80t-116.5 -29q-49 0 -92 17.5t-74.5 49.5t-50 77t-18.5 101q0 55 18.5 100t50 76.5t74.5 48.5t92 17t91 -17t72.5 -48.5t47.5 -76.5t17 -100v-13zM289 447
q-41 0 -77.5 -14t-64 -39.5t-44 -62.5t-19.5 -82h403q-2 45 -17.5 82t-42 62.5t-61.5 39.5t-77 14zM291 538h-27l79 127h36z" />
    <glyph glyph-name="ecircumflex" unicode="&#xea;" horiz-adv-x="562" 
d="M517 222h-433q2 -46 19 -83.5t44.5 -63.5t64 -40.5t77.5 -14.5q56 0 101.5 25t73.5 70l26 -16q-32 -51 -84.5 -80t-116.5 -29q-49 0 -92 17.5t-74.5 49.5t-50 77t-18.5 101q0 55 18.5 100t50 76.5t74.5 48.5t92 17t91 -17t72.5 -48.5t47.5 -76.5t17 -100v-13zM289 447
q-41 0 -77.5 -14t-64 -39.5t-44 -62.5t-19.5 -82h403q-2 45 -17.5 82t-42 62.5t-61.5 39.5t-77 14zM309 665l110 -127h-30l-104 109l-104 -109h-30l110 127h48z" />
    <glyph glyph-name="edieresis" unicode="&#xeb;" horiz-adv-x="562" 
d="M517 222h-433q2 -46 19 -83.5t44.5 -63.5t64 -40.5t77.5 -14.5q56 0 101.5 25t73.5 70l26 -16q-32 -51 -84.5 -80t-116.5 -29q-49 0 -92 17.5t-74.5 49.5t-50 77t-18.5 101q0 55 18.5 100t50 76.5t74.5 48.5t92 17t91 -17t72.5 -48.5t47.5 -76.5t17 -100v-13zM289 447
q-41 0 -77.5 -14t-64 -39.5t-44 -62.5t-19.5 -82h403q-2 45 -17.5 82t-42 62.5t-61.5 39.5t-77 14zM177 621q0 13 9 21t22 8q14 0 23 -8t9 -21q0 -12 -9 -20t-23 -8q-13 0 -22 8t-9 20zM330 621q0 13 9 21t22 8q14 0 23 -8t9 -21q0 -12 -9 -20t-23 -8q-13 0 -22 8t-9 20z
" />
    <glyph glyph-name="igrave" unicode="&#xec;" horiz-adv-x="205" 
d="M118 0h-31v467h31v-467zM3 665h36l79 -127h-27z" />
    <glyph glyph-name="iacute" unicode="&#xed;" horiz-adv-x="205" 
d="M118 0h-31v467h31v-467zM114 538h-27l79 127h36z" />
    <glyph glyph-name="icircumflex" unicode="&#xee;" horiz-adv-x="205" 
d="M118 0h-31v467h31v-467zM122 665l110 -127h-30l-104 109l-104 -109h-30l110 127h48z" />
    <glyph glyph-name="idieresis" unicode="&#xef;" horiz-adv-x="205" 
d="M118 0h-31v467h31v-467zM-10 621q0 13 9 21t22 8q14 0 23 -8t9 -21q0 -12 -9 -20t-23 -8q-13 0 -22 8t-9 20zM143 621q0 13 9 21t22 8q14 0 23 -8t9 -21q0 -12 -9 -20t-23 -8q-13 0 -22 8t-9 20z" />
    <glyph glyph-name="eth" unicode="&#xf0;" horiz-adv-x="597" 
d="M259 627l-93 -60l-15 22l91 61l-72 92h37l61 -77l76 46l15 -20l-75 -47l213 -262q22 -28 34 -65t12 -82q0 -56 -19.5 -101.5t-53 -77.5t-78 -49.5t-94.5 -17.5t-94.5 17.5t-78 49.5t-53 77.5t-19.5 101.5q0 55 19.5 100t52 76.5t75 48.5t89.5 17q4 0 15.5 -0.5t26.5 -2.5
t32.5 -6t34.5 -12zM298 20q43 0 82 15.5t68.5 43.5t46.5 68t17 88q0 49 -17 88.5t-46.5 67t-68.5 42t-82 14.5q-44 0 -82.5 -14.5t-68 -42t-46.5 -67t-17 -88.5q0 -48 17 -88t46.5 -68t68 -43.5t82.5 -15.5z" />
    <glyph glyph-name="ntilde" unicode="&#xf1;" horiz-adv-x="561" 
d="M87 467h30v-103q10 31 28.5 52.5t41.5 35t50 19.5t53 6q40 0 75 -14t61 -40t40.5 -63.5t14.5 -84.5v-275h-30v275q0 40 -12.5 72t-34 54t-51 34t-63.5 12q-33 0 -63.5 -9.5t-54.5 -31t-39 -56t-16 -83.5v-267h-30v467zM276 587q-11 8 -20 14.5t-22 6.5q-11 0 -23.5 -9.5
t-13.5 -34.5h-30q1 20 8 33.5t17 22t21.5 12t20.5 3.5q20 0 33 -8t25 -17q10 -8 20 -13.5t21 -5.5t23.5 9.5t13.5 34.5h30q-1 -20 -8 -33.5t-17 -22t-21.5 -12t-20.5 -3.5q-20 0 -32.5 7t-24.5 16z" />
    <glyph glyph-name="ograve" unicode="&#xf2;" horiz-adv-x="594" 
d="M297 -10q-50 0 -94.5 17.5t-77.5 49.5t-52.5 77t-19.5 101q0 55 19.5 100t52.5 76.5t77.5 48.5t94.5 17t94.5 -17t77.5 -48.5t52.5 -76.5t19.5 -100q0 -56 -19.5 -101t-52.5 -77t-77.5 -49.5t-94.5 -17.5zM297 20q44 0 83 15t68 43t46 68t17 89t-17 88t-46 66.5t-68 42.5
t-83 15t-83 -15t-68 -42.5t-46 -66.5t-17 -88t17 -89t46 -68t68 -43t83 -15zM202 665h36l79 -127h-27z" />
    <glyph glyph-name="oacute" unicode="&#xf3;" horiz-adv-x="594" 
d="M297 -10q-50 0 -94.5 17.5t-77.5 49.5t-52.5 77t-19.5 101q0 55 19.5 100t52.5 76.5t77.5 48.5t94.5 17t94.5 -17t77.5 -48.5t52.5 -76.5t19.5 -100q0 -56 -19.5 -101t-52.5 -77t-77.5 -49.5t-94.5 -17.5zM297 20q44 0 83 15t68 43t46 68t17 89t-17 88t-46 66.5t-68 42.5
t-83 15t-83 -15t-68 -42.5t-46 -66.5t-17 -88t17 -89t46 -68t68 -43t83 -15zM301 538h-27l79 127h36z" />
    <glyph glyph-name="ocircumflex" unicode="&#xf4;" horiz-adv-x="594" 
d="M297 -10q-50 0 -94.5 17.5t-77.5 49.5t-52.5 77t-19.5 101q0 55 19.5 100t52.5 76.5t77.5 48.5t94.5 17t94.5 -17t77.5 -48.5t52.5 -76.5t19.5 -100q0 -56 -19.5 -101t-52.5 -77t-77.5 -49.5t-94.5 -17.5zM297 20q44 0 83 15t68 43t46 68t17 89t-17 88t-46 66.5t-68 42.5
t-83 15t-83 -15t-68 -42.5t-46 -66.5t-17 -88t17 -89t46 -68t68 -43t83 -15zM321 665l110 -127h-30l-104 109l-104 -109h-30l110 127h48z" />
    <glyph glyph-name="otilde" unicode="&#xf5;" horiz-adv-x="594" 
d="M297 -10q-50 0 -94.5 17.5t-77.5 49.5t-52.5 77t-19.5 101q0 55 19.5 100t52.5 76.5t77.5 48.5t94.5 17t94.5 -17t77.5 -48.5t52.5 -76.5t19.5 -100q0 -56 -19.5 -101t-52.5 -77t-77.5 -49.5t-94.5 -17.5zM297 20q44 0 83 15t68 43t46 68t17 89t-17 88t-46 66.5t-68 42.5
t-83 15t-83 -15t-68 -42.5t-46 -66.5t-17 -88t17 -89t46 -68t68 -43t83 -15zM289 587q-11 8 -20 14.5t-22 6.5q-11 0 -23.5 -9.5t-13.5 -34.5h-30q1 20 8 33.5t17 22t21.5 12t20.5 3.5q20 0 33 -8t25 -17q10 -8 20 -13.5t21 -5.5t23.5 9.5t13.5 34.5h30q-1 -20 -8 -33.5
t-17 -22t-21.5 -12t-20.5 -3.5q-20 0 -32.5 7t-24.5 16z" />
    <glyph glyph-name="odieresis" unicode="&#xf6;" horiz-adv-x="594" 
d="M297 -10q-50 0 -94.5 17.5t-77.5 49.5t-52.5 77t-19.5 101q0 55 19.5 100t52.5 76.5t77.5 48.5t94.5 17t94.5 -17t77.5 -48.5t52.5 -76.5t19.5 -100q0 -56 -19.5 -101t-52.5 -77t-77.5 -49.5t-94.5 -17.5zM297 20q44 0 83 15t68 43t46 68t17 89t-17 88t-46 66.5t-68 42.5
t-83 15t-83 -15t-68 -42.5t-46 -66.5t-17 -88t17 -89t46 -68t68 -43t83 -15zM189 621q0 13 9 21t22 8q14 0 23 -8t9 -21q0 -12 -9 -20t-23 -8q-13 0 -22 8t-9 20zM342 621q0 13 9 21t22 8q14 0 23 -8t9 -21q0 -12 -9 -20t-23 -8q-13 0 -22 8t-9 20z" />
    <glyph glyph-name="divide" unicode="&#xf7;" horiz-adv-x="573" 
d="M255 396q0 13 9 21t22 8q14 0 23 -8t9 -21q0 -12 -9 -20t-23 -8q-13 0 -22 8t-9 20zM255 47q0 13 9 21t22 8q14 0 23 -8t9 -21q0 -12 -9 -20t-23 -8q-13 0 -22 8t-9 20zM492 239v-30h-411v30h411z" />
    <glyph glyph-name="oslash" unicode="&#xf8;" horiz-adv-x="594" 
d="M75 -10l-21 21l58 58q-28 32 -43.5 73.5t-15.5 92.5q0 55 19.5 100t52.5 76.5t77.5 48.5t94.5 17q47 0 88.5 -15t74.5 -43l59 60l21 -20l-59 -60q28 -31 44 -72t16 -92q0 -56 -19.5 -101t-52.5 -77t-77.5 -49.5t-94.5 -17.5q-96 0 -164 59zM297 20q44 0 83 15t68 43
t46 68t17 89q0 44 -14 79.5t-38 62.5l-305 -307q59 -50 143 -50zM297 447q-44 0 -83 -15t-68 -42.5t-46 -66.5t-17 -88q0 -45 13.5 -81t37.5 -63l304 307q-29 23 -64.5 36t-76.5 13z" />
    <glyph glyph-name="ugrave" unicode="&#xf9;" horiz-adv-x="561" 
d="M474 0h-30v103q-10 -31 -28.5 -52.5t-41.5 -35t-50 -19.5t-53 -6q-41 0 -75.5 14t-60.5 40t-40.5 63.5t-14.5 84.5v275h30v-275q0 -40 12.5 -72t34 -54t51 -34t63.5 -12q33 0 63.5 9.5t54.5 31t38.5 56t16.5 83.5v267h30v-467zM193 665h36l79 -127h-27z" />
    <glyph glyph-name="uacute" unicode="&#xfa;" horiz-adv-x="561" 
d="M474 0h-30v103q-10 -31 -28.5 -52.5t-41.5 -35t-50 -19.5t-53 -6q-41 0 -75.5 14t-60.5 40t-40.5 63.5t-14.5 84.5v275h30v-275q0 -40 12.5 -72t34 -54t51 -34t63.5 -12q33 0 63.5 9.5t54.5 31t38.5 56t16.5 83.5v267h30v-467zM269 538h-27l79 127h36z" />
    <glyph glyph-name="ucircumflex" unicode="&#xfb;" horiz-adv-x="561" 
d="M474 0h-30v103q-10 -31 -28.5 -52.5t-41.5 -35t-50 -19.5t-53 -6q-41 0 -75.5 14t-60.5 40t-40.5 63.5t-14.5 84.5v275h30v-275q0 -40 12.5 -72t34 -54t51 -34t63.5 -12q33 0 63.5 9.5t54.5 31t38.5 56t16.5 83.5v267h30v-467zM301 665l110 -127h-30l-104 109l-104 -109
h-30l110 127h48z" />
    <glyph glyph-name="udieresis" unicode="&#xfc;" horiz-adv-x="561" 
d="M474 0h-30v103q-10 -31 -28.5 -52.5t-41.5 -35t-50 -19.5t-53 -6q-41 0 -75.5 14t-60.5 40t-40.5 63.5t-14.5 84.5v275h30v-275q0 -40 12.5 -72t34 -54t51 -34t63.5 -12q33 0 63.5 9.5t54.5 31t38.5 56t16.5 83.5v267h30v-467zM170 621q0 13 9 21t22 8q14 0 23 -8t9 -21
q0 -12 -9 -20t-23 -8q-13 0 -22 8t-9 20zM323 621q0 13 9 21t22 8q14 0 23 -8t9 -21q0 -12 -9 -20t-23 -8q-13 0 -22 8t-9 20z" />
    <glyph glyph-name="yacute" unicode="&#xfd;" horiz-adv-x="498" 
d="M171 -226h-33l93 221l-200 472h33l184 -436l187 436h33l-200 -467zM237 538h-27l79 127h36z" />
    <glyph glyph-name="thorn" unicode="&#xfe;" 
d="M117 -226h-30v968h30v-391q31 57 87.5 91.5t126.5 34.5q50 0 94.5 -19t77.5 -52t52 -77.5t19 -94.5q0 -51 -19 -95.5t-52 -77.5t-77.5 -52t-94.5 -19q-70 0 -126.5 34.5t-87.5 91.5v-342zM544 234q0 44 -17 82.5t-46 67.5t-67.5 46t-82.5 17t-83 -17t-68 -46t-46 -67.5
t-17 -82.5v-9q1 -43 18.5 -80.5t46.5 -65t67.5 -43.5t81.5 -16q44 0 82.5 17t67.5 46t46 68t17 83z" />
    <glyph glyph-name="ydieresis" unicode="&#xff;" horiz-adv-x="498" 
d="M171 -226h-33l93 221l-200 472h33l184 -436l187 436h33l-200 -467zM142 621q0 13 9 21t22 8q14 0 23 -8t9 -21q0 -12 -9 -20t-23 -8q-13 0 -22 8t-9 20zM295 621q0 13 9 21t22 8q14 0 23 -8t9 -21q0 -12 -9 -20t-23 -8q-13 0 -22 8t-9 20z" />
    <glyph glyph-name="Amacron" unicode="&#x100;" horiz-adv-x="618" 
d="M61 0h-32l264 689h32l263 -689h-32l-73 192h-348zM145 219h328l-164 428zM422 851v-27h-228v27h228z" />
    <glyph glyph-name="amacron" unicode="&#x101;" 
d="M510 116q-31 -57 -87.5 -91.5t-126.5 -34.5q-50 0 -94.5 19t-77.5 52t-52 77.5t-19 95.5q0 50 19 94.5t52 77.5t77.5 52t94.5 19q70 0 126.5 -34.5t87.5 -91.5v116h30v-467h-30v116zM83 234q0 -44 17 -83t46 -68t67.5 -46t82.5 -17q43 0 81.5 16t67.5 43.5t46 65t19 80.5
v9q0 44 -17 82.5t-46 67.5t-68 46t-83 17t-82.5 -17t-67.5 -46t-46 -67.5t-17 -82.5zM425 629v-27h-228v27h228z" />
    <glyph glyph-name="Abreve" unicode="&#x102;" horiz-adv-x="618" 
d="M61 0h-32l264 689h32l263 -689h-32l-73 192h-348zM145 219h328l-164 428zM418 872q0 -45 -30 -72.5t-80 -27.5q-29 0 -49.5 8.5t-34 22.5t-19.5 32t-6 37h27q0 -28 19 -50.5t63 -22.5q38 0 60.5 20t22.5 53h27z" />
    <glyph glyph-name="abreve" unicode="&#x103;" 
d="M510 116q-31 -57 -87.5 -91.5t-126.5 -34.5q-50 0 -94.5 19t-77.5 52t-52 77.5t-19 95.5q0 50 19 94.5t52 77.5t77.5 52t94.5 19q70 0 126.5 -34.5t87.5 -91.5v116h30v-467h-30v116zM83 234q0 -44 17 -83t46 -68t67.5 -46t82.5 -17q43 0 81.5 16t67.5 43.5t46 65t19 80.5
v9q0 44 -17 82.5t-46 67.5t-68 46t-83 17t-82.5 -17t-67.5 -46t-46 -67.5t-17 -82.5zM421 650q0 -45 -30 -72.5t-80 -27.5q-29 0 -49.5 8.5t-34 22.5t-19.5 32t-6 37h27q0 -28 19 -50.5t63 -22.5q38 0 60.5 20t22.5 53h27z" />
    <glyph glyph-name="Aogonek" unicode="&#x104;" horiz-adv-x="618" 
d="M61 0h-32l264 689h32l263 -689l-34 -81q-6 -14 -6 -26q0 -18 10 -32.5t28 -22.5q9 -4 23 -4q17 0 31.5 10t22.5 28v-1q6 15 6 29h29q0 -11 -2 -20t-6 -19q-15 -35 -48 -49t-67 0q-36 14 -49.5 48t1.5 70l29 70l-73 192h-348zM145 219h328l-164 428z" />
    <glyph glyph-name="aogonek" unicode="&#x105;" 
d="M83 234q0 -44 17 -83t46 -68t67.5 -46t82.5 -17q43 0 81.5 16t67.5 43.5t46 65t19 80.5v9q0 44 -17 82.5t-46 67.5t-68 46t-83 17t-82.5 -17t-67.5 -46t-46 -67.5t-17 -82.5zM508 -81q-2 -7 -4 -13.5t-2 -12.5q0 -18 10 -32.5t28 -22.5q9 -4 23 -4q17 0 31.5 10t22.5 28
v-1q6 15 6 29h29q0 -11 -2 -20t-6 -19q-15 -35 -48 -49t-67 0q-36 14 -49.5 48t1.5 70l29 70v116q-31 -57 -87.5 -91.5t-126.5 -34.5q-50 0 -94.5 19t-77.5 52t-52 77.5t-19 95.5q0 50 19 94.5t52 77.5t77.5 52t94.5 19q70 0 126.5 -34.5t87.5 -91.5v116h30v-467z" />
    <glyph glyph-name="Cacute" unicode="&#x106;" horiz-adv-x="657" 
d="M620 75q-45 -40 -101.5 -62.5t-121.5 -22.5q-71 0 -133 27.5t-108 75.5t-72 112.5t-26 137.5t26 137.5t72 112.5t108 76t133 28q65 0 122 -23t102 -63l-20 -22q-41 36 -92.5 57t-111.5 21q-65 0 -121.5 -25.5t-98 -69.5t-65.5 -103t-24 -126t24 -125.5t65.5 -102.5
t98 -69.5t121.5 -25.5q60 0 111 20.5t92 56.5zM386 760h-27l79 127h36z" />
    <glyph glyph-name="cacute" unicode="&#x107;" horiz-adv-x="499" 
d="M449 40q-32 -24 -71 -37t-82 -13q-50 0 -94 17.5t-77 49.5t-52.5 77t-19.5 101q0 55 19.5 100t52.5 76.5t77 48.5t94 17q42 0 81 -13.5t71 -36.5l-17 -24q-28 20 -62.5 32t-72.5 12q-44 0 -82.5 -15t-67.5 -42.5t-46 -67t-17 -87.5q0 -49 17 -88.5t46 -67.5t67.5 -43.5
t82.5 -15.5q38 0 72 11.5t63 32.5zM288 538h-27l79 127h36z" />
    <glyph glyph-name="Ccircumflex" unicode="&#x108;" horiz-adv-x="657" 
d="M620 75q-45 -40 -101.5 -62.5t-121.5 -22.5q-71 0 -133 27.5t-108 75.5t-72 112.5t-26 137.5t26 137.5t72 112.5t108 76t133 28q65 0 122 -23t102 -63l-20 -22q-41 36 -92.5 57t-111.5 21q-65 0 -121.5 -25.5t-98 -69.5t-65.5 -103t-24 -126t24 -125.5t65.5 -102.5
t98 -69.5t121.5 -25.5q60 0 111 20.5t92 56.5zM408 887l110 -127h-30l-104 109l-104 -109h-30l110 127h48z" />
    <glyph glyph-name="ccircumflex" unicode="&#x109;" horiz-adv-x="499" 
d="M449 40q-32 -24 -71 -37t-82 -13q-50 0 -94 17.5t-77 49.5t-52.5 77t-19.5 101q0 55 19.5 100t52.5 76.5t77 48.5t94 17q42 0 81 -13.5t71 -36.5l-17 -24q-28 20 -62.5 32t-72.5 12q-44 0 -82.5 -15t-67.5 -42.5t-46 -67t-17 -87.5q0 -49 17 -88.5t46 -67.5t67.5 -43.5
t82.5 -15.5q38 0 72 11.5t63 32.5zM306 665l110 -127h-30l-104 109l-104 -109h-30l110 127h48z" />
    <glyph glyph-name="Cdotaccent" unicode="&#x10a;" horiz-adv-x="657" 
d="M600 97l20 -22q-45 -40 -101.5 -62.5t-121.5 -22.5q-71 0 -133 27.5t-108 75.5t-72 112.5t-26 137.5t26 137.5t72 112.5t108 76t133 28q65 0 122 -23t102 -63l-20 -22q-41 36 -92.5 57t-111.5 21q-65 0 -121.5 -25.5t-98 -69.5t-65.5 -103t-24 -126t24 -125.5
t65.5 -102.5t98 -69.5t121.5 -25.5q60 0 111 20.5t92 56.5zM353 843q0 13 9 21t22 8q14 0 23 -8t9 -21q0 -12 -9 -20t-23 -8q-13 0 -22 8t-9 20z" />
    <glyph glyph-name="cdotaccent" unicode="&#x10b;" horiz-adv-x="499" 
d="M449 40q-32 -24 -71 -37t-82 -13q-50 0 -94 17.5t-77 49.5t-52.5 77t-19.5 101q0 55 19.5 100t52.5 76.5t77 48.5t94 17q42 0 81 -13.5t71 -36.5l-17 -24q-28 20 -62.5 32t-72.5 12q-44 0 -82.5 -15t-67.5 -42.5t-46 -67t-17 -87.5q0 -49 17 -88.5t46 -67.5t67.5 -43.5
t82.5 -15.5q38 0 72 11.5t63 32.5zM260 621q0 13 9 21t22 8q14 0 23 -8t9 -21q0 -12 -9 -20t-23 -8q-13 0 -22 8t-9 20z" />
    <glyph glyph-name="Ccaron" unicode="&#x10c;" horiz-adv-x="657" 
d="M600 97l20 -22q-45 -40 -101.5 -62.5t-121.5 -22.5q-71 0 -133 27.5t-108 75.5t-72 112.5t-26 137.5t26 137.5t72 112.5t108 76t133 28q65 0 122 -23t102 -63l-20 -22q-41 36 -92.5 57t-111.5 21q-65 0 -121.5 -25.5t-98 -69.5t-65.5 -103t-24 -126t24 -125.5
t65.5 -102.5t98 -69.5t121.5 -25.5q60 0 111 20.5t92 56.5zM359 760l-110 127h30l104 -109l104 109h30l-110 -127h-48z" />
    <glyph glyph-name="ccaron" unicode="&#x10d;" horiz-adv-x="499" 
d="M449 40q-32 -24 -71 -37t-82 -13q-50 0 -94 17.5t-77 49.5t-52.5 77t-19.5 101q0 55 19.5 100t52.5 76.5t77 48.5t94 17q42 0 81 -13.5t71 -36.5l-17 -24q-28 20 -62.5 32t-72.5 12q-44 0 -82.5 -15t-67.5 -42.5t-46 -67t-17 -87.5q0 -49 17 -88.5t46 -67.5t67.5 -43.5
t82.5 -15.5q38 0 72 11.5t63 32.5zM261 538l-110 127h30l104 -109l104 109h30l-110 -127h-48z" />
    <glyph glyph-name="Dcaron" unicode="&#x10e;" horiz-adv-x="724" 
d="M106 0v689h254q72 0 128.5 -26.5t95 -73t58.5 -110t20 -136.5t-20 -136t-58.5 -109t-95 -72t-128.5 -26h-254zM360 30q65 0 116 24t85.5 66t52.5 99t18 124t-18 125t-52.5 100.5t-85.5 66.5t-116 24h-224v-629h224zM321 760l-110 127h30l104 -109l104 109h30l-110 -127
h-48z" />
    <glyph glyph-name="dcaron" unicode="&#x10f;" 
d="M588 569q19 31 31.5 72.5t7.5 78.5h38q-1 -61 -19.5 -98t-43.5 -57zM510 116q-31 -57 -87.5 -91.5t-126.5 -34.5q-50 0 -94.5 19t-77.5 52t-52 77.5t-19 95.5q0 50 19 94.5t52 77.5t77.5 52t94.5 19q70 0 126.5 -34.5t87.5 -91.5v391h30v-742h-30v116zM83 234
q0 -44 17 -83t46 -68t67.5 -46t82.5 -17q43 0 81.5 16t67.5 43.5t46 65t19 80.5v9q0 44 -17 82.5t-46 67.5t-68 46t-83 17t-82.5 -17t-67.5 -46t-46 -67.5t-17 -82.5z" />
    <glyph glyph-name="Dcroat" unicode="&#x110;" horiz-adv-x="726" 
d="M108 0v325h-98v28h98v336h254q72 0 128.5 -26.5t95 -73t58.5 -110t20 -136.5t-20 -136t-58.5 -109t-95 -72t-128.5 -26h-254zM331 353v-28h-193v-295h224q65 0 116 24t85.5 66t52.5 99t18 124t-18 125t-52.5 100.5t-85.5 66.5t-116 24h-224v-306h193z" />
    <glyph glyph-name="dcroat" unicode="&#x111;" 
d="M510 619v123h30v-123h94v-26h-94v-593h-30v116q-31 -57 -87.5 -91.5t-126.5 -34.5q-50 0 -94.5 19t-77.5 52t-52 77.5t-19 95.5q0 50 19 94.5t52 77.5t77.5 52t94.5 19q70 0 126.5 -34.5t87.5 -91.5v242h-168v26h168zM83 234q0 -44 17 -83t46 -68t67.5 -46t82.5 -17
q43 0 81.5 16t67.5 43.5t46 65t19 80.5v9q0 44 -17 82.5t-46 67.5t-68 46t-83 17t-82.5 -17t-67.5 -46t-46 -67.5t-17 -82.5z" />
    <glyph glyph-name="Emacron" unicode="&#x112;" horiz-adv-x="548" 
d="M480 689v-30h-344v-306h301v-30h-301v-293h356v-30h-386v689h374zM399 851v-27h-228v27h228z" />
    <glyph glyph-name="emacron" unicode="&#x113;" horiz-adv-x="562" 
d="M517 222h-433q2 -46 19 -83.5t44.5 -63.5t64 -40.5t77.5 -14.5q56 0 101.5 25t73.5 70l26 -16q-32 -51 -84.5 -80t-116.5 -29q-49 0 -92 17.5t-74.5 49.5t-50 77t-18.5 101q0 55 18.5 100t50 76.5t74.5 48.5t92 17t91 -17t72.5 -48.5t47.5 -76.5t17 -100v-13zM289 447
q-41 0 -77.5 -14t-64 -39.5t-44 -62.5t-19.5 -82h403q-2 45 -17.5 82t-42 62.5t-61.5 39.5t-77 14zM399 629v-27h-228v27h228z" />
    <glyph glyph-name="Ebreve" unicode="&#x114;" horiz-adv-x="548" 
d="M480 689v-30h-344v-306h301v-30h-301v-293h356v-30h-386v689h374zM409 872q0 -45 -30 -72.5t-80 -27.5q-29 0 -49.5 8.5t-34 22.5t-19.5 32t-6 37h27q0 -28 19 -50.5t63 -22.5q38 0 60.5 20t22.5 53h27z" />
    <glyph glyph-name="ebreve" unicode="&#x115;" horiz-adv-x="562" 
d="M517 222h-433q2 -46 19 -83.5t44.5 -63.5t64 -40.5t77.5 -14.5q56 0 101.5 25t73.5 70l26 -16q-32 -51 -84.5 -80t-116.5 -29q-49 0 -92 17.5t-74.5 49.5t-50 77t-18.5 101q0 55 18.5 100t50 76.5t74.5 48.5t92 17t91 -17t72.5 -48.5t47.5 -76.5t17 -100v-13zM289 447
q-41 0 -77.5 -14t-64 -39.5t-44 -62.5t-19.5 -82h403q-2 45 -17.5 82t-42 62.5t-61.5 39.5t-77 14zM395 650q0 -45 -30 -72.5t-80 -27.5q-29 0 -49.5 8.5t-34 22.5t-19.5 32t-6 37h27q0 -28 19 -50.5t63 -22.5q38 0 60.5 20t22.5 53h27z" />
    <glyph glyph-name="Edotaccent" unicode="&#x116;" horiz-adv-x="548" 
d="M480 689v-30h-344v-306h301v-30h-301v-293h356v-30h-386v689h374zM265 843q0 13 9 21t22 8q14 0 23 -8t9 -21q0 -12 -9 -20t-23 -8q-13 0 -22 8t-9 20z" />
    <glyph glyph-name="edotaccent" unicode="&#x117;" horiz-adv-x="562" 
d="M517 222h-433q2 -46 19 -83.5t44.5 -63.5t64 -40.5t77.5 -14.5q56 0 101.5 25t73.5 70l26 -16q-32 -51 -84.5 -80t-116.5 -29q-49 0 -92 17.5t-74.5 49.5t-50 77t-18.5 101q0 55 18.5 100t50 76.5t74.5 48.5t92 17t91 -17t72.5 -48.5t47.5 -76.5t17 -100v-13zM289 447
q-41 0 -77.5 -14t-64 -39.5t-44 -62.5t-19.5 -82h403q-2 45 -17.5 82t-42 62.5t-61.5 39.5t-77 14zM254 621q0 13 9 21t22 8q14 0 23 -8t9 -21q0 -12 -9 -20t-23 -8q-13 0 -22 8t-9 20z" />
    <glyph glyph-name="Eogonek" unicode="&#x118;" horiz-adv-x="548" 
d="M480 689v-30h-344v-306h301v-30h-301v-293h356v-30l-34 -81q-6 -14 -6 -26q0 -18 10 -32.5t28 -22.5q9 -4 23 -4q17 0 31.5 10t22.5 28v-1q6 15 6 29h29q0 -11 -2 -20t-6 -19q-15 -35 -48 -49t-67 0q-36 14 -49.5 48t1.5 70l29 70h-354v689h374z" />
    <glyph glyph-name="eogonek" unicode="&#x119;" horiz-adv-x="563" 
d="M517 222h-433q2 -46 19 -83.5t44.5 -63.5t64 -40.5t77.5 -14.5q56 0 101.5 25t73.5 70l26 -16q-22 -30 -41 -45.5t-36.5 -31t-34.5 -38t-35 -65.5q-11 -25 -1.5 -48t33.5 -33q9 -4 23 -4q17 0 31.5 10t22.5 28v-1q6 15 6 29h29q0 -11 -2 -20t-6 -19q-15 -35 -48 -49
t-67 0q-36 14 -48.5 47.5t0.5 70.5q11 32 43 73q-13 -6 -34.5 -9.5t-35.5 -3.5q-49 0 -92 17.5t-74.5 49.5t-50 77t-18.5 101q0 55 18.5 100t50 76.5t74.5 48.5t92 17t91 -17t72.5 -48.5t47.5 -76.5t17 -100v-13zM289 447q-41 0 -77.5 -14t-64 -39.5t-44 -62.5t-19.5 -82
h403q-2 45 -17.5 82t-42 62.5t-61.5 39.5t-77 14z" />
    <glyph glyph-name="Ecaron" unicode="&#x11a;" horiz-adv-x="548" 
d="M480 689v-30h-344v-306h301v-30h-301v-293h356v-30h-386v689h374zM262 760l-110 127h30l104 -109l104 109h30l-110 -127h-48z" />
    <glyph glyph-name="ecaron" unicode="&#x11b;" horiz-adv-x="562" 
d="M517 222h-433q2 -46 19 -83.5t44.5 -63.5t64 -40.5t77.5 -14.5q56 0 101.5 25t73.5 70l26 -16q-32 -51 -84.5 -80t-116.5 -29q-49 0 -92 17.5t-74.5 49.5t-50 77t-18.5 101q0 55 18.5 100t50 76.5t74.5 48.5t92 17t91 -17t72.5 -48.5t47.5 -76.5t17 -100v-13zM289 447
q-41 0 -77.5 -14t-64 -39.5t-44 -62.5t-19.5 -82h403q-2 45 -17.5 82t-42 62.5t-61.5 39.5t-77 14zM261 538l-110 127h30l104 -109l104 109h30l-110 -127h-48z" />
    <glyph glyph-name="Gcircumflex" unicode="&#x11c;" horiz-adv-x="763" 
d="M472 288v30h250q-2 -83 -25.5 -145t-65 -103t-99 -61t-128.5 -20q-73 0 -136.5 27.5t-110 75.5t-73 112.5t-26.5 138.5q0 73 26.5 137.5t73 112.5t110 76t136.5 28q57 0 108.5 -17.5t94.5 -48.5l-18 -24q-38 28 -85 44t-100 16q-67 0 -124.5 -25.5t-100 -69.5t-67 -103
t-24.5 -126t24.5 -126t67 -103t100 -69.5t124.5 -25.5q120 0 196.5 68t89.5 201h-218zM410 887l110 -127h-30l-104 109l-104 -109h-30l110 127h48z" />
    <glyph glyph-name="gcircumflex" unicode="&#x11d;" 
d="M83 234q0 -44 17 -83t46 -68t67.5 -46t82.5 -17q43 0 81.5 16t67.5 43.5t46 65t19 80.5v9q0 44 -17 82.5t-46 67.5t-68 46t-83 17t-82.5 -17t-67.5 -46t-46 -67.5t-17 -82.5zM123 -117q32 -45 75.5 -65.5t90.5 -20.5q49 0 89.5 12.5t69.5 43t45.5 82.5t16.5 132v49
q-31 -57 -87.5 -91.5t-126.5 -34.5q-50 0 -94.5 19t-77.5 52t-52 77.5t-19 95.5q0 50 19 94.5t52 77.5t77.5 52t94.5 19q70 0 126.5 -34.5t87.5 -91.5v116h30v-400q0 -88 -18.5 -145.5t-51.5 -92t-79.5 -48.5t-101.5 -14q-54 0 -104.5 24t-86.5 75zM335 665l110 -127h-30
l-104 109l-104 -109h-30l110 127h48z" />
    <glyph glyph-name="Gbreve" unicode="&#x11e;" horiz-adv-x="763" 
d="M472 288v30h250q-2 -83 -25.5 -145t-65 -103t-99 -61t-128.5 -20q-73 0 -136.5 27.5t-110 75.5t-73 112.5t-26.5 138.5q0 73 26.5 137.5t73 112.5t110 76t136.5 28q57 0 108.5 -17.5t94.5 -48.5l-18 -24q-38 28 -85 44t-100 16q-67 0 -124.5 -25.5t-100 -69.5t-67 -103
t-24.5 -126t24.5 -126t67 -103t100 -69.5t124.5 -25.5q120 0 196.5 68t89.5 201h-218zM511 872q0 -45 -30 -72.5t-80 -27.5q-29 0 -49.5 8.5t-34 22.5t-19.5 32t-6 37h27q0 -28 19 -50.5t63 -22.5q38 0 60.5 20t22.5 53h27z" />
    <glyph glyph-name="gbreve" unicode="&#x11f;" 
d="M83 234q0 -44 17 -83t46 -68t67.5 -46t82.5 -17q43 0 81.5 16t67.5 43.5t46 65t19 80.5v9q0 44 -17 82.5t-46 67.5t-68 46t-83 17t-82.5 -17t-67.5 -46t-46 -67.5t-17 -82.5zM123 -117q32 -45 75.5 -65.5t90.5 -20.5q49 0 89.5 12.5t69.5 43t45.5 82.5t16.5 132v49
q-31 -57 -87.5 -91.5t-126.5 -34.5q-50 0 -94.5 19t-77.5 52t-52 77.5t-19 95.5q0 50 19 94.5t52 77.5t77.5 52t94.5 19q70 0 126.5 -34.5t87.5 -91.5v116h30v-400q0 -88 -18.5 -145.5t-51.5 -92t-79.5 -48.5t-101.5 -14q-54 0 -104.5 24t-86.5 75zM407 650q0 -45 -30 -72.5
t-80 -27.5q-29 0 -49.5 8.5t-34 22.5t-19.5 32t-6 37h27q0 -28 19 -50.5t63 -22.5q38 0 60.5 20t22.5 53h27z" />
    <glyph glyph-name="Gdotaccent" unicode="&#x120;" horiz-adv-x="763" 
d="M472 288v30h250q-2 -83 -25.5 -145t-65 -103t-99 -61t-128.5 -20q-73 0 -136.5 27.5t-110 75.5t-73 112.5t-26.5 138.5q0 73 26.5 137.5t73 112.5t110 76t136.5 28q57 0 108.5 -17.5t94.5 -48.5l-18 -24q-38 28 -85 44t-100 16q-67 0 -124.5 -25.5t-100 -69.5t-67 -103
t-24.5 -126t24.5 -126t67 -103t100 -69.5t124.5 -25.5q120 0 196.5 68t89.5 201h-218zM369 843q0 13 9 21t22 8q14 0 23 -8t9 -21q0 -12 -9 -20t-23 -8q-13 0 -22 8t-9 20z" />
    <glyph glyph-name="gdotaccent" unicode="&#x121;" 
d="M83 234q0 -44 17 -83t46 -68t67.5 -46t82.5 -17q43 0 81.5 16t67.5 43.5t46 65t19 80.5v9q0 44 -17 82.5t-46 67.5t-68 46t-83 17t-82.5 -17t-67.5 -46t-46 -67.5t-17 -82.5zM123 -117q32 -45 75.5 -65.5t90.5 -20.5q49 0 89.5 12.5t69.5 43t45.5 82.5t16.5 132v49
q-31 -57 -87.5 -91.5t-126.5 -34.5q-50 0 -94.5 19t-77.5 52t-52 77.5t-19 95.5q0 50 19 94.5t52 77.5t77.5 52t94.5 19q70 0 126.5 -34.5t87.5 -91.5v116h30v-400q0 -88 -18.5 -145.5t-51.5 -92t-79.5 -48.5t-101.5 -14q-54 0 -104.5 24t-86.5 75zM263 621q0 13 9 21t22 8
q14 0 23 -8t9 -21q0 -12 -9 -20t-23 -8q-13 0 -22 8t-9 20z" />
    <glyph glyph-name="Gcommaaccent" unicode="&#x122;" horiz-adv-x="763" 
d="M472 288v30h250q-2 -83 -25.5 -145t-65 -103t-99 -61t-128.5 -20q-73 0 -136.5 27.5t-110 75.5t-73 112.5t-26.5 138.5q0 73 26.5 137.5t73 112.5t110 76t136.5 28q57 0 108.5 -17.5t94.5 -48.5l-18 -24q-38 28 -85 44t-100 16q-67 0 -124.5 -25.5t-100 -69.5t-67 -103
t-24.5 -126t24.5 -126t67 -103t100 -69.5t124.5 -25.5q120 0 196.5 68t89.5 201h-218zM322 -215q28 29 47 66t22 80h33q-5 -45 -23.5 -82.5t-51.5 -63.5h-27z" />
    <glyph glyph-name="gcommaaccent" unicode="&#x123;" 
d="M83 234q0 -44 17 -83t46 -68t67.5 -46t82.5 -17q43 0 81.5 16t67.5 43.5t46 65t19 80.5v9q0 44 -17 82.5t-46 67.5t-68 46t-83 17t-82.5 -17t-67.5 -46t-46 -67.5t-17 -82.5zM123 -117q32 -45 75.5 -65.5t90.5 -20.5q49 0 89.5 12.5t69.5 43t45.5 82.5t16.5 132v49
q-31 -57 -87.5 -91.5t-126.5 -34.5q-50 0 -94.5 19t-77.5 52t-52 77.5t-19 95.5q0 50 19 94.5t52 77.5t77.5 52t94.5 19q70 0 126.5 -34.5t87.5 -91.5v116h30v-400q0 -88 -18.5 -145.5t-51.5 -92t-79.5 -48.5t-101.5 -14q-54 0 -104.5 24t-86.5 75zM278 554q0 30 4 54
t11.5 42.5t18 33.5t21.5 27l15 -9q-18 -23 -30 -59t-11 -89h-29z" />
    <glyph glyph-name="Hcircumflex" unicode="&#x124;" horiz-adv-x="712" 
d="M606 0h-30v329h-440v-329h-30v689h30v-332h440v332h30v-689zM380 887l110 -127h-30l-104 109l-104 -109h-30l110 127h48z" />
    <glyph glyph-name="hcircumflex" unicode="&#x125;" horiz-adv-x="562" 
d="M87 742h30v-378q10 31 28.5 52.5t41.5 35t50 19.5t53 6q40 0 75 -14t61 -40t40.5 -63.5t14.5 -84.5v-275h-30v275q0 40 -12.5 72t-34 54t-51 34t-63.5 12q-33 0 -63.5 -9.5t-54.5 -31t-39 -56t-16 -83.5v-267h-30v742zM126 897l110 -127h-30l-104 109l-104 -109h-30
l110 127h48z" />
    <glyph glyph-name="Hbar" unicode="&#x126;" horiz-adv-x="726" 
d="M143 526v-169h440v169h-440zM613 0h-30v329h-440v-329h-30v526h-66v26h66v137h30v-137h440v137h30v-137h76v-26h-76v-526z" />
    <glyph glyph-name="hbar" unicode="&#x127;" horiz-adv-x="561" 
d="M87 593h-90v26h90v123h30v-123h172v-26h-172v-229q10 31 28.5 52.5t41.5 35t50 19.5t53 6q40 0 75 -14t61 -40t40.5 -63.5t14.5 -84.5v-275h-30v275q0 40 -12.5 72t-34 54t-51 34t-63.5 12q-33 0 -63.5 -9.5t-54.5 -31t-39 -56t-16 -83.5v-267h-30v593z" />
    <glyph glyph-name="Itilde" unicode="&#x128;" horiz-adv-x="242" 
d="M136 0h-30v689h30v-689zM114 809q-11 8 -20 14.5t-22 6.5q-11 0 -23.5 -9.5t-13.5 -34.5h-30q1 20 8 33.5t17 22t21.5 12t20.5 3.5q20 0 33 -8t25 -17q10 -8 20 -13.5t21 -5.5t23.5 9.5t13.5 34.5h30q-1 -20 -8 -33.5t-17 -22t-21.5 -12t-20.5 -3.5q-20 0 -32.5 7
t-24.5 16z" />
    <glyph glyph-name="itilde" unicode="&#x129;" horiz-adv-x="205" 
d="M118 0h-31v467h31v-467zM91 587q-11 8 -20 14.5t-22 6.5q-11 0 -23.5 -9.5t-13.5 -34.5h-30q1 20 8 33.5t17 22t21.5 12t20.5 3.5q20 0 33 -8t25 -17q10 -8 20 -13.5t21 -5.5t23.5 9.5t13.5 34.5h30q-1 -20 -8 -33.5t-17 -22t-21.5 -12t-20.5 -3.5q-20 0 -32.5 7
t-24.5 16z" />
    <glyph glyph-name="Imacron" unicode="&#x12a;" horiz-adv-x="242" 
d="M136 0h-30v689h30v-689zM235 851v-27h-228v27h228z" />
    <glyph glyph-name="imacron" unicode="&#x12b;" horiz-adv-x="205" 
d="M118 0h-31v467h31v-467zM215 629v-27h-228v27h228z" />
    <glyph glyph-name="Ibreve" unicode="&#x12c;" horiz-adv-x="242" 
d="M136 0h-30v689h30v-689zM231 872q0 -45 -30 -72.5t-80 -27.5q-29 0 -49.5 8.5t-34 22.5t-19.5 32t-6 37h27q0 -28 19 -50.5t63 -22.5q38 0 60.5 20t22.5 53h27z" />
    <glyph glyph-name="ibreve" unicode="&#x12d;" horiz-adv-x="205" 
d="M118 0h-31v467h31v-467zM208 650q0 -45 -30 -72.5t-80 -27.5q-29 0 -49.5 8.5t-34 22.5t-19.5 32t-6 37h27q0 -28 19 -50.5t63 -22.5q38 0 60.5 20t22.5 53h27z" />
    <glyph glyph-name="Iogonek" unicode="&#x12e;" horiz-adv-x="242" 
d="M106 689h30v-689l-32 -81q-6 -14 -6 -26q0 -18 10 -32.5t28 -22.5q9 -4 23 -4q17 0 31.5 10t22.5 28v-1q6 15 6 29h29q0 -11 -2 -20t-6 -19q-15 -35 -48 -49t-67 0q-36 14 -49.5 48t1.5 70l29 70v689z" />
    <glyph glyph-name="iogonek" unicode="&#x12f;" horiz-adv-x="204" 
d="M87 0v467h30v-467l-32 -81q-2 -7 -4 -13.5t-2 -12.5q0 -18 10 -32.5t28 -22.5q9 -4 23 -4q17 0 31.5 10t22.5 28v-1q6 15 6 29h29q0 -11 -2 -20t-6 -19q-15 -35 -48 -49t-67 0q-36 14 -49.5 48t1.5 70zM70 639q0 13 9 21t22 8q14 0 23 -8t9 -21q0 -12 -9 -20t-23 -8
q-13 0 -22 8t-9 20z" />
    <glyph glyph-name="Idotaccent" unicode="&#x130;" horiz-adv-x="242" 
d="M136 0h-30v689h30v-689zM90 843q0 13 9 21t22 8q14 0 23 -8t9 -21q0 -12 -9 -20t-23 -8q-13 0 -22 8t-9 20z" />
    <glyph glyph-name="dotlessi" unicode="&#x131;" horiz-adv-x="204" 
d="M87 467h30v-467h-30v467z" />
    <glyph glyph-name="IJ" unicode="&#x132;" horiz-adv-x="484" 
d="M136 0h-30v689h30v-689zM141 -200q22 -3 40 -3q46 0 77.5 14.5t51.5 39t29 57.5t9 71v710h30v-710q0 -44 -10.5 -82.5t-34 -67t-61 -45.5t-91.5 -17q-22 0 -44 3z" />
    <glyph glyph-name="ij" unicode="&#x133;" horiz-adv-x="408" 
d="M71 639q0 13 9 21t22 8q14 0 23 -8t9 -21q0 -12 -9 -20t-23 -8q-13 0 -22 8t-9 20zM87 467h30v-467h-30v467zM321 -34q0 -41 -8 -77t-26 -62.5t-48 -41.5t-74 -15h-34v30h34q36 0 60 13t38.5 35.5t21 52.5t6.5 65v501h30v-501zM275 639q0 13 9 21t22 8q14 0 23 -8t9 -21
q0 -12 -9 -20t-23 -8q-13 0 -22 8t-9 20z" />
    <glyph glyph-name="Jcircumflex" unicode="&#x134;" horiz-adv-x="242" 
d="M-101 -200q22 -3 40 -3q46 0 77.5 14.5t51.5 39t29 57.5t9 71v710h30v-710q0 -44 -10.5 -82.5t-34 -67t-61 -45.5t-91.5 -17q-22 0 -44 3zM146 887l110 -127h-30l-104 109l-104 -109h-30l110 127h48z" />
    <glyph glyph-name="jcircumflex" unicode="&#x135;" horiz-adv-x="204" 
d="M117 -34q0 -41 -8 -77t-26 -62.5t-48 -41.5t-74 -15h-34v30h34q36 0 60 13t38.5 35.5t21 52.5t6.5 65v501h30v-501zM120 665l110 -127h-30l-104 109l-104 -109h-30l110 127h48z" />
    <glyph glyph-name="Kcommaaccent" unicode="&#x136;" horiz-adv-x="518" 
d="M136 0h-30v689h30v-355l296 355h39l-306 -366l349 -323h-42l-336 310v-310zM210 -215q28 29 47 66t22 80h33q-5 -45 -23.5 -82.5t-51.5 -63.5h-27z" />
    <glyph glyph-name="kcommaaccent" unicode="&#x137;" horiz-adv-x="433" 
d="M383 0l-266 254v-254h-30v742h30v-474l194 199h43l-201 -205l274 -262h-44zM163 -215q28 29 47 66t22 80h33q-5 -45 -23.5 -82.5t-51.5 -63.5h-27z" />
    <glyph glyph-name="kgreenlandic" unicode="&#x138;" horiz-adv-x="398" 
d="M117 0h-30v467h30v-239l199 239h39l-209 -250l234 -217h-42l-221 204v-204z" />
    <glyph glyph-name="Lacute" unicode="&#x139;" horiz-adv-x="475" 
d="M136 689v-659h309v-30h-339v689h30zM135 760h-27l79 127h36z" />
    <glyph glyph-name="lacute" unicode="&#x13a;" horiz-adv-x="204" 
d="M87 742h30v-742h-30v742zM117 804h-27l79 127h36z" />
    <glyph glyph-name="Lcommaaccent" unicode="&#x13b;" horiz-adv-x="475" 
d="M136 689v-659h309v-30h-339v689h30zM191 -215q28 29 47 66t22 80h33q-5 -45 -23.5 -82.5t-51.5 -63.5h-27z" />
    <glyph glyph-name="lcommaaccent" unicode="&#x13c;" horiz-adv-x="204" 
d="M87 742h30v-742h-30v742zM19 -215q28 29 47 66t22 80h33q-5 -45 -23.5 -82.5t-51.5 -63.5h-27z" />
    <glyph glyph-name="Lcaron" unicode="&#x13d;" horiz-adv-x="475" 
d="M136 689v-659h309v-30h-339v689h30zM297 689q0 -30 -4 -54t-11.5 -42.5t-18 -33.5t-21.5 -27l-15 9q18 23 30 59t11 89h29z" />
    <glyph glyph-name="lcaron" unicode="&#x13e;" horiz-adv-x="204" 
d="M87 742h30v-742h-30v742zM235 742q0 -30 -4 -54t-11.5 -42.5t-18 -33.5t-21.5 -27l-15 9q18 23 30 59t11 89h29z" />
    <glyph glyph-name="Ldot" unicode="&#x13f;" horiz-adv-x="475" 
d="M136 689v-659h309v-30h-339v689h30zM245 258q0 15 11 25t28 10q16 0 27 -10t11 -25t-11 -25t-27 -10q-17 0 -28 10t-11 25z" />
    <glyph glyph-name="ldot" unicode="&#x140;" horiz-adv-x="271" 
d="M87 742h30v-742h-30v742zM199 258q0 15 11 25t28 10q16 0 27 -10t11 -25t-11 -25t-27 -10q-17 0 -28 10t-11 25z" />
    <glyph glyph-name="Lslash" unicode="&#x141;" horiz-adv-x="482" 
d="M29 297v29l84 52v311h30v-292l111 70v-29l-111 -70v-338h309v-30h-339v349z" />
    <glyph glyph-name="lslash" unicode="&#x142;" horiz-adv-x="235" 
d="M10 326l85 53v363h30v-344l110 69v-29l-110 -69v-369h-30v350l-85 -53v29z" />
    <glyph glyph-name="Nacute" unicode="&#x143;" horiz-adv-x="685" 
d="M579 0h-36l-407 644v-644h-30v689h36l407 -647v647h30v-689zM338 760h-27l79 127h36z" />
    <glyph glyph-name="nacute" unicode="&#x144;" horiz-adv-x="561" 
d="M87 467h30v-103q10 31 28.5 52.5t41.5 35t50 19.5t53 6q40 0 75 -14t61 -40t40.5 -63.5t14.5 -84.5v-275h-30v275q0 40 -12.5 72t-34 54t-51 34t-63.5 12q-33 0 -63.5 -9.5t-54.5 -31t-39 -56t-16 -83.5v-267h-30v467zM293 538h-27l79 127h36z" />
    <glyph glyph-name="Ncommaaccent" unicode="&#x145;" horiz-adv-x="685" 
d="M579 0h-36l-407 644v-644h-30v689h36l407 -647v647h30v-689zM261 -215q28 29 47 66t22 80h33q-5 -45 -23.5 -82.5t-51.5 -63.5h-27z" />
    <glyph glyph-name="ncommaaccent" unicode="&#x146;" horiz-adv-x="561" 
d="M87 467h30v-103q10 31 28.5 52.5t41.5 35t50 19.5t53 6q40 0 75 -14t61 -40t40.5 -63.5t14.5 -84.5v-275h-30v275q0 40 -12.5 72t-34 54t-51 34t-63.5 12q-33 0 -63.5 -9.5t-54.5 -31t-39 -56t-16 -83.5v-267h-30v467zM209 -215q28 29 47 66t22 80h33q-5 -45 -23.5 -82.5
t-51.5 -63.5h-27z" />
    <glyph glyph-name="Ncaron" unicode="&#x147;" horiz-adv-x="685" 
d="M579 0h-36l-407 644v-644h-30v689h36l407 -647v647h30v-689zM318 760l-110 127h30l104 -109l104 109h30l-110 -127h-48z" />
    <glyph glyph-name="ncaron" unicode="&#x148;" horiz-adv-x="561" 
d="M87 467h30v-103q10 31 28.5 52.5t41.5 35t50 19.5t53 6q40 0 75 -14t61 -40t40.5 -63.5t14.5 -84.5v-275h-30v275q0 40 -12.5 72t-34 54t-51 34t-63.5 12q-33 0 -63.5 -9.5t-54.5 -31t-39 -56t-16 -83.5v-267h-30v467zM260 538l-110 127h30l104 -109l104 109h30
l-110 -127h-48z" />
    <glyph glyph-name="napostrophe" unicode="&#x149;" horiz-adv-x="561" 
d="M12 523q19 31 30.5 67.5t7.5 74.5h30q0 -51 -15.5 -86t-38.5 -60zM87 467h30v-103q10 31 28.5 52.5t41.5 35t50 19.5t53 6q40 0 75 -14t61 -40t40.5 -63.5t14.5 -84.5v-275h-30v275q0 40 -12.5 72t-34 54t-51 34t-63.5 12q-33 0 -63.5 -9.5t-54.5 -31t-39 -56t-16 -83.5
v-267h-30v467z" />
    <glyph glyph-name="Eng" unicode="&#x14a;" horiz-adv-x="685" 
d="M579 -21q0 -44 -10.5 -82.5t-34 -67t-61 -45.5t-91.5 -17q-22 0 -44 3l4 30q22 -3 40 -3q46 0 77.5 14.5t51.5 39t29 57.5t9 71v21l-413 644v-644h-30v689h36l407 -640v640h30v-710z" />
    <glyph glyph-name="eng" unicode="&#x14b;" horiz-adv-x="561" 
d="M451 275q0 40 -12.5 72t-34 54t-51 34t-63.5 12q-33 0 -63.5 -9.5t-54.5 -31t-39 -56t-16 -83.5v-267h-30v467h30v-103q10 31 28.5 52.5t41.5 35t50 19.5t53 6q40 0 75 -14t61 -40t40.5 -63.5t14.5 -84.5v-296q0 -44 -10.5 -82.5t-34 -67t-61 -45.5t-91.5 -17
q-22 0 -44 3l4 30q22 -3 40 -3q46 0 77.5 14.5t51.5 39t29 57.5t9 71v296z" />
    <glyph glyph-name="Omacron" unicode="&#x14c;" horiz-adv-x="809" 
d="M58 343q0 73 27 137.5t73.5 112.5t109.5 76t136 28t136.5 -28t110 -76t73.5 -112.5t27 -137.5t-27 -137.5t-73.5 -112.5t-110 -75.5t-136.5 -27.5t-136 27.5t-109.5 75.5t-73.5 112.5t-27 137.5zM88 343q0 -67 24.5 -125.5t67 -102.5t100.5 -69.5t124 -25.5
q67 0 124.5 25.5t100.5 69.5t67.5 102.5t24.5 125.5t-24.5 126t-67.5 103t-100.5 69.5t-124.5 25.5q-66 0 -124 -25.5t-100.5 -69.5t-67 -103t-24.5 -126zM522 852v-27h-228v27h228z" />
    <glyph glyph-name="omacron" unicode="&#x14d;" horiz-adv-x="594" 
d="M297 -10q-50 0 -94.5 17.5t-77.5 49.5t-52.5 77t-19.5 101q0 55 19.5 100t52.5 76.5t77.5 48.5t94.5 17t94.5 -17t77.5 -48.5t52.5 -76.5t19.5 -100q0 -56 -19.5 -101t-52.5 -77t-77.5 -49.5t-94.5 -17.5zM297 20q44 0 83 15t68 43t46 68t17 89t-17 88t-46 66.5t-68 42.5
t-83 15t-83 -15t-68 -42.5t-46 -66.5t-17 -88t17 -89t46 -68t68 -43t83 -15zM411 629v-27h-228v27h228z" />
    <glyph glyph-name="Obreve" unicode="&#x14e;" horiz-adv-x="809" 
d="M58 343q0 73 27 137.5t73.5 112.5t109.5 76t136 28t136.5 -28t110 -76t73.5 -112.5t27 -137.5t-27 -137.5t-73.5 -112.5t-110 -75.5t-136.5 -27.5t-136 27.5t-109.5 75.5t-73.5 112.5t-27 137.5zM88 343q0 -67 24.5 -125.5t67 -102.5t100.5 -69.5t124 -25.5
q67 0 124.5 25.5t100.5 69.5t67.5 102.5t24.5 125.5t-24.5 126t-67.5 103t-100.5 69.5t-124.5 25.5q-66 0 -124 -25.5t-100.5 -69.5t-67 -103t-24.5 -126zM518 873q0 -45 -30 -72.5t-80 -27.5q-29 0 -49.5 8.5t-34 22.5t-19.5 32t-6 37h27q0 -28 19 -50.5t63 -22.5
q38 0 60.5 20t22.5 53h27z" />
    <glyph glyph-name="obreve" unicode="&#x14f;" horiz-adv-x="594" 
d="M297 -10q-50 0 -94.5 17.5t-77.5 49.5t-52.5 77t-19.5 101q0 55 19.5 100t52.5 76.5t77.5 48.5t94.5 17t94.5 -17t77.5 -48.5t52.5 -76.5t19.5 -100q0 -56 -19.5 -101t-52.5 -77t-77.5 -49.5t-94.5 -17.5zM297 20q44 0 83 15t68 43t46 68t17 89t-17 88t-46 66.5t-68 42.5
t-83 15t-83 -15t-68 -42.5t-46 -66.5t-17 -88t17 -89t46 -68t68 -43t83 -15zM406 650q0 -45 -30 -72.5t-80 -27.5q-29 0 -49.5 8.5t-34 22.5t-19.5 32t-6 37h27q0 -28 19 -50.5t63 -22.5q38 0 60.5 20t22.5 53h27z" />
    <glyph glyph-name="Ohungarumlaut" unicode="&#x150;" horiz-adv-x="809" 
d="M58 343q0 73 27 137.5t73.5 112.5t109.5 76t136 28t136.5 -28t110 -76t73.5 -112.5t27 -137.5t-27 -137.5t-73.5 -112.5t-110 -75.5t-136.5 -27.5t-136 27.5t-109.5 75.5t-73.5 112.5t-27 137.5zM88 343q0 -67 24.5 -125.5t67 -102.5t100.5 -69.5t124 -25.5
q67 0 124.5 25.5t100.5 69.5t67.5 102.5t24.5 125.5t-24.5 126t-67.5 103t-100.5 69.5t-124.5 25.5q-66 0 -124 -25.5t-100.5 -69.5t-67 -103t-24.5 -126zM356 761h-27l79 127h36zM466 761h-27l79 127h36z" />
    <glyph glyph-name="ohungarumlaut" unicode="&#x151;" horiz-adv-x="594" 
d="M297 -10q-50 0 -94.5 17.5t-77.5 49.5t-52.5 77t-19.5 101q0 55 19.5 100t52.5 76.5t77.5 48.5t94.5 17t94.5 -17t77.5 -48.5t52.5 -76.5t19.5 -100q0 -56 -19.5 -101t-52.5 -77t-77.5 -49.5t-94.5 -17.5zM297 20q44 0 83 15t68 43t46 68t17 89t-17 88t-46 66.5t-68 42.5
t-83 15t-83 -15t-68 -42.5t-46 -66.5t-17 -88t17 -89t46 -68t68 -43t83 -15zM248 538h-27l79 127h36zM358 538h-27l79 127h36z" />
    <glyph glyph-name="OE" unicode="&#x152;" horiz-adv-x="1164" 
d="M1096 689v-30h-344v-306h301v-30h-301v-293h356v-30h-386v200q-20 -47 -52 -85.5t-73 -66t-90 -43t-103 -15.5q-73 0 -136 27.5t-109.5 75.5t-73.5 112.5t-27 137.5t27 137.5t73.5 112.5t109.5 76t136 28q54 0 103 -15.5t90 -43.5t73 -67t52 -85v203h374zM88 343
q0 -67 24.5 -125.5t67 -102.5t100.5 -69.5t124 -25.5q67 0 124.5 25.5t100.5 69.5t67.5 102.5t24.5 125.5t-24.5 126t-67.5 103t-100.5 69.5t-124.5 25.5q-66 0 -124 -25.5t-100.5 -69.5t-67 -103t-24.5 -126z" />
    <glyph glyph-name="oe" unicode="&#x153;" horiz-adv-x="1019" 
d="M974 222h-433q2 -46 19 -83.5t44.5 -63.5t64 -40.5t77.5 -14.5q56 0 101.5 25t73.5 70l26 -16q-32 -51 -84.5 -80t-116.5 -29q-77 0 -136.5 41t-84.5 113q-13 -36 -36 -64.5t-52.5 -48.5t-65 -30.5t-74.5 -10.5q-50 0 -94.5 17.5t-77.5 49.5t-52.5 77t-19.5 101
q0 55 19.5 100t52.5 76.5t77.5 48.5t94.5 17q39 0 74.5 -10.5t65 -30t52.5 -48t36 -64.5q25 72 84.5 112.5t136.5 40.5q49 0 91 -17t72.5 -48.5t47.5 -76.5t17 -100v-13zM297 20q43 0 81 14.5t67 41t46.5 64.5t19.5 85v10v9q-2 47 -19.5 84.5t-46.5 64t-67 40.5t-81 14
q-44 0 -83 -15t-68 -42.5t-46 -66.5t-17 -88t17 -89t46 -68t68 -43t83 -15zM746 447q-41 0 -77.5 -14t-64 -39.5t-44 -62.5t-19.5 -82h403q-2 45 -17.5 82t-42 62.5t-61.5 39.5t-77 14z" />
    <glyph glyph-name="Racute" unicode="&#x154;" horiz-adv-x="601" 
d="M136 0h-30v689h252q51 0 86 -17t57.5 -45.5t32.5 -65t10 -75.5t-10 -75t-33 -64.5t-59.5 -45.5t-88.5 -17h-27l201 -284h-36l-202 284h-153v-284zM136 659v-345h217q44 0 75 14.5t50 38.5t27.5 55t8.5 64t-8.5 64t-27 55.5t-48.5 39t-72 14.5h-222zM301 760h-27l79 127
h36z" />
    <glyph glyph-name="racute" unicode="&#x155;" horiz-adv-x="364" 
d="M87 467h30v-132q7 28 21.5 54t35.5 45.5t48.5 31t61.5 11.5q14 0 30 -1.5t35 -7.5l-9 -29q-17 5 -31 6.5t-25 1.5q-51 0 -83.5 -26.5t-50.5 -66.5t-25 -85.5t-8 -84.5v-184h-30v467zM114 538h-27l79 127h36z" />
    <glyph glyph-name="Rcommaaccent" unicode="&#x156;" horiz-adv-x="601" 
d="M136 0h-30v689h252q51 0 86 -17t57.5 -45.5t32.5 -65t10 -75.5t-10 -75t-33 -64.5t-59.5 -45.5t-88.5 -17h-27l201 -284h-36l-202 284h-153v-284zM136 659v-345h217q44 0 75 14.5t50 38.5t27.5 55t8.5 64t-8.5 64t-27 55.5t-48.5 39t-72 14.5h-222zM214 -215q28 29 47 66
t22 80h33q-5 -45 -23.5 -82.5t-51.5 -63.5h-27z" />
    <glyph glyph-name="rcommaaccent" unicode="&#x157;" horiz-adv-x="364" 
d="M87 467h30v-132q7 28 21.5 54t35.5 45.5t48.5 31t61.5 11.5q14 0 30 -1.5t35 -7.5l-9 -29q-17 5 -31 6.5t-25 1.5q-51 0 -83.5 -26.5t-50.5 -66.5t-25 -85.5t-8 -84.5v-184h-30v467zM18 -215q28 29 47 66t22 80h33q-5 -45 -23.5 -82.5t-51.5 -63.5h-27z" />
    <glyph glyph-name="Rcaron" unicode="&#x158;" horiz-adv-x="601" 
d="M136 0h-30v689h252q51 0 86 -17t57.5 -45.5t32.5 -65t10 -75.5t-10 -75t-33 -64.5t-59.5 -45.5t-88.5 -17h-27l201 -284h-36l-202 284h-153v-284zM136 659v-345h217q44 0 75 14.5t50 38.5t27.5 55t8.5 64t-8.5 64t-27 55.5t-48.5 39t-72 14.5h-222zM279 760l-110 127h30
l104 -109l104 109h30l-110 -127h-48z" />
    <glyph glyph-name="rcaron" unicode="&#x159;" horiz-adv-x="364" 
d="M87 467h30v-132q7 28 21.5 54t35.5 45.5t48.5 31t61.5 11.5q14 0 30 -1.5t35 -7.5l-9 -29q-17 5 -31 6.5t-25 1.5q-51 0 -83.5 -26.5t-50.5 -66.5t-25 -85.5t-8 -84.5v-184h-30v467zM173 538l-110 127h30l104 -109l104 109h30l-110 -127h-48z" />
    <glyph glyph-name="Sacute" unicode="&#x15a;" horiz-adv-x="559" 
d="M90 166q4 -28 19 -54.5t39 -46.5t56 -32.5t71 -12.5q45 0 80 12t60 31.5t39.5 44t19.5 48.5q6 39 -4.5 68.5t-32 51t-52.5 35.5t-66 22l-98 23q-52 11 -82.5 30.5t-47 42t-21.5 46.5t-5 44q0 40 17.5 72.5t47 56t67 36.5t77.5 13q42 0 78 -11.5t63.5 -33.5t45 -53
t20.5 -70h-30q-3 32 -18 57.5t-38.5 43.5t-54.5 27.5t-66 9.5q-34 0 -66.5 -11t-57.5 -30.5t-40 -46.5t-15 -60q0 -17 4 -36t18 -37.5t40 -34.5t70 -26l98 -23q40 -9 76 -25.5t61 -42t36.5 -61.5t4.5 -83q-6 -29 -22.5 -57.5t-45 -51t-68.5 -37t-92 -14.5q-46 0 -83.5 15
t-65.5 39.5t-45 56.5t-21 65h30zM281 760h-27l79 127h36z" />
    <glyph glyph-name="sacute" unicode="&#x15b;" horiz-adv-x="419" 
d="M211 477q58 0 97.5 -30.5t44.5 -83.5h-31q-5 38 -35.5 61t-75.5 23q-44 0 -76.5 -20.5t-37.5 -55.5q-3 -28 4.5 -47t21 -31.5t30.5 -19.5t33 -11l69 -16q63 -16 88.5 -49.5t25.5 -75.5q0 -59 -43 -95t-116 -36q-29 0 -56 7.5t-49 22t-38 37t-22 52.5h30q6 -15 15.5 -31
t25.5 -29t39 -21t55 -8q60 0 94.5 28t34.5 73q0 32 -20 57.5t-70 38.5l-70 16q-20 5 -41.5 13.5t-38.5 24.5t-26.5 41t-5.5 62q3 24 15.5 43t32 32.5t44.5 20.5t52 7zM213 538h-27l79 127h36z" />
    <glyph glyph-name="Scircumflex" unicode="&#x15c;" horiz-adv-x="559" 
d="M90 166q4 -28 19 -54.5t39 -46.5t56 -32.5t71 -12.5q45 0 80 12t60 31.5t39.5 44t19.5 48.5q6 39 -4.5 68.5t-32 51t-52.5 35.5t-66 22l-98 23q-52 11 -82.5 30.5t-47 42t-21.5 46.5t-5 44q0 40 17.5 72.5t47 56t67 36.5t77.5 13q42 0 78 -11.5t63.5 -33.5t45 -53
t20.5 -70h-30q-3 32 -18 57.5t-38.5 43.5t-54.5 27.5t-66 9.5q-34 0 -66.5 -11t-57.5 -30.5t-40 -46.5t-15 -60q0 -17 4 -36t18 -37.5t40 -34.5t70 -26l98 -23q40 -9 76 -25.5t61 -42t36.5 -61.5t4.5 -83q-6 -29 -22.5 -57.5t-45 -51t-68.5 -37t-92 -14.5q-46 0 -83.5 15
t-65.5 39.5t-45 56.5t-21 65h30zM307 887l110 -127h-30l-104 109l-104 -109h-30l110 127h48z" />
    <glyph glyph-name="scircumflex" unicode="&#x15d;" horiz-adv-x="419" 
d="M211 477q58 0 97.5 -30.5t44.5 -83.5h-31q-5 38 -35.5 61t-75.5 23q-44 0 -76.5 -20.5t-37.5 -55.5q-3 -28 4.5 -47t21 -31.5t30.5 -19.5t33 -11l69 -16q63 -16 88.5 -49.5t25.5 -75.5q0 -59 -43 -95t-116 -36q-29 0 -56 7.5t-49 22t-38 37t-22 52.5h30q6 -15 15.5 -31
t25.5 -29t39 -21t55 -8q60 0 94.5 28t34.5 73q0 32 -20 57.5t-70 38.5l-70 16q-20 5 -41.5 13.5t-38.5 24.5t-26.5 41t-5.5 62q3 24 15.5 43t32 32.5t44.5 20.5t52 7zM231 665l110 -127h-30l-104 109l-104 -109h-30l110 127h48z" />
    <glyph glyph-name="Scedilla" unicode="&#x15e;" horiz-adv-x="559" 
d="M90 166q4 -28 19 -54.5t39 -46.5t56 -32.5t71 -12.5q45 0 80 12t60 31.5t39.5 44t19.5 48.5q6 39 -4.5 68.5t-32 51t-52.5 35.5t-66 22l-98 23q-52 11 -82.5 30.5t-47 42t-21.5 46.5t-5 44q0 40 17.5 72.5t47 56t67 36.5t77.5 13q42 0 78 -11.5t63.5 -33.5t45 -53
t20.5 -70h-30q-3 32 -18 57.5t-38.5 43.5t-54.5 27.5t-66 9.5q-34 0 -66.5 -11t-57.5 -30.5t-40 -46.5t-15 -60q0 -17 4 -36t18 -37.5t40 -34.5t70 -26l98 -23q40 -9 76 -25.5t61 -42t36.5 -61.5t4.5 -83q-5 -27 -20 -53.5t-40 -48.5t-60.5 -37t-80.5 -19l26 -62
q15 -36 1.5 -70t-49.5 -48q-34 -14 -67 0t-48 49q-4 10 -6 19t-2 20h29q0 -14 6 -29v1q8 -18 22.5 -28t31.5 -10q14 0 23 4q18 8 28 22.5t10 32.5q0 12 -6 26l-30 71q-45 1 -82 16t-64 39.5t-44 56t-21 64.5h30z" />
    <glyph glyph-name="scedilla" unicode="&#x15f;" horiz-adv-x="421" 
d="M260 -70q15 -36 1.5 -70t-49.5 -48q-34 -14 -67 0t-48 49q-4 10 -6 19t-2 20h29q0 -14 6 -29v1q8 -18 22.5 -28t31.5 -10q14 0 23 4q18 8 28 22.5t10 32.5q0 12 -6 26l-30 71q-27 1 -53 9t-47 23t-36 36.5t-21 50.5h30q6 -15 15.5 -31t25.5 -29t39 -21t55 -8
q60 0 94.5 28t34.5 73q0 32 -20 57.5t-70 38.5l-70 16q-20 5 -41.5 13.5t-38.5 24.5t-26.5 41t-5.5 62q3 24 15.5 43t32 32.5t44.5 20.5t52 7q58 0 97.5 -30.5t44.5 -83.5h-31q-5 38 -35.5 61t-75.5 23q-44 0 -76.5 -20.5t-37.5 -55.5q-3 -28 4.5 -47t21 -31.5t30.5 -19.5
t33 -11l69 -16q63 -16 88.5 -49.5t25.5 -75.5q0 -54 -36.5 -89t-99.5 -41z" />
    <glyph glyph-name="Scaron" unicode="&#x160;" horiz-adv-x="559" 
d="M90 166q4 -28 19 -54.5t39 -46.5t56 -32.5t71 -12.5q45 0 80 12t60 31.5t39.5 44t19.5 48.5q6 39 -4.5 68.5t-32 51t-52.5 35.5t-66 22l-98 23q-52 11 -82.5 30.5t-47 42t-21.5 46.5t-5 44q0 40 17.5 72.5t47 56t67 36.5t77.5 13q42 0 78 -11.5t63.5 -33.5t45 -53
t20.5 -70h-30q-3 32 -18 57.5t-38.5 43.5t-54.5 27.5t-66 9.5q-34 0 -66.5 -11t-57.5 -30.5t-40 -46.5t-15 -60q0 -17 4 -36t18 -37.5t40 -34.5t70 -26l98 -23q40 -9 76 -25.5t61 -42t36.5 -61.5t4.5 -83q-6 -29 -22.5 -57.5t-45 -51t-68.5 -37t-92 -14.5q-46 0 -83.5 15
t-65.5 39.5t-45 56.5t-21 65h30zM259 760l-110 127h30l104 -109l104 109h30l-110 -127h-48z" />
    <glyph glyph-name="scaron" unicode="&#x161;" horiz-adv-x="419" 
d="M211 477q58 0 97.5 -30.5t44.5 -83.5h-31q-5 38 -35.5 61t-75.5 23q-44 0 -76.5 -20.5t-37.5 -55.5q-3 -28 4.5 -47t21 -31.5t30.5 -19.5t33 -11l69 -16q63 -16 88.5 -49.5t25.5 -75.5q0 -59 -43 -95t-116 -36q-29 0 -56 7.5t-49 22t-38 37t-22 52.5h30q6 -15 15.5 -31
t25.5 -29t39 -21t55 -8q60 0 94.5 28t34.5 73q0 32 -20 57.5t-70 38.5l-70 16q-20 5 -41.5 13.5t-38.5 24.5t-26.5 41t-5.5 62q3 24 15.5 43t32 32.5t44.5 20.5t52 7zM183 538l-110 127h30l104 -109l104 109h30l-110 -127h-48z" />
    <glyph glyph-name="Tcommaaccent" unicode="&#x162;" horiz-adv-x="551" 
d="M524 689v-30h-234v-659h-30v659h-233v30h497zM192 -215q28 29 47 66t22 80h33q-5 -45 -23.5 -82.5t-51.5 -63.5h-27z" />
    <glyph glyph-name="tcommaaccent" unicode="&#x163;" horiz-adv-x="285" 
d="M143 440v-440h-30v440h-85v27h85v198h30v-198h116v-27h-116zM45 -215q28 29 47 66t22 80h33q-5 -45 -23.5 -82.5t-51.5 -63.5h-27z" />
    <glyph glyph-name="Tcaron" unicode="&#x164;" horiz-adv-x="551" 
d="M524 689v-30h-234v-659h-30v659h-233v30h497zM251 760l-110 127h30l104 -109l104 109h30l-110 -127h-48z" />
    <glyph glyph-name="tcaron" unicode="&#x165;" horiz-adv-x="285" 
d="M143 440v-440h-30v440h-85v27h85v198h30v-198h116v-27h-116zM273 665q0 -30 -4 -54t-11.5 -42.5t-18 -33.5t-21.5 -27l-15 9q18 23 30 59t11 89h29z" />
    <glyph glyph-name="Tbar" unicode="&#x166;" horiz-adv-x="551" 
d="M134 363v30h126v266h-233v30h497v-30h-234v-266h125v-30h-125v-363h-30v363h-126z" />
    <glyph glyph-name="tbar" unicode="&#x167;" horiz-adv-x="288" 
d="M115 237h-64v27h64v176h-85v27h85v198h30v-198h116v-27h-116v-176h74v-27h-74v-237h-30v237z" />
    <glyph glyph-name="Utilde" unicode="&#x168;" horiz-adv-x="674" 
d="M575 226q0 -54 -19 -97.5t-51.5 -74.5t-75.5 -48t-92 -17t-92 17t-75.5 48t-51.5 74.5t-19 97.5v463h30v-463q0 -47 16.5 -85t45 -65t66 -42t80.5 -15t80.5 15t66 42t45 65t16.5 85v463h30v-463zM329 809q-11 8 -20 14.5t-22 6.5q-11 0 -23.5 -9.5t-13.5 -34.5h-30
q1 20 8 33.5t17 22t21.5 12t20.5 3.5q20 0 33 -8t25 -17q10 -8 20 -13.5t21 -5.5t23.5 9.5t13.5 34.5h30q-1 -20 -8 -33.5t-17 -22t-21.5 -12t-20.5 -3.5q-20 0 -32.5 7t-24.5 16z" />
    <glyph glyph-name="utilde" unicode="&#x169;" horiz-adv-x="561" 
d="M474 0h-30v103q-10 -31 -28.5 -52.5t-41.5 -35t-50 -19.5t-53 -6q-41 0 -75.5 14t-60.5 40t-40.5 63.5t-14.5 84.5v275h30v-275q0 -40 12.5 -72t34 -54t51 -34t63.5 -12q33 0 63.5 9.5t54.5 31t38.5 56t16.5 83.5v267h30v-467zM279 587q-11 8 -20 14.5t-22 6.5
q-11 0 -23.5 -9.5t-13.5 -34.5h-30q1 20 8 33.5t17 22t21.5 12t20.5 3.5q20 0 33 -8t25 -17q10 -8 20 -13.5t21 -5.5t23.5 9.5t13.5 34.5h30q-1 -20 -8 -33.5t-17 -22t-21.5 -12t-20.5 -3.5q-20 0 -32.5 7t-24.5 16z" />
    <glyph glyph-name="Umacron" unicode="&#x16a;" horiz-adv-x="674" 
d="M575 226q0 -54 -19 -97.5t-51.5 -74.5t-75.5 -48t-92 -17t-92 17t-75.5 48t-51.5 74.5t-19 97.5v463h30v-463q0 -47 16.5 -85t45 -65t66 -42t80.5 -15t80.5 15t66 42t45 65t16.5 85v463h30v-463zM451 851v-27h-228v27h228z" />
    <glyph glyph-name="umacron" unicode="&#x16b;" horiz-adv-x="561" 
d="M474 0h-30v103q-10 -31 -28.5 -52.5t-41.5 -35t-50 -19.5t-53 -6q-41 0 -75.5 14t-60.5 40t-40.5 63.5t-14.5 84.5v275h30v-275q0 -40 12.5 -72t34 -54t51 -34t63.5 -12q33 0 63.5 9.5t54.5 31t38.5 56t16.5 83.5v267h30v-467zM401 629v-27h-228v27h228z" />
    <glyph glyph-name="Ubreve" unicode="&#x16c;" horiz-adv-x="674" 
d="M575 226q0 -54 -19 -97.5t-51.5 -74.5t-75.5 -48t-92 -17t-92 17t-75.5 48t-51.5 74.5t-19 97.5v463h30v-463q0 -47 16.5 -85t45 -65t66 -42t80.5 -15t80.5 15t66 42t45 65t16.5 85v463h30v-463zM446 872q0 -45 -30 -72.5t-80 -27.5q-29 0 -49.5 8.5t-34 22.5t-19.5 32
t-6 37h27q0 -28 19 -50.5t63 -22.5q38 0 60.5 20t22.5 53h27z" />
    <glyph glyph-name="ubreve" unicode="&#x16d;" horiz-adv-x="561" 
d="M474 0h-30v103q-10 -31 -28.5 -52.5t-41.5 -35t-50 -19.5t-53 -6q-41 0 -75.5 14t-60.5 40t-40.5 63.5t-14.5 84.5v275h30v-275q0 -40 12.5 -72t34 -54t51 -34t63.5 -12q33 0 63.5 9.5t54.5 31t38.5 56t16.5 83.5v267h30v-467zM381 650q0 -45 -30 -72.5t-80 -27.5
q-29 0 -49.5 8.5t-34 22.5t-19.5 32t-6 37h27q0 -28 19 -50.5t63 -22.5q38 0 60.5 20t22.5 53h27z" />
    <glyph glyph-name="Uring" unicode="&#x16e;" horiz-adv-x="674" 
d="M575 226q0 -54 -19 -97.5t-51.5 -74.5t-75.5 -48t-92 -17t-92 17t-75.5 48t-51.5 74.5t-19 97.5v463h30v-463q0 -47 16.5 -85t45 -65t66 -42t80.5 -15t80.5 15t66 42t45 65t16.5 85v463h30v-463zM254 861q0 35 23.5 59.5t57.5 24.5q18 0 33 -6.5t26.5 -18t18 -27
t6.5 -32.5q0 -35 -24.5 -58.5t-59.5 -23.5q-34 0 -57.5 23.5t-23.5 58.5zM281 861q0 -23 15.5 -39t38.5 -16q24 0 40.5 16t16.5 39q0 24 -16.5 40.5t-40.5 16.5q-23 0 -38.5 -16.5t-15.5 -40.5z" />
    <glyph glyph-name="uring" unicode="&#x16f;" horiz-adv-x="561" 
d="M474 0h-30v103q-10 -31 -28.5 -52.5t-41.5 -35t-50 -19.5t-53 -6q-41 0 -75.5 14t-60.5 40t-40.5 63.5t-14.5 84.5v275h30v-275q0 -40 12.5 -72t34 -54t51 -34t63.5 -12q33 0 63.5 9.5t54.5 31t38.5 56t16.5 83.5v267h30v-467zM191 639q0 35 23.5 59.5t57.5 24.5
q18 0 33 -6.5t26.5 -18t18 -27t6.5 -32.5q0 -35 -24.5 -58.5t-59.5 -23.5q-34 0 -57.5 23.5t-23.5 58.5zM218 639q0 -23 15.5 -39t38.5 -16q24 0 40.5 16t16.5 39q0 24 -16.5 40.5t-40.5 16.5q-23 0 -38.5 -16.5t-15.5 -40.5z" />
    <glyph glyph-name="Uhungarumlaut" unicode="&#x170;" horiz-adv-x="674" 
d="M575 226q0 -54 -19 -97.5t-51.5 -74.5t-75.5 -48t-92 -17t-92 17t-75.5 48t-51.5 74.5t-19 97.5v463h30v-463q0 -47 16.5 -85t45 -65t66 -42t80.5 -15t80.5 15t66 42t45 65t16.5 85v463h30v-463zM278 760h-27l79 127h36zM388 760h-27l79 127h36z" />
    <glyph glyph-name="uhungarumlaut" unicode="&#x171;" horiz-adv-x="561" 
d="M474 0h-30v103q-10 -31 -28.5 -52.5t-41.5 -35t-50 -19.5t-53 -6q-41 0 -75.5 14t-60.5 40t-40.5 63.5t-14.5 84.5v275h30v-275q0 -40 12.5 -72t34 -54t51 -34t63.5 -12q33 0 63.5 9.5t54.5 31t38.5 56t16.5 83.5v267h30v-467zM220 538h-27l79 127h36zM330 538h-27
l79 127h36z" />
    <glyph glyph-name="Uogonek" unicode="&#x172;" horiz-adv-x="674" 
d="M575 226q0 -53 -18 -95.5t-49 -73.5t-73 -48.5t-89 -19.5l-29 -70q-6 -14 -6 -26q0 -18 10 -32.5t28 -22.5q9 -4 23 -4q17 0 31.5 10t22.5 28v-1q6 15 6 29h29q0 -11 -2 -20t-6 -19q-15 -35 -48 -49t-67 0q-36 14 -49.5 48t1.5 70l24 60q-45 4 -84 22t-68.5 49t-46 72.5
t-16.5 92.5v463h30v-463q0 -47 16.5 -85t45 -65t66 -42t80.5 -15t80.5 15t66 42t45 65t16.5 85v463h30v-463z" />
    <glyph glyph-name="uogonek" unicode="&#x173;" horiz-adv-x="561" 
d="M474 0l-32 -81q-2 -7 -4 -13.5t-2 -12.5q0 -18 10 -32.5t28 -22.5q9 -4 23 -4q17 0 31.5 10t22.5 28v-1q6 15 6 29h29q0 -11 -2 -20t-6 -19q-15 -35 -48 -49t-67 0q-36 14 -49.5 48t1.5 70l29 70v103q-10 -31 -28.5 -52.5t-41.5 -35t-50 -19.5t-53 -6q-41 0 -75.5 14
t-60.5 40t-40.5 63.5t-14.5 84.5v275h30v-275q0 -40 12.5 -72t34 -54t51 -34t63.5 -12q33 0 63.5 9.5t54.5 31t38.5 56t16.5 83.5v267h30v-467z" />
    <glyph glyph-name="Wcircumflex" unicode="&#x174;" horiz-adv-x="924" 
d="M891 689l-234 -689h-34l-161 539l-161 -539h-34l-234 689h31l220 -648l161 538h34l160 -539l220 649h32zM486 887l110 -127h-30l-104 109l-104 -109h-30l110 127h48z" />
    <glyph glyph-name="wcircumflex" unicode="&#x175;" horiz-adv-x="825" 
d="M615 0h-31l-173 447l-167 -447h-32l-180 467h32l164 -425l159 425h49l163 -423l160 423h32zM435 665l110 -127h-30l-104 109l-104 -109h-30l110 127h48z" />
    <glyph glyph-name="Ycircumflex" unicode="&#x176;" horiz-adv-x="593" 
d="M311 330v-330h-30v331l-257 358h36l236 -330l238 330h36zM321 887l110 -127h-30l-104 109l-104 -109h-30l110 127h48z" />
    <glyph glyph-name="ycircumflex" unicode="&#x177;" horiz-adv-x="498" 
d="M171 -226h-33l93 221l-200 472h33l184 -436l187 436h33l-200 -467zM274 665l110 -127h-30l-104 109l-104 -109h-30l110 127h48z" />
    <glyph glyph-name="Ydieresis" unicode="&#x178;" horiz-adv-x="593" 
d="M311 330v-330h-30v331l-257 358h36l236 -330l238 330h36zM189 843q0 13 9 21t22 8q14 0 23 -8t9 -21q0 -12 -9 -20t-23 -8q-13 0 -22 8t-9 20zM342 843q0 13 9 21t22 8q14 0 23 -8t9 -21q0 -12 -9 -20t-23 -8q-13 0 -22 8t-9 20z" />
    <glyph glyph-name="Zacute" unicode="&#x179;" horiz-adv-x="523" 
d="M483 30v-30h-443v16l403 643h-403v30h443v-20l-400 -639h400zM247 760h-27l79 127h36z" />
    <glyph glyph-name="zacute" unicode="&#x17a;" horiz-adv-x="467" 
d="M43 0v18l335 419h-335v30h381v-20l-333 -417h333v-30h-381zM217 538h-27l79 127h36z" />
    <glyph glyph-name="Zdotaccent" unicode="&#x17b;" horiz-adv-x="523" 
d="M483 30v-30h-443v16l403 643h-403v30h443v-20l-400 -639h400zM230 843q0 13 9 21t22 8q14 0 23 -8t9 -21q0 -12 -9 -20t-23 -8q-13 0 -22 8t-9 20z" />
    <glyph glyph-name="zdotaccent" unicode="&#x17c;" horiz-adv-x="467" 
d="M43 0v18l335 419h-335v30h381v-20l-333 -417h333v-30h-381zM202 621q0 13 9 21t22 8q14 0 23 -8t9 -21q0 -12 -9 -20t-23 -8q-13 0 -22 8t-9 20z" />
    <glyph glyph-name="Zcaron" unicode="&#x17d;" horiz-adv-x="523" 
d="M483 30v-30h-443v16l403 643h-403v30h443v-20l-400 -639h400zM237 760l-110 127h30l104 -109l104 109h30l-110 -127h-48z" />
    <glyph glyph-name="zcaron" unicode="&#x17e;" horiz-adv-x="467" 
d="M43 0v18l335 419h-335v30h381v-20l-333 -417h333v-30h-381zM210 538l-110 127h30l104 -109l104 109h30l-110 -127h-48z" />
    <glyph glyph-name="longs" unicode="&#x17f;" horiz-adv-x="263" 
d="M30 440v27h96v79q0 41 8 77t26 62.5t48 41.5t74 15h34v-30h-34q-36 0 -60 -13t-38.5 -35.5t-21 -52.5t-6.5 -65v-546h-30v440h-96z" />
    <glyph glyph-name="florin" unicode="&#x192;" horiz-adv-x="574" 
d="M254 -28q-7 -41 -20.5 -77t-36 -62.5t-55 -41.5t-76.5 -15h-34l5 30h34q36 0 62 13t44.5 35.5t29.5 52.5t17 65l77 468h-96l5 27h96l13 79q7 41 20.5 77t36 62.5t55 41.5t76.5 15h34l-5 -30h-34q-36 0 -62 -13t-44.5 -35.5t-29.5 -52.5t-17 -65l-13 -79h132l-5 -27h-132
l-77 -468v0z" />
    <glyph glyph-name="Aringacute" unicode="&#x1fa;" horiz-adv-x="618" 
d="M61 0h-32l264 689h32l263 -689h-32l-73 192h-348zM145 219h328l-164 428zM323 906q29 -5 48.5 -28.5t19.5 -53.5q0 -35 -24.5 -58.5t-59.5 -23.5q-34 0 -57.5 23.5t-23.5 58.5q0 32 20 55t49 28l62 99h36zM253 824q0 -23 15.5 -39t38.5 -16q24 0 40.5 16t16.5 39
q0 24 -16.5 40.5t-40.5 16.5q-23 0 -38.5 -16.5t-15.5 -40.5z" />
    <glyph glyph-name="aringacute" unicode="&#x1fb;" 
d="M510 116q-31 -57 -87.5 -91.5t-126.5 -34.5q-50 0 -94.5 19t-77.5 52t-52 77.5t-19 95.5q0 50 19 94.5t52 77.5t77.5 52t94.5 19q70 0 126.5 -34.5t87.5 -91.5v116h30v-467h-30v116zM83 234q0 -44 17 -83t46 -68t67.5 -46t82.5 -17q43 0 81.5 16t67.5 43.5t46 65t19 80.5
v9q0 44 -17 82.5t-46 67.5t-68 46t-83 17t-82.5 -17t-67.5 -46t-46 -67.5t-17 -82.5zM315 701q29 -5 48.5 -28.5t19.5 -53.5q0 -35 -24.5 -58.5t-59.5 -23.5q-34 0 -57.5 23.5t-23.5 58.5q0 32 20 55t49 28l62 99h36zM245 619q0 -23 15.5 -39t38.5 -16q24 0 40.5 16t16.5 39
q0 24 -16.5 40.5t-40.5 16.5q-23 0 -38.5 -16.5t-15.5 -40.5z" />
    <glyph glyph-name="AEacute" unicode="&#x1fc;" horiz-adv-x="975" 
d="M489 659l-286 -434h330v434h-44zM907 689v-30h-344v-306h301v-30h-301v-293h356v-30h-386v195h-349l-128 -195h-36l454 689h433zM526 761h-27l79 127h36z" />
    <glyph glyph-name="aeacute" unicode="&#x1fd;" horiz-adv-x="1019" 
d="M83 234q0 -44 17 -83t46 -68t67.5 -46t82.5 -17q43 0 81.5 16t67.5 43.5t46 65t19 80.5v9q0 44 -17 82.5t-46 67.5t-68 46t-83 17t-82.5 -17t-67.5 -46t-46 -67.5t-17 -82.5zM540 357q29 57 83.5 88.5t122.5 31.5q49 0 91 -17t72.5 -48.5t47.5 -76.5t17 -100v-13h-433
q2 -46 19 -83.5t44.5 -63.5t64 -40.5t77.5 -14.5q56 0 101.5 25t73.5 70l26 -16q-32 -51 -84.5 -80t-116.5 -29q-68 0 -122.5 32t-83.5 89v-111h-30v116q-31 -57 -87.5 -91.5t-126.5 -34.5q-50 0 -94.5 19t-77.5 52t-52 77.5t-19 95.5q0 50 19 94.5t52 77.5t77.5 52t94.5 19
q70 0 126.5 -34.5t87.5 -91.5v116h30v-110zM746 447q-41 0 -77.5 -14t-64 -39.5t-44 -62.5t-19.5 -82h403q-2 45 -17.5 82t-42 62.5t-61.5 39.5t-77 14zM534 538h-27l79 127h36z" />
    <glyph glyph-name="Oslashacute" unicode="&#x1fe;" horiz-adv-x="808" 
d="M76 -10l-21 21l92 93q-42 48 -66 109t-24 130q0 73 27 137.5t73.5 112.5t109.5 76t136 28q69 0 129.5 -25t107.5 -69l93 94l21 -20l-94 -95q42 -48 66 -109t24 -130q0 -73 -27 -137.5t-73.5 -112.5t-110 -75.5t-136.5 -27.5q-69 0 -129 24.5t-106 68.5zM87 343
q0 -63 21.5 -118.5t59.5 -99.5l450 456q-42 40 -97 63t-118 23q-66 0 -124 -25.5t-100.5 -69.5t-67 -103t-24.5 -126zM403 20q67 0 124.5 25.5t100.5 69.5t67.5 102.5t24.5 125.5q0 63 -21.5 118.5t-59.5 98.5l-450 -456q42 -39 96.5 -61.5t117.5 -22.5zM416 761h-27l79 127
h36z" />
    <glyph glyph-name="oslashacute" unicode="&#x1ff;" horiz-adv-x="594" 
d="M75 -10l-21 21l58 58q-28 32 -43.5 73.5t-15.5 92.5q0 55 19.5 100t52.5 76.5t77.5 48.5t94.5 17q47 0 88.5 -15t74.5 -43l59 60l21 -20l-59 -60q28 -31 44 -72t16 -92q0 -56 -19.5 -101t-52.5 -77t-77.5 -49.5t-94.5 -17.5q-96 0 -164 59zM297 20q44 0 83 15t68 43
t46 68t17 89q0 44 -14 79.5t-38 62.5l-305 -307q59 -50 143 -50zM297 447q-44 0 -83 -15t-68 -42.5t-46 -66.5t-17 -88q0 -45 13.5 -81t37.5 -63l304 307q-29 23 -64.5 36t-76.5 13zM309 538h-27l79 127h36z" />
    <glyph glyph-name="Scommaaccent" unicode="&#x218;" horiz-adv-x="559" 
d="M90 166q4 -28 19 -54.5t39 -46.5t56 -32.5t71 -12.5q45 0 80 12t60 31.5t39.5 44t19.5 48.5q6 39 -4.5 68.5t-32 51t-52.5 35.5t-66 22l-98 23q-52 11 -82.5 30.5t-47 42t-21.5 46.5t-5 44q0 40 17.5 72.5t47 56t67 36.5t77.5 13q42 0 78 -11.5t63.5 -33.5t45 -53
t20.5 -70h-30q-3 32 -18 57.5t-38.5 43.5t-54.5 27.5t-66 9.5q-34 0 -66.5 -11t-57.5 -30.5t-40 -46.5t-15 -60q0 -17 4 -36t18 -37.5t40 -34.5t70 -26l98 -23q40 -9 76 -25.5t61 -42t36.5 -61.5t4.5 -83q-6 -29 -22.5 -57.5t-45 -51t-68.5 -37t-92 -14.5q-46 0 -83.5 15
t-65.5 39.5t-45 56.5t-21 65h30zM198 -215q28 29 47 66t22 80h33q-5 -45 -23.5 -82.5t-51.5 -63.5h-27z" />
    <glyph glyph-name="scommaaccent" unicode="&#x219;" horiz-adv-x="419" 
d="M211 477q58 0 97.5 -30.5t44.5 -83.5h-31q-5 38 -35.5 61t-75.5 23q-44 0 -76.5 -20.5t-37.5 -55.5q-3 -28 4.5 -47t21 -31.5t30.5 -19.5t33 -11l69 -16q63 -16 88.5 -49.5t25.5 -75.5q0 -59 -43 -95t-116 -36q-29 0 -56 7.5t-49 22t-38 37t-22 52.5h30q6 -15 15.5 -31
t25.5 -29t39 -21t55 -8q60 0 94.5 28t34.5 73q0 32 -20 57.5t-70 38.5l-70 16q-20 5 -41.5 13.5t-38.5 24.5t-26.5 41t-5.5 62q3 24 15.5 43t32 32.5t44.5 20.5t52 7zM128 -215q28 29 47 66t22 80h33q-5 -45 -23.5 -82.5t-51.5 -63.5h-27z" />
    <glyph glyph-name="circumflex" unicode="&#x2c6;" horiz-adv-x="478" 
d="M263 665l110 -127h-30l-104 109l-104 -109h-30l110 127h48z" />
    <glyph glyph-name="caron" unicode="&#x2c7;" horiz-adv-x="478" 
d="M215 538l-110 127h30l104 -109l104 109h30l-110 -127h-48z" />
    <glyph glyph-name="breve" unicode="&#x2d8;" horiz-adv-x="539" 
d="M379 650q0 -45 -30 -72.5t-80 -27.5q-29 0 -49.5 8.5t-34 22.5t-19.5 32t-6 37h27q0 -28 19 -50.5t63 -22.5q38 0 60.5 20t22.5 53h27v0z" />
    <glyph glyph-name="dotaccent" unicode="&#x2d9;" horiz-adv-x="463" 
d="M200 621q0 13 9 21t22 8q14 0 23 -8t9 -21q0 -12 -9 -20t-23 -8q-13 0 -22 8t-9 20z" />
    <glyph glyph-name="ring" unicode="&#x2da;" horiz-adv-x="485" 
d="M160 639q0 35 23.5 59.5t57.5 24.5q18 0 33 -6.5t26.5 -18t18 -27t6.5 -32.5q0 -35 -24.5 -58.5t-59.5 -23.5q-34 0 -57.5 23.5t-23.5 58.5zM187 639q0 -23 15.5 -39t38.5 -16q24 0 40.5 16t16.5 39q0 24 -16.5 40.5t-40.5 16.5q-23 0 -38.5 -16.5t-15.5 -40.5z" />
    <glyph glyph-name="ogonek" unicode="&#x2db;" horiz-adv-x="499" 
d="M199 5h32l-36 -86q-6 -14 -6 -26q0 -18 10 -32.5t28 -22.5q9 -4 23 -4q17 0 31.5 10t22.5 28v-1q6 15 6 29h29q0 -11 -2 -20t-6 -19q-15 -35 -48 -49t-67 0q-36 14 -49.5 48t1.5 70z" />
    <glyph glyph-name="tilde" unicode="&#x2dc;" horiz-adv-x="473" 
d="M229 587q-11 8 -20 14.5t-22 6.5q-11 0 -23.5 -9.5t-13.5 -34.5h-30q1 20 8 33.5t17 22t21.5 12t20.5 3.5q20 0 33 -8t25 -17q10 -8 20 -13.5t21 -5.5t23.5 9.5t13.5 34.5h30q-1 -20 -8 -33.5t-17 -22t-21.5 -12t-20.5 -3.5q-20 0 -32.5 7t-24.5 16z" />
    <glyph glyph-name="hungarumlaut" unicode="&#x2dd;" horiz-adv-x="385" 
d="M107 538h-27l79 127h36zM217 538h-27l79 127h36z" />
    <glyph glyph-name="Wgrave" unicode="&#x1e80;" horiz-adv-x="924" 
d="M891 689l-234 -689h-37l-158 539l-158 -539h-37l-234 689h31l220 -648l158 538h40l157 -539l220 649h32zM353 887h36l79 -127h-27z" />
    <glyph glyph-name="wgrave" unicode="&#x1e81;" horiz-adv-x="825" 
d="M615 0h-31l-173 447l-167 -447h-32l-180 467h32l164 -425l159 425h49l163 -423l160 423h32zM311 665h36l79 -127h-27z" />
    <glyph glyph-name="Wacute" unicode="&#x1e82;" horiz-adv-x="924" 
d="M891 689l-234 -689h-37l-158 539l-158 -539h-37l-234 689h31l220 -648l158 538h40l157 -539l220 649h32zM473 760h-27l79 127h36z" />
    <glyph glyph-name="wacute" unicode="&#x1e83;" horiz-adv-x="825" 
d="M615 0h-31l-173 447l-167 -447h-32l-180 467h32l164 -425l159 425h49l163 -423l160 423h32zM420 538h-27l79 127h36z" />
    <glyph glyph-name="Wdieresis" unicode="&#x1e84;" horiz-adv-x="924" 
d="M891 689l-234 -689h-37l-158 539l-158 -539h-37l-234 689h31l220 -648l158 538h40l157 -539l220 649h32zM354 843q0 13 9 21t22 8q14 0 23 -8t9 -21q0 -12 -9 -20t-23 -8q-13 0 -22 8t-9 20zM507 843q0 13 9 21t22 8q14 0 23 -8t9 -21q0 -12 -9 -20t-23 -8q-13 0 -22 8
t-9 20z" />
    <glyph glyph-name="wdieresis" unicode="&#x1e85;" horiz-adv-x="825" 
d="M615 0h-31l-173 447l-167 -447h-32l-180 467h32l164 -425l159 425h49l163 -423l160 423h32zM303 621q0 13 9 21t22 8q14 0 23 -8t9 -21q0 -12 -9 -20t-23 -8q-13 0 -22 8t-9 20zM456 621q0 13 9 21t22 8q14 0 23 -8t9 -21q0 -12 -9 -20t-23 -8q-13 0 -22 8t-9 20z" />
    <glyph glyph-name="Ygrave" unicode="&#x1ef2;" horiz-adv-x="593" 
d="M311 330v-330h-30v331l-257 358h36l236 -330l238 330h36zM195 887h36l79 -127h-27z" />
    <glyph glyph-name="ygrave" unicode="&#x1ef3;" horiz-adv-x="498" 
d="M171 -226h-33l93 221l-200 472h33l184 -436l187 436h33l-200 -467zM160 665h36l79 -127h-27z" />
    <glyph glyph-name="uni2009" unicode="&#x2009;" horiz-adv-x="14" 
 />
    <glyph glyph-name="endash" unicode="&#x2013;" horiz-adv-x="591" 
d="M514 236v-30h-437v30h437z" />
    <glyph glyph-name="emdash" unicode="&#x2014;" horiz-adv-x="792" 
d="M715 236v-30h-638v30h638z" />
    <glyph glyph-name="quoteleft" unicode="&#x2018;" horiz-adv-x="214" 
d="M161 689q-25 -35 -42 -81.5t-15 -109.5h-30q-2 68 17.5 115t46.5 85z" />
    <glyph glyph-name="quoteright" unicode="&#x2019;" horiz-adv-x="215" 
d="M62 498q25 35 42 81.5t15 109.5h30q1 -68 -18 -115t-46 -85z" />
    <glyph glyph-name="quotesinglbase" unicode="&#x201a;" horiz-adv-x="209" 
d="M36 -77q25 35 42 81.5t15 109.5h30q1 -68 -18 -115t-46 -85z" />
    <glyph glyph-name="quotedblleft" unicode="&#x201c;" horiz-adv-x="308" 
d="M255 689q-25 -35 -42 -81.5t-15 -109.5h-30q-2 68 17.5 115t46.5 85zM161 689q-25 -35 -42 -81.5t-15 -109.5h-30q-2 68 17.5 115t46.5 85z" />
    <glyph glyph-name="quotedblright" unicode="&#x201d;" horiz-adv-x="309" 
d="M62 498q25 35 42 81.5t15 109.5h30q1 -68 -18 -115t-46 -85zM156 498q25 35 42 81.5t15 109.5h30q1 -68 -18 -115t-46 -85z" />
    <glyph glyph-name="quotedblbase" unicode="&#x201e;" horiz-adv-x="303" 
d="M36 -77q25 35 42 81.5t15 109.5h30q1 -68 -18 -115t-46 -85zM130 -77q25 35 42 81.5t15 109.5h30q1 -68 -18 -115t-46 -85z" />
    <glyph glyph-name="dagger" unicode="&#x2020;" horiz-adv-x="398" 
d="M349 488v-30h-135v-593h-30v593h-135v30h135v201h30v-201h135z" />
    <glyph glyph-name="daggerdbl" unicode="&#x2021;" horiz-adv-x="420" 
d="M360 488v-30h-135v-335h135v-30h-135v-228h-30v228h-135v30h135v335h-135v30h135v201h30v-201h135z" />
    <glyph glyph-name="bullet" unicode="&#x2022;" horiz-adv-x="421" 
d="M94 233q0 24 9 44t25 34.5t37 23t45 8.5t45.5 -8.5t37 -23t25 -34.5t9.5 -44t-9.5 -44t-25 -34.5t-37 -23t-45.5 -8.5t-45 8.5t-37 23t-25 34.5t-9 44z" />
    <glyph glyph-name="ellipsis" unicode="&#x2026;" horiz-adv-x="604" 
d="M77 18q0 13 9 21t22 8q14 0 23 -8t9 -21q0 -12 -9 -20t-23 -8q-13 0 -22 8t-9 20zM270 18q0 13 9 21t22 8q14 0 23 -8t9 -21q0 -12 -9 -20t-23 -8q-13 0 -22 8t-9 20zM463 18q0 13 9 21t22 8q14 0 23 -8t9 -21q0 -12 -9 -20t-23 -8q-13 0 -22 8t-9 20z" />
    <glyph glyph-name="perthousand" unicode="&#x2030;" horiz-adv-x="932" 
d="M43 552q0 25 9 47t25.5 38.5t38 26t47.5 9.5q25 0 47 -9.5t38.5 -26t26 -38.5t9.5 -47q0 -26 -9.5 -47.5t-26 -38t-38.5 -25.5t-47 -9q-26 0 -47.5 9t-38 25.5t-25.5 38t-9 47.5zM176 0h-34l324 664h32zM73 552q0 -38 26 -64t64 -26q19 0 35.5 7t29 19t19.5 28.5t7 35.5
q0 38 -26.5 64.5t-64.5 26.5q-19 0 -35.5 -7t-28.5 -19.5t-19 -29t-7 -35.5zM372 111q0 25 9 47t25.5 38.5t38 26t47.5 9.5q25 0 47 -9.5t38.5 -26t26 -38.5t9.5 -47q0 -26 -9.5 -47.5t-26 -38t-38.5 -25.5t-47 -9q-26 0 -47.5 9t-38 25.5t-25.5 38t-9 47.5zM402 111
q0 -38 26 -64t64 -26q19 0 35.5 7t29 19t19.5 28.5t7 35.5q0 38 -26.5 64.5t-64.5 26.5q-19 0 -35.5 -7t-28.5 -19.5t-19 -29t-7 -35.5zM654 111q0 25 9 47t25.5 38.5t38 26t47.5 9.5q25 0 47 -9.5t38.5 -26t26 -38.5t9.5 -47q0 -26 -9.5 -47.5t-26 -38t-38.5 -25.5t-47 -9
q-26 0 -47.5 9t-38 25.5t-25.5 38t-9 47.5zM684 111q0 -38 26 -64t64 -26q19 0 35.5 7t29 19t19.5 28.5t7 35.5q0 38 -26.5 64.5t-64.5 26.5q-19 0 -35.5 -7t-28.5 -19.5t-19 -29t-7 -35.5z" />
    <glyph glyph-name="guilsinglleft" unicode="&#x2039;" horiz-adv-x="288" 
d="M230 25h-37l-138 207l138 207h36l-138 -207z" />
    <glyph glyph-name="guilsinglright" unicode="&#x203a;" horiz-adv-x="288" 
d="M197 232l-138 207h36l138 -207l-138 -207h-37z" />
    <glyph glyph-name="fraction" unicode="&#x2044;" horiz-adv-x="180" 
d="M-119 -10h-36l448 683h36z" />
    <glyph glyph-name="uni2070" unicode="&#x2070;" horiz-adv-x="355" 
d="M45 664q0 41 6 77t21 62.5t40.5 42t65.5 15.5q39 0 64.5 -15.5t40.5 -42t20.5 -62.5t5.5 -77t-5.5 -77t-20.5 -62.5t-40.5 -42t-64.5 -15.5q-40 0 -65.5 15.5t-40.5 42t-21 62.5t-6 77zM75 664q0 -35 4.5 -65t16 -53t31.5 -36t51 -13q30 0 50 13t31 36t15.5 53t4.5 65
q0 34 -4.5 64.5t-15.5 53.5t-31 36t-50 13q-31 0 -51 -13t-31.5 -36t-16 -53.5t-4.5 -64.5z" />
    <glyph glyph-name="uni2074" unicode="&#x2074;" horiz-adv-x="353" 
d="M77 586h154v225zM261 558v-86h-30v86h-209l217 313h22v-285h62v-28h-62z" />
    <glyph glyph-name="uni2075" unicode="&#x2075;" horiz-adv-x="340" 
d="M111 840l-27 -146q24 11 45 18t45 7t47.5 -8t41.5 -24t29 -39t11 -53q0 -57 -37 -92.5t-103 -35.5q-39 0 -75.5 22.5t-54.5 56.5q5 4 13 9t13 9q14 -29 43 -47.5t61 -18.5q53 0 81 28t28 69q0 23 -9 40.5t-23 29t-31.5 17.5t-34.5 6q-15 0 -28 -1.5t-26 -5t-26.5 -9.5
l-31.5 -14l-11 15l34 198h191v-31h-165z" />
    <glyph glyph-name="uni2076" unicode="&#x2076;" horiz-adv-x="338" 
d="M48 598q-3 45 -1.5 95t15 91t42.5 67.5t81 25.5q32 -1 59.5 -15t44.5 -53l-27 -12q-13 28 -33.5 38.5t-44.5 11.5q-36 1 -57.5 -16.5t-32.5 -45t-14.5 -61t-2.5 -64.5q6 16 17 27.5t25 19t30 11t31 2.5q26 -1 48.5 -12t38 -28.5t24.5 -41t8 -50.5q-2 -26 -12.5 -48.5
t-27.5 -39t-40 -25.5t-49 -8q-51 2 -84.5 36.5t-37.5 94.5zM78 598q0 -43 27 -71t66 -30q20 -1 37.5 6t30.5 19.5t21 30t9 37.5q2 42 -24 70t-66 30q-20 1 -38 -6t-31.5 -19t-22 -29.5t-9.5 -37.5z" />
    <glyph glyph-name="uni2077" unicode="&#x2077;" horiz-adv-x="310" 
d="M40 472l204 369h-206v30h257l-219 -399h-36z" />
    <glyph glyph-name="uni2078" unicode="&#x2078;" horiz-adv-x="346" 
d="M103 782q0 -27 18.5 -46.5t47.5 -19.5h7q29 0 48.5 19.5t19.5 46.5t-20.5 46t-50.5 19t-50 -19t-20 -46zM70 592q0 -40 29 -67.5t74 -27.5q44 0 73.5 27.5t29.5 67.5q0 19 -8 37t-21.5 31t-32 21t-40.5 8t-41 -8t-33 -21.5t-22 -31t-8 -36.5zM73 782q0 40 28.5 67.5
t71.5 27.5t72 -27.5t29 -67.5q0 -25 -12 -45t-32 -33q34 -14 55 -44t21 -68q0 -26 -10 -49t-28 -40t-42.5 -26.5t-52.5 -9.5q-29 0 -53 9.5t-42 26.5t-28 40t-10 49q0 38 20.5 68t54.5 45q-20 12 -31 32t-11 45z" />
    <glyph glyph-name="uni2079" unicode="&#x2079;" horiz-adv-x="338" 
d="M290 745q3 -45 1.5 -94.5t-15 -91t-42.5 -67.5t-81 -25q-32 1 -60.5 14.5t-45.5 53.5l27 11q13 -28 34.5 -38t45.5 -11q36 -1 57.5 16.5t32.5 44.5t14.5 60t2.5 65q-6 -16 -17 -27.5t-25 -19t-30 -11t-31 -2.5q-26 1 -48.5 12t-38 29t-24.5 41.5t-8 49.5q1 27 11.5 49.5
t28 39t40.5 25t49 7.5q51 -2 84.5 -36.5t37.5 -94.5zM260 746q0 43 -27 70.5t-66 29.5q-20 1 -37.5 -6t-30.5 -19t-20.5 -29.5t-8.5 -37.5q-2 -42 23.5 -70t65.5 -30q20 -1 38 5.5t31.5 19t22 29.5t9.5 38z" />
    <glyph glyph-name="uni2080" unicode="&#x2080;" horiz-adv-x="355" 
d="M45 7q0 41 6 77t21 62.5t40.5 42t65.5 15.5q39 0 64.5 -15.5t40.5 -42t20.5 -62.5t5.5 -77t-5.5 -77t-20.5 -62.5t-40.5 -42t-64.5 -15.5q-40 0 -65.5 15.5t-40.5 42t-21 62.5t-6 77zM75 7q0 -35 4.5 -65t16 -53t31.5 -36t51 -13q30 0 50 13t31 36t15.5 53t4.5 65
q0 34 -4.5 64.5t-15.5 53.5t-31 36t-50 13q-31 0 -51 -13t-31.5 -36t-16 -53.5t-4.5 -64.5z" />
    <glyph glyph-name="uni2081" unicode="&#x2081;" horiz-adv-x="187" 
d="M97 -185v355l-69 -24v30l99 36v-397h-30z" />
    <glyph glyph-name="uni2082" unicode="&#x2082;" horiz-adv-x="316" 
d="M273 -185h-234v11l167 200q16 19 26 39t10 42q0 37 -25.5 59.5t-63.5 22.5q-32 0 -57.5 -17.5t-31.5 -47.5l-28 8q8 40 40.5 63.5t76.5 23.5q51 0 85 -31t34 -81q0 -28 -12.5 -53.5t-31.5 -47.5l-136 -161h181v-30z" />
    <glyph glyph-name="uni2083" unicode="&#x2083;" horiz-adv-x="324" 
d="M236 110q2 31 -17.5 53.5t-60.5 25.5q-26 2 -50.5 -9.5t-35.5 -31.5l-25 15q16 27 46.5 42.5t66.5 13.5q57 -4 84 -37t23 -76q-2 -24 -17.5 -44.5t-39.5 -31.5q17 -4 31 -15.5t23.5 -27t14 -33.5t3.5 -35q-2 -25 -13.5 -45.5t-30 -35.5t-42.5 -22.5t-51 -5.5
q-38 2 -64.5 16.5t-46.5 51.5l24 16q14 -28 37 -40t52 -14q43 -2 72 21.5t33 62.5q0 20 -7 36.5t-19.5 28.5t-29.5 18.5t-35 6.5h-39v29h39q28 0 50.5 19t24.5 48z" />
    <glyph glyph-name="uni2084" unicode="&#x2084;" horiz-adv-x="352" 
d="M77 -71h154v225zM261 -99v-86h-30v86h-209l217 313h22v-285h62v-28h-62z" />
    <glyph glyph-name="uni2085" unicode="&#x2085;" horiz-adv-x="338" 
d="M111 183l-27 -146q24 11 45 18t45 7t47.5 -8t41.5 -24t29 -39t11 -53q0 -57 -37 -92.5t-103 -35.5q-39 0 -75.5 22.5t-54.5 56.5q5 4 13 9t13 9q14 -29 43 -47.5t61 -18.5q53 0 81 28t28 69q0 23 -9 40.5t-23 29t-31.5 17.5t-34.5 6q-15 0 -28 -1.5t-26 -5t-26.5 -9.5
l-31.5 -14l-11 15l34 198h191v-31h-165z" />
    <glyph glyph-name="uni2086" unicode="&#x2086;" horiz-adv-x="337" 
d="M48 -59q-3 45 -1.5 95t15 91t42.5 67.5t81 25.5q32 -1 59.5 -15t44.5 -53l-27 -12q-13 28 -33.5 38.5t-44.5 11.5q-36 1 -57.5 -16.5t-32.5 -45t-14.5 -61t-2.5 -64.5q6 16 17 27.5t25 19t30 11t31 2.5q26 -1 48.5 -12t38 -28.5t24.5 -41t8 -50.5q-2 -26 -12.5 -48.5
t-27.5 -39t-40 -25.5t-49 -8q-51 2 -84.5 36.5t-37.5 94.5zM78 -59q0 -43 27 -71t66 -30q20 -1 37.5 6t30.5 19.5t21 30t9 37.5q2 42 -24 70t-66 30q-20 1 -38 -6t-31.5 -19t-22 -29.5t-9.5 -37.5z" />
    <glyph glyph-name="uni2087" unicode="&#x2087;" horiz-adv-x="305" 
d="M38 -185l204 369h-206v30h257l-219 -399h-36z" />
    <glyph glyph-name="uni2088" unicode="&#x2088;" horiz-adv-x="346" 
d="M103 125q0 -27 18.5 -46.5t47.5 -19.5h7q29 0 48.5 19.5t19.5 46.5t-20.5 46t-50.5 19t-50 -19t-20 -46zM70 -65q0 -40 29 -67.5t74 -27.5q44 0 73.5 27.5t29.5 67.5q0 19 -8 37t-21.5 31t-32 21t-40.5 8t-41 -8t-33 -21.5t-22 -31t-8 -36.5zM73 125q0 40 28.5 67.5
t71.5 27.5t72 -27.5t29 -67.5q0 -25 -12 -45t-32 -33q34 -14 55 -44t21 -68q0 -26 -10 -49t-28 -40t-42.5 -26.5t-52.5 -9.5q-29 0 -53 9.5t-42 26.5t-28 40t-10 49q0 38 20.5 68t54.5 45q-20 12 -31 32t-11 45z" />
    <glyph glyph-name="uni2089" unicode="&#x2089;" horiz-adv-x="340" 
d="M291 88q3 -45 1.5 -94.5t-15 -91t-42.5 -67.5t-81 -25q-32 1 -60.5 14.5t-45.5 53.5l27 11q13 -28 34.5 -38t45.5 -11q36 -1 57.5 16.5t32.5 44.5t14.5 60t2.5 65q-6 -16 -17 -27.5t-25 -19t-30 -11t-31 -2.5q-26 1 -48.5 12t-38 29t-24.5 41.5t-8 49.5q1 27 11.5 49.5
t28 39t40.5 25t49 7.5q51 -2 84.5 -36.5t37.5 -94.5zM261 89q0 43 -27 70.5t-66 29.5q-20 1 -37.5 -6t-30.5 -19t-20.5 -29.5t-8.5 -37.5q-2 -42 23.5 -70t65.5 -30q20 -1 38 5.5t31.5 19t22 29.5t9.5 38z" />
    <glyph glyph-name="colonmonetary" unicode="&#x20a1;" horiz-adv-x="675" 
d="M235 -92l-29 11l40 106q-20 9 -37 21t-34 26l-50 -134l-29 11l55 147q-45 48 -70.5 111.5t-25.5 135.5q0 71 24.5 134t68 110.5t102 76.5t126.5 32l37 97l29 -11l-32 -85q43 -3 82 -15l31 81l29 -11l-30 -81q26 -11 50.5 -26t45.5 -34l-20 -22q-20 17 -41.5 30.5
t-45.5 23.5l-227 -603q52 -20 110 -20q60 0 111 20.5t92 56.5l20 -22q-45 -40 -101.5 -62.5t-121.5 -22.5q-62 0 -120 22zM85 343q0 -63 20.5 -118t57.5 -98l202 538q-60 -6 -111 -33t-88.5 -70t-59 -99.5t-21.5 -119.5zM187 102q16 -14 33 -26.5t36 -22.5l226 601
q-39 11 -83 13z" />
    <glyph glyph-name="lira" unicode="&#x20a4;" horiz-adv-x="635" 
d="M70 337v28h85v154q0 42 16.5 76t43.5 58t62 37t73 13q36 0 68.5 -11.5t57.5 -32.5t40.5 -51.5t18.5 -68.5h-30q-3 31 -16.5 56t-34 42t-47.5 26.5t-57 9.5q-32 0 -61.5 -11t-52.5 -31t-37 -48.5t-14 -63.5v-154h121v-28h-121v-86h121v-28h-121v-193h322q18 0 30 13t12 33
v43h30v-43q0 -32 -21 -54t-51 -22h-455v30h103v193h-85v28h85v86h-85z" />
    <glyph glyph-name="uni20A6" unicode="&#x20a6;" horiz-adv-x="717" 
d="M656 432v-30h-63v-96h63v-30h-63v-276h-36l-175 276h-232v-276h-30v276h-59v30h59v96h-59v30h59v257h36l161 -257h246v257h30v-257h63zM397 306h166v96h-227zM150 306h213l-60 96h-153v-96zM563 42v234h-147zM150 432h134l-134 212v-212z" />
    <glyph glyph-name="peseta" unicode="&#x20a7;" horiz-adv-x="718" 
d="M665 561v-30h-87q4 -20 4 -45q0 -22 -3 -41h86v-30h-92q-8 -27 -22 -51t-36.5 -42t-53 -28t-70.5 -10h-231v-284h-30v415h-70v30h70v86h-70v30h70v128h266q38 0 67 -10t51 -27.5t36 -40.5t22 -50h93zM391 314q64 0 100 28.5t50 72.5h-381v-101h231zM160 659v-98h380
q-15 41 -50 69.5t-94 28.5h-236zM552 486q0 11 -1 22.5t-3 22.5h-388v-86h388q2 10 3 20t1 21z" />
    <glyph glyph-name="uni20A8" unicode="&#x20a8;" horiz-adv-x="660" 
d="M84 314h247q44 0 75 14.5t50 38.5t27.5 55t8.5 64v7.5t-1 8.5h-407v30h404q-5 26 -16 49t-30 40.5t-45 27.5t-61 10h-252v30h252h10h263v-30h-165q32 -22 50 -55.5t24 -71.5h91v-30h-88q1 -5 1 -8.5v-7.5q0 -39 -10 -75t-33 -64.5t-59.5 -45.5t-88.5 -17h-27l201 -284
h-36l-202 284h-183v30z" />
    <glyph glyph-name="uni20A9" unicode="&#x20a9;" horiz-adv-x="992" 
d="M925 409v-30h-106l-35 -103h141v-30h-151l-83 -246h-37l-72 246h-172l-72 -246h-37l-84 246h-151v30h141l-35 103h-106v30h96l-95 280h31l95 -280h233l50 170h40l49 -170h233l95 280h32l-96 -280h96zM238 276h149l30 103h-214zM604 276h149l35 103h-214zM673 40l70 206
h-130zM318 41l60 205h-130zM419 276h154l-30 103h-94zM458 409h76l-38 130z" />
    <glyph glyph-name="afii57636" unicode="&#x20aa;" horiz-adv-x="745" 
d="M137 0h-30v534h164q46 0 83.5 -15.5t63.5 -42t40.5 -62t14.5 -76.5v-152h-30v152q0 34 -12 64.5t-34.5 53t-54.5 35.5t-71 13h-134v-504zM608 534h30v-534h-164q-46 0 -83.5 15.5t-63.5 42t-40.5 62t-14.5 76.5v152h30v-152q0 -35 12 -65t34.5 -52.5t54.5 -35.5t71 -13
h134v504z" />
    <glyph glyph-name="Euro" unicode="&#x20ac;" horiz-adv-x="787" 
d="M55 378v28h99q10 62 40 115.5t74 92.5t100.5 61t119.5 22q65 0 122 -23t102 -63l-20 -22q-41 36 -92.5 57t-111.5 21q-57 0 -107.5 -20t-91 -55t-68 -82.5t-37.5 -103.5h317v-28h-446zM501 311v-28h-317q10 -56 37 -104.5t67.5 -83.5t91.5 -55t108 -20q60 0 111 20.5
t92 56.5l20 -22q-45 -40 -101.5 -62.5t-121.5 -22.5q-64 0 -120 22.5t-100.5 61.5t-74 92.5t-39.5 116.5h-99v28h446z" />
    <glyph glyph-name="afii61289" unicode="&#x2113;" horiz-adv-x="373" 
d="M291 30v-30h-88q-36 0 -59 11.5t-37 31.5t-19.5 47t-5.5 58v422q0 31 5.5 58t19.5 46.5t37 31t59 11.5q33 0 55.5 -11.5t36.5 -31t20 -46.5t6 -58v-204q0 -31 -6 -58t-20 -47t-36.5 -31.5t-55.5 -11.5h-91v-70q0 -25 4 -46.5t14.5 -37.5t28 -25t44.5 -9h88zM203 248
q49 0 68.5 34t19.5 84v204q0 50 -19.5 84t-68.5 34q-27 0 -44.5 -9t-28 -25t-14.5 -37.5t-4 -46.5v-322h91z" />
    <glyph glyph-name="afii61352" unicode="&#x2116;" horiz-adv-x="958" 
d="M681 585q0 24 9 44.5t24 35.5t35.5 23.5t43.5 8.5q48 0 80 -32t32 -80q0 -23 -8.5 -43.5t-23.5 -35.5t-35.5 -24t-44.5 -9q-23 0 -43.5 9t-35.5 24t-24 35.5t-9 43.5zM579 0h-36l-407 644v-644h-30v689h36l407 -647v647h30v-689zM711 585q0 -34 24 -58t58 -24
q35 0 58.5 24t23.5 58q0 35 -23.5 58.5t-58.5 23.5q-34 0 -58 -23.5t-24 -58.5zM686 404v27h215v-27h-215z" />
    <glyph glyph-name="trademark" unicode="&#x2122;" horiz-adv-x="867" 
d="M319 296l47 363h-146v-363h-30v363h-126v30h324l167 -321l167 321h18l50 -393h-29l-42 333l-153 -299h-22l-154 299l-41 -333h-30z" />
    <glyph glyph-name="estimated" unicode="&#x212e;" horiz-adv-x="671" 
d="M188 279v-193q32 -30 69.5 -46.5t82.5 -16.5q42 0 73.5 10.5t56.5 27.5t44 40t36 49l31 -19q-20 -30 -42.5 -56t-51 -45t-64.5 -29.5t-83 -10.5q-61 0 -111 23t-85.5 63t-55 92.5t-19.5 111.5q0 60 19 112.5t54.5 92t86.5 62.5t115 23t114.5 -23.5t85.5 -63t54 -92.5
t19 -112h-429zM497 475q-27 25 -68 43.5t-85 18.5q-45 0 -85.5 -15.5t-70.5 -46.5v-163h309v163z" />
    <glyph glyph-name="minus" unicode="&#x2212;" horiz-adv-x="573" 
d="M492 278v-30h-411v30h411z" />
    <glyph glyph-name="notequal" unicode="&#x2260;" horiz-adv-x="607" 
d="M216 124l-83 -108h-36l83 108h-100v30h123l140 183h-263v30h286l77 100h36l-77 -100h124v-30h-147l-140 -183h287v-30h-310z" />
    <glyph glyph-name="lessequal" unicode="&#x2264;" horiz-adv-x="656" 
d="M579 122v-32l-509 195v36l509 195v-32l-473 -182zM579 30v-30h-500v30h500z" />
    <glyph glyph-name="greaterequal" unicode="&#x2265;" horiz-adv-x="656" 
d="M550 302l-473 182v32l509 -195v-36l-509 -195v32zM577 30v-30h-500v30h500z" />
    <glyph glyph-name="uniF6C3" unicode="&#xf6c3;" horiz-adv-x="242" 
d="M70 -215q28 29 47 66t22 80h33q-5 -45 -23.5 -82.5t-51.5 -63.5h-27v0z" />
    <glyph glyph-name="uniF6DD" unicode="&#xf6dd;" horiz-adv-x="1137" 
d="M109 0h-30v689h252q51 0 86 -17t57.5 -45.5t32.5 -65t10 -75.5t-10 -75t-33 -64.5t-59.5 -45.5t-88.5 -17h-27l201 -284h-36l-202 284h-153v-284zM109 659v-345h217q44 0 75 14.5t50 38.5t27.5 55t8.5 64t-8.5 64t-27 55.5t-48.5 39t-72 14.5h-222zM643 351
q31 57 87.5 91.5t126.5 34.5q50 0 94.5 -19t77.5 -52t52 -77.5t19 -95.5q0 -50 -19 -94.5t-52 -77.5t-77.5 -52t-94.5 -19q-70 0 -126.5 34.5t-87.5 91.5v-342h-30v693h30v-116zM1070 233q0 44 -17 83t-46 68t-67.5 46t-82.5 17q-43 0 -81.5 -16t-67.5 -44t-46.5 -65
t-18.5 -80v-9q0 -44 17 -82.5t46 -67.5t68 -46t83 -17t82.5 17t67.5 46t46 67.5t17 82.5z" />
    <glyph glyph-name="uniF8FF" unicode="&#xf8ff;" horiz-adv-x="847" 
d="M767 0h-687v687h687v-687zM164 218h81l-74 75v178l255 -253l256 253v-178l-74 -75h84v377l-266 -263l-262 263v-377zM164 132v-53h9v37l13 -37h10l11 37v-37h9v53h-14l-9 -36l-14 36h-15zM248 132q-13 0 -19 -8t-6 -19q0 -10 6 -18t19 -8q11 0 17 8t6 18q0 11 -6 19
t-17 8zM248 89q-8 0 -12.5 5.5t-4.5 10.5t4.5 11t12.5 6q7 0 9.5 -6t2.5 -11t-2.5 -10.5t-9.5 -5.5zM271 99q0 -10 6.5 -15t15.5 -5q13 0 17.5 4.5t4.5 12.5q0 11 -15 14q-9 2 -12.5 2.5t-3.5 3.5q0 5 3.5 5.5t5.5 0.5q3 0 6.5 -0.5t3.5 -5.5h9q0 10 -5.5 13t-13.5 3
q-7 0 -13 -4t-6 -12q0 -6 4.5 -9t11.5 -6q13 0 13 -5t-2.5 -6t-7.5 -1q-9 0 -9 10h-13zM332 122v-43h8v43h15v10h-40v-10h17zM368 132l-22 -53h12l4 13h22l3 -13h11l-21 53h-9zM381 101h-16l6 18h3zM398 132v-53h9v22h13q5 0 7 -3t2 -6v-13h13q-3 3 -3 13q0 3 -1 6.5t-6 6.5
q5 2 6 4t1 7q0 16 -13 16h-28zM407 108v14h13q9 0 9 -6q0 -8 -9 -8h-13zM446 132v-53h20q12 0 18.5 8.5t6.5 20.5q0 11 -6.5 17.5t-18.5 6.5h-20zM458 89v33h4q11 0 14 -4.5t3 -12.5q0 -7 -4 -11.5t-9 -4.5h-8zM494 132v-53h40v10h-28v12h25v9h-25v12h25v10h-37zM534 99
q0 -20 22 -20q9 0 15.5 4.5t6.5 12.5q0 11 -15 14q-10 2 -13.5 2.5t-3.5 3.5q0 5 2.5 5.5t4.5 0.5q5 0 8.5 -0.5t3.5 -5.5h10q0 10 -6 13t-13 3q-8 0 -15 -4t-7 -12q0 -6 5.5 -9t13.5 -6q8 0 10 -1.5t2 -3.5q0 -5 -3.5 -6t-5.5 -1q-5 0 -9 2.5t-4 7.5h-9zM582 132v-53h7v53
h-7zM637 79h6v29h-22v-9h12q-4 -10 -12 -10t-12 5.5t-4 10.5t4 11t12 6q2 0 5.5 -2.5t3.5 -7.5h13q-2 11 -8.5 15.5t-13.5 4.5q-12 0 -18.5 -8t-6.5 -19q0 -10 6.5 -18t18.5 -8q2 0 6 1t6 6zM649 132v-53h8v33l22 -33h13v53h-13v-33l-22 33h-8z" />
    <glyph glyph-name="glyph366" horiz-adv-x="823" 
d="M62 343q0 73 27 137.5t74.5 112.5t111 76t136.5 28t137 -28t111 -76t74.5 -112.5t27.5 -137.5t-27.5 -137.5t-74.5 -112.5t-111 -75.5t-137 -27.5t-136.5 27.5t-111 75.5t-74.5 112.5t-27 137.5zM92 343q0 -67 25 -125.5t68 -102.5t101 -69.5t125 -25.5t125 25.5
t101.5 69.5t68.5 102.5t25 125.5t-25 126t-68.5 103t-101.5 69.5t-125 25.5t-125 -25.5t-101 -69.5t-68 -103t-25 -126zM342 165h-30v360h132q30 0 50.5 -10t33 -26.5t18.5 -37.5t6 -43q0 -21 -5 -41.5t-18 -37t-34 -27t-53 -10.5h-100v-127zM342 322h100q44 0 62 26.5
t18 59.5q0 16 -4 32t-13.5 28t-24.5 19.5t-36 7.5h-102v-173z" />
    <glyph glyph-name="glyph373" horiz-adv-x="692" 
d="M413 392v-107q15 57 57 87t110 30q14 0 30 -1.5t35 -7.5l-9 -29q-17 5 -31 6.5t-25 1.5q-51 0 -83.5 -18t-50.5 -47.5t-25 -66.5t-8 -76v-164h-30v362h-247v-362h-30v689h369v-30h-339v-267h277z" />
    <glyph glyph-name="parenleft.aalt" horiz-adv-x="335" 
d="M59 341q0 107 17 191.5t48 143.5t75 92t98 38v-30q-95 -8 -151.5 -120.5t-56.5 -314.5t56.5 -314.5t151.5 -120.5v-30q-54 4 -98 37t-75 92.5t-48 144t-17 191.5z" />
    <glyph glyph-name="parenright.aalt" horiz-adv-x="335" 
d="M276 341q0 -107 -17 -191.5t-48 -144t-75 -92.5t-98 -37v30q95 8 151.5 120.5t56.5 314.5t-56.5 314.5t-151.5 120.5v30q54 -5 98 -38t75 -92t48 -143.5t17 -191.5z" />
    <glyph glyph-name="hyphen.aalt" horiz-adv-x="475" 
d="M398 350v-30h-321v30h321z" />
    <glyph glyph-name="at.aalt" horiz-adv-x="1005" 
d="M497 -115q-93 0 -173.5 35t-140 95.5t-93.5 142t-34 174.5t34 175t94 143t141 96.5t174 35.5t177 -32.5t147.5 -90t101 -136.5t37.5 -172q0 -44 -9 -93.5t-30 -91.5t-55 -69.5t-85 -27.5q-24 0 -47.5 6t-41.5 21t-29 39.5t-11 61.5v141q0 35 -13 65t-35.5 52.5t-53 35.5
t-64.5 13t-64.5 -13t-53 -35.5t-35.5 -52.5t-13 -65q0 -34 13 -64.5t35.5 -53t53 -35.5t64.5 -13q23 0 50.5 8t46.5 23v-33q-45 -28 -97 -28q-40 0 -75.5 15.5t-62.5 42.5t-42.5 62.5t-15.5 75.5q0 41 15.5 77t42.5 62.5t62.5 41.5t75.5 15t75.5 -15t62.5 -41.5t42.5 -62.5
t15.5 -77v-141q0 -28 8.5 -47t22.5 -30t31.5 -16t36.5 -5q42 0 70.5 24.5t46 62t25 82t7.5 83.5q0 87 -35 160.5t-94 127t-138 83.5t-166 30t-162.5 -33t-131 -90t-87.5 -133.5t-32 -163.5t31.5 -163t87 -132t130.5 -89t162 -33h34v-30h-34v0z" />
    <glyph glyph-name="bracketleft.aalt" horiz-adv-x="273" 
d="M96 799h133v-30h-103v-855h103v-30h-133v915z" />
    <glyph glyph-name="bracketright.aalt" horiz-adv-x="273" 
d="M177 -116h-133v30h103v855h-103v30h133v-915z" />
    <glyph glyph-name="braceleft.aalt" horiz-adv-x="357" 
d="M294 -116q-38 0 -71 13t-58 36.5t-39.5 57t-14.5 75.5v176q0 31 -19 56t-48 33v26q29 8 48 33t19 56v179q0 42 14.5 75.5t40 57t58.5 36.5t70 13h22v-30h-22q-31 0 -59 -10.5t-49 -30.5t-33 -48t-12 -63v-179q0 -32 -15 -59t-40 -44q23 -17 39 -44.5t16 -56.5v-176
q0 -35 12 -63t33 -48t48.5 -30.5t59.5 -10.5h22v-30h-22z" />
    <glyph glyph-name="braceright.aalt" horiz-adv-x="357" 
d="M41 -116v30h22q31 0 59 10.5t49 30.5t33 48t12 63v176q0 29 16 56.5t39 44.5q-25 17 -40 44t-15 59v179q0 35 -12 63t-33 48t-49 30.5t-59 10.5h-22v30h22q37 0 70 -13t58.5 -36.5t40 -57t14.5 -75.5v-179q0 -31 19 -56t48 -33v-26q-29 -8 -48 -33t-19 -56v-176
q0 -42 -14.5 -75.5t-39.5 -57t-58.5 -36.5t-70.5 -13h-22z" />
    <glyph glyph-name="exclamdown.case" horiz-adv-x="233" 
d="M101 0v538h30v-538h-30zM85 669q0 12 9 20t22 8q14 0 23 -8t9 -20q0 -13 -9 -21t-23 -8q-13 0 -22 8t-9 21z" />
    <glyph glyph-name="guillemotleft.aalt" horiz-adv-x="426" 
d="M240 135h-37l-138 207l138 207h36l-138 -207zM353 135h-37l-138 207l138 207h36l-138 -207z" />
    <glyph glyph-name="periodcentered.aalt" horiz-adv-x="217" 
d="M77 344q0 13 9 21t22 8q14 0 23 -8t9 -21q0 -12 -9 -20t-23 -8q-13 0 -22 8t-9 20z" />
    <glyph glyph-name="guillemotright.aalt" horiz-adv-x="426" 
d="M325 342l-138 207h36l138 -207l-138 -207h-37zM212 342l-138 207h36l138 -207l-138 -207h-37z" />
    <glyph glyph-name="questiondown.case" horiz-adv-x="471" 
d="M424 154q-3 -38 -19 -68.5t-41 -51.5t-57 -32.5t-68 -11.5q-38 0 -73.5 13t-62.5 37t-43 58t-16 76q0 34 11 63.5t29.5 52t43 38.5t52.5 25q23 7 42.5 15t33.5 20.5t22 32t8 48.5v71h30v-71q0 -37 -9.5 -61.5t-26.5 -40t-40 -25.5t-51 -18q-24 -8 -44.5 -21.5
t-36.5 -32.5t-25 -43t-9 -53q0 -35 13.5 -63.5t36.5 -48.5t53 -31t62 -11q30 0 57 9.5t48 27t34 43t16 57.5zM332 669q0 -13 -9 -21t-22 -8q-14 0 -23 8t-9 21q0 12 9 20t23 8q13 0 22 -8t9 -20z" />
    <glyph glyph-name="endash.aalt" horiz-adv-x="591" 
d="M514 346v-30h-437v30h437z" />
    <glyph glyph-name="emdash.aalt" horiz-adv-x="792" 
d="M715 346v-30h-638v30h638z" />
    <glyph glyph-name="bullet.aalt" horiz-adv-x="417" 
d="M92 343q0 24 9 44t25 34.5t37 23t45 8.5t45.5 -8.5t37 -23t25 -34.5t9.5 -44t-9.5 -44t-25 -34.5t-37 -23t-45.5 -8.5t-45 8.5t-37 23t-25 34.5t-9 44z" />
    <glyph glyph-name="guilsinglleft.aalt" horiz-adv-x="313" 
d="M240 135h-37l-138 207l138 207h36l-138 -207z" />
    <glyph glyph-name="guilsinglright.aalt" horiz-adv-x="313" 
d="M212 342l-138 207h36l138 -207l-138 -207h-37z" />
    <glyph glyph-name="glyph396" horiz-adv-x="522" 
d="M303 0h-30v104q-45 4 -84.5 23.5t-69 51t-46 74.5t-16.5 95q0 51 16.5 93.5t46 74t69 50t84.5 23.5v100h30v-99q42 -1 79.5 -14.5t69.5 -35.5l-17 -24q-28 20 -62.5 32t-72.5 12q-44 0 -82.5 -15t-67.5 -42.5t-46 -67t-17 -87.5q0 -49 17 -88.5t46 -67.5t67.5 -43.5
t82.5 -15.5q38 0 72 11.5t63 32.5l18 -24q-64 -48 -150 -50v-103z" />
    <glyph glyph-name="zero.tnum" horiz-adv-x="580" 
d="M59 331q0 71 10 133.5t36.5 109t71 73t113.5 26.5t113.5 -26.5t70 -73t35.5 -109t10 -133.5t-10 -133t-35.5 -108t-70 -73t-113.5 -27t-113.5 27t-71 73t-36.5 108t-10 133zM89 331q0 -64 9 -120.5t31.5 -99t61.5 -67t99 -24.5t98.5 24.5t61 67t31 99t8.5 120.5
q0 65 -8.5 122t-31 99t-61 66.5t-98.5 24.5t-99 -24.5t-61.5 -66.5t-31.5 -99t-9 -122z" />
    <glyph glyph-name="one.tnum" horiz-adv-x="580" 
d="M302 616l-119 -44v32l149 55v-659h-30v616z" />
    <glyph glyph-name="two.tnum" horiz-adv-x="580" 
d="M97 0v11l281 332q29 33 47 71t18 77q0 34 -12 62t-33 48t-50 31t-63 11q-58 0 -102 -29t-58 -80l-29 8q17 61 68.5 96t120.5 35q40 0 74.5 -13.5t60 -37.5t39.5 -57.5t14 -73.5q0 -45 -20 -87.5t-52 -79.5l-249 -294h326v-30h-381z" />
    <glyph glyph-name="three.tnum" horiz-adv-x="580" 
d="M441 487q3 29 -5.5 56t-28 48.5t-48.5 35.5t-68 17q-24 2 -48 -3.5t-45 -16.5t-38.5 -26.5t-27.5 -33.5l-26 15q26 46 76.5 72t110.5 22q47 -3 82 -19.5t57.5 -42t32.5 -58t6 -68.5q-3 -40 -28.5 -75t-65.5 -52q29 -7 52.5 -26t39.5 -44.5t23.5 -55.5t5.5 -58
q-4 -41 -24.5 -76t-53 -60t-74 -37.5t-86.5 -9.5q-65 5 -115 38.5t-73 84.5l4 2q2 1 4 1.5t5 2.5l14 6q20 -43 63 -71.5t100 -33.5q40 -2 76 8.5t63 31t44.5 50.5t22.5 66q0 40 -13 71t-34.5 51.5t-49.5 31t-58 10.5h-67v30h67q20 0 41.5 8t40 23t31 36.5t15.5 48.5z" />
    <glyph glyph-name="four.tnum" horiz-adv-x="580" 
d="M420 0h-30v145h-349l358 519h21v-489h106v-30h-106v-145zM390 175v430l-294 -430h294z" />
    <glyph glyph-name="five.tnum" horiz-adv-x="580" 
d="M131 360q45 20 82.5 30.5t85.5 10.5q37 0 74 -13t67 -38t49 -62.5t19 -86.5q0 -44 -15 -82t-44 -66.5t-71.5 -44.5t-96.5 -16q-30 0 -61 9.5t-59 26.5t-51.5 39.5t-38.5 48.5l26 15q13 -23 33.5 -43t45 -34.5t51.5 -23t54 -8.5q47 0 84 14t62 38t38 56.5t13 70.5
q0 42 -16 73.5t-42 53t-58 32.5t-63 11q-26 0 -48 -2.5t-44 -8.5t-45.5 -15.5t-51.5 -22.5l-12 16l58 326h307v-30h-282z" />
    <glyph glyph-name="six.tnum" horiz-adv-x="580" 
d="M94 203q-3 40 -4.5 91t2.5 103t16.5 101.5t38 88.5t66.5 62.5t102 23.5q53 0 98.5 -25t74.5 -90l-27 -12q-24 54 -62.5 75.5t-84.5 21.5t-78 -15.5t-53.5 -41.5t-34 -60t-19 -71.5t-8 -76t-1.5 -73.5v-26q10 33 30 57t45.5 39t55 22t59.5 6q43 -2 79 -19t61.5 -46
t39.5 -67.5t13 -83.5q-2 -43 -19 -79.5t-45 -63t-65.5 -41t-80.5 -13.5q-42 1 -76.5 17t-60.5 44t-42 66.5t-20 85.5zM124 204q0 -39 13 -72.5t36 -58t54 -38.5t67 -15q37 -1 68.5 11.5t55.5 35t38.5 54t16.5 68.5q1 38 -10.5 71t-33.5 57.5t-52.5 39t-67.5 16.5
q-37 1 -70 -11t-58 -34.5t-40.5 -54t-16.5 -69.5z" />
    <glyph glyph-name="seven.tnum" horiz-adv-x="580" 
d="M464 634h-363v30h413l-366 -664h-34z" />
    <glyph glyph-name="eight.tnum" horiz-adv-x="580" 
d="M129 521q0 32 12 59.5t33.5 48t51 32.5t63.5 12q35 0 65 -12t52 -32.5t34.5 -48t12.5 -59.5q0 -45 -24.5 -81t-65.5 -55q32 -11 59 -29.5t46 -43.5t29.5 -54.5t10.5 -62.5q0 -43 -17 -80.5t-46 -65t-69.5 -43.5t-86.5 -16q-47 0 -86.5 16t-68.5 43.5t-45.5 65t-16.5 80.5
q0 33 10 63t29 55t45 43.5t58 29.5q-39 18 -62 54t-23 81zM102 195q0 -37 14 -69t39 -55.5t59.5 -37t74.5 -13.5t74.5 13.5t60 37t40 55.5t14.5 69q0 35 -14 66t-39 55t-58.5 38.5t-72.5 15.5h-13q-38 -1 -71 -15.5t-57 -38.5t-37.5 -55t-13.5 -66zM159 521q0 -25 9.5 -47.5
t26 -39t39 -26.5t49.5 -11h11q28 1 51.5 11t40.5 26.5t27 39t10 47.5t-10.5 47.5t-28.5 39t-42.5 26t-52.5 9.5t-51.5 -9.5t-41 -26t-27.5 -39t-10 -47.5z" />
    <glyph glyph-name="nine.tnum" horiz-adv-x="580" 
d="M485 460q3 -40 4.5 -91t-2.5 -103t-16.5 -101.5t-38 -88.5t-66.5 -62.5t-102 -23.5q-53 0 -99 25t-74 90l27 12q24 -54 62.5 -75.5t84.5 -21.5q45 0 77.5 15.5t54 41.5t34 60t19 71.5t8 76t1.5 73.5v26q-11 -33 -30.5 -57t-45 -39t-55 -22t-59.5 -6q-43 2 -79 19
t-61.5 46t-39.5 67.5t-13 83.5q2 43 19 79.5t45 63t65.5 41t80.5 13.5q42 -1 76.5 -17t60.5 -44t42 -66.5t20 -85.5zM455 459q0 39 -13 72.5t-36 58t-54 38.5t-67 15q-37 1 -68.5 -11.5t-55.5 -35t-38.5 -54t-16.5 -68.5q-1 -38 10.5 -71t33.5 -57.5t52.5 -39.5t67.5 -16
t70 11t58 34.5t40.5 54t16.5 69.5z" />
    <glyph glyph-name="zero.oldstyle.tnum" horiz-adv-x="580" 
d="M289 -11q-49 0 -93.5 18.5t-78 53t-53 83t-19.5 107.5q0 60 19.5 108.5t53 82t78 52t93.5 18.5t93.5 -18.5t78.5 -52t53.5 -82t19.5 -108.5q0 -59 -19.5 -107.5t-53.5 -83t-78.5 -53t-93.5 -18.5zM289 19q43 0 82.5 16.5t68.5 47t46.5 73t17.5 95.5t-17.5 96t-46.5 73
t-68.5 46t-82.5 16t-82 -16t-68 -46t-46.5 -73t-17.5 -96t17.5 -95.5t46.5 -73t68 -47t82 -16.5z" />
    <glyph glyph-name="one.oldstyle.tnum" horiz-adv-x="580" 
d="M366 0h-30v463l-175 -67v30l205 80v-506z" />
    <glyph glyph-name="two.oldstyle.tnum" horiz-adv-x="580" 
d="M367 278q23 23 38 48.5t15 54.5q0 48 -37.5 78.5t-94.5 30.5q-48 0 -85.5 -21t-46.5 -59l-29 7q6 25 20.5 44t36 32t48.5 20t56 7q35 0 64.5 -10t51.5 -28.5t34 -44t12 -56.5q0 -37 -17 -67.5t-44 -56.5l-217 -227h282v-30h-328v26z" />
    <glyph glyph-name="six.oldstyle.tnum" horiz-adv-x="580" 
d="M94 203q-3 40 -4.5 91t2.5 103t16.5 101.5t38 88.5t66.5 62.5t102 23.5q53 0 98.5 -25t74.5 -90l-27 -12q-24 54 -62.5 75.5t-84.5 21.5t-78 -15.5t-53.5 -41.5t-34 -60t-19 -71.5t-8 -76t-1.5 -73.5v-26q10 33 30 57t45.5 39t55 22t59.5 6q43 -2 79 -19t61.5 -46
t39.5 -67.5t13 -83.5q-2 -43 -19 -79.5t-45 -63t-65.5 -41t-80.5 -13.5q-42 1 -76.5 17t-60.5 44t-42 66.5t-20 85.5zM124 204q0 -39 13 -72.5t36 -58t54 -38.5t67 -15q37 -1 68.5 11.5t55.5 35t38.5 54t16.5 68.5q1 38 -10.5 71t-33.5 57.5t-52.5 39t-67.5 16.5
q-37 1 -70 -11t-58 -34.5t-40.5 -54t-16.5 -69.5z" />
    <glyph glyph-name="eight.oldstyle.tnum" horiz-adv-x="580" 
d="M129 521q0 32 12 59.5t33.5 48t51 32.5t63.5 12q35 0 65 -12t52 -32.5t34.5 -48t12.5 -59.5q0 -45 -24.5 -81t-65.5 -55q32 -11 59 -29.5t46 -43.5t29.5 -54.5t10.5 -62.5q0 -43 -17 -80.5t-46 -65t-69.5 -43.5t-86.5 -16q-47 0 -86.5 16t-68.5 43.5t-45.5 65t-16.5 80.5
q0 33 10 63t29 55t45 43.5t58 29.5q-39 18 -62 54t-23 81zM102 195q0 -37 14 -69t39 -55.5t59.5 -37t74.5 -13.5t74.5 13.5t60 37t40 55.5t14.5 69q0 35 -14 66t-39 55t-58.5 38.5t-72.5 15.5h-13q-38 -1 -71 -15.5t-57 -38.5t-37.5 -55t-13.5 -66zM159 521q0 -25 9.5 -47.5
t26 -39t39 -26.5t49.5 -11h11q28 1 51.5 11t40.5 26.5t27 39t10 47.5t-10.5 47.5t-28.5 39t-42.5 26t-52.5 9.5t-51.5 -9.5t-41 -26t-27.5 -39t-10 -47.5z" />
    <glyph glyph-name="three.oldstyle.tnum" horiz-adv-x="580" 
d="M442 291q3 29 -5.5 56t-28 48.5t-48.5 35.5t-68 17q-24 2 -48 -3.5t-45 -16.5t-38.5 -26.5t-27.5 -33.5l-26 15q26 46 76.5 72t110.5 22q47 -3 82 -19.5t57.5 -42t32.5 -58t6 -68.5q-3 -40 -28.5 -75t-65.5 -52q29 -7 52.5 -26t39.5 -44.5t23.5 -55.5t5.5 -58
q-4 -41 -24.5 -76t-53 -60t-74 -37.5t-86.5 -9.5q-65 5 -115 38.5t-73 84.5l4 2q2 1 4 1.5t5 2.5l14 6q20 -43 63 -71.5t100 -33.5q40 -2 76 8.5t63 31t44.5 50.5t22.5 66q0 40 -13 71t-34.5 51.5t-49.5 31t-58 10.5h-67v30h67q20 0 41.5 8t40 23t31 36.5t15.5 48.5z" />
    <glyph glyph-name="four.oldstyle.tnum" horiz-adv-x="580" 
d="M422 -197h-30v145h-349l358 519h21v-489h106v-30h-106v-145zM392 -22v430l-294 -430h294z" />
    <glyph glyph-name="five.oldstyle.tnum" horiz-adv-x="580" 
d="M132 162q45 20 82.5 30.5t85.5 10.5q37 0 74 -13t67 -38t49 -62.5t19 -86.5q0 -44 -15 -82t-44 -66.5t-71.5 -44.5t-96.5 -16q-30 0 -61 9.5t-59 26.5t-51.5 39.5t-38.5 48.5l26 15q13 -23 33.5 -43t45 -34.5t51.5 -23t54 -8.5q47 0 84 14t62 38t38 56.5t13 70.5
q0 42 -16 73.5t-42 53t-58 32.5t-63 11q-26 0 -48 -2.5t-44 -8.5t-45.5 -15.5t-51.5 -22.5l-12 16l58 326h307v-30h-282z" />
    <glyph glyph-name="seven.oldstyle.tnum" horiz-adv-x="580" 
d="M465 437h-363v30h413l-366 -664h-34z" />
    <glyph glyph-name="nine.oldstyle.tnum" horiz-adv-x="580" 
d="M490 264q3 -40 4.5 -91t-2.5 -103t-16.5 -101.5t-38 -88.5t-66.5 -62.5t-102 -23.5q-53 0 -99 25t-74 90l27 12q24 -54 62.5 -75.5t84.5 -21.5q45 0 77.5 15.5t54 41.5t34 60t19 71.5t8 76t1.5 73.5v26q-11 -33 -30.5 -57t-45 -39t-55 -22t-59.5 -6q-43 2 -79 19
t-61.5 46t-39.5 67.5t-13 83.5q2 43 19 79.5t45 63t65.5 41t80.5 13.5q42 -1 76.5 -17t60.5 -44t42 -66.5t20 -85.5zM460 263q0 39 -13 72.5t-36 58t-54 38.5t-67 15q-37 1 -68.5 -11.5t-55.5 -35t-38.5 -54t-16.5 -68.5q-1 -38 10.5 -71t33.5 -57.5t52.5 -39.5t67.5 -16
t70 11t58 34.5t40.5 54t16.5 69.5z" />
    <glyph glyph-name="zero.oldstyle" horiz-adv-x="608" 
d="M303 -11q-49 0 -93.5 18.5t-78 53t-53 83t-19.5 107.5q0 60 19.5 108.5t53 82t78 52t93.5 18.5t93.5 -18.5t78.5 -52t53.5 -82t19.5 -108.5q0 -59 -19.5 -107.5t-53.5 -83t-78.5 -53t-93.5 -18.5zM303 19q43 0 82.5 16.5t68.5 47t46.5 73t17.5 95.5t-17.5 96t-46.5 73
t-68.5 46t-82.5 16t-82 -16t-68 -46t-46.5 -73t-17.5 -96t17.5 -95.5t46.5 -73t68 -47t82 -16.5z" />
    <glyph glyph-name="one.oldstyle" horiz-adv-x="344" 
d="M248 0h-30v463l-175 -67v30l205 80v-506z" />
    <glyph glyph-name="two.oldstyle" horiz-adv-x="467" 
d="M311 278q23 23 38 48.5t15 54.5q0 48 -37.5 78.5t-94.5 30.5q-48 0 -85.5 -21t-46.5 -59l-29 7q6 25 20.5 44t36 32t48.5 20t56 7q35 0 64.5 -10t51.5 -28.5t34 -44t12 -56.5q0 -37 -17 -67.5t-44 -56.5l-217 -227h282v-30h-328v26z" />
    <glyph glyph-name="three.oldstyle" horiz-adv-x="525" 
d="M415 291q3 29 -5.5 56t-28 48.5t-48.5 35.5t-68 17q-24 2 -48 -3.5t-45 -16.5t-38.5 -26.5t-27.5 -33.5l-26 15q26 46 76.5 72t110.5 22q47 -3 82 -19.5t57.5 -42t32.5 -58t6 -68.5q-3 -40 -28.5 -75t-65.5 -52q29 -7 52.5 -26t39.5 -44.5t23.5 -55.5t5.5 -58
q-4 -41 -24.5 -76t-53 -60t-74 -37.5t-86.5 -9.5q-65 5 -115 38.5t-73 84.5l4 2q2 1 4 1.5t5 2.5l14 6q20 -43 63 -71.5t100 -33.5q40 -2 76 8.5t63 31t44.5 50.5t22.5 66q0 40 -13 71t-34.5 51.5t-49.5 31t-58 10.5h-67v30h67q20 0 41.5 8t40 23t31 36.5t15.5 48.5z" />
    <glyph glyph-name="four.oldstyle" horiz-adv-x="551" 
d="M408 -197h-30v145h-349l358 519h21v-489h106v-30h-106v-145zM378 -22v430l-294 -430h294z" />
    <glyph glyph-name="five.oldstyle" horiz-adv-x="532" 
d="M108 162q45 20 82.5 30.5t85.5 10.5q37 0 74 -13t67 -38t49 -62.5t19 -86.5q0 -44 -15 -82t-44 -66.5t-71.5 -44.5t-96.5 -16q-30 0 -61 9.5t-59 26.5t-51.5 39.5t-38.5 48.5l26 15q13 -23 33.5 -43t45 -34.5t51.5 -23t54 -8.5q47 0 84 14t62 38t38 56.5t13 70.5
q0 42 -16 73.5t-42 53t-58 32.5t-63 11q-26 0 -48 -2.5t-44 -8.5t-45.5 -15.5t-51.5 -22.5l-12 16l58 326h307v-30h-282z" />
    <glyph glyph-name="six.oldstyle" horiz-adv-x="551" 
d="M80 203q-3 40 -4.5 91t2.5 103t16.5 101.5t38 88.5t66.5 62.5t102 23.5q53 0 98.5 -25t74.5 -90l-27 -12q-24 54 -62.5 75.5t-84.5 21.5t-78 -15.5t-53.5 -41.5t-34 -60t-19 -71.5t-8 -76t-1.5 -73.5v-26q10 33 30 57t45.5 39t55 22t59.5 6q43 -2 79 -19t61.5 -46
t39.5 -67.5t13 -83.5q-2 -43 -19 -79.5t-45 -63t-65.5 -41t-80.5 -13.5q-42 1 -76.5 17t-60.5 44t-42 66.5t-20 85.5zM110 204q0 -39 13 -72.5t36 -58t54 -38.5t67 -15q37 -1 68.5 11.5t55.5 35t38.5 54t16.5 68.5q1 38 -10.5 71t-33.5 57.5t-52.5 39t-67.5 16.5
q-37 1 -70 -11t-58 -34.5t-40.5 -54t-16.5 -69.5z" />
    <glyph glyph-name="seven.oldstyle" horiz-adv-x="468" 
d="M409 437h-363v30h413l-366 -664h-34z" />
    <glyph glyph-name="eight.oldstyle" horiz-adv-x="558" 
d="M118 521q0 32 12 59.5t33.5 48t51 32.5t63.5 12q35 0 65 -12t52 -32.5t34.5 -48t12.5 -59.5q0 -45 -24.5 -81t-65.5 -55q32 -11 59 -29.5t46 -43.5t29.5 -54.5t10.5 -62.5q0 -43 -17 -80.5t-46 -65t-69.5 -43.5t-86.5 -16q-47 0 -86.5 16t-68.5 43.5t-45.5 65t-16.5 80.5
q0 33 10 63t29 55t45 43.5t58 29.5q-39 18 -62 54t-23 81zM91 195q0 -37 14 -69t39 -55.5t59.5 -37t74.5 -13.5t74.5 13.5t60 37t40 55.5t14.5 69q0 35 -14 66t-39 55t-58.5 38.5t-72.5 15.5h-13q-38 -1 -71 -15.5t-57 -38.5t-37.5 -55t-13.5 -66zM148 521q0 -25 9.5 -47.5
t26 -39t39 -26.5t49.5 -11h11q28 1 51.5 11t40.5 26.5t27 39t10 47.5t-10.5 47.5t-28.5 39t-42.5 26t-52.5 9.5t-51.5 -9.5t-41 -26t-27.5 -39t-10 -47.5z" />
    <glyph glyph-name="nine.oldstyle" horiz-adv-x="528" 
d="M464 264q3 -40 4.5 -91t-2.5 -103t-16.5 -101.5t-38 -88.5t-66.5 -62.5t-102 -23.5q-53 0 -99 25t-74 90l27 12q24 -54 62.5 -75.5t84.5 -21.5q45 0 77.5 15.5t54 41.5t34 60t19 71.5t8 76t1.5 73.5v26q-11 -33 -30.5 -57t-45 -39t-55 -22t-59.5 -6q-43 2 -79 19
t-61.5 46t-39.5 67.5t-13 83.5q2 43 19 79.5t45 63t65.5 41t80.5 13.5q42 -1 76.5 -17t60.5 -44t42 -66.5t20 -85.5zM434 263q0 39 -13 72.5t-36 58t-54 38.5t-67 15q-37 1 -68.5 -11.5t-55.5 -35t-38.5 -54t-16.5 -68.5q-1 -38 10.5 -71t33.5 -57.5t52.5 -39.5t67.5 -16
t70 11t58 34.5t40.5 54t16.5 69.5z" />
    <glyph glyph-name="Lslash.aalt" horiz-adv-x="425" 
d="M100 295l-69 -43v28l69 43v263h30v-244l94 60v-29l-94 -59v-284h261v-30h-291v295z" />
    <glyph glyph-name="Zcaron.aalt" horiz-adv-x="469" 
d="M424 30v-30h-380v20l341 536h-339v30h378v-23l-339 -533h339zM257 648h-45l-92 109h30l84 -90l85 90h30z" />
    <glyph glyph-name="exclam.aalt" horiz-adv-x="237" 
d="M104 586h30l-1 -450h-28zM89 23q0 12 8.5 19.5t20.5 7.5q13 0 21.5 -7.5t8.5 -19.5t-8.5 -19.5t-21.5 -7.5q-12 0 -20.5 7.5t-8.5 19.5z" />
    <glyph glyph-name="ampersand.aalt" horiz-adv-x="583" 
d="M249 20q34 0 62.5 11t49 30.5t32 46t12.5 57.5v158h-155q-34 0 -62.5 -12t-49.5 -33t-33 -48.5t-12 -57.5q0 -32 11.5 -59.5t32 -48t49 -32.5t63.5 -12zM143 457q0 -46 30.5 -76t78.5 -30h153v77h30v-78h81v-27h-81v-151q0 -30 3.5 -57t13.5 -47t29 -33t51 -15v-30
q-42 0 -75.5 25t-42.5 76q-9 -27 -27.5 -46t-41.5 -31t-48.5 -18t-48.5 -6q-41 0 -75 14t-58.5 39t-38 58t-13.5 71q0 25 8 50.5t22.5 48t36 40.5t48.5 28q-32 20 -48.5 53t-16.5 65q0 28 11 52.5t30 42.5t45 28.5t56 10.5q39 0 70 -15t51 -42q-2 -1 -12.5 -8.5t-12.5 -8.5
q-31 44 -96 44q-24 0 -44.5 -8t-35.5 -22t-23.5 -33t-8.5 -41z" />
    <glyph glyph-name="question.aalt" horiz-adv-x="424" 
d="M51 449q3 33 16.5 59.5t34.5 45t49 28.5t59 10q33 0 63 -11t53 -32t36.5 -50t13.5 -65q0 -30 -9.5 -55t-25 -44.5t-36.5 -33t-45 -20.5q-19 -6 -35 -12.5t-28 -17t-18.5 -26.5t-6.5 -40v-49h-30v49q0 31 8 52t22.5 35t34.5 22.5t44 15.5q39 12 67 44t28 80q0 29 -11.5 53
t-30 40.5t-43 25.5t-51.5 9q-51 0 -88 -31t-41 -85zM128 23q0 12 8.5 19.5t20.5 7.5q13 0 21.5 -7.5t8.5 -19.5t-8.5 -19.5t-21.5 -7.5q-12 0 -20.5 7.5t-8.5 19.5z" />
    <glyph glyph-name="A.aalt" horiz-adv-x="549" 
d="M274 544l-135 -355h271zM128 162l-62 -162h-32l225 586h31l224 -586h-32l-61 162h-293z" />
    <glyph glyph-name="b.aalt" horiz-adv-x="547" 
d="M455 448q0 -43 -18 -80.5t-57 -54.5q24 -8 44 -25t34.5 -38.5t22 -45.5t7.5 -46q0 -32 -11 -60.5t-31.5 -50t-50 -34.5t-66.5 -13h-229v586h204q68 0 109.5 -35t41.5 -103zM130 297v-267h198q30 0 54 10.5t41 28t26 40.5t9 49q0 25 -10 50t-28 44.5t-44 32t-58 12.5h-188
zM130 325h200q24 0 42 11.5t30 29.5t17.5 39.5t5.5 42.5q0 54 -34 81t-88 27h-173v-231z" />
    <glyph glyph-name="c.aalt" horiz-adv-x="581" 
d="M519 87q2 -2 10 -11t10 -11q-38 -35 -87 -55t-105 -20q-61 0 -113.5 23.5t-91.5 64.5t-61 96t-22 117t22 117t61 95.5t91.5 64t113.5 23.5q56 0 105.5 -20t87.5 -55q-2 -2 -10.5 -11t-10.5 -10q-34 31 -77.5 48.5t-94.5 17.5q-55 0 -102 -21t-81.5 -58t-54.5 -86
t-20 -105t20 -105t54.5 -86t81.5 -58t102 -21q51 0 94 17.5t78 48.5z" />
    <glyph glyph-name="d.aalt" horiz-adv-x="636" 
d="M130 30h187q55 0 97 20t71 55t44 83t15 104t-15 104t-44 83.5t-71 56t-97 20.5h-187v-526zM100 0v586h217q61 0 109 -22.5t81 -62t50 -93.5t17 -116t-17 -115.5t-50 -92.5t-81 -61.5t-109 -22.5h-217z" />
    <glyph glyph-name="e.aalt" horiz-adv-x="487" 
d="M100 586h320v-30h-290v-254h254v-30h-254v-242h300v-30h-330v586z" />
    <glyph glyph-name="f.aalt" horiz-adv-x="456" 
d="M100 586h316v-30h-286v-254h227v-30h-227v-272h-30v586z" />
    <glyph glyph-name="g.aalt" horiz-adv-x="666" 
d="M408 242v30h216q-4 -143 -76.5 -212.5t-194.5 -69.5q-62 0 -116 23.5t-93.5 64.5t-62 95.5t-22.5 117.5q0 62 22.5 117t62 95.5t93.5 64t116 23.5q50 0 94 -15t81 -42q-2 -2 -9.5 -12t-9.5 -12q-32 24 -71.5 37.5t-84.5 13.5q-56 0 -104 -21t-83.5 -58t-56 -86
t-20.5 -105t20.5 -105.5t56 -86.5t83.5 -58t104 -21q102 0 165 56.5t73 165.5h-183z" />
    <glyph glyph-name="h.aalt" horiz-adv-x="626" 
d="M526 586v-586h-30v277h-366v-277h-30v586h30v-281h366v281h30z" />
    <glyph glyph-name="i.aalt" horiz-adv-x="230" 
d="M130 586v-586h-30v586h30z" />
    <glyph glyph-name="j.aalt" horiz-adv-x="230" 
d="M-74 -168q9 -2 18.5 -2.5t17.5 -0.5q38 0 64 12t42.5 32.5t24 48t7.5 58.5v606h30v-606q0 -37 -9 -70t-29 -57.5t-52 -39t-78 -14.5q-21 0 -40 3z" />
    <glyph glyph-name="k.aalt" horiz-adv-x="466" 
d="M130 0h-30v586h30v-300l247 300h38l-255 -309l294 -277h-42l-282 265v-265z" />
    <glyph glyph-name="L.aalt" horiz-adv-x="425" 
d="M100 586h30v-556h261v-30h-291v586z" />
    <glyph glyph-name="m.aalt" horiz-adv-x="830" 
d="M416 85l244 501h31l74 -586h-30l-67 537l-236 -480h-33l-237 481l-68 -538h-29l74 586h32z" />
    <glyph glyph-name="n.aalt" horiz-adv-x="604" 
d="M504 586v-586h-35l-339 539v-539h-30v586h35l339 -541v541h30z" />
    <glyph glyph-name="O.aalt" horiz-adv-x="707" 
d="M89 291q0 -56 20.5 -105t56 -86t83.5 -58t104 -21t104.5 21t84 58t56 86t20.5 105t-20.5 105t-56 86t-84 58t-104.5 21t-104 -21t-83.5 -58t-56 -86t-20.5 -105zM59 291q0 62 22.5 117t62.5 95.5t93.5 64t115.5 23.5t116 -23.5t93.5 -64t62.5 -95.5t23 -117t-23 -117
t-62.5 -96t-93.5 -64.5t-116 -23.5t-115.5 23.5t-93.5 64.5t-62.5 96t-22.5 117z" />
    <glyph glyph-name="p.aalt" horiz-adv-x="530" 
d="M130 556v-286h192q37 0 62.5 12t41.5 31.5t23 45.5t7 53t-7 53t-22.5 46.5t-40 32.5t-59.5 12h-197zM130 240v-240h-30v586h227q43 0 73.5 -15t49.5 -39t27.5 -55.5t8.5 -64.5t-8.5 -64t-28 -55t-50.5 -38.5t-76 -14.5h-193z" />
    <glyph glyph-name="q.aalt" horiz-adv-x="707" 
d="M59 291q0 62 22.5 117t62.5 95.5t93.5 64t115.5 23.5t116 -23.5t93.5 -64t62.5 -95.5t23 -117q0 -43 -11 -82.5t-31 -74t-48.5 -62t-63.5 -46.5l70 -109l-25 -16l-72 112q-26 -11 -54.5 -17t-59.5 -6q-62 0 -115.5 23.5t-93.5 64.5t-62.5 96t-22.5 117zM379 151l26 16
l73 -116q63 35 101.5 98.5t38.5 141.5q0 56 -20.5 105t-56 86t-84 58t-104.5 21t-104 -21t-83.5 -58t-56 -86t-20.5 -105t20.5 -105t56 -86t83.5 -58t104 -21q51 0 97 17z" />
    <glyph glyph-name="r.aalt" horiz-adv-x="532" 
d="M130 556v-286h180q37 0 62 12t41 31.5t23 45.5t7 53t-7 53t-22 46.5t-39.5 32.5t-59.5 12h-185zM130 240v-240h-30v586h215q43 0 73 -15t49 -39t27.5 -55.5t8.5 -64.5q0 -32 -9 -62.5t-27 -54.5t-46.5 -38.5t-67.5 -14.5h-31l170 -242h-36l-170 240h-126z" />
    <glyph glyph-name="s.aalt" horiz-adv-x="497" 
d="M91 144q3 -24 15.5 -46t32.5 -39t46.5 -27.5t59.5 -10.5q37 0 66 10t49.5 26t33 36t16.5 40q5 33 -4 57.5t-27 42t-43.5 29t-54.5 18.5l-82 19q-44 10 -70.5 26.5t-40.5 36t-18.5 40t-4.5 37.5q0 34 15 62t40 48t57.5 31t66.5 11q36 0 67 -10t54.5 -29t38 -46t17.5 -61
h-30q-5 54 -46.5 85t-100.5 31q-29 0 -55.5 -9t-47.5 -25t-33.5 -38.5t-12.5 -49.5q0 -14 3.5 -30t15 -31t33.5 -28.5t58 -21.5l83 -19q34 -8 64.5 -22t52 -36t31 -52.5t3.5 -71.5q-5 -24 -19.5 -48.5t-38.5 -44t-58 -32t-78 -12.5q-40 0 -72.5 13t-56 35t-38 49.5
t-17.5 56.5h30z" />
    <glyph glyph-name="T.aalt" horiz-adv-x="490" 
d="M33 586h424v-30h-197v-556h-30v556h-197v30z" />
    <glyph glyph-name="u.aalt" horiz-adv-x="592" 
d="M499 192q0 -46 -16 -83t-44 -63.5t-64.5 -41t-78.5 -14.5t-78.5 14.5t-64.5 41t-44 63.5t-16 83v393h30v-393q0 -39 13.5 -71t37 -54.5t55 -34.5t67.5 -12t67.5 12t55 34.5t37 54.5t13.5 71v393h30v-393z" />
    <glyph glyph-name="v.aalt" horiz-adv-x="478" 
d="M219 0l-176 586h32l164 -549l164 549h32l-176 -586h-40z" />
    <glyph glyph-name="w.aalt" horiz-adv-x="802" 
d="M734 586h32l-199 -586h-35l-131 449l-132 -449h-34l-199 586h31l184 -543l132 452h36l131 -453z" />
    <glyph glyph-name="x.aalt" horiz-adv-x="504" 
d="M451 586l-182 -269l213 -317h-37l-194 292l-193 -292h-36l211 317l-180 269h36l162 -245l163 245h37z" />
    <glyph glyph-name="Y.aalt" horiz-adv-x="526" 
d="M278 279v-279h-30v280l-219 306h36l198 -277l199 277h36z" />
    <glyph glyph-name="z.aalt" horiz-adv-x="469" 
d="M424 30v-30h-380v20l341 536h-339v30h378v-23l-339 -533h339z" />
    <glyph glyph-name="Scaron.aalt" horiz-adv-x="497" 
d="M274 648h-45l-92 109h30l84 -90l85 90h30zM91 144q3 -24 15.5 -46t32.5 -39t46.5 -27.5t59.5 -10.5q37 0 66 10t49.5 26t33 36t16.5 40q5 33 -4 57.5t-27 42t-43.5 29t-54.5 18.5l-82 19q-44 10 -70.5 26.5t-40.5 36t-18.5 40t-4.5 37.5q0 34 15 62t40 48t57.5 31
t66.5 11q36 0 67 -10t54.5 -29t38 -46t17.5 -61h-30q-5 54 -46.5 85t-100.5 31q-29 0 -55.5 -9t-47.5 -25t-33.5 -38.5t-12.5 -49.5q0 -14 3.5 -30t15 -31t33.5 -28.5t58 -21.5l83 -19q34 -8 64.5 -22t52 -36t31 -52.5t3.5 -71.5q-5 -24 -19.5 -48.5t-38.5 -44t-58 -32
t-78 -12.5q-40 0 -72.5 13t-56 35t-38 49.5t-17.5 56.5h30z" />
    <glyph glyph-name="OE.aalt" horiz-adv-x="1006" 
d="M89 291q0 -56 20.5 -105t56 -86t83.5 -58t104 -21t104.5 21t84 58t56 86.5t20.5 105.5t-20.5 105t-56 85.5t-84 57.5t-104.5 21t-104 -21t-83.5 -58t-56 -86t-20.5 -105zM619 586h320v-30h-290v-254h254v-30h-254v-242h300v-30h-330v161q-18 -38 -45 -69.5t-61 -54
t-74.5 -35t-85.5 -12.5q-62 0 -115.5 23.5t-93.5 64.5t-62.5 96t-22.5 117t22.5 117t62.5 95.5t93.5 64t115.5 23.5q45 0 85.5 -12.5t74.5 -35t61 -54t45 -69.5v166z" />
    <glyph glyph-name="Ydieresis.aalt" horiz-adv-x="526" 
d="M168 716q0 12 8.5 19.5t20.5 7.5t20.5 -7.5t8.5 -19.5q0 -11 -8.5 -18.5t-20.5 -7.5t-20.5 7.5t-8.5 18.5zM301 716q0 12 8.5 19.5t20.5 7.5t20.5 -7.5t8.5 -19.5q0 -11 -8.5 -18.5t-20.5 -7.5t-20.5 7.5t-8.5 18.5zM278 279v-279h-30v280l-219 306h36l198 -277l199 277
h36z" />
    <glyph glyph-name="exclamdown.c2sc" horiz-adv-x="235" 
d="M104 446h28l1 -450h-30zM88 559q0 12 8.5 19.5t20.5 7.5q13 0 21.5 -7.5t8.5 -19.5t-8.5 -19.5t-21.5 -7.5q-12 0 -20.5 7.5t-8.5 19.5z" />
    <glyph glyph-name="questiondown.c2sc" horiz-adv-x="423" 
d="M373 135q-5 -67 -50 -105t-108 -38q-33 0 -63 11t-53 31.5t-37 49.5t-14 65q0 29 9.5 54t25 45t36.5 34t45 21q19 6 35 12.5t28 17t18.5 26.5t6.5 40v56h30v-56q0 -32 -8 -52.5t-22.5 -34.5t-34.5 -22.5t-44 -15.5q-39 -12 -67 -44.5t-28 -80.5q0 -29 11.5 -52.5
t30.5 -40t43.5 -25.5t51.5 -9q51 0 87.5 30.5t40.5 84.5zM296 567q0 -12 -8.5 -19.5t-20.5 -7.5q-13 0 -21.5 7.5t-8.5 19.5t8.5 19.5t21.5 7.5q12 0 20.5 -7.5t8.5 -19.5z" />
    <glyph glyph-name="Agrave.aalt" horiz-adv-x="549" 
d="M183 754h36l66 -109h-28zM274 544l-135 -355h271zM128 162l-62 -162h-32l225 586h31l224 -586h-32l-61 162h-293z" />
    <glyph glyph-name="Aacute.aalt" horiz-adv-x="549" 
d="M370 754l-74 -109h-28l66 109h36zM274 544l-135 -355h271zM128 162l-62 -162h-32l225 586h31l224 -586h-32l-61 162h-293z" />
    <glyph glyph-name="Acircumflex.aalt" horiz-adv-x="549" 
d="M251 754h46l91 -109h-30l-84 90l-85 -90h-30zM274 544l-135 -355h271zM128 162l-62 -162h-32l225 586h31l224 -586h-32l-61 162h-293z" />
    <glyph glyph-name="Atilde.aalt" horiz-adv-x="549" 
d="M232 705q-8 0 -19 -8t-12 -30h-28q2 36 21.5 50t36.5 15h8t7 -1q11 -2 20 -8t17 -12t16 -11t17 -5q8 0 19 8t12 29h28q-2 -35 -21 -49.5t-36 -14.5q-13 0 -24 6t-20.5 12.5t-19.5 12.5t-22 6zM274 544l-135 -355h271zM128 162l-62 -162h-32l225 586h31l224 -586h-32
l-61 162h-293z" />
    <glyph glyph-name="Adieresis.aalt" horiz-adv-x="549" 
d="M177 716q0 12 8.5 19.5t20.5 7.5q13 0 21.5 -7.5t8.5 -19.5q0 -11 -8.5 -18.5t-21.5 -7.5q-12 0 -20.5 7.5t-8.5 18.5zM310 716q0 12 8.5 19.5t20.5 7.5q13 0 21.5 -7.5t8.5 -19.5q0 -11 -8.5 -18.5t-21.5 -7.5q-12 0 -20.5 7.5t-8.5 18.5zM274 544l-135 -355h271z
M128 162l-62 -162h-32l225 586h31l224 -586h-32l-61 162h-293z" />
    <glyph glyph-name="Aring.aalt" horiz-adv-x="549" 
d="M202 731q0 30 20.5 51.5t49.5 21.5q31 0 52 -21.5t21 -51.5t-21 -51t-52 -21q-29 0 -49.5 21t-20.5 51zM228 731q0 -20 12.5 -33t31.5 -13q20 0 33.5 13t13.5 33t-13.5 33.5t-33.5 13.5q-19 0 -31.5 -13.5t-12.5 -33.5zM274 544l-135 -355h271zM128 162l-62 -162h-32
l225 586h31l224 -586h-32l-61 162h-293z" />
    <glyph glyph-name="AE.aalt" horiz-adv-x="846" 
d="M412 586h367v-30h-290v-254h254v-30h-254v-242h300v-30h-330v164h-288l-107 -164h-36zM459 556h-31l-238 -362h269v362z" />
    <glyph glyph-name="Ccedilla.aalt" horiz-adv-x="582" 
d="M363 -60q13 -32 1.5 -60.5t-42.5 -41.5q-18 -7 -36.5 -5t-34 12t-25.5 27.5t-10 41.5l27 -1q0 -29 21.5 -44t46.5 -6q15 7 23.5 19.5t7.5 27.5q0 10 -4 19l-27 64q-54 7 -100 33t-79.5 65.5t-52.5 91t-19 108.5q0 62 22 117t61 95.5t91.5 64t113.5 23.5q56 0 105.5 -20
t87.5 -55l-21 -21q-34 31 -77.5 48.5t-94.5 17.5q-55 0 -102 -21t-81.5 -58t-54.5 -86t-20 -105t20 -105t54.5 -86t81.5 -58t102 -21q51 0 94 17.5t78 48.5l20 -22q-37 -34 -84 -53t-101 -21h-13z" />
    <glyph glyph-name="Egrave.aalt" horiz-adv-x="487" 
d="M176 754h37l66 -109h-28zM100 586h320v-30h-290v-254h254v-30h-254v-242h300v-30h-330v586z" />
    <glyph glyph-name="Eacute.aalt" horiz-adv-x="487" 
d="M319 754l-74 -109h-28l66 109h36zM100 586h320v-30h-290v-254h254v-30h-254v-242h300v-30h-330v586z" />
    <glyph glyph-name="Ecircumflex.aalt" horiz-adv-x="487" 
d="M225 754h46l92 -109h-31l-84 90l-84 -90h-30zM100 586h320v-30h-290v-254h254v-30h-254v-242h300v-30h-330v586z" />
    <glyph glyph-name="Edieresis.aalt" horiz-adv-x="487" 
d="M159 716q0 12 8.5 19.5t20.5 7.5q13 0 21.5 -7.5t8.5 -19.5q0 -11 -8.5 -18.5t-21.5 -7.5q-12 0 -20.5 7.5t-8.5 18.5zM292 716q0 12 8.5 19.5t20.5 7.5q13 0 21.5 -7.5t8.5 -19.5q0 -11 -8.5 -18.5t-21.5 -7.5q-12 0 -20.5 7.5t-8.5 18.5zM100 586h320v-30h-290v-254
h254v-30h-254v-242h300v-30h-330v586z" />
    <glyph glyph-name="Igrave.aalt" horiz-adv-x="230" 
d="M26 754h36l66 -109h-28zM130 586v-586h-30v586h30z" />
    <glyph glyph-name="Iacute.aalt" horiz-adv-x="230" 
d="M201 754l-74 -109h-28l66 109h36zM130 586v-586h-30v586h30z" />
    <glyph glyph-name="Icircumflex.aalt" horiz-adv-x="230" 
d="M93 754h45l92 -109h-30l-85 90l-84 -90h-30zM130 586v-586h-30v586h30z" />
    <glyph glyph-name="Idieresis.aalt" horiz-adv-x="230" 
d="M19 716q0 12 8.5 19.5t20.5 7.5t20.5 -7.5t8.5 -19.5q0 -11 -8.5 -18.5t-20.5 -7.5t-20.5 7.5t-8.5 18.5zM152 716q0 12 8.5 19.5t20.5 7.5t20.5 -7.5t8.5 -19.5q0 -11 -8.5 -18.5t-20.5 -7.5t-20.5 7.5t-8.5 18.5zM130 586v-586h-30v586h30z" />
    <glyph glyph-name="Eth.aalt" horiz-adv-x="637" 
d="M131 303h162v-28h-162v-245h187q55 0 97 20t71 55t44 83t15 104t-15 104t-44 83.5t-71 56t-97 20.5h-187v-253zM101 0v275h-83v28h83v283h217q61 0 109 -22.5t81 -62t50 -93.5t17 -116t-17 -115.5t-50 -92.5t-81 -61.5t-109 -22.5h-217z" />
    <glyph glyph-name="Ntilde.aalt" horiz-adv-x="604" 
d="M259 705q-8 0 -19 -8t-12 -30h-28q2 36 21.5 50t36.5 15h8t7 -1q11 -2 20 -8t17 -12t16 -11t17 -5q8 0 19 8t12 29h28q-2 -35 -21 -49.5t-36 -14.5q-13 0 -24 6t-20.5 12.5t-19.5 12.5t-22 6zM504 586v-586h-35l-339 539v-539h-30v586h35l339 -541v541h30z" />
    <glyph glyph-name="Ograve.aalt" horiz-adv-x="707" 
d="M265 755h37l66 -109h-28zM89 291q0 -56 20.5 -105t56 -86t83.5 -58t104 -21t104.5 21t84 58t56 86t20.5 105t-20.5 105t-56 86t-84 58t-104.5 21t-104 -21t-83.5 -58t-56 -86t-20.5 -105zM59 291q0 62 22.5 117t62.5 95.5t93.5 64t115.5 23.5t116 -23.5t93.5 -64
t62.5 -95.5t23 -117t-23 -117t-62.5 -96t-93.5 -64.5t-116 -23.5t-115.5 23.5t-93.5 64.5t-62.5 96t-22.5 117z" />
    <glyph glyph-name="Oacute.aalt" horiz-adv-x="707" 
d="M434 755l-75 -109h-28l66 109h37zM89 291q0 -56 20.5 -105t56 -86t83.5 -58t104 -21t104.5 21t84 58t56 86t20.5 105t-20.5 105t-56 86t-84 58t-104.5 21t-104 -21t-83.5 -58t-56 -86t-20.5 -105zM59 291q0 62 22.5 117t62.5 95.5t93.5 64t115.5 23.5t116 -23.5t93.5 -64
t62.5 -95.5t23 -117t-23 -117t-62.5 -96t-93.5 -64.5t-116 -23.5t-115.5 23.5t-93.5 64.5t-62.5 96t-22.5 117z" />
    <glyph glyph-name="Ocircumflex.aalt" horiz-adv-x="707" 
d="M333 755h46l92 -109h-31l-84 90l-84 -90h-30zM89 291q0 -56 20.5 -105t56 -86t83.5 -58t104 -21t104.5 21t84 58t56 86t20.5 105t-20.5 105t-56 86t-84 58t-104.5 21t-104 -21t-83.5 -58t-56 -86t-20.5 -105zM59 291q0 62 22.5 117t62.5 95.5t93.5 64t115.5 23.5
t116 -23.5t93.5 -64t62.5 -95.5t23 -117t-23 -117t-62.5 -96t-93.5 -64.5t-116 -23.5t-115.5 23.5t-93.5 64.5t-62.5 96t-22.5 117z" />
    <glyph glyph-name="Otilde.aalt" horiz-adv-x="707" 
d="M312 705q-8 0 -19 -8t-12 -30h-28q2 36 21.5 50t36.5 15h8t7 -1q11 -2 20 -8t17 -12t16 -11t17 -5q8 0 19 8t12 29h28q-2 -35 -21 -49.5t-36 -14.5q-13 0 -24 6t-20.5 12.5t-19.5 12.5t-22 6zM89 291q0 -56 20.5 -105t56 -86t83.5 -58t104 -21t104.5 21t84 58t56 86
t20.5 105t-20.5 105t-56 86t-84 58t-104.5 21t-104 -21t-83.5 -58t-56 -86t-20.5 -105zM59 291q0 62 22.5 117t62.5 95.5t93.5 64t115.5 23.5t116 -23.5t93.5 -64t62.5 -95.5t23 -117t-23 -117t-62.5 -96t-93.5 -64.5t-116 -23.5t-115.5 23.5t-93.5 64.5t-62.5 96t-22.5 117
z" />
    <glyph glyph-name="Odieresis.aalt" horiz-adv-x="707" 
d="M261 717q0 12 8.5 19.5t20.5 7.5t21 -7.5t9 -19.5q0 -11 -9 -18.5t-21 -7.5t-20.5 7.5t-8.5 18.5zM394 717q0 12 8.5 19.5t20.5 7.5q13 0 21.5 -7.5t8.5 -19.5q0 -11 -8.5 -18.5t-21.5 -7.5q-12 0 -20.5 7.5t-8.5 18.5zM89 291q0 -56 20.5 -105t56 -86t83.5 -58t104 -21
t104.5 21t84 58t56 86t20.5 105t-20.5 105t-56 86t-84 58t-104.5 21t-104 -21t-83.5 -58t-56 -86t-20.5 -105zM59 291q0 62 22.5 117t62.5 95.5t93.5 64t115.5 23.5t116 -23.5t93.5 -64t62.5 -95.5t23 -117t-23 -117t-62.5 -96t-93.5 -64.5t-116 -23.5t-115.5 23.5
t-93.5 64.5t-62.5 96t-22.5 117z" />
    <glyph glyph-name="Oslash.aalt" horiz-adv-x="706" 
d="M353 21q56 0 104.5 21t84 58t56 86t20.5 105q0 51 -17.5 97.5t-49.5 82.5l-375 -382q35 -32 79.5 -50t97.5 -18zM89 291q0 -53 17.5 -99.5t49.5 -82.5l376 382q-35 32 -80.5 51t-98.5 19q-56 0 -104 -21t-83.5 -58t-56 -86t-20.5 -105zM78 -10l-20 20l77 78
q-36 40 -56 92t-20 111q0 62 22.5 117t62.5 95.5t93.5 64t115.5 23.5q59 0 110 -21t90 -57l79 79l19 -19l-79 -80q35 -41 55.5 -92.5t20.5 -109.5q0 -62 -23 -117t-62.5 -96t-93.5 -64.5t-116 -23.5q-59 0 -109.5 21t-88.5 57z" />
    <glyph glyph-name="Ugrave.aalt" horiz-adv-x="592" 
d="M212 754h36l66 -109h-28zM499 192q0 -46 -16 -83t-44 -63.5t-64.5 -41t-78.5 -14.5t-78.5 14.5t-64.5 41t-44 63.5t-16 83v393h30v-393q0 -39 13.5 -71t37 -54.5t55 -34.5t67.5 -12t67.5 12t55 34.5t37 54.5t13.5 71v393h30v-393z" />
    <glyph glyph-name="Uacute.aalt" horiz-adv-x="592" 
d="M303 645h-28l66 109h36zM499 192q0 -46 -16 -83t-44 -63.5t-64.5 -41t-78.5 -14.5t-78.5 14.5t-64.5 41t-44 63.5t-16 83v393h30v-393q0 -39 13.5 -71t37 -54.5t55 -34.5t67.5 -12t67.5 12t55 34.5t37 54.5t13.5 71v393h30v-393z" />
    <glyph glyph-name="Ucircumflex.aalt" horiz-adv-x="592" 
d="M499 192q0 -46 -16 -83t-44 -63.5t-64.5 -41t-78.5 -14.5t-78.5 14.5t-64.5 41t-44 63.5t-16 83v393h30v-393q0 -39 13.5 -71t37 -54.5t55 -34.5t67.5 -12t67.5 12t55 34.5t37 54.5t13.5 71v393h30v-393zM277 755h46l92 -109h-31l-84 90l-84 -90h-30z" />
    <glyph glyph-name="Udieresis.aalt" horiz-adv-x="592" 
d="M200 716q0 12 8.5 19.5t20.5 7.5q13 0 21.5 -7.5t8.5 -19.5q0 -11 -8.5 -18.5t-21.5 -7.5q-12 0 -20.5 7.5t-8.5 18.5zM333 716q0 12 8.5 19.5t20.5 7.5q13 0 21.5 -7.5t8.5 -19.5q0 -11 -8.5 -18.5t-21.5 -7.5q-12 0 -20.5 7.5t-8.5 18.5zM499 192q0 -46 -16 -83
t-44 -63.5t-64.5 -41t-78.5 -14.5t-78.5 14.5t-64.5 41t-44 63.5t-16 83v393h30v-393q0 -39 13.5 -71t37 -54.5t55 -34.5t67.5 -12t67.5 12t55 34.5t37 54.5t13.5 71v393h30v-393z" />
    <glyph glyph-name="Yacute.aalt" horiz-adv-x="526" 
d="M278 279v-279h-30v280l-219 306h36l198 -277l199 277h36zM274 645h-28l66 109h36z" />
    <glyph glyph-name="thorn.aalt" horiz-adv-x="502" 
d="M130 158h159q29 0 54 10.5t44 29t29.5 45t10.5 59.5q0 32 -10.5 58t-29.5 44t-44 28t-54 10h-159v-284zM130 128v-128h-30v586h30v-114h159q35 0 66 -12t53.5 -34.5t35.5 -53.5t13 -70t-13 -71.5t-35.5 -55t-53.5 -35t-66 -12.5h-159z" />
    <glyph glyph-name="Amacron.aalt" horiz-adv-x="549" 
d="M274 544l-135 -355h271zM128 162l-62 -162h-32l225 586h31l224 -586h-32l-61 162h-293zM180 712h195v-27h-195v27z" />
    <glyph glyph-name="Abreve.aalt" horiz-adv-x="549" 
d="M368 746q0 -40 -26 -64t-69 -24q-25 0 -43 7.5t-29 20t-16.5 28t-5.5 32.5h26q0 -24 16.5 -42.5t51.5 -18.5q32 0 50.5 17t18.5 44h26zM274 544l-135 -355h271zM128 162l-62 -162h-32l225 586h31l224 -586h-32l-61 162h-293z" />
    <glyph glyph-name="Cacute.aalt" horiz-adv-x="581" 
d="M412 757l-74 -109h-28l66 109h36zM519 87q2 -2 10 -11t10 -11q-38 -35 -87 -55t-105 -20q-61 0 -113.5 23.5t-91.5 64.5t-61 96t-22 117t22 117t61 95.5t91.5 64t113.5 23.5q56 0 105.5 -20t87.5 -55q-2 -2 -10.5 -11t-10.5 -10q-34 31 -77.5 48.5t-94.5 17.5
q-55 0 -102 -21t-81.5 -58t-54.5 -86t-20 -105t20 -105t54.5 -86t81.5 -58t102 -21q51 0 94 17.5t78 48.5z" />
    <glyph glyph-name="Ccircumflex.aalt" horiz-adv-x="581" 
d="M313 757h46l91 -109h-30l-84 90l-84 -90h-30zM519 87q2 -2 10 -11t10 -11q-38 -35 -87 -55t-105 -20q-61 0 -113.5 23.5t-91.5 64.5t-61 96t-22 117t22 117t61 95.5t91.5 64t113.5 23.5q56 0 105.5 -20t87.5 -55q-2 -2 -10.5 -11t-10.5 -10q-34 31 -77.5 48.5t-94.5 17.5
q-55 0 -102 -21t-81.5 -58t-54.5 -86t-20 -105t20 -105t54.5 -86t81.5 -58t102 -21q51 0 94 17.5t78 48.5z" />
    <glyph glyph-name="Cdotaccent.aalt" horiz-adv-x="581" 
d="M306 719q0 12 8.5 19.5t20.5 7.5q13 0 21.5 -7.5t8.5 -19.5q0 -11 -8.5 -18.5t-21.5 -7.5q-12 0 -20.5 7.5t-8.5 18.5zM519 87q2 -2 10 -11t10 -11q-38 -35 -87 -55t-105 -20q-61 0 -113.5 23.5t-91.5 64.5t-61 96t-22 117t22 117t61 95.5t91.5 64t113.5 23.5
q56 0 105.5 -20t87.5 -55q-2 -2 -10.5 -11t-10.5 -10q-34 31 -77.5 48.5t-94.5 17.5q-55 0 -102 -21t-81.5 -58t-54.5 -86t-20 -105t20 -105t54.5 -86t81.5 -58t102 -21q51 0 94 17.5t78 48.5z" />
    <glyph glyph-name="Ccaron.aalt" horiz-adv-x="581" 
d="M357 648h-46l-91 109h30l84 -90l85 90h30zM519 87q2 -2 10 -11t10 -11q-38 -35 -87 -55t-105 -20q-61 0 -113.5 23.5t-91.5 64.5t-61 96t-22 117t22 117t61 95.5t91.5 64t113.5 23.5q56 0 105.5 -20t87.5 -55q-2 -2 -10.5 -11t-10.5 -10q-34 31 -77.5 48.5t-94.5 17.5
q-55 0 -102 -21t-81.5 -58t-54.5 -86t-20 -105t20 -105t54.5 -86t81.5 -58t102 -21q51 0 94 17.5t78 48.5z" />
    <glyph glyph-name="Dcaron.aalt" horiz-adv-x="636" 
d="M328 648h-46l-92 109h31l84 -90l84 90h30zM130 30h187q55 0 97 20t71 55t44 83t15 104t-15 104t-44 83.5t-71 56t-97 20.5h-187v-526zM100 0v586h217q61 0 109 -22.5t81 -62t50 -93.5t17 -116t-17 -115.5t-50 -92.5t-81 -61.5t-109 -22.5h-217z" />
    <glyph glyph-name="Aogonek.aalt" horiz-adv-x="549" 
d="M66 0h-32l225 586h31l224 -586l-27 -59q-6 -13 -8 -30q-1 -15 7 -27.5t23 -19.5q12 -5 24.5 -3t22 9t16 18t6.5 26l27 1q0 -24 -10 -41.5t-25.5 -28t-34 -12.5t-36.5 6q-31 13 -42.5 41.5t1.5 60.5l24 59l-61 162h-293zM139 189h271l-136 355z" />
    <glyph glyph-name="Emacron.aalt" horiz-adv-x="487" 
d="M100 586h320v-30h-290v-254h254v-30h-254v-242h300v-30h-330v586zM165 712h195v-27h-195v27z" />
    <glyph glyph-name="Ebreve.aalt" horiz-adv-x="487" 
d="M358 746q0 -40 -26 -64t-70 -24q-25 0 -42.5 7.5t-29 20t-17 28t-5.5 32.5h26q1 -24 17 -42.5t51 -18.5q32 0 50.5 17t19.5 44h26zM100 586h320v-30h-290v-254h254v-30h-254v-242h300v-30h-330v586z" />
    <glyph glyph-name="Edotaccent.aalt" horiz-adv-x="487" 
d="M234 719q0 12 8.5 19.5t20.5 7.5t20.5 -7.5t8.5 -19.5q0 -11 -8.5 -18.5t-20.5 -7.5t-20.5 7.5t-8.5 18.5zM100 586h320v-30h-290v-254h254v-30h-254v-242h300v-30h-330v586z" />
    <glyph glyph-name="Ecaron.aalt" horiz-adv-x="487" 
d="M278 648h-46l-91 109h30l84 -90l85 90h30zM100 586h320v-30h-290v-254h254v-30h-254v-242h300v-30h-330v586z" />
    <glyph glyph-name="Gcircumflex.aalt" horiz-adv-x="666" 
d="M315 757h46l91 -109h-30l-84 90l-84 -90h-31zM408 242v30h216q-4 -143 -76.5 -212.5t-194.5 -69.5q-62 0 -116 23.5t-93.5 64.5t-62 95.5t-22.5 117.5q0 62 22.5 117t62 95.5t93.5 64t116 23.5q50 0 94 -15t81 -42q-2 -2 -9.5 -12t-9.5 -12q-32 24 -71.5 37.5t-84.5 13.5
q-56 0 -104 -21t-83.5 -58t-56 -86t-20.5 -105t20.5 -105.5t56 -86.5t83.5 -58t104 -21q102 0 165 56.5t73 165.5h-183z" />
    <glyph glyph-name="Gbreve.aalt" horiz-adv-x="666" 
d="M445 746q0 -40 -26 -64t-69 -24q-25 0 -43 7.5t-29.5 20t-17 28t-5.5 32.5h26q1 -24 17 -42.5t52 -18.5q32 0 50 17t19 44h26zM591 242h-183v30h216q-4 -143 -76.5 -212.5t-194.5 -69.5q-62 0 -116 23.5t-93.5 64.5t-62 95.5t-22.5 117.5q0 62 22.5 117t62 95.5t93.5 64
t116 23.5q50 0 94 -15t81 -42q-2 -2 -9.5 -12t-9.5 -12q-32 24 -71.5 37.5t-84.5 13.5q-56 0 -104 -21t-83.5 -58t-56 -86t-20.5 -105t20.5 -105.5t56 -86.5t83.5 -58t104 -21q102 0 165 56.5t73 165.5z" />
    <glyph glyph-name="Eogonek.aalt" horiz-adv-x="487" 
d="M420 586v-30h-290v-254h254v-30h-254v-242h300v-30l-29 -70q-4 -9 -4 -19q-1 -15 7 -27.5t23 -19.5q12 -5 24 -3t22 9t16 18t6 26l28 1q0 -24 -10 -41.5t-25.5 -28t-34 -12.5t-36.5 6q-31 13 -43 41.5t2 60.5l26 59h-302v586h320z" />
    <glyph glyph-name="Dcroat.aalt" horiz-adv-x="637" 
d="M131 303h162v-28h-162v-245h187q55 0 97 20t71 55t44 83t15 104t-15 104t-44 83.5t-71 56t-97 20.5h-187v-253zM101 0v275h-83v28h83v283h217q61 0 109 -22.5t81 -62t50 -93.5t17 -116t-17 -115.5t-50 -92.5t-81 -61.5t-109 -22.5h-217z" />
    <glyph glyph-name="Gdotaccent.aalt" horiz-adv-x="666" 
d="M320 719q0 12 8.5 19.5t20.5 7.5t20.5 -7.5t8.5 -19.5q0 -11 -8.5 -18.5t-20.5 -7.5t-20.5 7.5t-8.5 18.5zM591 242h-183v30h216q-4 -143 -76.5 -212.5t-194.5 -69.5q-62 0 -116 23.5t-93.5 64.5t-62 95.5t-22.5 117.5q0 62 22.5 117t62 95.5t93.5 64t116 23.5
q50 0 94 -15t81 -42q-2 -2 -9.5 -12t-9.5 -12q-32 24 -71.5 37.5t-84.5 13.5q-56 0 -104 -21t-83.5 -58t-56 -86t-20.5 -105t20.5 -105.5t56 -86.5t83.5 -58t104 -21q102 0 165 56.5t73 165.5z" />
    <glyph glyph-name="Hcircumflex.aalt" horiz-adv-x="626" 
d="M290 757h46l92 -109h-31l-84 90l-84 -90h-30zM526 586v-586h-30v277h-366v-277h-30v586h30v-281h366v281h30z" />
    <glyph glyph-name="Hbar.aalt" horiz-adv-x="636" 
d="M531 445v-445h-30v277h-366v-277h-30v445h-57v26h57v115h30v-115h366v115h30v-115h64v-26h-64zM501 445h-366v-140h366v140z" />
    <glyph glyph-name="Itilde.aalt" horiz-adv-x="230" 
d="M130 586v-586h-30v586h30zM73 705q-8 0 -19 -8t-12 -30h-28q2 36 21.5 50t36.5 15h8t7 -1q11 -2 20 -8t17 -12t16 -11t17 -5q8 0 19 8t12 29h28q-2 -35 -21 -49.5t-36 -14.5q-13 0 -24 6t-20.5 12.5t-19.5 12.5t-22 6z" />
    <glyph glyph-name="Imacron.aalt" horiz-adv-x="230" 
d="M17 712h195v-27h-195v27zM130 586v-586h-30v586h30z" />
    <glyph glyph-name="Iogonek.aalt" horiz-adv-x="230" 
d="M99 586h30v-586h-4l-26 -70q-2 -5 -3 -9.5t-1 -9.5q0 -33 31 -47q26 -10 47 5t21 45l28 1q0 -24 -10 -41.5t-25.5 -28t-34 -12.5t-36.5 6q-31 13 -43.5 41.5t1.5 60.5l25 59v586z" />
    <glyph glyph-name="IJ.aalt" horiz-adv-x="460" 
d="M130 586v-586h-30v586h30zM156 -168q9 -2 18.5 -2.5t17.5 -0.5q38 0 64 12t42.5 32.5t24 48t7.5 58.5v606h30v-606q0 -37 -9 -70t-29 -57.5t-52 -39t-78 -14.5q-21 0 -40 3z" />
    <glyph glyph-name="Jcircumflex.aalt" horiz-adv-x="230" 
d="M-74 -168q9 -2 18.5 -2.5t17.5 -0.5q38 0 64 12t42.5 32.5t24 48t7.5 58.5v606h30v-606q0 -37 -9 -70t-29 -57.5t-52 -39t-78 -14.5q-21 0 -40 3zM92 757h46l92 -109h-31l-84 90l-84 -90h-30z" />
    <glyph glyph-name="Lacute.aalt" horiz-adv-x="425" 
d="M204 757l-74 -109h-29l66 109h37zM100 586h30v-556h261v-30h-291v586z" />
    <glyph glyph-name="Lcaron.aalt" horiz-adv-x="425" 
d="M100 586h30v-556h261v-30h-291v586zM303 585q0 -30 -4 -54t-11.5 -42.5t-18 -33.5t-21.5 -27l-15 9q18 23 30 59t11 89h29z" />
    <glyph glyph-name="Ldot.aalt" horiz-adv-x="425" 
d="M100 586h30v-556h261v-30h-291v586zM220 178q0 12 8.5 19.5t20.5 7.5t20.5 -7.5t8.5 -19.5q0 -11 -8.5 -18.5t-20.5 -7.5t-20.5 7.5t-8.5 18.5z" />
    <glyph glyph-name="Nacute.aalt" horiz-adv-x="604" 
d="M377 757l-74 -109h-28l66 109h36zM504 586v-586h-35l-339 539v-539h-30v586h35l339 -541v541h30z" />
    <glyph glyph-name="Ncaron.aalt" horiz-adv-x="604" 
d="M324 648h-45l-92 109h30l84 -90l85 90h30zM504 586v-586h-35l-339 539v-539h-30v586h35l339 -541v541h30z" />
    <glyph glyph-name="Omacron.aalt" horiz-adv-x="707" 
d="M256 712h195v-27h-195v27zM89 291q0 -56 20.5 -105t56 -86t83.5 -58t104 -21t104.5 21t84 58t56 86t20.5 105t-20.5 105t-56 86t-84 58t-104.5 21t-104 -21t-83.5 -58t-56 -86t-20.5 -105zM59 291q0 62 22.5 117t62.5 95.5t93.5 64t115.5 23.5t116 -23.5t93.5 -64
t62.5 -95.5t23 -117t-23 -117t-62.5 -96t-93.5 -64.5t-116 -23.5t-115.5 23.5t-93.5 64.5t-62.5 96t-22.5 117z" />
    <glyph glyph-name="Obreve.aalt" horiz-adv-x="707" 
d="M446 747q0 -40 -26 -64t-69 -24q-25 0 -43 7.5t-29.5 20t-17 28t-5.5 32.5h26q1 -24 17.5 -43t51.5 -19q32 0 50.5 17.5t18.5 44.5h26zM89 291q0 -56 20.5 -105t56 -86t83.5 -58t104 -21t104.5 21t84 58t56 86t20.5 105t-20.5 105t-56 86t-84 58t-104.5 21t-104 -21
t-83.5 -58t-56 -86t-20.5 -105zM59 291q0 62 22.5 117t62.5 95.5t93.5 64t115.5 23.5t116 -23.5t93.5 -64t62.5 -95.5t23 -117t-23 -117t-62.5 -96t-93.5 -64.5t-116 -23.5t-115.5 23.5t-93.5 64.5t-62.5 96t-22.5 117z" />
    <glyph glyph-name="Ohungarumlaut.aalt" horiz-adv-x="707" 
d="M483 758l-75 -109h-28l66 109h37zM387 758l-73 -109h-29l66 109h36zM89 291q0 -56 20.5 -105t56 -86t83.5 -58t104 -21t104.5 21t84 58t56 86t20.5 105t-20.5 105t-56 86t-84 58t-104.5 21t-104 -21t-83.5 -58t-56 -86t-20.5 -105zM59 291q0 62 22.5 117t62.5 95.5
t93.5 64t115.5 23.5t116 -23.5t93.5 -64t62.5 -95.5t23 -117t-23 -117t-62.5 -96t-93.5 -64.5t-116 -23.5t-115.5 23.5t-93.5 64.5t-62.5 96t-22.5 117z" />
    <glyph glyph-name="Racute.aalt" horiz-adv-x="532" 
d="M340 757l-74 -109h-28l66 109h36zM130 556v-286h180q37 0 62 12t41 31.5t23 45.5t7 53t-7 53t-22 46.5t-39.5 32.5t-59.5 12h-185zM130 240v-240h-30v586h215q43 0 73 -15t49 -39t27.5 -55.5t8.5 -64.5q0 -32 -9 -62.5t-27 -54.5t-46.5 -38.5t-67.5 -14.5h-31l170 -242
h-36l-170 240h-126z" />
    <glyph glyph-name="Rcaron.aalt" horiz-adv-x="532" 
d="M291 648h-45l-92 109h30l84 -90l85 90h30zM130 556v-286h180q37 0 62 12t41 31.5t23 45.5t7 53t-7 53t-22 46.5t-39.5 32.5t-59.5 12h-185zM130 240v-240h-30v586h215q43 0 73 -15t49 -39t27.5 -55.5t8.5 -64.5q0 -32 -9 -62.5t-27 -54.5t-46.5 -38.5t-67.5 -14.5h-31
l170 -242h-36l-170 240h-126z" />
    <glyph glyph-name="Sacute.aalt" horiz-adv-x="497" 
d="M326 757l-74 -109h-28l66 109h36zM91 144q3 -24 15.5 -46t32.5 -39t46.5 -27.5t59.5 -10.5q37 0 66 10t49.5 26t33 36t16.5 40q5 33 -4 57.5t-27 42t-43.5 29t-54.5 18.5l-82 19q-44 10 -70.5 26.5t-40.5 36t-18.5 40t-4.5 37.5q0 34 15 62t40 48t57.5 31t66.5 11
q36 0 67 -10t54.5 -29t38 -46t17.5 -61h-30q-5 54 -46.5 85t-100.5 31q-29 0 -55.5 -9t-47.5 -25t-33.5 -38.5t-12.5 -49.5q0 -14 3.5 -30t15 -31t33.5 -28.5t58 -21.5l83 -19q34 -8 64.5 -22t52 -36t31 -52.5t3.5 -71.5q-5 -24 -19.5 -48.5t-38.5 -44t-58 -32t-78 -12.5
q-40 0 -72.5 13t-56 35t-38 49.5t-17.5 56.5h30z" />
    <glyph glyph-name="Scircumflex.aalt" horiz-adv-x="497" 
d="M229 757h45l92 -109h-30l-85 90l-84 -90h-30zM91 144q3 -24 15.5 -46t32.5 -39t46.5 -27.5t59.5 -10.5q37 0 66 10t49.5 26t33 36t16.5 40q5 33 -4 57.5t-27 42t-43.5 29t-54.5 18.5l-82 19q-44 10 -70.5 26.5t-40.5 36t-18.5 40t-4.5 37.5q0 34 15 62t40 48t57.5 31
t66.5 11q36 0 67 -10t54.5 -29t38 -46t17.5 -61h-30q-5 54 -46.5 85t-100.5 31q-29 0 -55.5 -9t-47.5 -25t-33.5 -38.5t-12.5 -49.5q0 -14 3.5 -30t15 -31t33.5 -28.5t58 -21.5l83 -19q34 -8 64.5 -22t52 -36t31 -52.5t3.5 -71.5q-5 -24 -19.5 -48.5t-38.5 -44t-58 -32
t-78 -12.5q-40 0 -72.5 13t-56 35t-38 49.5t-17.5 56.5h30z" />
    <glyph glyph-name="Scedilla.c2sc" horiz-adv-x="499" 
d="M92 144q3 -24 15.5 -46t32.5 -39t46.5 -27.5t59.5 -10.5q37 0 66 10t49.5 26t33 36t16.5 40q5 33 -4 57.5t-27 42t-43.5 29t-54.5 18.5l-82 19q-44 10 -70.5 26.5t-40.5 36t-18.5 40t-4.5 37.5q0 34 15 62t40 48t57.5 31t66.5 11q36 0 67 -10t54.5 -29t38 -46t17.5 -61
h-30q-5 54 -46.5 85t-100.5 31q-29 0 -55.5 -8.5t-47.5 -24.5t-33.5 -38.5t-12.5 -50.5q0 -14 3.5 -30t15 -31t33.5 -28.5t58 -21.5l83 -19q34 -8 64.5 -22t52 -36t31 -52.5t3.5 -71.5q-5 -23 -17.5 -45t-33 -41t-50 -32t-66.5 -16l22 -53q14 -32 2 -60.5t-43 -41.5
q-18 -8 -37 -6t-34 12.5t-25 28t-10 41.5l28 -1q0 -15 6 -26t16 -18t22 -9t24 3q15 7 23 19.5t7 27.5q0 10 -4 19l-26 61q-39 0 -71 13.5t-55.5 35t-38 49t-17.5 56.5h30z" />
    <glyph glyph-name="Utilde.aalt" horiz-adv-x="592" 
d="M499 192q0 -46 -16 -83t-44 -63.5t-64.5 -41t-78.5 -14.5t-78.5 14.5t-64.5 41t-44 63.5t-16 83v393h30v-393q0 -39 13.5 -71t37 -54.5t55 -34.5t67.5 -12t67.5 12t55 34.5t37 54.5t13.5 71v393h30v-393zM259 705q-8 0 -19 -8t-12 -30h-28q2 36 21.5 50t36.5 15h8t7 -1
q11 -2 20 -8t17 -12t16 -11t17 -5q8 0 19 8t12 29h28q-2 -35 -21 -49.5t-36 -14.5q-13 0 -24 6t-20.5 12.5t-19.5 12.5t-22 6z" />
    <glyph glyph-name="Umacron.aalt" horiz-adv-x="592" 
d="M499 192q0 -46 -16 -83t-44 -63.5t-64.5 -41t-78.5 -14.5t-78.5 14.5t-64.5 41t-44 63.5t-16 83v393h30v-393q0 -39 13.5 -71t37 -54.5t55 -34.5t67.5 -12t67.5 12t55 34.5t37 54.5t13.5 71v393h30v-393zM202 712h195v-27h-195v27z" />
    <glyph glyph-name="Ubreve.aalt" horiz-adv-x="592" 
d="M391 746q0 -40 -26 -64t-70 -24q-25 0 -43 7.5t-29 20t-16.5 28t-5.5 32.5h26q1 -24 17 -42.5t51 -18.5q32 0 50.5 17t19.5 44h26zM499 192q0 -46 -16 -83t-44 -63.5t-64.5 -41t-78.5 -14.5t-78.5 14.5t-64.5 41t-44 63.5t-16 83v393h30v-393q0 -39 13.5 -71t37 -54.5
t55 -34.5t67.5 -12t67.5 12t55 34.5t37 54.5t13.5 71v393h30v-393z" />
    <glyph glyph-name="Uring.aalt" horiz-adv-x="592" 
d="M224 733q0 31 20.5 52.5t49.5 21.5q31 0 52.5 -21.5t21.5 -52.5q0 -30 -21.5 -50.5t-52.5 -20.5q-29 0 -49.5 20.5t-20.5 50.5zM250 733q0 -19 13 -32t32 -13q20 0 33.5 13t13.5 32q0 20 -13.5 33.5t-33.5 13.5q-19 0 -32 -13.5t-13 -33.5zM499 192q0 -46 -16 -83
t-44 -63.5t-64.5 -41t-78.5 -14.5t-78.5 14.5t-64.5 41t-44 63.5t-16 83v393h30v-393q0 -39 13.5 -71t37 -54.5t55 -34.5t67.5 -12t67.5 12t55 34.5t37 54.5t13.5 71v393h30v-393z" />
    <glyph glyph-name="Uhungarumlaut.aalt" horiz-adv-x="592" 
d="M499 192q0 -46 -16 -83t-44 -63.5t-64.5 -41t-78.5 -14.5t-78.5 14.5t-64.5 41t-44 63.5t-16 83v393h30v-393q0 -39 13.5 -71t37 -54.5t55 -34.5t67.5 -12t67.5 12t55 34.5t37 54.5t13.5 71v393h30v-393zM423 758l-75 -109h-28l66 109h37zM327 758l-73 -109h-29l66 109
h36z" />
    <glyph glyph-name="Uogonek.aalt" horiz-adv-x="593" 
d="M500 192q0 -44 -15 -80.5t-41 -62.5t-61 -41.5t-75 -17.5l-25 -61q-4 -9 -4 -19q-1 -15 7.5 -27.5t23.5 -19.5q13 -5 25.5 -2.5t22 9.5t15 18.5t5.5 24.5l27 1q0 -24 -10 -41.5t-25.5 -27.5t-34 -12.5t-36.5 5.5q-31 13 -43 41.5t2 60.5l21 50q-39 3 -72.5 18.5t-58.5 42
t-39.5 62t-14.5 79.5v393h30v-393q0 -39 13.5 -71t37 -54.5t55 -34.5t67.5 -12t67.5 12t55 34.5t37 54.5t13.5 71v393h30v-393z" />
    <glyph glyph-name="Wcircumflex.aalt" horiz-adv-x="802" 
d="M378 757h46l91 -109h-30l-84 90l-84 -90h-31zM734 586h32l-199 -586h-35l-131 449l-132 -449h-34l-199 586h31l184 -543l132 452h36l131 -453z" />
    <glyph glyph-name="Ycircumflex.aalt" horiz-adv-x="526" 
d="M278 279v-279h-30v280l-219 306h36l198 -277l199 277h36zM240 757h46l91 -109h-30l-84 90l-84 -90h-31z" />
    <glyph glyph-name="Tcaron.aalt" horiz-adv-x="490" 
d="M33 586h424v-30h-197v-556h-30v556h-197v30zM266 648h-46l-91 109h30l84 -90l85 90h30z" />
    <glyph glyph-name="Tbar.aalt" horiz-adv-x="490" 
d="M230 307h-109v28h109v221h-197v30h424v-30h-197v-221h108v-28h-108v-307h-30v307z" />
    <glyph glyph-name="Zacute.aalt" horiz-adv-x="469" 
d="M424 30v-30h-380v20l341 536h-339v30h378v-23l-339 -533h339zM301 758l-74 -109h-28l66 109h36z" />
    <glyph glyph-name="Zdotaccent.aalt" horiz-adv-x="469" 
d="M205 719q0 12 8.5 19.5t20.5 7.5t20.5 -7.5t8.5 -19.5q0 -11 -8.5 -18.5t-20.5 -7.5t-20.5 7.5t-8.5 18.5zM424 30v-30h-380v20l341 536h-339v30h378v-23l-339 -533h339z" />
    <glyph glyph-name="Wgrave.aalt" horiz-adv-x="802" 
d="M306 757h37l66 -109h-28zM734 586h32l-199 -586h-35l-131 449l-132 -449h-34l-199 586h31l184 -543l132 452h36l131 -453z" />
    <glyph glyph-name="Wacute.aalt" horiz-adv-x="802" 
d="M489 757l-75 -109h-28l66 109h37zM734 586h32l-199 -586h-35l-131 449l-132 -449h-34l-199 586h31l184 -543l132 452h36l131 -453z" />
    <glyph glyph-name="Wdieresis.aalt" horiz-adv-x="802" 
d="M305 719q0 12 8.5 19.5t20.5 7.5q13 0 21.5 -7.5t8.5 -19.5q0 -11 -8.5 -18.5t-21.5 -7.5q-12 0 -20.5 7.5t-8.5 18.5zM438 719q0 12 8.5 19.5t20.5 7.5q13 0 21.5 -7.5t8.5 -19.5q0 -11 -8.5 -18.5t-21.5 -7.5q-12 0 -20.5 7.5t-8.5 18.5zM734 586h32l-199 -586h-35
l-131 449l-132 -449h-34l-199 586h31l184 -543l132 452h36l131 -453z" />
    <glyph glyph-name="Aringacute.aalt" horiz-adv-x="549" 
d="M228 707q0 -20 13 -33t32 -13q20 0 33.5 13t13.5 33t-13.5 33t-33.5 13q-19 0 -32 -13t-13 -33zM349 865l-60 -88q25 -5 41 -25t16 -46q0 -30 -21 -50.5t-52 -20.5q-29 0 -50 20.5t-21 50.5q0 27 16.5 47t41.5 25l53 87h36zM274 544l-135 -355h271zM128 162l-62 -162h-32
l225 586h31l224 -586h-32l-61 162h-293z" />
    <glyph glyph-name="AEacute.aalt" horiz-adv-x="846" 
d="M532 758l-74 -109h-28l66 109h36zM412 586h367v-30h-290v-254h254v-30h-254v-242h300v-30h-330v164h-288l-107 -164h-36zM459 556h-31l-238 -362h269v362z" />
    <glyph glyph-name="Oslashacute.aalt" horiz-adv-x="706" 
d="M439 758l-74 -109h-28l66 109h36zM353 21q56 0 104.5 21t84 58t56 86t20.5 105q0 51 -17.5 97.5t-49.5 82.5l-375 -382q35 -32 79.5 -50t97.5 -18zM89 291q0 -53 17.5 -99.5t49.5 -82.5l376 382q-35 32 -80.5 51t-98.5 19q-56 0 -104 -21t-83.5 -58t-56 -86t-20.5 -105z
M78 -10l-20 20l77 78q-36 40 -56 92t-20 111q0 62 22.5 117t62.5 95.5t93.5 64t115.5 23.5q59 0 110 -21t90 -57l79 79l19 -19l-79 -80q35 -41 55.5 -92.5t20.5 -109.5q0 -62 -23 -117t-62.5 -96t-93.5 -64.5t-116 -23.5q-59 0 -109.5 21t-88.5 57z" />
    <glyph glyph-name="Ibreve.aalt" horiz-adv-x="230" 
d="M210 746q0 -40 -26 -64t-69 -24q-25 0 -43 7.5t-29.5 20t-17 28t-5.5 32.5h26q1 -24 17 -42.5t52 -18.5q32 0 50 17t19 44h26zM130 586v-586h-30v586h30z" />
    <glyph glyph-name="Eng.aalt" horiz-adv-x="604" 
d="M130 539v-539h-30v586h35l339 -535v535h30v-586v-20q0 -37 -9 -70t-29 -57.5t-52 -39t-78 -14.5q-21 0 -40 3l4 30q9 -2 18.5 -2.5t17.5 -0.5q38 0 64 12t42.5 32.5t24 48t7.5 58.5v20z" />
    <glyph glyph-name="Ygrave.aalt" horiz-adv-x="526" 
d="M176 757h37l66 -109h-28zM278 279v-279h-30v280l-219 306h36l198 -277l199 277h36z" />
    <glyph glyph-name="Gcommaaccent.aalt" horiz-adv-x="666" 
d="M408 242v30h216q-4 -143 -76.5 -212.5t-194.5 -69.5q-62 0 -116 23.5t-93.5 64.5t-62 95.5t-22.5 117.5q0 62 22.5 117t62 95.5t93.5 64t116 23.5q50 0 94 -15t81 -42q-2 -2 -9.5 -12t-9.5 -12q-32 24 -71.5 37.5t-84.5 13.5q-56 0 -104 -21t-83.5 -58t-56 -86
t-20.5 -105t20.5 -105.5t56 -86.5t83.5 -58t104 -21q102 0 165 56.5t73 165.5h-183zM274 -185q23 25 38.5 57t17.5 70h33q-4 -41 -20 -74t-43 -55z" />
    <glyph glyph-name="Kcommaaccent.aalt" horiz-adv-x="466" 
d="M193 -185q23 25 38.5 57t17.5 70h33q-4 -41 -20 -74t-43 -55zM130 0h-30v586h30v-300l247 300h38l-255 -309l294 -277h-42l-282 265v-265z" />
    <glyph glyph-name="Lcommaaccent.aalt" horiz-adv-x="425" 
d="M176 -185q23 25 38.5 57t17.5 70h33q-4 -41 -20 -74t-43 -55zM100 586h30v-556h261v-30h-291v586z" />
    <glyph glyph-name="Ncommaaccent.aalt" horiz-adv-x="604" 
d="M222 -185q23 25 38.5 57t17.5 70h33q-4 -41 -20 -74t-43 -55zM504 586v-586h-35l-339 539v-539h-30v586h35l339 -541v541h30z" />
    <glyph glyph-name="Rcommaaccent.aalt" horiz-adv-x="532" 
d="M193 -185q23 25 38.5 57t17.5 70h33q-4 -41 -20 -74t-43 -55zM130 556v-286h180q37 0 62 12t41 31.5t23 45.5t7 53t-7 53t-22 46.5t-39.5 32.5t-59.5 12h-185zM130 240v-240h-30v586h215q43 0 73 -15t49 -39t27.5 -55.5t8.5 -64.5q0 -32 -9 -62.5t-27 -54.5t-46.5 -38.5
t-67.5 -14.5h-31l170 -242h-36l-170 240h-126z" />
    <glyph glyph-name="Tcommaaccent.aalt" horiz-adv-x="490" 
d="M172 -185q23 25 38.5 57t17.5 70h33q-4 -41 -20 -74t-43 -55zM33 586h424v-30h-197v-556h-30v556h-197v30z" />
    <glyph glyph-name="Scommaaccent.aalt" horiz-adv-x="497" 
d="M179 -185q23 25 38.5 57t17.5 70h33q-4 -41 -20 -74t-43 -55zM91 144q3 -24 15.5 -46t32.5 -39t46.5 -27.5t59.5 -10.5q37 0 66 10t49.5 26t33 36t16.5 40q5 33 -4 57.5t-27 42t-43.5 29t-54.5 18.5l-82 19q-44 10 -70.5 26.5t-40.5 36t-18.5 40t-4.5 37.5q0 34 15 62
t40 48t57.5 31t66.5 11q36 0 67 -10t54.5 -29t38 -46t17.5 -61h-30q-5 54 -46.5 85t-100.5 31q-29 0 -55.5 -9t-47.5 -25t-33.5 -38.5t-12.5 -49.5q0 -14 3.5 -30t15 -31t33.5 -28.5t58 -21.5l83 -19q34 -8 64.5 -22t52 -36t31 -52.5t3.5 -71.5q-5 -24 -19.5 -48.5
t-38.5 -44t-58 -32t-78 -12.5q-40 0 -72.5 13t-56 35t-38 49.5t-17.5 56.5h30z" />
    <glyph glyph-name="Idotaccent.aalt" horiz-adv-x="230" 
d="M86 719q0 12 8.5 19.5t20.5 7.5t20.5 -7.5t8.5 -19.5q0 -11 -8.5 -18.5t-20.5 -7.5t-20.5 7.5t-8.5 18.5zM130 586v-586h-30v586h30z" />
    <glyph glyph-name="zero.numr" horiz-adv-x="355" 
d="M45 457q0 41 6 77t21 62.5t40.5 42t65.5 15.5q39 0 64.5 -15.5t40.5 -42t20.5 -62.5t5.5 -77t-5.5 -77t-20.5 -62.5t-40.5 -42t-64.5 -15.5q-40 0 -65.5 15.5t-40.5 42t-21 62.5t-6 77zM75 457q0 -35 4.5 -65t16 -53t31.5 -36t51 -13q30 0 50 13t31 36t15.5 53t4.5 65
q0 34 -4.5 64.5t-15.5 53.5t-31 36t-50 13q-31 0 -51 -13t-31.5 -36t-16 -53.5t-4.5 -64.5z" />
    <glyph glyph-name="one.numr" horiz-adv-x="187" 
d="M97 265v355l-69 -24v30l99 36v-397h-30z" />
    <glyph glyph-name="two.numr" horiz-adv-x="316" 
d="M273 265h-234v11l167 200q16 19 26 39t10 42q0 37 -25.5 59.5t-63.5 22.5q-32 0 -57.5 -17.5t-31.5 -47.5l-28 8q8 40 40.5 63.5t76.5 23.5q51 0 85 -31t34 -81q0 -28 -12.5 -53.5t-31.5 -47.5l-136 -161h181v-30z" />
    <glyph glyph-name="three.numr" horiz-adv-x="323" 
d="M235 560q2 31 -17.5 53.5t-60.5 25.5q-26 2 -50.5 -9.5t-35.5 -31.5l-25 15q16 27 46.5 42.5t66.5 13.5q57 -4 84 -37t23 -76q-2 -24 -17.5 -44.5t-39.5 -31.5q17 -4 31 -15.5t23.5 -27t14 -33.5t3.5 -35q-2 -25 -13.5 -45.5t-30 -35.5t-42.5 -22.5t-51 -5.5
q-38 2 -64.5 16.5t-46.5 51.5l24 16q14 -28 37 -40t52 -14q43 -2 72 21.5t33 62.5q0 20 -7 36.5t-19.5 28.5t-29.5 18.5t-35 6.5h-39v29h39q28 0 50.5 19t24.5 48z" />
    <glyph glyph-name="four.numr" horiz-adv-x="350" 
d="M75 379h154v225zM259 351v-86h-30v86h-209l217 313h22v-285h62v-28h-62z" />
    <glyph glyph-name="five.numr" horiz-adv-x="338" 
d="M111 633l-27 -146q24 11 45 18t45 7t47.5 -8t41.5 -24t29 -39t11 -53q0 -57 -37 -92.5t-103 -35.5q-39 0 -75.5 22.5t-54.5 56.5q5 4 13 9t13 9q14 -29 43 -47.5t61 -18.5q53 0 81 28t28 69q0 23 -9 40.5t-23 29t-31.5 17.5t-34.5 6q-15 0 -28 -1.5t-26 -5t-26.5 -9.5
l-31.5 -14l-11 15l34 198h191v-31h-165z" />
    <glyph glyph-name="six.numr" horiz-adv-x="338" 
d="M48 391q-3 45 -1.5 95t15 91t42.5 67.5t81 25.5q32 -1 59.5 -15t44.5 -53l-27 -12q-13 28 -33.5 38.5t-44.5 11.5q-36 1 -57.5 -16.5t-32.5 -45t-14.5 -61t-2.5 -64.5q6 16 17 27.5t25 19t30 11t31 2.5q26 -1 48.5 -12t38 -28.5t24.5 -41t8 -50.5q-2 -26 -12.5 -48.5
t-27.5 -39t-40 -25.5t-49 -8q-51 2 -84.5 36.5t-37.5 94.5zM78 391q0 -43 27 -71t66 -30q20 -1 37.5 6t30.5 19.5t21 30t9 37.5q2 42 -24 70t-66 30q-20 1 -38 -6t-31.5 -19t-22 -29.5t-9.5 -37.5z" />
    <glyph glyph-name="seven.numr" horiz-adv-x="306" 
d="M38 265l204 369h-206v30h257l-219 -399h-36z" />
    <glyph glyph-name="eight.numr" horiz-adv-x="346" 
d="M103 575q0 -27 18.5 -46.5t47.5 -19.5h7q29 0 48.5 19.5t19.5 46.5t-20.5 46t-50.5 19t-50 -19t-20 -46zM70 385q0 -40 29 -67.5t74 -27.5q44 0 73.5 27.5t29.5 67.5q0 19 -8 37t-21.5 31t-32 21t-40.5 8t-41 -8t-33 -21.5t-22 -31t-8 -36.5zM73 575q0 40 28.5 67.5
t71.5 27.5t72 -27.5t29 -67.5q0 -25 -12 -45t-32 -33q34 -14 55 -44t21 -68q0 -26 -10 -49t-28 -40t-42.5 -26.5t-52.5 -9.5q-29 0 -53 9.5t-42 26.5t-28 40t-10 49q0 38 20.5 68t54.5 45q-20 12 -31 32t-11 45z" />
    <glyph glyph-name="nine.numr" horiz-adv-x="338" 
d="M290 538q3 -45 1.5 -94.5t-15 -91t-42.5 -67.5t-81 -25q-32 1 -60.5 14.5t-45.5 53.5l27 11q13 -28 34.5 -38t45.5 -11q36 -1 57.5 16.5t32.5 44.5t14.5 60t2.5 65q-6 -16 -17 -27.5t-25 -19t-30 -11t-31 -2.5q-26 1 -48.5 12t-38 29t-24.5 41.5t-8 49.5q1 27 11.5 49.5
t28 39t40.5 25t49 7.5q51 -2 84.5 -36.5t37.5 -94.5zM260 539q0 43 -27 70.5t-66 29.5q-20 1 -37.5 -6t-30.5 -19t-20.5 -29.5t-8.5 -37.5q-2 -42 23.5 -70t65.5 -30q20 -1 38 5.5t31.5 19t22 29.5t9.5 38z" />
    <glyph glyph-name="zero.dnom" horiz-adv-x="355" 
d="M45 192q0 41 6 77t21 62.5t40.5 42t65.5 15.5q39 0 64.5 -15.5t40.5 -42t20.5 -62.5t5.5 -77t-5.5 -77t-20.5 -62.5t-40.5 -42t-64.5 -15.5q-40 0 -65.5 15.5t-40.5 42t-21 62.5t-6 77zM75 192q0 -35 4.5 -65t16 -53t31.5 -36t51 -13q30 0 50 13t31 36t15.5 53t4.5 65
q0 34 -4.5 64.5t-15.5 53.5t-31 36t-50 13q-31 0 -51 -13t-31.5 -36t-16 -53.5t-4.5 -64.5z" />
    <glyph glyph-name="one.dnom" horiz-adv-x="187" 
d="M97 0v355l-69 -24v30l99 36v-397h-30z" />
    <glyph glyph-name="two.dnom" horiz-adv-x="316" 
d="M273 0h-234v11l167 200q16 19 26 39t10 42q0 37 -25.5 59.5t-63.5 22.5q-32 0 -57.5 -17.5t-31.5 -47.5l-28 8q8 40 40.5 63.5t76.5 23.5q51 0 85 -31t34 -81q0 -28 -12.5 -53.5t-31.5 -47.5l-136 -161h181v-30z" />
    <glyph glyph-name="three.dnom" horiz-adv-x="324" 
d="M236 295q2 31 -17.5 53.5t-60.5 25.5q-26 2 -50.5 -9.5t-35.5 -31.5l-25 15q16 27 46.5 42.5t66.5 13.5q57 -4 84 -37t23 -76q-2 -24 -17.5 -44.5t-39.5 -31.5q17 -4 31 -15.5t23.5 -27t14 -33.5t3.5 -35q-2 -25 -13.5 -45.5t-30 -35.5t-42.5 -22.5t-51 -5.5
q-38 2 -64.5 16.5t-46.5 51.5l24 16q14 -28 37 -40t52 -14q43 -2 72 21.5t33 62.5q0 20 -7 36.5t-19.5 28.5t-29.5 18.5t-35 6.5h-39v29h39q28 0 50.5 19t24.5 48z" />
    <glyph glyph-name="four.dnom" horiz-adv-x="352" 
d="M77 114h154v225zM261 86v-86h-30v86h-209l217 313h22v-285h62v-28h-62z" />
    <glyph glyph-name="five.dnom" horiz-adv-x="339" 
d="M111 368l-27 -146q24 11 45 18t45 7t47.5 -8t41.5 -24t29 -39t11 -53q0 -57 -37 -92.5t-103 -35.5q-39 0 -75.5 22.5t-54.5 56.5q5 4 13 9t13 9q14 -29 43 -47.5t61 -18.5q53 0 81 28t28 69q0 23 -9 40.5t-23 29t-31.5 17.5t-34.5 6q-15 0 -28 -1.5t-26 -5t-26.5 -9.5
l-31.5 -14l-11 15l34 198h191v-31h-165z" />
    <glyph glyph-name="six.dnom" horiz-adv-x="337" 
d="M48 126q-3 45 -1.5 95t15 91t42.5 67.5t81 25.5q32 -1 59.5 -15t44.5 -53l-27 -12q-13 28 -33.5 38.5t-44.5 11.5q-36 1 -57.5 -16.5t-32.5 -45t-14.5 -61t-2.5 -64.5q6 16 17 27.5t25 19t30 11t31 2.5q26 -1 48.5 -12t38 -28.5t24.5 -41t8 -50.5q-2 -26 -12.5 -48.5
t-27.5 -39t-40 -25.5t-49 -8q-51 2 -84.5 36.5t-37.5 94.5zM78 126q0 -43 27 -71t66 -30q20 -1 37.5 6t30.5 19.5t21 30t9 37.5q2 42 -24 70t-66 30q-20 1 -38 -6t-31.5 -19t-22 -29.5t-9.5 -37.5z" />
    <glyph glyph-name="seven.dnom" horiz-adv-x="305" 
d="M38 0l204 369h-206v30h257l-219 -399h-36z" />
    <glyph glyph-name="eight.dnom" horiz-adv-x="346" 
d="M103 310q0 -27 18.5 -46.5t47.5 -19.5h7q29 0 48.5 19.5t19.5 46.5t-20.5 46t-50.5 19t-50 -19t-20 -46zM70 120q0 -40 29 -67.5t74 -27.5q44 0 73.5 27.5t29.5 67.5q0 19 -8 37t-21.5 31t-32 21t-40.5 8t-41 -8t-33 -21.5t-22 -31t-8 -36.5zM73 310q0 40 28.5 67.5
t71.5 27.5t72 -27.5t29 -67.5q0 -25 -12 -45t-32 -33q34 -14 55 -44t21 -68q0 -26 -10 -49t-28 -40t-42.5 -26.5t-52.5 -9.5q-29 0 -53 9.5t-42 26.5t-28 40t-10 49q0 38 20.5 68t54.5 45q-20 12 -31 32t-11 45z" />
    <glyph glyph-name="nine.dnom" horiz-adv-x="338" 
d="M290 273q3 -45 1.5 -94.5t-15 -91t-42.5 -67.5t-81 -25q-32 1 -60.5 14.5t-45.5 53.5l27 11q13 -28 34.5 -38t45.5 -11q36 -1 57.5 16.5t32.5 44.5t14.5 60t2.5 65q-6 -16 -17 -27.5t-25 -19t-30 -11t-31 -2.5q-26 1 -48.5 12t-38 29t-24.5 41.5t-8 49.5q1 27 11.5 49.5
t28 39t40.5 25t49 7.5q51 -2 84.5 -36.5t37.5 -94.5zM260 274q0 43 -27 70.5t-66 29.5q-20 1 -37.5 -6t-30.5 -19t-20.5 -29.5t-8.5 -37.5q-2 -42 23.5 -70t65.5 -30q20 -1 38 5.5t31.5 19t22 29.5t9.5 38z" />
    <glyph glyph-name="l.salt" horiz-adv-x="237" 
d="M238 0q-44 0 -74 11.5t-48 33.5t-26 54.5t-8 73.5v569h30v-569q0 -74 27.5 -108.5t98.5 -34.5h12v-30h-12z" />
    <glyph glyph-name="a.salt" horiz-adv-x="539" 
d="M210 19q23 0 53 6t60.5 19.5t58 34.5t45.5 50v60q-26 10 -54 17.5t-54.5 12t-48 6.5t-34.5 2q-51 0 -83 -9.5t-49 -24.5t-23 -34t-6 -38q0 -43 32 -72.5t103 -29.5zM247 447q-48 0 -83 -14.5t-67 -43.5q-8 9 -10.5 12t-9.5 10q38 40 87 53t92 13q98 0 150 -48t52 -142
v-287h-30v86q-26 -30 -55.5 -49t-59 -29.5t-57 -14.5t-48.5 -4q-76 0 -119.5 34.5t-43.5 97.5q0 28 9.5 52.5t32 43t59 29.5t90.5 11q16 0 38.5 -2.5t48 -7t52.5 -11.5t53 -17v68q0 45 -13 75.5t-37 49t-57.5 27t-73.5 8.5z" />
    <glyph glyph-name="y.salt" horiz-adv-x="498" 
d="M231 -5l-200 472h33l184 -436l187 436h33l-234 -548q-31 -72 -74 -112t-112 -40h-9t-18 2v30q9 -2 17 -2h10q58 0 95 35.5t68 109.5z" />
    <glyph glyph-name="lslash.salt" horiz-adv-x="250" 
d="M8 297v29l84 52v364h30v-345l111 70v-29l-111 -70v-195q0 -74 27.5 -108.5t98.5 -34.5h12v-30h-12q-44 0 -74 11.5t-48 33.5t-26 54.5t-8 73.5v176z" />
    <glyph glyph-name="lacute.salt" horiz-adv-x="237" 
d="M109 804h-27l79 127h36zM238 0q-44 0 -74 11.5t-48 33.5t-26 54.5t-8 73.5v569h30v-569q0 -74 27.5 -108.5t98.5 -34.5h12v-30h-12z" />
    <glyph glyph-name="lcommaaccent.salt" horiz-adv-x="237" 
d="M125 -215q28 29 47 66t22 80h33q-5 -45 -23.5 -82.5t-51.5 -63.5h-27zM238 0q-44 0 -74 11.5t-48 33.5t-26 54.5t-8 73.5v569h30v-569q0 -74 27.5 -108.5t98.5 -34.5h12v-30h-12z" />
    <glyph glyph-name="lcaron.salt" horiz-adv-x="237" 
d="M230 742q0 -30 -4 -54t-11.5 -42.5t-18 -33.5t-21.5 -27l-15 9q18 23 30 59t11 89h29zM238 0q-44 0 -74 11.5t-48 33.5t-26 54.5t-8 73.5v569h30v-569q0 -74 27.5 -108.5t98.5 -34.5h12v-30h-12z" />
    <glyph glyph-name="aacute.salt" horiz-adv-x="539" 
d="M257 538h-27l79 127h36zM210 19q23 0 53 6t60.5 19.5t58 34.5t45.5 50v60q-26 10 -54 17.5t-54.5 12t-48 6.5t-34.5 2q-51 0 -83 -9.5t-49 -24.5t-23 -34t-6 -38q0 -43 32 -72.5t103 -29.5zM247 447q-48 0 -83 -14.5t-67 -43.5q-8 9 -10.5 12t-9.5 10q38 40 87 53t92 13
q98 0 150 -48t52 -142v-287h-30v86q-26 -30 -55.5 -49t-59 -29.5t-57 -14.5t-48.5 -4q-76 0 -119.5 34.5t-43.5 97.5q0 28 9.5 52.5t32 43t59 29.5t90.5 11q16 0 38.5 -2.5t48 -7t52.5 -11.5t53 -17v68q0 45 -13 75.5t-37 49t-57.5 27t-73.5 8.5z" />
    <glyph glyph-name="agrave.salt" horiz-adv-x="539" 
d="M147 665h36l79 -127h-27zM210 19q23 0 53 6t60.5 19.5t58 34.5t45.5 50v60q-26 10 -54 17.5t-54.5 12t-48 6.5t-34.5 2q-51 0 -83 -9.5t-49 -24.5t-23 -34t-6 -38q0 -43 32 -72.5t103 -29.5zM247 447q-48 0 -83 -14.5t-67 -43.5q-8 9 -10.5 12t-9.5 10q38 40 87 53t92 13
q98 0 150 -48t52 -142v-287h-30v86q-26 -30 -55.5 -49t-59 -29.5t-57 -14.5t-48.5 -4q-76 0 -119.5 34.5t-43.5 97.5q0 28 9.5 52.5t32 43t59 29.5t90.5 11q16 0 38.5 -2.5t48 -7t52.5 -11.5t53 -17v68q0 45 -13 75.5t-37 49t-57.5 27t-73.5 8.5z" />
    <glyph glyph-name="acircumflex.salt" horiz-adv-x="539" 
d="M280 665l110 -127h-30l-104 109l-104 -109h-30l110 127h48zM210 19q23 0 53 6t60.5 19.5t58 34.5t45.5 50v60q-26 10 -54 17.5t-54.5 12t-48 6.5t-34.5 2q-51 0 -83 -9.5t-49 -24.5t-23 -34t-6 -38q0 -43 32 -72.5t103 -29.5zM247 447q-48 0 -83 -14.5t-67 -43.5
q-8 9 -10.5 12t-9.5 10q38 40 87 53t92 13q98 0 150 -48t52 -142v-287h-30v86q-26 -30 -55.5 -49t-59 -29.5t-57 -14.5t-48.5 -4q-76 0 -119.5 34.5t-43.5 97.5q0 28 9.5 52.5t32 43t59 29.5t90.5 11q16 0 38.5 -2.5t48 -7t52.5 -11.5t53 -17v68q0 45 -13 75.5t-37 49
t-57.5 27t-73.5 8.5z" />
    <glyph glyph-name="adieresis.salt" horiz-adv-x="539" 
d="M143 621q0 13 9 21t22 8q14 0 23 -8t9 -21q0 -12 -9 -20t-23 -8q-13 0 -22 8t-9 20zM296 621q0 13 9 21t22 8q14 0 23 -8t9 -21q0 -12 -9 -20t-23 -8q-13 0 -22 8t-9 20zM210 19q23 0 53 6t60.5 19.5t58 34.5t45.5 50v60q-26 10 -54 17.5t-54.5 12t-48 6.5t-34.5 2
q-51 0 -83 -9.5t-49 -24.5t-23 -34t-6 -38q0 -43 32 -72.5t103 -29.5zM247 447q-48 0 -83 -14.5t-67 -43.5q-8 9 -10.5 12t-9.5 10q38 40 87 53t92 13q98 0 150 -48t52 -142v-287h-30v86q-26 -30 -55.5 -49t-59 -29.5t-57 -14.5t-48.5 -4q-76 0 -119.5 34.5t-43.5 97.5
q0 28 9.5 52.5t32 43t59 29.5t90.5 11q16 0 38.5 -2.5t48 -7t52.5 -11.5t53 -17v68q0 45 -13 75.5t-37 49t-57.5 27t-73.5 8.5z" />
    <glyph glyph-name="atilde.salt" horiz-adv-x="539" 
d="M244 587q-11 8 -20 14.5t-22 6.5q-11 0 -23.5 -9.5t-13.5 -34.5h-30q1 20 8 33.5t17 22t21.5 12t20.5 3.5q20 0 33 -8t25 -17q10 -8 20 -13.5t21 -5.5t23.5 9.5t13.5 34.5h30q-1 -20 -8 -33.5t-17 -22t-21.5 -12t-20.5 -3.5q-20 0 -32.5 7t-24.5 16zM210 19q23 0 53 6
t60.5 19.5t58 34.5t45.5 50v60q-26 10 -54 17.5t-54.5 12t-48 6.5t-34.5 2q-51 0 -83 -9.5t-49 -24.5t-23 -34t-6 -38q0 -43 32 -72.5t103 -29.5zM247 447q-48 0 -83 -14.5t-67 -43.5q-8 9 -10.5 12t-9.5 10q38 40 87 53t92 13q98 0 150 -48t52 -142v-287h-30v86
q-26 -30 -55.5 -49t-59 -29.5t-57 -14.5t-48.5 -4q-76 0 -119.5 34.5t-43.5 97.5q0 28 9.5 52.5t32 43t59 29.5t90.5 11q16 0 38.5 -2.5t48 -7t52.5 -11.5t53 -17v68q0 45 -13 75.5t-37 49t-57.5 27t-73.5 8.5z" />
    <glyph glyph-name="aring.salt" horiz-adv-x="539" 
d="M175 639q0 35 23.5 59.5t57.5 24.5q18 0 33 -6.5t26.5 -18t18 -27t6.5 -32.5q0 -35 -24.5 -58.5t-59.5 -23.5q-34 0 -57.5 23.5t-23.5 58.5zM202 639q0 -23 15.5 -39t38.5 -16q24 0 40.5 16t16.5 39q0 24 -16.5 40.5t-40.5 16.5q-23 0 -38.5 -16.5t-15.5 -40.5zM210 19
q23 0 53 6t60.5 19.5t58 34.5t45.5 50v60q-26 10 -54 17.5t-54.5 12t-48 6.5t-34.5 2q-51 0 -83 -9.5t-49 -24.5t-23 -34t-6 -38q0 -43 32 -72.5t103 -29.5zM247 447q-48 0 -83 -14.5t-67 -43.5q-8 9 -10.5 12t-9.5 10q38 40 87 53t92 13q98 0 150 -48t52 -142v-287h-30v86
q-26 -30 -55.5 -49t-59 -29.5t-57 -14.5t-48.5 -4q-76 0 -119.5 34.5t-43.5 97.5q0 28 9.5 52.5t32 43t59 29.5t90.5 11q16 0 38.5 -2.5t48 -7t52.5 -11.5t53 -17v68q0 45 -13 75.5t-37 49t-57.5 27t-73.5 8.5z" />
    <glyph glyph-name="amacron.salt" horiz-adv-x="539" 
d="M376 629v-27h-228v27h228zM210 19q23 0 53 6t60.5 19.5t58 34.5t45.5 50v60q-26 10 -54 17.5t-54.5 12t-48 6.5t-34.5 2q-51 0 -83 -9.5t-49 -24.5t-23 -34t-6 -38q0 -43 32 -72.5t103 -29.5zM247 447q-48 0 -83 -14.5t-67 -43.5q-8 9 -10.5 12t-9.5 10q38 40 87 53
t92 13q98 0 150 -48t52 -142v-287h-30v86q-26 -30 -55.5 -49t-59 -29.5t-57 -14.5t-48.5 -4q-76 0 -119.5 34.5t-43.5 97.5q0 28 9.5 52.5t32 43t59 29.5t90.5 11q16 0 38.5 -2.5t48 -7t52.5 -11.5t53 -17v68q0 45 -13 75.5t-37 49t-57.5 27t-73.5 8.5z" />
    <glyph glyph-name="abreve.salt" horiz-adv-x="539" 
d="M365 650q0 -45 -30 -72.5t-80 -27.5q-29 0 -49.5 8.5t-34 22.5t-19.5 32t-6 37h27q0 -28 19 -50.5t63 -22.5q38 0 60.5 20t22.5 53h27zM210 19q23 0 53 6t60.5 19.5t58 34.5t45.5 50v60q-26 10 -54 17.5t-54.5 12t-48 6.5t-34.5 2q-51 0 -83 -9.5t-49 -24.5t-23 -34
t-6 -38q0 -43 32 -72.5t103 -29.5zM247 447q-48 0 -83 -14.5t-67 -43.5q-8 9 -10.5 12t-9.5 10q38 40 87 53t92 13q98 0 150 -48t52 -142v-287h-30v86q-26 -30 -55.5 -49t-59 -29.5t-57 -14.5t-48.5 -4q-76 0 -119.5 34.5t-43.5 97.5q0 28 9.5 52.5t32 43t59 29.5t90.5 11
q16 0 38.5 -2.5t48 -7t52.5 -11.5t53 -17v68q0 45 -13 75.5t-37 49t-57.5 27t-73.5 8.5z" />
    </font>
</defs>
</svg>
