<svg xmlns="http://www.w3.org/2000/svg" xmlns:xlink="http://www.w3.org/1999/xlink" width="1920" height="1332" viewBox="0 0 1920 1332">
  <defs>
    <clipPath id="clip-path">
      <path id="Rectangle_548" data-name="Rectangle 548" d="M0,0H1920a0,0,0,0,1,0,0V1212a120,120,0,0,1-120,120H120A120,120,0,0,1,0,1212V0A0,0,0,0,1,0,0Z" transform="translate(0 1681)" fill="#232a4e"/>
    </clipPath>
    <radialGradient id="radial-gradient" cx="-0.066" cy="0.5" r="0.615" gradientTransform="matrix(0.924, 0.845, 1.463, -0.534, -3.92, 8.242)" gradientUnits="objectBoundingBox">
      <stop offset="0.813" stop-color="#008bc4"/>
      <stop offset="0.834" stop-color="#006f9c"/>
      <stop offset="0.863" stop-color="#004d6d"/>
      <stop offset="0.892" stop-color="#003146"/>
      <stop offset="0.921" stop-color="#001b27"/>
      <stop offset="0.949" stop-color="#000c11"/>
      <stop offset="0.975" stop-color="#000304"/>
      <stop offset="1"/>
    </radialGradient>
    <radialGradient id="radial-gradient-2" cx="-0.49" cy="0.496" r="0.786" gradientTransform="matrix(1.002, 0.845, 1.586, -0.534, -3.5, 8.529)" gradientUnits="objectBoundingBox">
      <stop offset="0" stop-color="#7cc5ff"/>
      <stop offset="0.844" stop-color="#482088"/>
      <stop offset="0.948" stop-color="#403b77"/>
      <stop offset="0.997" stop-color="#4d79d1"/>
    </radialGradient>
    <radialGradient id="radial-gradient-3" cx="0.5" cy="0.5" r="1.035" gradientTransform="matrix(-0.483, 0, 0, 0.483, -10.097, -2.162)" gradientUnits="objectBoundingBox">
      <stop offset="0" stop-color="#2c6aff"/>
      <stop offset="0.091" stop-color="#2458d5"/>
      <stop offset="0.227" stop-color="#1b419d"/>
      <stop offset="0.365" stop-color="#122d6d"/>
      <stop offset="0.5" stop-color="#0c1d46"/>
      <stop offset="0.633" stop-color="#061027"/>
      <stop offset="0.762" stop-color="#030711"/>
      <stop offset="0.886" stop-color="#000104"/>
      <stop offset="1"/>
    </radialGradient>
    <radialGradient id="radial-gradient-4" cx="1.582" cy="0.51" r="0.783" gradientTransform="matrix(-1.017, -0.861, -1.72, 0.509, 0.166, 0.776)" gradientUnits="objectBoundingBox">
      <stop offset="0" stop-color="#ff5731"/>
      <stop offset="0.698" stop-color="#ba005e"/>
      <stop offset="0.948" stop-color="#5e1377"/>
      <stop offset="0.997" stop-color="#8160ff"/>
    </radialGradient>
    <radialGradient id="radial-gradient-5" cx="0.5" cy="0.5" r="0.5" gradientTransform="matrix(0.073, -0.999, -0.997, -0.017, 4.925, 5.781)" xlink:href="#radial-gradient-3"/>
  </defs>
  <g id="Mask_Group_8" data-name="Mask Group 8" transform="translate(0 -1681)" clip-path="url(#clip-path)">
    <g id="Group_2527" data-name="Group 2527" transform="translate(1325.654 1154.884)">
      <g id="Group_2521" data-name="Group 2521" transform="translate(-1489.67 573.556)">
        <path id="Path_2990" data-name="Path 2990" d="M-1075.842,573.556H-1489.67v1284.56h412.165c338.156-242.175,432.565-709.234,207.562-1065.4A787.9,787.9,0,0,0-1075.842,573.556Z" transform="translate(1489.67 -573.556)" fill-rule="evenodd" fill="url(#radial-gradient)" style="mix-blend-mode: screen;isolation: isolate"/>
        <path id="Path_2991" data-name="Path 2991" d="M-1143.765,596.615q-19.012-12.173-38.757-23.059H-1489.67v1284.56h305.111q19.092-10.523,37.808-22.328c342.676-216.48,444.911-669.826,228.431-1012.5A730.265,730.265,0,0,0-1143.765,596.615Z" transform="translate(1489.67 -573.556)" fill-rule="evenodd" fill="url(#radial-gradient-2)"/>
        <g id="Group_2517" data-name="Group 2517" opacity="0.5" style="mix-blend-mode: multiply;isolation: isolate">
          <path id="Path_2992" data-name="Path 2992" d="M-966.545,1004.706c-12.536-48.147-19.4-97.83-35.015-145.183-3.205-9.726-7.746-18.733-11.375-28.318-4-10.375-6.943-20.9-11.881-30.937-9.779-20.13-14.955-42.276-25.948-61.9-7.722-13.639-18.063-24.348-26.891-36.905-11.374-16.186-19.929-33.771-29.237-51.134-10.221-19.212-22.908-36.868-36.873-53.717q-19.012-12.173-38.757-23.059h-4.257c8.093,5.577,16.612,10.659,23.473,17.4,9.971,9.921,19.5,20.759,29.062,31.449,13.153,14.551,22.4,29.4,30.26,47.294,3.937,9.262,8.3,18.386,11.867,27.879,3.85,10.339,12.047,18.059,15.715,28.515,5,14.591,16.258,27.149,23.99,40.4,13.34,22.734,18.965,49.833,28.192,74.143,10.27,26.974,15.957,55.181,28.433,81.4,7.124,14.912,9.3,28.866,13.493,44.6,3.683,13.512,1.939,24.7.758,38.6-2.09,26.607-4.434,53.631.125,80.252,4.5,26.532,12.4,52.578,22.086,77.618,7.974,20.506,11.748,46.092,8.181,68.141-1.646,9.724-3.741,19.348-5.536,29.039-2.151,11.958-3.193,23.856-6.684,35.512-3.92,13.2-6.417,27.042-10.394,40.155-4.461,14.569-11.09,28.333-15.61,42.811-7.249,23.1-2.628,48.4-10.265,71.491-1.555,4.814-4.418,9.177-5.826,14.026-1.474,5.146-1.157,9.287-4.293,13.823-3.82,5.479-12.467,18.477-20.154,19.245-15.466,1.6-4.709-48.492-3.076-56.42,2.366-12.224,5.781-23.193,5.252-35.757-.323-7.586-.314-15.254-1.689-22.687-2.212-12.4-8.963-24.1-13.347-35.886-12.073-32.856-27.321-64.475-41.211-96.569-18.853-43.39-35.806-88.619-50.878-133.5-14.155-42.015-26.709-84.53-41.046-126.431-7.57-22.292-14.959-44.7-22.95-66.854-9.7-27.079-17.1-54.968-27.589-81.677-17.105-43.856-33.46-88.95-57.565-129.534-19.017-31.922-37.038-64.085-56.874-95.488-8.8-13.929-17.348-28.477-26.136-42.986h-33.809c16.877,18.138,27.567,38.676,34.833,64.087,3.387,12.035,6.627,24.036,9.628,36.063,2.207,8.951,2.093,18.473,4.755,27.135,7.727,24.365,17.47,48.479,25.953,72.62,4.061,11.484,8.777,23.193,11.991,34.953,3.568,13.33,4.482,27.311,6.847,40.759,4.52,25.752,7.844,50.218,17.94,74.49,6.424,15.225,14.782,32.3,16.349,48.929.589,5.377,1.622,13.28-4.259,16.1-7.215,3.537-10.985-6.471-13.218-11.827-6.476-15.707-14.308-30.937-19.446-47.358-9.16-29.46-21.445-56.183-36.237-83.238-21.78-40.137-44.294-80.828-70.7-118.174-20.927-29.691-43.158-58.814-62.26-89.658q-5.368-8.672-11.027-17.03V1858.116h283.518a146.2,146.2,0,0,0,9.4-16.157c4.493-8.457,11.152-16.112,16.526-23.978,12.149-17.763,26.97-34.536,40.326-51.4,14.96-18.774,30.06-37.125,43.491-57.1,6.091-8.958,10.174-19.072,16.059-28.153,5.943-8.99,11.578-17.661,16.634-27.24,12.293-23.6,25.643-46.339,37.167-70.35,20.806-43.283,35.008-88.527,50.916-133.7,8.05-22.837,12.468-46.573,17.72-70.2,5.869-26.7,14.923-52.595,20.08-79.606,4.111-20.988,7.968-42.58,8.492-63.986.239-12.156,1.348-24.349,1.5-36.448.2-15.452-3.913-30.861-5.544-46.177C-939.243,1102.911-953.855,1053.9-966.545,1004.706Z" transform="translate(1489.67 -573.556)" fill="#c4b0b8" fill-rule="evenodd"/>
        </g>
        <g id="Group_2518" data-name="Group 2518" transform="translate(0.112)" opacity="0.63" style="mix-blend-mode: soft-light;isolation: isolate">
          <path id="Path_2993" data-name="Path 2993" d="M-1348.782,731.68c-1.739-6.025-3.575-12.154-5-18.267-1.375-5.9-1.6-11.785-3.7-17.539-8.423-23.112-19.338-44.727-27.769-67.775-3.109-8.5-7.127-17.549-13.4-24.286-6.649-7.134-16.273-11.635-24.49-16.573-7.739-4.652-15.2-9.659-23.238-13.685h-42.757c-.1.519-.2,1.06-.287,1.659a15.2,15.2,0,0,0,5.022,14.007c.54-.2,1.079-.407-.566-4.068,19.573,14.966,35.861,34.542,49.472,55.14,16.162,24.459,31.624,49.759,44.84,75.937,8.832,17.49,19.568,33.556,27.609,51.476,3.895,8.676,9.019,16.014,13.666,24.2,2.662,4.687,3.009,11.181,7.227,14.8,16.2,13.917,6.744-23.059,6.271-27.611C-1337.572,762.7-1344.252,747.38-1348.782,731.68Z" transform="translate(1489.605 -573.556)" fill="#c4b0b8" fill-rule="evenodd"/>
          <path id="Path_2994" data-name="Path 2994" d="M-1172.5,831.717c-3.295-12.436-5.708-24.507-5.077-37.461.275-5.639,1.944-13.4,9.09-9.861,9.628,4.773,15.1,18.975,19.641,27.833,7.821,15.258,14.194,31.208,21.371,46.779,4.867,10.561,9.9,20.811,14.053,31.691,5.421,14.209,9.062,29.014,12.719,43.754a135.623,135.623,0,0,1,4.283,33.1c-.011,11.592.985,23.067-.593,34.663-2.069,15.2-.327,32.392-11.21,44.663-9.059,10.214-20.214-16.316-22.541-21.324-8.842-19.025-15.108-40.3-19.778-60.763-2.043-8.954-5.037-18.03-6.355-27.1-1.775-12.219-2.562-24.628-4.944-36.773-1.133-5.771-.789-11.693-2.038-17.437-1.109-5.1-2.337-10.092-3.257-15.239-1.03-5.763-1.856-11.644-3.284-17.265C-1173.687,838.116-1177.5,825.683-1172.5,831.717Z" transform="translate(1713.759 -422.686)" fill="#c4b0b8" fill-rule="evenodd"/>
          <path id="Path_2995" data-name="Path 2995" d="M-1147.835,952.6c-4.819,5.6-5.168,11.188-6.653,18.331-1.16,5.587-2.724,11.143-.256,16.634,1.813,4.034,9.719,7.074,13.044,2.9,1.736-2.183,2.3-6.5,3.333-9.143,1.351-3.475,2.449-6.711,2.093-10.533-.7-7.547-4.651-12.685-9.679-17.76Z" transform="translate(1729.298 -301.171)" fill="#c4b0b8" fill-rule="evenodd"/>
          <path id="Path_2996" data-name="Path 2996" d="M-1174.24,1192.843c-.669-5.58-.387-11.772-2.047-17.133a119.786,119.786,0,0,0-4.858-11.7c-5.024-11.64-11.181-22.991-16.87-34.343-7.261-14.486-13.914-29.232-21.5-43.55-13.379-25.238-27.287-51.868-34.458-79.591a383.816,383.816,0,0,1-11.494-71.094c-1.432-21.063-2.081-42.252.34-63.285.811-7.043,2.633-14.053,4.329-20.926,1.126-4.563,2.341-9.416,4.969-13.364,4.075-6.122,9.459-6.314,15.786-3.324,9.841,4.652,16.232,13.78,23.079,21.9,10.131,12.017,20.1,24.121,30.433,35.969a452.642,452.642,0,0,1,30.383,38.153c9.526,13.69,18.532,28.594,21.857,45.191,2.4,11.987,4.5,23.174,5.013,35.45.492,11.748,1.033,23.428.579,35.168-.325,8.352.387,16.648-1.275,24.94-.725,3.614-1.124,7.084-1.621,10.714-.767,5.611-3.08,10.774-3.795,16.475a168.83,168.83,0,0,1-9.485,37.077c-3.463,9.217-5.255,18.922-8.744,28.106-2.073,5.453-2.227,9.8-5.951,14.648C-1161.286,1180.555-1168.764,1189.124-1174.24,1192.843Z" transform="translate(1649.751 -387.369)" fill="#c4b0b8" fill-rule="evenodd"/>
          <path id="Path_2997" data-name="Path 2997" d="M-1210.628,1066.211c-3.429,5.945-3.7,9.081-4.994,15.586-.928,4.652-3.332,11.513-2.062,16.328.693,2.63,2.331,5.023,4.745,5.467a9.257,9.257,0,0,0,7.235-2.064c4.307-3.9,5.1-11,4.637-16.371-.576-6.667-3.741-8.765-7.8-13.606Z" transform="translate(1684.749 -219.528)" fill="#c4b0b8" fill-rule="evenodd"/>
          <path id="Path_2998" data-name="Path 2998" d="M-1219.047,1310.557c.687-3.9.93-7.9,2.454-11.535,2.589-6.177,5.706-11.855,7.815-18.289a124.075,124.075,0,0,1,8.744-19.443c4.2-7.924,7.493-16.208,11.986-23.99,9.641-16.7,21.038-32.363,31.547-48.528,5.269-8.1,10.974-15.909,16.344-23.944,5.749-8.6,11.831-16.975,19.657-23.823,5.587-4.889,15.2-13.2,21.6-5.58,7.943,9.464,5.622,25.5,4.441,36.785-3.109,29.684-12,58.832-24.788,85.8-12.711,26.812-30,55.913-57.97,68.889-12.548,5.821-24.03,14.242-34.666,23.014-11.382,9.39-21.319,20.984-33.7,29.122-8.784,5.769-16.536,12.73-26.527,16.34-2.789,1.007-6.9,2.385-9.789.9-2.794-1.442-2.392-3.958-2.189-6.958a54.733,54.733,0,0,1,8.2-25.563c5.893-9.461,14.943-15.493,21.485-24.439,2.245-3.069,5.132-5.871,7.017-9.146,1.6-2.772,2.9-5.809,4.484-8.619,2.863-5.092,7.089-8.736,11.016-12.945,2.42-2.6,4.848-4.781,7.251-7.418,1.879-2.061,3.679-4.589,5.688-6.5C-1217.313,1293.122-1214.625,1292.453-1219.047,1310.557Z" transform="translate(1637.183 -172.006)" fill="#c4b0b8" fill-rule="evenodd"/>
          <path id="Path_2999" data-name="Path 2999" d="M-1191.948,1132.747c.734-3.365,4.943-23.574,11.121-20.68,1.689.791,3.019,5.166,3.367,6.687.806,3.544-.177,6.551-.5,10.03-.437,4.673-2.222,6.168-6.156,8.689-5.465,3.5-7.483-.1-8.56-5.88Z" transform="translate(1702.981 -186.778)" fill="#c4b0b8" fill-rule="evenodd"/>
          <path id="Path_3000" data-name="Path 3000" d="M-1162.8,1145.866c-1.9,4.948-2.951,6.687-2.014,11.375.758,3.786.046,7.569,1.576,11.145,1.882,4.395,4.551,5.3,8.77,3.092,7.246-3.793,10.778-17.841,13.265-24.717,3.088-8.552,6.113-17.736,7.014-26.838,1.281-12.924-13.6-12.333-19.688-3.965-3.674,5.055-8.979,9.5-11.43,15.335-3.846,9.152.725,16.268,4.149,24.829Z" transform="translate(1721.597 -188.128)" fill="#c4b0b8" fill-rule="evenodd"/>
        </g>
        <g id="Group_2519" data-name="Group 2519" transform="translate(0 89.588)" opacity="0.47" style="mix-blend-mode: multiply;isolation: isolate">
          <path id="Path_3001" data-name="Path 3001" d="M-1371.373,1123.374c-.273-10.863-.337-21.875-1.87-32.645-1.719-12.075-4.908-24.231-8.273-35.936-6.2-21.582-13.661-43.017-21.5-64.061-9.514-25.537-20.933-50.288-30.985-75.595-8.33-20.978-16.51-42.125-24.509-63.231a510.187,510.187,0,0,0-31.158-67.3V1290.65q.823,3.233,1.7,6.455c2.069,7.584,3.46,15.978,6.828,23.144,3.307,7.027,8.113,14.125,14.611,18.515,6.888,4.652,13.218.643,19.063-3.772,8.56-6.465,14.247-17.385,18.025-27.274,6.481-16.963,9.084-35.5,14.7-52.816,2.667-8.234,5.013-16.846,8.2-24.894,3.181-8.027,7.553-15.849,11.6-23.469,5.953-11.2,12.677-21.45,17.059-33.5,2.638-7.249,5.424-15.11,6.293-22.82C-1370.612,1141.526-1371.153,1132.1-1371.373,1123.374Z" transform="translate(1489.67 -511.483)" fill="#c4b0b8" fill-rule="evenodd"/>
          <path id="Path_3002" data-name="Path 3002" d="M-1319.507,1422.863a146.492,146.492,0,0,0,13.871-15.459c18.58-24,39.1-45.634,56.353-70.645,8.332-12.08,14.845-28.443,20.271-42.2,4.147-10.515,4.764-22.555,9.152-32.92,8.653-20.436,25.987-41.717,24.329-64.988-.411-5.755-1.371-15.672-8.091-17.21-8.4-1.921-13.166,10.626-16.509,16.2-8.97,14.953-16.887,30.643-26.23,45.354-10.38,16.346-22.316,32.033-33.387,47.977-22.349,32.181-49.613,60.413-71.646,92.855-7.792,11.472-17.065,21.7-24.636,33.228-1.71,2.605-3.363,5.216-5.012,7.814Z" transform="translate(1567.732 -227.891)" fill="#c4b0b8" fill-rule="evenodd"/>
          <path id="Path_3003" data-name="Path 3003" d="M-1386.353,1326.434c-.818-6.5-4.855-13.089-11.1-13-7.464.1-13.163,5.78-17.37,13Z" transform="translate(1543.46 -131.462)" fill="#c4b0b8" fill-rule="evenodd"/>
          <path id="Path_3004" data-name="Path 3004" d="M-1235.471,1321.834c-.884-13.572.636-25.247,1.457-38.662.72-11.776-.717-23.342-2.049-35.039-3.432-30.124-11.467-58.355-23.009-86.347-14.7-35.644-31.067-70.994-40.456-108.506-7.129-28.479-13.63-57.056-20.106-85.681-6.1-26.951-16.358-55.542-15.547-83.477.2-6.874,1.109-16.547,8.744-18.941,12.132-3.805,26.058,17.277,31.169,24.676,15.447,22.359,29.06,46.279,43.6,69.25,6.961,11,13.349,22.435,21.373,32.721a246.7,246.7,0,0,1,26.047,41.116c9.353,18.2,21.072,35.962,26.238,55.932,9.968,38.528,17.953,77.726,25.351,116.787,6.637,35.046,9.468,90.22-27.144,109.907C-1195.407,1323.962-1222.463,1327.947-1235.471,1321.834Z" transform="translate(1600.656 -453.905)" fill="#c4b0b8" fill-rule="evenodd"/>
          <path id="Path_3005" data-name="Path 3005" d="M-1233.534,1150.259c-12.625,1.447-15.83,1.75-21.495,12.376-3.6,6.745-5.819,21.586-1.323,28.723,9,14.3,25.648,4.393,33.558-5.068,6.915-8.27,17.786-20.392,11.875-30.959-2.525-4.511-4.008-5.57-8.564-7.33-4.645-1.792-15.542-1.443-18.422-4.661Z" transform="translate(1655.53 -253.69)" fill="#c4b0b8" fill-rule="evenodd"/>
          <path id="Path_3006" data-name="Path 3006" d="M-1409.684,734.225c-7.323-16.557-16.738-33.659-28.476-47.547-11.336-13.409-20.586-27.819-33.178-40.247a222.042,222.042,0,0,1-16.469-18.551c-.607-.746-1.236-1.469-1.863-2.2V740.331c8.466,7.595,17.115,14.947,25.949,22.22,8.956,7.371,20.055,19.034,31.272,23.072,12.611,4.54,20.45,4.754,27.491-6.713C-1395.973,764.287-1403.188,748.915-1409.684,734.225Z" transform="translate(1489.67 -625.684)" fill="#c4b0b8" fill-rule="evenodd"/>
          <path id="Path_3007" data-name="Path 3007" d="M-1460.421,1337.474c-.825-6.5-3.281-12.728-6.158-18.937-3.85-8.311-11.2-24.728-23.079-19.446l-.012.007v38.376Z" transform="translate(1489.67 -142.503)" fill="#c4b0b8" fill-rule="evenodd"/>
          <path id="Path_3008" data-name="Path 3008" d="M-1172.035,1010.87c-13.012,15.211-21.835,31.683-21.65,52.277.043,4.79-.871,9.5,3.87,12.254,3.915,2.27,7.433-.858,10.123-4.04,3.577-4.236,7.124-12.178,8.779-17.566a168.263,168.263,0,0,0,4.176-18.054c.643-3.425,1.4-8.136.1-11.326C-1167.823,1021.479-1170.456,1018.48-1172.035,1010.87Z" transform="translate(1702.337 -348.885)" fill="#c4b0b8" fill-rule="evenodd"/>
          <path id="Path_3009" data-name="Path 3009" d="M-1382.587,668c-6.034,4.194-6.67,9.609-7.675,17.069-2.124,15.749.557,33.08,4.621,48.341,3.614,13.574,9.635,28.622,20.27,38.294,4.76,4.331,11.43,9.286,18.229,8.114,11.687-2.011,19.013-20.6,19.455-31.219.555-13.345-5.993-28.032-9.478-40.71a89.443,89.443,0,0,0-16.765-32.255c-2.774-3.327-5.381-7.094-8.9-9.624-3.3-2.368-5.778-6.01-9.269-8-3.334-1.9-8.119-4.125-11.685-2.236a13.418,13.418,0,0,0-4.982,5.132C-1390.589,664.522-1388.547,668.593-1382.587,668Z" transform="translate(1560.57 -604.575)" fill="#c4b0b8" fill-rule="evenodd"/>
        </g>
        <g id="Group_2520" data-name="Group 2520" transform="translate(131.701 8.267)" style="mix-blend-mode: soft-light;isolation: isolate">
          <path id="Path_3010" data-name="Path 3010" d="M-1361.584,1164.286a4.208,4.208,0,0,1,.136-2.642,5.051,5.051,0,0,1,1.035-1.043c1.727-1.3,4.121.694,5.266,1.707,3.169,2.8,5.8,7.132,5.8,11.748,0,2.956-1.242,7.04-3.817,9.04-3.559,2.767-8.392,1.812-11.716.088-3.106-1.614-6.805-4.644-6.74-8.662a7.05,7.05,0,0,1,1.242-4.2c.718-.938,1.77-1.523,2.573-2.392,1.073-1.16,1.45-2.667,2.992-3.374A5.1,5.1,0,0,1-1361.584,1164.286Z" transform="translate(1442.801 -160.27)" fill="#c4b0ff" fill-rule="evenodd"/>
          <path id="Path_3011" data-name="Path 3011" d="M-1354.121,1172.731a2.466,2.466,0,0,0-1.272,2.21,1.933,1.933,0,0,0,1.043,2.324,3.278,3.278,0,0,0,4.26-1.911,3.392,3.392,0,0,0-.852-3.157,2.676,2.676,0,0,0-3.412-.155Z" transform="translate(1454.429 -152.126)" fill="#c4b0ff" fill-rule="evenodd"/>
          <path id="Path_3012" data-name="Path 3012" d="M-1379.96,1232.876c-.7-1.822-.94-2.461-.478-4.358a2.626,2.626,0,0,1,1.437-2.056,11.546,11.546,0,0,1,8.121-.4,5.859,5.859,0,0,1,3.485,3.705c.411,1.456.033,3.477-.074,5.025-.1,1.445-.308,2.884-.552,4.331-.423,2.513-1.241,5.029-3.941,5.955-2.387.818-5.511.366-7.139-1.33a9.64,9.64,0,0,1-2.248-4.461C-1381.866,1237.59-1382.49,1236.234-1379.96,1232.876Z" transform="translate(1435.474 -113.317)" fill="#c4b0ff" fill-rule="evenodd"/>
          <path id="Path_3013" data-name="Path 3013" d="M-1379.94,1222.89a9.007,9.007,0,0,0,3.449,1.584c.4-.51,1.169-.294,1.493-1.011.466-1.028-.921-1.837-1.493-2.3a3.707,3.707,0,0,0-2.743-.756c-.359.05-1.958.265-1.407.9Z" transform="translate(1436.236 -117.011)" fill="#c4b0ff" fill-rule="evenodd"/>
          <path id="Path_3014" data-name="Path 3014" d="M-1395.665,1143.045c.507-1.756,1.045-3.693,3.272-4.1,2.071-.373,3.671,1.548,4.3,3.2.335.88.737,1.873.1,2.764-.648.909-1.587,1.708-2.319,2.561-1.751,2.04-1.244,5.059-4.564,5.542a4.836,4.836,0,0,1-4.115-1.492c-1.435-1.993-.44-4.908.473-7.192Z" transform="translate(1422.617 -175.559)" fill="#c4b0ff" fill-rule="evenodd"/>
          <path id="Path_3015" data-name="Path 3015" d="M-1381.985,884.958c-.984,1.5-3.023,3.877-2.4,6.775.5,2.351,1.629,2.891,2.918,4.336,2.822,3.164,6.13,5.981,8.2,1.425.911-2.006.689-6.182-.423-8.813-.98-2.322-4.118-5.793-5.78-4.455Z" transform="translate(1433.543 -358.786)" fill="#c4b0ff" fill-rule="evenodd"/>
          <path id="Path_3016" data-name="Path 3016" d="M-1329.373,1019.026c2.286-5.324,6.347-8.253,10.734-10.353,2.794-1.337,6.276-3.508,9.286-.641,7.055,6.72-2.665,24.408-6.023,29.562-2.767,4.243-6.672,8.229-10.738,10.295-2.49,1.265-8.16,2.411-10.869.246-3.494-2.791-4.013-8.772-3.059-13.012,2.2-9.777,9.435-13.706,13.85-21.072Z" transform="translate(1465.19 -270.617)" fill="#c4b0ff" fill-rule="evenodd"/>
          <path id="Path_3017" data-name="Path 3017" d="M-1334.9,1016.846c-.361-1.01-2.194-5.226-2.263-7.122-.048-1.358-.15-3.475.522-4.42.926-1.3,2.652-1.1,3.92-.595a3.917,3.917,0,0,1,2.275,2.58,8.454,8.454,0,0,1-.469,3.178,23.363,23.363,0,0,1-1.7,4.493,10,10,0,0,1-.99,2.023c-.7.877-1.366.339-2.155.576Z" transform="translate(1467.536 -272.271)" fill="#c4b0ff" fill-rule="evenodd"/>
          <path id="Path_3018" data-name="Path 3018" d="M-1318.1,995.515c.827.732,1.657,1.464,2.489,2.188.7-.865,1.878-1.2,1.823-2.784a8.258,8.258,0,0,0-1.756-3.865c-1-1.014-2.112-1.273-3.021-.452-1.064.961-.789,2.738-.244,4.324Z" transform="translate(1480.403 -282.479)" fill="#c4b0ff" fill-rule="evenodd"/>
          <path id="Path_3019" data-name="Path 3019" d="M-1349.04,903.949c.851-.77,1.549-1.167,2.719-.192a6.632,6.632,0,0,1,2.236,6.1c-.6,3.076-2.834,6.924-5.443,6.861-1.641-.041-4.242-2.444-4-5a20.469,20.469,0,0,1,.65-4.13,6.07,6.07,0,0,1,3.559-3.561Z" transform="translate(1455.79 -344.95)" fill="#c4b0ff" fill-rule="evenodd"/>
          <path id="Path_3020" data-name="Path 3020" d="M-1367.675,578.366c-4.206,6.122-5.866,10.654-6.264,18.049a63.228,63.228,0,0,0,3.241,22.076c2.085,5.745,6.981,13.572,12.379,16.641,6.268,3.564,13.588,5.665,20.139,8.664,5.955,2.726,10.6,6.309,17.174,7.83a43.587,43.587,0,0,0,18.271-.034c9.174-1.894,21.852-7.007,27.372-14.919,5.041-7.225,2.571-11.353-1.882-18.133-6.333-9.647-20-13.874-30.86-15.521-5.491-.834-10.544-.861-15.909-2.757-6.206-2.191-12.283-4.764-18.324-7.383-5.594-2.427-10.64-5.938-16.508-7.76C-1361.553,584.278-1369.473,581.322-1367.675,578.366Z" transform="translate(1441.094 -578.366)" fill="#c4b0ff" fill-rule="evenodd"/>
          <path id="Path_3021" data-name="Path 3021" d="M-1369.618,915.094c-10.975,4.058-18.68,22.608-19.534,38.591-1.217,22.794,11.451,48.274,24.947,64.414,11.321,13.541,26.8,20.763,39.291,17.021,3.35-1,5.972-3.441,9.246-4.534,2.506-.837,4.109-1.047,3.906-5.4-.509-10.819-5.682-25.152-9.854-35.012-4.594-10.844-9.6-22.938-15.861-32.32-5.622-8.419-12.025-15.821-17.755-24.162-2.917-4.243-5.328-8.122-8.74-11.528C-1365.681,920.455-1368.278,915.068-1369.618,915.094Z" transform="translate(1430.144 -336.389)" fill="#c4b0ff" fill-rule="evenodd"/>
          <path id="Path_3022" data-name="Path 3022" d="M-1380.848,984.007c2.762.316,3.856-.268,5.85,2.514a14.4,14.4,0,0,1,2.224,7.663c.134,3.2-1.049,8.449-3.714,8.533-4.745.148-11.5-15.108-5.967-16.557Z" transform="translate(1433.523 -286.867)" fill="#c4b0ff" fill-rule="evenodd"/>
          <path id="Path_3023" data-name="Path 3023" d="M-1407.382,1179.5c-1.459,1.629-5.266,5.233-5.611,7.511-.272,1.786.744,3.454,2.071,5.166,2.452,3.164,4.907,4.264,8.794,4.633,2.262.217,4.662.836,6.656.114,11.466-4.147-4.106-19.132-11.91-17.423Z" transform="translate(1413.038 -146.483)" fill="#c4b0ff" fill-rule="evenodd"/>
        </g>
        <ellipse id="Ellipse_594" data-name="Ellipse 594" cx="362.475" cy="175.123" rx="362.475" ry="175.123" transform="matrix(0.006, -1, 1, 0.006, 483.297, 1049.79)" fill="url(#radial-gradient-3)" style="mix-blend-mode: screen;isolation: isolate"/>
      </g>
      <g id="Group_2526" data-name="Group 2526" transform="translate(53.183 573.556)">
        <path id="Path_3024" data-name="Path 3024" d="M-150.87,573.556a726.245,726.245,0,0,0-106.889,71.082c-9.983,8.026-19.792,16.346-29.328,24.9q-21.4,19.018-40.884,39.695a711.34,711.34,0,0,0-90.9,116.9c-9.54,15.062-18.394,30.38-26.706,46.174l-.1.057a739.1,739.1,0,0,0-55.5,136.171A733.356,733.356,0,0,0-530.65,1177.49a701.052,701.052,0,0,0,.931,91.8c.892,13.4,2.236,26.673,3.893,40.023a721.473,721.473,0,0,0,62.717,215.155c56.962,121.033,141.129,218.286,241.434,288.749,3.295,2.43,6.687,4.8,10.021,7.077q25.568,17.326,52.306,32.367,4.919,2.758,9.94,5.457H111.265V573.556Z" transform="translate(635.211 -573.556)" fill-rule="evenodd" fill="url(#radial-gradient-4)"/>
        <g id="Group_2522" data-name="Group 2522" transform="translate(104.561)" opacity="0.5" style="mix-blend-mode: multiply;isolation: isolate">
          <path id="Path_3025" data-name="Path 3025" d="M-75.412,640.908c-27.219-16.416-54.38-32.733-80.393-50.922a167.88,167.88,0,0,0-29.629-16.43h-50.63a726.246,726.246,0,0,0-106.889,71.082c.725.1,1.292.165,2.016.268,29.277,4.185,57.823,15.438,87.345,18.02,18.755,1.65,37.153,4.04,53.54,14.254,11.082,6.85,23.241,13.727,33.393,21.921,9.121,7.345,15.6,17.183,24.286,24.916,11.645,10.5,23.576,16.313,32.795,29.44C-101,765.5-91.115,775.711-83.754,788.608c4.492,7.827,25.009,30.858,13.006,39.281-3.423,2.289-18.241.567-21.893-1.121-16.583-7.179-33.75-21.179-47.822-31.964-26.353-20.113-50.221-42.754-77.759-61.5-27.694-18.79-60.344-34.515-91.53-46.2-21.046-7.992-40.968-13.859-62.53-17.564q-21.4,19.018-40.884,39.695c9.665,4.9,19.285,10.625,29.428,14.314,12.037,4.427,24.337,7.5,36.636,11.247,35.209,10.63,69.681,20.235,102.656,36.962,12.634,6.331,25.162,13.385,37.4,20.615,12.663,7.505,23.174,17.877,35.936,25.326,22.638,13.153,44.675,27.988,66.442,42.584,26.876,18.08,51.125,45.406,73.6,68.607,19.137,19.8,38.523,40.284,57.142,61.375V726.226c-10.148-10.64-18.551-23.341-29.5-33.8C-24.765,672.265-50.477,656.153-75.412,640.908Z" transform="translate(615.846 -573.556)" fill="#c4b0b8" fill-rule="evenodd"/>
          <path id="Path_3026" data-name="Path 3026" d="M75.246,1056.352c-38.538-50.183-79.1-99.039-126.021-141.536C-63.956,902.84-78.829,894.517-93.138,884c-17.019-12.627-32.227-26.456-50.691-37.036-15.086-8.462-29.986-18.628-45.528-26.29-18.413-9.15-38.519-13.981-57.708-21.079-23.978-8.911-45.859-23.7-69.377-34.083-14.12-6.38-27.773-12.637-42.233-18.021-17.1-6.476-34.4-18.008-52.478-20.986-13.933-2.245-29.017-4.869-43.74-5.984-9.54,15.062-18.394,30.38-26.706,46.174,12.235,1.392,23.083,4.929,36.887,8.975,13.763,4.2,27.431,4.879,41.7,6.794,12.506,1.629,23.306,6.654,34.833,11.118a235.316,235.316,0,0,1,58.4,33.013,549.426,549.426,0,0,0,72.7,47.778c32.4,18,68.052,29.823,100.907,47.019,29.656,15.373,60.505,33.888,85.254,56.673,11.936,10.989,21.83,22.786,34.494,33.211,15.218,12.5,26.348,30.2,37.309,46.273,10.111,14.856,21.856,28.213,32.791,42.446,7.588,9.925,14.472,20.369,21.581,30.688Z" transform="translate(566.669 -467.944)" fill="#c4b0b8" fill-rule="evenodd"/>
          <path id="Path_3027" data-name="Path 3027" d="M110.818,1262.08c-27.484-28.648-55.757-57.285-84.358-84.724C-24.389,1128.6-65.3,1070.4-117.533,1023.124c-22.978-20.912-45.005-43.582-69.5-62.8-22.706-17.757-50.345-29.943-74.077-46.3a471.116,471.116,0,0,0-72.094-40.7c-19.513-8.765-37.779-19.462-57.706-27.582-14.907-5.914-30.315-7.287-45.127-12.594a110.813,110.813,0,0,0-45.365-6.484c-6.367.449-13.242.266-20.216.143A733.358,733.358,0,0,0-531.1,995.76c33.377,18.082,61.513,47.49,95.225,65.24,30.2,15.847,56.931,38.391,84.793,58.139,29.112,20.737,57.36,41.587,84.791,64.644a349.5,349.5,0,0,1,49.561,50.838c7.072,8.822,12.25,19.826,18.121,29.756,6.976,11.8,16.708,24.22,21.5,37.043,11.355,31.1,25.083,58.811,42.173,87.716,12.73,21.531,25.6,42.848,38.072,64.4,10.325,17.911,24.2,32.4,34.835,50.391,11.585,19.821,22.911,37.406,28.936,59.717,4.46,16.071,4.48,25.082,1.028,40.79,6.979,8.213,13.517-.031,17.391-5.372,5.457-7.6,6.924-19.486,5.4-29.466-1.827-11.393-7.244-18.537-11.137-28.71-1.9-5.243-1.342-10.351-3.6-15.517-3.631-7.938-6.708-13.814-9.454-22.275-8.028-24.576-31.547-37.873-44.062-59.266-5.773-9.989-11.937-19.744-17.514-29.849a69.977,69.977,0,0,1-7.065-15.99c-2.531-8.322-2.853-9.989-.2-17.4,7.182-20.168,32.322-24.55,44.27-6.137,5,7.789,12.3,17.669,15.067,26.384,4.223,13.426,8,28.572,14.639,41.369,5.262,10.023,13.558,29.665,22.366,36.931,2.552,2.073,8.729,3.994,12.1,4.525,9.569,1.375,14.6,1.583,23.918,5.895a132.858,132.858,0,0,1,45.49,35.2c11.334,13.335,15.657,35.458,28.233,47.528a22.892,22.892,0,0,0,7.038,4.745Z" transform="translate(531.098 -391.826)" fill="#c4b0b8" fill-rule="evenodd"/>
          <path id="Path_3028" data-name="Path 3028" d="M-490.481,1057.383c14.253,13.333,32.038,22.323,46.506,35.8,12.714,11.855,23.382,25.185,36.373,36.612,32.487,28.692,62.155,63.164,88.828,97.284,20.519,25.949,37.328,49.448,49.372,80.142,10.483,26.707,20.331,51.668,27.359,79.489,7.736,30.588,19.644,57.914,20.4,89.71.308,13.087-1.634,25.513-1.4,38.248q.121,3.908.538,7.643c3.295,2.43,6.687,4.8,10.021,7.077q25.568,17.326,52.306,32.367,4.919,2.758,9.94,5.457h6.971c-.944-5.62-2.066-11.295-3.339-17.064-4.948-22.284-7.385-45.256-14.041-67.062-7.308-23.808-18.085-47.423-27-70.812-22.11-58.046-49.964-112.564-75.4-169.044-14.619-32.358-30.6-65.9-51.194-95.12-22.632-32-47.074-65.711-77.331-91.078-7.677-6.476-15.858-13.581-23.949-19.412-8.578-6.206-19.14-8.586-27.915-14.675-7.644-5.3-14.828-12.065-22.2-17.793-10.447-8.021-14.887-9.244-26.571-13.747-12.895-4.98-24.669-10.759-38.347-13.02.892,13.4,2.236,26.673,3.893,40.023C-513.813,1030.708-502.981,1045.665-490.481,1057.383Z" transform="translate(531.488 -282.646)" fill="#c4b0b8" fill-rule="evenodd"/>
        </g>
        <g id="Group_2523" data-name="Group 2523" transform="translate(112.408 26.155)" opacity="0.65" style="mix-blend-mode: multiply;isolation: isolate">
          <path id="Path_3029" data-name="Path 3029" d="M-100.077,1178.032a238.623,238.623,0,0,0-13.086-21.323c-12.273-17.808-27.1-35.967-44.043-49.622-13.087-10.547-29.773-21.469-47.336-20.326-10.633.694-19.094,7.058-25.609,14.929-8.858,10.7-8.815,22.158-5.152,35.216,4.864,17.349,13.366,33.465,23.829,48.118,3.795,5.314,8.091,10.262,11.889,15.571,5.183,7.245,9.313,15.244,13.862,22.892,4.489,7.547,9.169,14.679,12.034,23.043,2.645,7.722,5.372,15.024,8.634,22.512a137.474,137.474,0,0,0,19.616,31.93c7.333,9.148,15.5,18.276,23.452,26.91,4.735,5.142,12.73,10.709,19.675,11.86a12.834,12.834,0,0,0,2.234.163Z" transform="translate(734.146 -230.975)" fill="#c4b0b8" fill-rule="evenodd"/>
          <path id="Path_3030" data-name="Path 3030" d="M-154.768,1110.908a6.8,6.8,0,0,0-4.51.263c-2.624,1.167-2.38,1.868-2.016,4.977.533,4.539,3.3,10,6.526,14.1Z" transform="translate(788.837 -213.751)" fill="#c4b0b8" fill-rule="evenodd"/>
          <path id="Path_3031" data-name="Path 3031" d="M-194.538,1087.911a20.052,20.052,0,0,1-8.514-.086,15.608,15.608,0,0,0-1.215-1.786,63.435,63.435,0,0,1-5.781-5.831c-4.816-5.343-7.521-12.09-11.363-18.1-6.758-10.571-33.79-22.055-18.107-35.742,13.94-12.164,31.394,6.026,40.858,15.461,4.678,4.663,8.684,9.463,9.956,16.071.806,4.188,2.446,8.7,2.43,13.013C-186.29,1075.637-187.974,1084.172-194.538,1087.911Z" transform="translate(729.32 -277.231)" fill="#c4b0b8" fill-rule="evenodd"/>
          <path id="Path_3032" data-name="Path 3032" d="M-406.033,972.308c-1.949-7.289-2.906-14.373-6.125-21.172-5.238-11.068-12.494-22.161-21.333-30.708-10.58-10.229-26.958-19.044-42.2-17.408-6.259.674-15.679,2.8-17.475,9.92-2.6,10.3,6.983,23.712,12.061,31.729,7.662,12.1,17.425,21.49,28.471,30.38,7.046,5.673,13.931,11.594,21.044,17.171,5.177,4.057,10.334,7.3,16.885,8.493,5.218.954,11.437.581,15.193-3.908,2.617-3.128,2.344-10.054,1.72-13.744A14.982,14.982,0,0,0-406.033,972.308Z" transform="translate(550.192 -363.096)" fill="#c4b0b8" fill-rule="evenodd"/>
          <path id="Path_3033" data-name="Path 3033" d="M-383.729,1119.883a133.26,133.26,0,0,0-11.329-12.573c-1.043,2.181-3.169.607-4.805,2.215-2.14,2.1-1.334,7.364-.93,9.9.834,5.245,3.7,9.042,6.431,13.656,3.573,6.046,6.648,13.232,11.881,18.1,4.795,4.465,10.037,5.556,10.028-2.194-.01-10.992-5.931-20.068-11.276-29.107Z" transform="translate(616.538 -216.149)" fill="#c4b0b8" fill-rule="evenodd"/>
          <path id="Path_3034" data-name="Path 3034" d="M-266.436,835.794c-2.492,1.566-4.611,3.293-7.524,3.489-2.592.177-5.757-.492-8.327-.8a146.889,146.889,0,0,1-27.637-6.57c-5.551-1.839-10.559-5.115-15.569-8.053-5.2-3.049-11.054-5.733-15.593-9.741-5.847-5.164-12.444-11.6-16.251-18.456-4.688-8.452-.871-15.885,7.149-20.847,6.056-3.747,14.211-1.7,20.866-.8,8.715,1.181,17.09,4.415,25.449,7.1,17.856,5.747,34.975,13.7,52.327,20.763,5.273,2.145,20.962,9.564,18.4,17.655-1.081,3.412-6.08,7.5-8.652,9.741-3.219,2.8-7,5.331-10.353,8C-259.038,842.76-270.611,845.97-266.436,835.794Z" transform="translate(646.652 -456.646)" fill="#c4b0b8" fill-rule="evenodd"/>
          <path id="Path_3035" data-name="Path 3035" d="M-80.331,722.953q-2.042-4.055-4.061-8.1c-5.627-11.295-10.705-23.112-18.276-33.319a178.428,178.428,0,0,0-14.031-16.05c-7.313-7.7-17.265-12.185-26.886-16.284-17.831-7.6-35.651-14.756-52.834-23.789-12.444-6.543-23.225-13.1-37.064-15.323-20.489-2.391-34.008,7.153-31.267,21.881,1.273,6.837,5.96,15.275,9.592,21.118,3.755,6.043,8.284,11.532,12.154,17.506a186.635,186.635,0,0,0,27.563,33.578c10.557,9.932,21.519,19.5,32.5,28.972,12.391,10.693,23.463,22.6,35.525,33.645,14.665,13.429,30.239,26.085,45.474,38.875,6.312,5.3,13.177,9.843,19.766,14.775.624.466,1.236.952,1.842,1.445Z" transform="translate(714.4 -573.722)" fill="#c4b0b8" fill-rule="evenodd"/>
          <path id="Path_3036" data-name="Path 3036" d="M-248.036,607.7c-1.983,1.059-4.656,3.16-7.117,2.776-1.925-.3-4.233-2.456-5.869-3.47-3.415-2.114-6.051-3.293-8.254-6.732-3.3-5.144-1.26-9.186,4.429-11.188,3.159-1.11,7.242,1.036,10.356,1.956,4.944,1.461,10.752,8.7,10.179,14.455Z" transform="translate(710.262 -588.775)" fill="#c4b0b8" fill-rule="evenodd"/>
          <path id="Path_3037" data-name="Path 3037" d="M-230.267,1096.3c-5.41-7.5-15.5-16.584-15.751-26.355-.079-3.061.227-7.725,1.411-10.657,2.743-6.783,8.462-6.916,13.36-2.055,7.777,7.718,13.692,32.153-.122,37.2Z" transform="translate(728.105 -254.561)" fill="#c4b0b8" fill-rule="evenodd"/>
          <path id="Path_3038" data-name="Path 3038" d="M-266.165,1189.453c10.736-25.345,6.383-57.168-11.551-78.716-8.942-10.745-20.9-19.142-32.116-27.359-3.109-2.277-6.1-5.013-9.982-5.848-2.081-.447-4.011.058-6.067-.772-4.948,6.118-4.628,21.029-2.238,28.419,2.306,7.122,8.335,17.035,13.036,22.474,3.478,4.026,8.3,6.529,11.425,10.939a167.742,167.742,0,0,1,16.432,28.361c2.322,5.371,2.743,10.884,7.161,15.124,3.209,3.08,7.632,4.009,11.324,6.313C-266.914,1186.179-267.175,1182.551-266.165,1189.453Z" transform="translate(667.908 -238.104)" fill="#c4b0b8" fill-rule="evenodd"/>
          <path id="Path_3039" data-name="Path 3039" d="M-322.327,1070.67c-11.049,5.525-11.6,2.975-17.052-7.4-2.695-5.127-1.741-11.7,4.977-13.232,4.08-.931,7,1.922,9.951,4.295,5.066,4.07,7.44,6.95,5.85,14.131Z" transform="translate(660.016 -257.433)" fill="#c4b0b8" fill-rule="evenodd"/>
          <path id="Path_3040" data-name="Path 3040" d="M-152.977,754.147a14.049,14.049,0,0,1-5.108,7.962c-6.512-2.956-11.85-3.442-17.966-8.3A70.6,70.6,0,0,1-188.3,740.968c-1.994-2.753-3.681-7.925-4.331-11.259-.772-3.968.058-4.334,2.865-4.834,2.31-.411,6.7,1.322,9.114,1.645,4.779.641,8.521.167,12.656,3.075,8.571,6.027,13.51,13.477,18.741,22.349Z" transform="translate(766.284 -491.017)" fill="#c4b0b8" fill-rule="evenodd"/>
          <path id="Path_3041" data-name="Path 3041" d="M-262.546,1112.033c3.075-4.223,2.894-7.772,1.064-12.711-1.639-4.424-5.29-8.251-8.249-11.87-5.6-6.85-13.558-12.164-20.316-17.779-8.364-6.953-17.243-13.534-25.15-21.007-8.55-8.079-15.67-17.22-23.012-26.357-11.382-14.168-21.96-28.888-33.75-42.711a90.661,90.661,0,0,0-11.382-11.187c-3.025-2.514-4.886-5.661-7.67-8.347-3.229-3.111-6.3-6.2-10.736-6.828-3.217-.457-5.94-.1-8.277,2.413-2.129,2.291-2.743,6.044-4.919,8.595-3.252,3.809-6.41,7.309-11.07,9.433-4.575,2.085-9.282,1.564-13.9.364-5.589-1.456-11.424-3.485-17.143-3.81-3.721-.213-5.807.486-2.329,3.984,3.748,3.776,9.195,6.727,13.837,9.638,9.122,5.716,18.614,10.631,27.551,16.734,4.975,3.4,9.418,7.289,14.261,10.834,4.544,3.324,9.268,6.522,13.586,10.159,8.612,7.254,18.236,13.56,27.3,20.256,14.8,10.929,29.832,21.649,44.347,32.97a141.4,141.4,0,0,0,21.648,14.29c4.145,2.117,8.784,3.411,12.836,5.666,3.448,1.92,5.74,5.188,8.509,7.864,1.574,1.521,3.521,2.2,5.479,3.131,4.183,1.982,8.835,3.681,12.013,7.148C-257.732,1112.811-257.451,1112.718-262.546,1112.033Z" transform="translate(573.509 -326.991)" fill="#c4b0b8" fill-rule="evenodd"/>
          <path id="Path_3042" data-name="Path 3042" d="M-40.775,1252.631c.146,1.548,1.863,8.115-.167,10.212-1.591,1.646-3.313.765-4.767-.412-2.382-1.93-4.386-5.259-6.328-7.61-3.736-4.521-7.557-8.744-11.5-13.077-3.246-3.566-6.759-6.8-9.961-10.422-3.955-4.468-7.583-9.471-11.783-13.692-3.808-3.826-7.454-7.264-10.887-11.448-4.137-5.037-9.241-8.909-13.187-14.172-8.179-10.911-16.042-22.232-23.581-33.6a143.313,143.313,0,0,0-27.97-30.885c-4.879-4.051-9.684-8.227-14.7-12.109-4.377-3.387-9.354-5.6-13.964-8.624-10.081-6.608-21.452-11.9-30.933-19.328-10.492-8.213-19.448-17.8-28.474-27.539-12.835-13.842-25.293-28.02-38.176-41.822-14.825-15.882-30.186-31.459-45.682-46.684-6.734-6.613-14.823-14.342-22.88-19.272-6.663-4.077-13.352-8.552-20.185-12.295-5.357-2.934-10.669-5.89-15.964-8.93-5.2-2.987-10.851-5.121-16.122-8.019-4.166-2.291-7.849-5.464-12.589-6.513a135.35,135.35,0,0,1-13.823-3.669c-3.186-1.055-6.433-1.54-9.629-2.41-2.834-.772-4.563-1.927-7.593-1.83a43.658,43.658,0,0,0-8.227.9c-4.037.847-8.5-.347-12.616.067-1.193.119-2.5.691-3.649.749-2.141.108-4.274-.822-6.367-1.146s-4.147-.18-6.228-.464c-3.052-.418-5.788-2.04-8.83-2.794-4.04-1-7.686-2.55-11.8-3.42-4.243-.9-7.5.232-11.412,1.533-.464-.736-1.732-.973-2.049-1.4-.882-1.193-.44-.8-.595-2.133a24.011,24.011,0,0,1,.629-7.914c1.786-8.143,4.788-17.777,9.177-24.97,2.832-4.644,6.646-10.16,11.872-12.388,3.406-1.45,5.945-.856,8.939,1.287,4.793,3.432,8.43,8.33,13.34,11.62,5.665,3.793,11.406,7.569,17.1,11.334,3.556,2.351,7.369,3.87,10.8,6.452a51.618,51.618,0,0,0,11.475,6.759c7,3,13.77,6.422,21.1,8.545,10.972,3.176,21.94,7.476,32.624,11.546,8.5,3.238,16.933,6.163,25.052,10.325,6.182,3.166,12.254,8.139,17.325,12.869,3.484,3.248,5.948,7.18,9.076,10.745,3.43,3.906,6.788,7.62,9.88,11.815,5.039,6.835,9.788,13.641,14.381,20.756a76.372,76.372,0,0,0,12.469,14.658c3.915,3.475,7.23,7.263,11.965,9.547,3.795,1.829,7.338,4,11.046,5.979,5.211,2.788,10.944,4.838,16.012,7.847,6.558,3.894,13.651,8.433,20.989,10.566,3.872,1.124,20.209,6.021,19.685-1.871-.361-5.434-5.912-11.772-9.746-15.378-1.921-1.806-4.694-2.585-6.959-3.906-2.245-1.31-4.632-2.26-6.909-3.494-4.011-2.172-7.3-5.7-10.542-8.846-6.433-6.252-13.227-12.028-19.592-18.327-6.969-6.893-15.064-12.628-21.83-19.743-13.452-14.141-25.757-29.933-42.4-40.417-7.93-4.991-15.024-11.178-22.835-16.358-7.246-4.807-14.985-8.768-22.345-13.343-10.9-6.773-20.905-14.313-32.434-19.886-4.589-2.22-9.327-2.348-14.292-2.865a129.647,129.647,0,0,0-13.818-.564c-4.9.02-9.808-.419-14.216-2.63-3.116-1.56-6.986-3.487-9.384-6.041a5.46,5.46,0,0,1,3.154-.162c3.013.4,6.007,1.213,9.061,1.578,4.724.565,8.947.878,13.151-1.4a24.079,24.079,0,0,1,13.1-2.576,124.879,124.879,0,0,1,31.621,6.147c5.929,1.961,11.252,3.669,16.389,7.254,5.02,3.5,9.736,7.445,14.675,11.058,9.958,7.282,19.549,15.041,29.16,22.8,10.4,8.388,19.365,18.38,28.952,27.646,4.513,4.362,8.438,9.287,13,13.6,5.884,5.555,11.7,11.168,17.561,16.75,9.423,8.982,21.1,16.207,32.408,22.591,5.061,2.86,10.205,5.579,15.191,8.569,6.323,3.789,12.19,8.27,18.619,11.886a290.2,290.2,0,0,1,32.03,21.073c9.922,7.457,17.724,17.877,25.975,27.072,8.359,9.317,16.746,18.606,24.813,28.177,9.329,11.066,19.207,21.326,27.762,33.058,6.833,9.368,14.148,18.356,20.5,28.049,3.7,5.644,7.88,10.506,10.045,16.988,1.628,4.874,2,9.753,2.3,14.83,1.031,17.678,4.393,36.952,13.426,52.412,2.633,4.5,4.441,9.425,6.983,14a60.558,60.558,0,0,1,4.862,10.88C-39.495,1251.081-39.661,1254.242-40.775,1252.631Z" transform="translate(528.707 -400.005)" fill="#c4b0b8" fill-rule="evenodd"/>
          <path id="Path_3043" data-name="Path 3043" d="M-216.141,1016.116c-1.114,2.815-2.217,7.163-4.84,9.255-3.284,2.621-8.787.261-11.872-1.691-6.436-4.072-11.314-11.666-16.748-16.949-7.16-6.964-14.727-13.544-22.1-20.28-6.9-6.3-13.534-12.5-19.489-19.737-2.477-3.009-6.7-7.333-5.757-11.621,1.961-8.887,11.054-4.862,16.865-2.478,10.64,4.369,18.962,13.419,26.872,21.493,5.658,5.769,10.973,11.42,16.1,17.7,3.714,4.552,7.665,8.33,11.764,12.47,1.653,1.669,2.623,3.6,4.173,5.28C-220.189,1010.624-216.208,1012.8-216.141,1016.116Z" transform="translate(691.419 -329.475)" fill="#c4b0b8" fill-rule="evenodd"/>
          <path id="Path_3044" data-name="Path 3044" d="M-475.491,1014.922c6.211.818,10.391,3.2,16.114,6.036,10.968,5.431,20.453,13.787,31.085,19.817a120.015,120.015,0,0,1,28.316,21.964c6.376,6.911,11.444,14.639,17.078,22.086,3.319,4.391,5.7,9.375,9.043,13.775,3.643,4.79,6.522,9.97,9.6,15.133,3,5.027,5.577,10.128,8.127,15.392,3.064,6.325,6.84,12.25,9.327,18.857,1.261,3.351,4.824,11.513,1.042,14.038-3.607,2.408-7.84-.49-10.968-2.377a90.516,90.516,0,0,1-20.2-17.074c-8.332-9.215-16.937-18.3-25.447-27.357-7.225-7.689-14.612-15.282-22.162-22.651-3.485-3.4-7.163-6.031-10.944-9.071-3.886-3.125-7.2-6.668-11.362-9.471-7.144-4.814-12.738-11.253-19.327-16.746-2.971-2.477-5.886-4.989-8.815-7.519-3.205-2.767-6.936-4.267-10.348-6.7-5.888-4.2-12.627-8.227-17.659-13.467-4.388-4.568-8.643-9.076-13.049-13.6-3.542-3.637-11.76-9.779-10.331-15.7,1.693-7.022,13.962-6.476,19.336-5.577,7.856,1.315,14.845,5.754,21.539,9.848C-481.475,1007-477.44,1009.313-475.491,1014.922Z" transform="translate(526.532 -297.444)" fill="#c4b0b8" fill-rule="evenodd"/>
        </g>
        <g id="Group_2524" data-name="Group 2524" transform="translate(194.086)">
          <path id="Path_3045" data-name="Path 3045" d="M-206.227,573.556a14.491,14.491,0,0,0,.581,3.035c2.22,7.156,10.315,7.332,16.366,6.665-2.074,3.991,1.72,4.7,4.914,5.218,7,1.133,14.05.38,21.051-.646,7.746-1.136,15.045-7.1,19.965-12.817.39-.454.82-.945,1.263-1.454Z" transform="translate(675.03 -573.556)" fill="#ff8142" fill-rule="evenodd"/>
          <path id="Path_3046" data-name="Path 3046" d="M-184.046,603.063a39.607,39.607,0,0,0-9.772-9.992,16.39,16.39,0,0,1-3.886,1.767c-.849.253-2.494-.024-3.1.724-1.765,2.189.66,6.305,2,7.9,2.238,2.653,5.2,3.741,8.115,5.3,2.174,1.164,2.939,1.416,5.35,1.16.184-1.1.192-2.2,1.076-2.965Z" transform="translate(678.483 -559.532)" fill="#ff8142" fill-rule="evenodd"/>
          <path id="Path_3047" data-name="Path 3047" d="M-343.814,704.382a39.608,39.608,0,0,0-9.772-9.992,16.324,16.324,0,0,1-3.886,1.765c-.849.254-2.5-.022-3.1.724-1.767,2.189.66,6.307,2,7.9,2.238,2.654,5.2,3.74,8.114,5.3,2.176,1.164,2.941,1.416,5.352,1.16.182-1.1.193-2.2,1.076-2.964Z" transform="translate(563.671 -486.723)" fill="#ff8142" fill-rule="evenodd"/>
          <path id="Path_3048" data-name="Path 3048" d="M-403.156,842.082a15.71,15.71,0,0,1-5.53,4.759c-5.283-1.909-9.323-3.5-13.153-8.316-4.522-5.689-8.633-14.087-6.661-21.543.782-2.958,3.159-8.82,5.917-10.582,2.64-1.686,7.794-.388,10.537.675,5.357,2.074,9.965,9.343,11.8,14.66a31.547,31.547,0,0,1,1.81,8.358c.146,4.257-2.2,7.342-3.477,11.255Z" transform="translate(514.937 -406.814)" fill="#ff8142" fill-rule="evenodd"/>
          <path id="Path_3049" data-name="Path 3049" d="M-445.968,807.618a27.358,27.358,0,0,0-10.915-9.753c-1.15,2.365-3.941,3.937-3.767,7.036.112,1.992,2.965,6.7,4.417,7.821a18.1,18.1,0,0,0,6.352,1.9c2.994-.227,5.066-3.918,2.671-6.266Z" transform="translate(492.193 -412.365)" fill="#ff8142" fill-rule="evenodd"/>
          <path id="Path_3050" data-name="Path 3050" d="M-325.244,1187.7a27.346,27.346,0,0,0-10.915-9.753c-1.148,2.365-3.939,3.939-3.765,7.036.112,1.994,2.963,6.7,4.417,7.821a18.1,18.1,0,0,0,6.35,1.9c2.994-.227,5.068-3.918,2.672-6.268Z" transform="translate(578.947 -139.234)" fill="#ff8142" fill-rule="evenodd"/>
          <path id="Path_3051" data-name="Path 3051" d="M-364.832,705.7c-6-1.265-12.276-1.792-16.93-6.385-5.023-4.96-3.118-9.922.268-15.4,3.716-6,13.438-10.669,19.774-13.328,6.077-2.549,16.48-4.986,22.823-2.073,12.113,5.558,7.048,18.829-.907,25.544-2.21,1.865-4.355,4.015-6.651,5.733-3.08,2.3-6.572,2.728-10.2,3.8-3.544,1.047-7.045,2.787-10.784,2.934-3.4.134-6.489-1.064-9.762-1.9Z" transform="translate(546.681 -506.269)" fill="#ff8142" fill-rule="evenodd"/>
          <path id="Path_3052" data-name="Path 3052" d="M-337.392,1187.4c-7.177-5.8-11.229-8.7-14.754-16.909-2.58-6.01-4.367-12.678-6.4-18.883-2.114-6.446-8.782-19.938-2.031-25.766,8.234-7.108,22.457,1.763,30.175,5.142,7.679,3.36,15.717,8.089,21.118,14.531,4.941,5.895,9.33,9.695,9.255,17.786-.058,6.22-.1,13.355-4.2,18.387-4.566,5.61-10.771,7.034-17.739,6.263C-328.381,1187.248-333.4,1185.206-337.392,1187.4Z" transform="translate(561.993 -178.603)" fill="#ff8142" fill-rule="evenodd"/>
          <path id="Path_3053" data-name="Path 3053" d="M-364.81,1131.655c3.6-2.49,5.366-2.623,4.654-6.4a10.816,10.816,0,0,0-3.068-4.677c-2.507-1.731-6.529-1.121-8.83.237-2.363,1.394-4.51,3.681-2.2,6.409,1.282,1.512,7.143,4.334,8.7,3.185Z" transform="translate(553.573 -181.219)" fill="#ff8142" fill-rule="evenodd"/>
          <path id="Path_3054" data-name="Path 3054" d="M-410.8,809.558c3.606-2.489,5.367-2.623,4.656-6.4a10.811,10.811,0,0,0-3.068-4.675c-2.507-1.731-6.529-1.12-8.83.237-2.363,1.394-4.511,3.68-2.2,6.407,1.282,1.514,7.144,4.336,8.706,3.186Z" transform="translate(520.521 -412.681)" fill="#ff8142" fill-rule="evenodd"/>
          <path id="Path_3055" data-name="Path 3055" d="M-460.723,1131.122c-4.25-3.679-9.71-7.215-12.341-12.193a76.191,76.191,0,0,1-3.652-8.968c-1.93-5.247-3.288-11.833-1.349-17.373,2.889-8.263,8.846-7.059,13.733-1.262,5.188,6.153,11.4,12.754,12.688,21.034.667,4.281,1.971,17.317-6.821,14.075Z" transform="translate(479.007 -204.816)" fill="#ff8142" fill-rule="evenodd"/>
          <path id="Path_3056" data-name="Path 3056" d="M-248.193,641.51c-1.461-2.973-6.278-15.49-10.312-19.9-1.9-2.078-4.417-3.863-6.484-5.792-4.573-4.262-10.193-7.954-16.463-9.27-2.042-.426-6-.3-7.935.727-2.7,1.44-3.626,5.677-3.705,8.748-.119,4.549,2.889,8.277,5.056,12.01,3.695,6.359,8.108,12.082,14.472,16.066,3.757,2.351,20.446,8.646,21.643-.383Z" transform="translate(612.605 -550.016)" fill="#ff8142" fill-rule="evenodd"/>
          <path id="Path_3057" data-name="Path 3057" d="M-338.454,779.826c-4.326,6.471-4.623,6.976-12.1,6.966-8.165-.012-14.806-3.956-21.074-8.887-4.467-3.515-10.5-13.183-2.532-17,6.292-3.011,18.735,1.4,25.033,3.487,7.531,2.5,11.269,7.9,15.132,14.471Z" transform="translate(551.556 -439.656)" fill="#ff8142" fill-rule="evenodd"/>
          <path id="Path_3058" data-name="Path 3058" d="M-154.361,977.028c-3.1.137-5.745,1.815-7.031,6.158-1.6,5.408-.356,12.829,3.076,17.217a31.255,31.255,0,0,0,3.955,4.26Z" transform="translate(706.752 -283.616)" fill="#ffce42" fill-rule="evenodd"/>
          <path id="Path_3059" data-name="Path 3059" d="M-279.286,1136.1a20.312,20.312,0,0,0,11.465-1.894c-.2-3.88,2.523-7.431,2.87-11.5.478-5.591-2.42-10.1-5.589-14.522-3.207-4.481-10.518-9.717-16.017-5.74-5.14,3.718-6.22,12.479-5.2,17.844.98,5.152,3.611,9.33,6.543,14.29Z" transform="translate(613.317 -194.506)" fill="#ffce42" fill-rule="evenodd"/>
          <path id="Path_3060" data-name="Path 3060" d="M-428.012,1053.781c.443-5.162,2.714-16.048-4.862-17.977-4.26-1.085-6.536,2.14-8.392,5.092-1.731,2.753-2.853,5.395-1.719,9.028,1.438,4.6,5.362,4.3,7.668,7.687l1.715-.526Z" transform="translate(504.564 -241.533)" fill="#ffce42" fill-rule="evenodd"/>
          <path id="Path_3061" data-name="Path 3061" d="M-188.561,1132.576c-10.092-1.272-21.347-4.269-12.9-15.328,3.313-4.339,3.838-3.812,8.748-2.324,4.494,1.363,6.45,2.36,7.794,7.528l-1.356,1.23Z" transform="translate(676.322 -185.296)" fill="#ffce42" fill-rule="evenodd"/>
        </g>
        <path id="Path_3062" data-name="Path 3062" d="M-452.173,734.825c-71.706-2.554-134.12,115.693-139.407,264.113s48.558,270.807,120.263,273.362,134.122-115.693,139.409-264.115S-380.466,737.379-452.173,734.825Z" transform="translate(591.939 -457.695)" fill-rule="evenodd" fill="url(#radial-gradient-5)" style="mix-blend-mode: screen;isolation: isolate"/>
        <g id="Group_2525" data-name="Group 2525" transform="translate(261.1 165.522)" style="mix-blend-mode: soft-light;isolation: isolate">
          <path id="Path_3063" data-name="Path 3063" d="M-281.909,802.38c-.144,1.064-.306,7.287-1.9,8.851-.94.92-2.963,1.695-4.161,2.384a19.679,19.679,0,0,1-17.356.847c-5.35-2.19-9.243-5.318-13.661-8.794-2.434-1.915-4.463-4-4.467-7.342-.016-11.948,17.518-7.636,24.311-5.922,3.929.99,12.728.376,14.479,5.319Z" transform="translate(523.776 -583.378)" fill="#fffe90" fill-rule="evenodd"/>
          <path id="Path_3064" data-name="Path 3064" d="M-253.833,828.577c11.881,4.857,21.966,12.872,32.8,19.661,10.671,6.685,21.531,12.553,31.158,20.776,9.741,8.323,19,16.93,26.944,27a221.628,221.628,0,0,1,29.163,49.7c3.088,7.2,5.374,14.718,8.61,21.861,1.528,3.372,2.088,6.9,3.384,10.322-1.839,2.322-5.491-.29-7.414-1.31-3.887-2.064-7.354-6.345-10.783-9.145-3.985-3.255-7.746-6.739-11.626-10.114-9.033-7.854-18.159-15.49-26.377-24.25-9.669-10.308-18.343-21.751-27.568-32.465-8.633-10.021-18.771-18.583-27.577-28.445-6.022-6.745-12.6-12.578-17.129-20.476-1.784-3.111-4.651-6.436-5.051-10.088C-255.492,839.832-254.55,835.831-253.833,828.577Z" transform="translate(572.735 -555.817)" fill="#fffe90" fill-rule="evenodd"/>
          <path id="Path_3065" data-name="Path 3065" d="M-148.193,929.851c-1.418-1.935-2.911-3.834-4.539-5.687-2.645-3.008-4.817-5.634-8.184-7.737-1.028-.641-1.514-1.384-2.745-.985-1,.323-1.884,1.064-7.007-3.286,1.239,4.319,3.437,9.848,3.6,14.56a28.63,28.63,0,0,0,1.6,8.689,57.175,57.175,0,0,0,10.831,18.777c.5.6,3.15,4.135,6.443,7.854Z" transform="translate(633.57 -495.756)" fill="#fffe90" fill-rule="evenodd"/>
          <path id="Path_3066" data-name="Path 3066" d="M-168.671,930.924q0,3.684.266,7.354c-.816-1.37-.053-2.2-.175-3.542a21.675,21.675,0,0,0-1.531-5.818c-.823-1.906-4.606-6.032-7.29-4.266-5.032,3.313,4.391,12.383,6.828,13.682Z" transform="translate(627.683 -487.085)" fill="#fffe90" fill-rule="evenodd"/>
          <path id="Path_3067" data-name="Path 3067" d="M-147.264,1178.39a19.186,19.186,0,0,0-3.69-7.44c-5.91-7.077-17.057-3.7-19.551,4.84-1.707,5.845-1.518,11.623-1.346,17.6.16,5.573.28,10.379,2.129,15.7,1.182,3.4,4.616,7.132,8.294,7.751,2.306.389,5.017.04,6.613-1.811a5.465,5.465,0,0,0,1.243-2.88c-.187.1-.349.184-.56.3.378-1.148.617-.986.56-.3,2.946-1.583,2.98-1.232,4.116-3.776a33.639,33.639,0,0,0,2.191-8.145Z" transform="translate(632.641 -312.535)" fill="#fffe90" fill-rule="evenodd"/>
          <path id="Path_3068" data-name="Path 3068" d="M-199.871,741.15c13.089,3.8,21.988,13.02,30.746,23.172,2.483,2.879,17.011,19.678,7.794,21.88-5.365,1.28-12.047-4.018-16.129-6.622-6.514-4.156-12.618-8.6-18.812-13.214-12.233-9.114-24.535-18.032-37.124-26.651-4.92-3.367-10.362-6.142-14.814-10.135-1.918-1.72-4.011-3.236-2.958-5.984,2.047-5.34,9.669-3.528,14.062-2.911a54.612,54.612,0,0,1,22.7,9.167c4.3,2.984,8.234,6.256,12.952,8.519C-198.125,739.969-196.011,742.133-199.871,741.15Z" transform="translate(575.517 -633.923)" fill="#fffe90" fill-rule="evenodd"/>
          <path id="Path_3069" data-name="Path 3069" d="M-251,723.952c-.089-.289-.177-.574-.266-.861,3.169-1.959,1.37-9.731.043-12.35a46.693,46.693,0,0,0-4.711-7.8c-2.306-2.875-6.051-3.442-9.574-3.621-6.378-.325-15.1,3.018-9.042,9.875,5.53,6.263,12.463,12,20.967,12.515Z" transform="translate(557.449 -648.72)" fill="#fffe90" fill-rule="evenodd"/>
          <path id="Path_3070" data-name="Path 3070" d="M-275.092,712.7a47.965,47.965,0,0,1-21.732-8.865c-3.681-2.8-8.289-9.4-7.352-14.189,1.648-8.411,13-11.1,20.259-9.968,11.346,1.774,20.556,13.336,22.919,23.964.572,2.581,1.476,5.972-.187,8.315s-6.287,3.344-8.909,2.817Z" transform="translate(537.54 -662.994)" fill="#fffe90" fill-rule="evenodd"/>
          <path id="Path_3071" data-name="Path 3071" d="M-310.9,679.018c1.457.33,11.649,3.159,10.142-2.134-1.088-3.814-5.921-4.424-8.9-5.522-1.947-.717-5.166-3.025-6.079.1-.629,2.153,2.279,5.348,3.36,7.177Z" transform="translate(529.256 -669.867)" fill="#fffe90" fill-rule="evenodd"/>
          <path id="Path_3072" data-name="Path 3072" d="M-328.9,969.71c-1.2,1.829-.928,1.825-2.384,2.26a13.607,13.607,0,0,1-4.168.459c-4.015-.148-7.541-2.248-10.777-4.47-3.169-2.176-6.2-4.7-9.239-7.069-3.114-2.427-6.721-4.159-9.994-6.349a93,93,0,0,1-12.09-9.963c-3.949-3.771-7.668-7.179-9.858-12.339-.73-1.722-1.882-5.173-.416-6.844,1.779-2.028,5.728-1.535,7.828-.495a30.991,30.991,0,0,1,3.838,2.645c1.736,1.215,3.588,2.265,5.268,3.561,3.442,2.655,7.034,5.034,10.157,8.091,4.8,4.7,9.06,10.611,14.883,14.12,3.546,2.14,7.3,3.083,10.317,5.969C-332.836,961.866-329.06,965.967-328.9,969.71Z" transform="translate(477.01 -487.247)" fill="#fffe90" fill-rule="evenodd"/>
          <path id="Path_3073" data-name="Path 3073" d="M-383.94,941.722c1.459-.148,2.165.17,2.415-.993.234-1.09-.756-2.478-1.225-3.394-.892-1.739-1.566-3.982-2.736-5.565a17.067,17.067,0,0,0-2.758-2.662,27.9,27.9,0,0,0-4.719-3.477,2.064,2.064,0,0,0-2.873.787c-1.616,2.487,1.786,7.077,3.35,8.737a39.679,39.679,0,0,0,4.553,4.474c.992.749,2.581,2.6,3.8,2.834Z" transform="translate(471.453 -486.28)" fill="#fffe90" fill-rule="evenodd"/>
          <path id="Path_3074" data-name="Path 3074" d="M-375.463,926.772c-.751.741-1.531,1.913-2.628,2.05-1.012.127-2.652-.572-3.631-.779a36.477,36.477,0,0,1-12.161-4.761,47.239,47.239,0,0,1-4.752-2.908c-1.414-1.122-2.586-2.542-3.934-3.74-1.375-1.222-2.9-2.265-4.245-3.525a47.884,47.884,0,0,0-5.264-4.764c-7.521-5.242-15.136-10.87-21.283-17.748-2.3-2.571-5.682-6.218-6.362-9.7-.406-2.08-.749-4.176,1.636-4.809,3.107-.823,6.039.428,8.837,1.655,3.85,1.689,7.112,4.424,10.578,6.766,4.5,3.042,8.882,6.268,13.2,9.569,4.028,3.083,7.857,6.354,11.846,9.468a112.349,112.349,0,0,1,17.08,15.753C-373.9,922.424-372.289,925.217-375.463,926.772Z" transform="translate(440.014 -521.863)" fill="#fffe90" fill-rule="evenodd"/>
          <path id="Path_3075" data-name="Path 3075" d="M-396.078,887.323c-.052-4.463-1.114-8.719-5.924-10.255-1.829-.584-3.606-.865-3.678,1.449-.127,4.059,4.353,10.831,8.756,10.564Z" transform="translate(464.684 -521.265)" fill="#fffe90" fill-rule="evenodd"/>
          <path id="Path_3076" data-name="Path 3076" d="M-335.829,802.832c1.172,1.961,5.28,7.332,4.283,10.619a3.851,3.851,0,0,1-4.621,2.6c-4.4-1-7.947-4.855-11.36-7.517-5.2-4.051-9.882-8.763-15.263-12.551-5.965-4.2-11.652-8.679-17.832-12.573a183.259,183.259,0,0,0-16.244-9.38c-2.566-1.272-4.986-2.763-7.412-4.279A31.869,31.869,0,0,1-410.7,765.1c-2.581-2.7-5.732-6.842-5.259-10.858.851-7.232,13.881-5.7,18.479-4.436,5.561,1.524,11.491,3.7,16.261,6.947a125.07,125.07,0,0,1,14.455,12.058c3.814,3.559,7.72,6.871,11.7,10.227a87.643,87.643,0,0,1,9.318,8.595c3.109,3.484,6.007,7.057,8.877,10.738C-334.24,801.743-333.246,804.934-335.829,802.832Z" transform="translate(457.262 -613.189)" fill="#fffe90" fill-rule="evenodd"/>
          <path id="Path_3077" data-name="Path 3077" d="M-376.4,757.882q-2.274-2.294-4.731-4.386c-.593.1-.962-.265-1.695-.474a5.278,5.278,0,0,0-3.1.235c-1.548.436-2.368,1.086-1.932,2.856.717,2.9,3.659,4.4,6.173,5.608,1.344.648,5.773,2.356,6-.495Z" transform="translate(477.413 -610.218)" fill="#fffe90" fill-rule="evenodd"/>
        </g>
      </g>
    </g>
  </g>
</svg>
