<svg xmlns="http://www.w3.org/2000/svg" xmlns:xlink="http://www.w3.org/1999/xlink" width="12.731" height="13.202" viewBox="0 0 12.731 13.202">
  <defs>
    <style>
      .cls-1 {
        fill: #c56d00;
      }

      .cls-2 {
        fill: url(#linear-gradient);
      }

      .cls-3 {
        fill: url(#linear-gradient-2);
      }

      .cls-4 {
        fill: url(#linear-gradient-3);
      }

      .cls-5 {
        fill: url(#linear-gradient-4);
      }

      .cls-6 {
        mix-blend-mode: overlay;
        isolation: isolate;
        fill: url(#linear-gradient-5);
      }

      .cls-7 {
        fill: #ffd108;
      }

      .cls-8 {
        fill: url(#linear-gradient-6);
      }
    </style>
    <linearGradient id="linear-gradient" x1="0.033" y1="0.85" x2="0.923" y2="0.183" gradientUnits="objectBoundingBox">
      <stop offset="0" stop-color="#f5b000"/>
      <stop offset="1" stop-color="#f5b000"/>
    </linearGradient>
    <linearGradient id="linear-gradient-2" x1="0.791" y1="0.013" x2="0.221" y2="0.967" gradientUnits="objectBoundingBox">
      <stop offset="0" stop-color="#ffd108"/>
      <stop offset="1" stop-color="#e27d00"/>
    </linearGradient>
    <linearGradient id="linear-gradient-3" x1="0.719" y1="0.025" x2="0.281" y2="0.974" xlink:href="#linear-gradient-2"/>
    <linearGradient id="linear-gradient-4" x1="0.202" y1="0.91" x2="0.635" y2="-0.007" gradientUnits="objectBoundingBox">
      <stop offset="0" stop-color="#965200"/>
      <stop offset="0.162" stop-color="#e27d00"/>
      <stop offset="0.463" stop-color="#e8a027"/>
      <stop offset="0.76" stop-color="#e27d00"/>
      <stop offset="1" stop-color="#965200"/>
    </linearGradient>
    <linearGradient id="linear-gradient-5" x1="1.093" y1="0.029" x2="0.201" y2="0.73" gradientUnits="objectBoundingBox">
      <stop offset="0" stop-color="#fff"/>
      <stop offset="1" stop-color="#fff" stop-opacity="0"/>
    </linearGradient>
    <linearGradient id="linear-gradient-6" x1="0.529" y1="-0.042" x2="0.495" y2="1.168" xlink:href="#linear-gradient-4"/>
  </defs>
  <g id="Group_1634" data-name="Group 1634" transform="translate(3577.672 -1426.473)">
    <path id="Path_2026" data-name="Path 2026" class="cls-1" d="M-3539.234,1453.713a4.778,4.778,0,0,0-.092-.475,4.623,4.623,0,0,0-.217-.665,4.385,4.385,0,0,0-.194-.409,4.089,4.089,0,0,0-.642-.887,3.866,3.866,0,0,0-.481-.428,3.809,3.809,0,0,0-.543-.341,3.782,3.782,0,0,0-.393-.175c-.067-.026-.136-.049-.2-.071a3.891,3.891,0,0,0-.425-.108,4.149,4.149,0,0,0-1.375-.031c-.1.015-.208.034-.312.056l-.08.018-.082.018c-.067.017-.133.036-.2.055l-.025.007-.057.02c-.081.026-.16.052-.239.082l-.075.029-.088.034c-.056.023-.111.049-.166.074l-.039.017c-.078.037-.155.075-.23.116-.038.021-.076.043-.114.064l-.026.015-.026.015c-.084.049-.167.1-.25.154-.024.016-.046.032-.07.049l-.034.023-.028.019-.079.058c-.052.038-.105.076-.157.116l-.021.016c-.066.052-.13.105-.194.161l-.048.043-.063.058c-.057.052-.113.106-.168.16l-.053.053c-.025.025-.048.052-.072.077-.044.047-.09.093-.133.142l-.032.038-.007.008c-.039.044-.076.09-.113.135l-.043.052-.035.045-.021.027q-.072.092-.14.188l0,.007-.038.052c-.014.02-.026.04-.04.06-.046.067-.091.134-.134.2l-.016.027-.024.04q-.067.11-.129.224l-.025.045,0,.006-.008.014c-.04.075-.076.152-.113.229-.017.034-.035.068-.051.1l-.03.066c-.016.036-.029.073-.044.109-.034.08-.068.159-.1.24-.015.04-.028.081-.042.121s-.026.074-.038.111-.026.086-.039.13l-.021.071c0,.014-.008.027-.012.041-.012.044-.023.088-.034.132,0,.018-.009.037-.014.056s-.01.037-.014.056c-.01.046-.02.093-.029.139s-.016.072-.022.109c0,.015,0,.029-.007.044l-.016.1c-.005.036-.012.071-.017.107s-.012.1-.018.152c0,.018,0,.036-.006.054s0,.031-.006.046c0,.054-.008.109-.011.164,0,.015,0,.03,0,.045s0,.03,0,.046c0,.085-.006.17-.006.256,0,.1,0,.2.009.3,0,.03,0,.06.006.089.005.07.011.14.019.208l.01.084a.068.068,0,0,1,0,.01c0,.031.01.062.014.093s.012.085.02.127c0,.021.007.043.011.065s.015.063.021.095c.013.06.024.12.039.178a.03.03,0,0,0,0,.006c0,.02.01.039.016.059.015.055.031.109.047.163,0,.013.007.026.011.039l.028.086c.008.025.018.049.026.073s.026.073.04.109l.029.076c.033.083.068.164.106.244l.007.013c.036.075.074.149.114.221.013.024.026.047.04.07.031.054.063.106.1.158l.046.071c.023.034.047.067.07.1s.031.045.047.067h0l.031.043c.034.044.069.086.1.129.019.023.036.046.056.068s.029.032.043.048c.042.047.086.094.13.139l.06.059c.043.042.087.083.132.123l.056.049c.063.054.128.107.195.157l.018.013c.028.021.058.04.087.06s.066.048.1.07l.025.015.042.026c.044.028.089.054.135.08l.019.011.069.038c.078.042.158.082.239.119s.193.081.292.116.2.065.3.092h0l.015,0c.07.018.142.034.215.048l.057.01.054.009c.074.012.149.022.225.031l.067.007.024,0,.016,0c.075.006.151.01.228.012s.154,0,.231,0a4.3,4.3,0,0,0,.473-.041,5.743,5.743,0,0,0,4.637-5.645A5.265,5.265,0,0,0-3539.234,1453.713Zm-.065.771c0,.122-.006.243-.015.363h0c0,.024,0,.049-.005.073h0c-.01.116-.023.232-.04.346a.007.007,0,0,1,0,0c0,.007,0,.014,0,.022s-.007.041-.01.061-.005.023-.007.035h0c-.021.123-.045.245-.075.365,0,0,0,0,0,0s0,.013,0,.02l-.015.06c0,.013-.008.026-.012.04h0c-.021.079-.044.157-.068.234-.007.024-.013.048-.02.071a.068.068,0,0,0,0,.009c-.006.02-.013.039-.02.058-.013.039-.026.078-.041.116-.005.015-.011.029-.016.043l-.011.029-.016.043c-.015.038-.03.076-.045.114l-.014.034c-.008.02-.018.04-.026.06l-.032.075c-.006.013-.012.025-.018.037l0,.009c-.044.1-.089.191-.138.284-.028.054-.058.108-.087.161,0,.005-.006.01-.009.015-.028.048-.057.1-.085.143l-.04.066c-.042.067-.085.133-.129.2l-.016.024-.024.034-.008.011-.015.021c-.082.116-.167.229-.256.338-.045.055-.091.108-.138.161l-.007.009-.013.015c-.042.046-.084.091-.126.135l-.022.024-.038.039-.054.053q-.08.079-.162.155l-.037.034,0,0-.024.023-.044.039h0l-.091.077-.046.038-.021.017-.032.026-.022.017-.081.062-.065.05-.08.056-.035.024-.025.018-.035.024-.032.022q-.073.049-.149.095l-.038.023-.025.015-.038.023c-.051.03-.1.058-.154.086s-.1.054-.157.08l-.052.026-.012.005-.007,0-.025.011-.078.035c-.041.018-.082.036-.123.053l-.023.01-.083.031-.02.008-.089.033-.028.01-.111.037-.056.017-.006,0-.021.005c-.091.027-.183.051-.276.072l-.076.017h0c-.1.021-.2.041-.3.055-.074.01-.146.018-.219.025l-.072,0-.114.008-.057,0h0l-.113,0h-.112l-.111,0-.032,0-.1-.007h-.015l-.063-.007c-.05-.005-.1-.011-.15-.018l-.018,0-.054-.008-.042-.009h-.007l-.058-.012-.1-.021-.052-.011-.052-.013-.015,0h0l-.013,0c-.064-.017-.127-.035-.189-.055l-.07-.025-.049-.018-.026-.01-.066-.024-.082-.034-.125-.054-.083-.04-.111-.057-.007,0-.082-.045-.05-.028-.054-.034-.009-.005-.078-.049-.106-.073-.006,0-.071-.051c-.039-.029-.077-.059-.115-.09l0,0-.058-.046q-.086-.072-.167-.148l-.036-.035,0,0-.07-.071-.05-.051-.009-.009-.053-.057-.03-.035c-.031-.035-.062-.071-.091-.108-.011-.014-.024-.027-.035-.041l-.04-.051,0,0-.019-.026-.067-.09-.032-.046-.019-.027-.013-.019-.02-.03c-.017-.026-.033-.052-.049-.079l-.036-.057-.009-.014-.022-.038-.02-.038q-.053-.094-.1-.191c-.007-.014-.015-.027-.021-.04l-.02-.041,0-.009,0-.008a.161.161,0,0,0-.009-.019l-.018-.039c-.01-.023-.021-.047-.031-.07l-.016-.037-.009-.022-.006-.015-.01-.023-.009-.025q-.058-.146-.106-.3c0-.01-.008-.02-.011-.03s0-.012,0-.018c-.019-.062-.037-.126-.053-.19,0-.014-.008-.028-.011-.042v0l0-.01c-.025-.1-.046-.21-.065-.318,0-.012-.005-.024-.007-.037s0-.021,0-.031q-.029-.177-.044-.361c0-.019,0-.039,0-.058-.01-.129-.016-.259-.016-.392a5.779,5.779,0,0,1,1.327-3.627q.077-.094.157-.183c.058-.065.118-.129.179-.191l.02-.02q.166-.168.345-.322l.013-.012.046-.038.031-.024c.082-.067.165-.132.25-.194h0c.085-.062.172-.12.26-.176l.033-.022.05-.031.018-.01c.095-.057.192-.112.29-.163l.062-.031c.1-.051.205-.1.31-.144l.054-.022.082-.031.11-.041.028-.01.083-.027.112-.036.028-.009.113-.031.057-.015.114-.027.038-.007c.1-.022.206-.042.309-.056h0c.074-.01.147-.018.22-.025l.07,0h.006l.079,0,.061,0,.083,0h.15l.067,0,.126.007.081.006h.007l.07.008.053.006.082.011.089.015.042.006.04.008.026.005.04.008.079.019.034.008.05.012.02.005.026.006.1.029.025.009.1.031,0,0,.075.025.037.014.025.01.037.014.048.02.1.041h0l.1.044.07.035.017.009.012.006.016.008.07.038.074.042.011.007.012.007.038.022c.032.02.063.04.095.061l.044.029.006,0,.06.041.042.031.025.018.074.056.038.029.074.061,0,0c.055.046.109.093.161.143h0l.075.073h0l.072.074h0c.068.071.132.145.194.221l.023.026.052.066,0,.005.009.011.035.047c.007.009.013.02.02.029.056.077.109.156.16.237,0,.006.007.011.011.016l0,.008.025.043c.018.03.036.06.053.09s.019.034.028.051l.013.024.009.016.024.046.021.042.032.066,0,.01.008.018.025.055.031.07.016.037.01.022.006.015.01.023c0,.012.008.025.013.037.027.069.053.139.077.211,0,.013.01.026.015.039l.017.054c0,.006,0,.013.005.02q.045.149.082.3c.005.022.01.044.015.066q.031.143.055.29c0,.014,0,.028.007.042.016.108.028.218.037.33,0,.026,0,.051.005.077.007.114.012.229.012.346Z" transform="translate(-26.894 -21.716)"/>
    <path id="Path_2027" data-name="Path 2027" class="cls-2" d="M-3549.584,1443.28a5.818,5.818,0,0,0-3.631,2.132l-.053.067-.063.079c-.027.035-.053.072-.08.108s-.054.071-.08.108l-.041.057-.015.02q-.157.227-.3.468c-.069.12-.134.243-.2.367q-.049.1-.1.2l-.033.074c-.011.026-.021.053-.032.079-.044.1-.088.2-.126.309-.016.045-.032.09-.047.136l-.022.063c-.007.02-.014.039-.02.059-.015.047-.029.095-.043.143l-.009.031q-.02.068-.039.137c-.009.034-.018.069-.027.1s-.022.083-.031.124-.021.1-.031.151-.017.076-.024.114c-.019.1-.036.208-.05.312-.006.046-.011.092-.016.138s-.01.077-.013.115c-.006.062-.01.124-.013.186,0,.032-.005.064-.007.1q-.007.141-.007.284c0,.069,0,.137.006.2,0,.042,0,.085,0,.127,0,.009,0,.018,0,.027l.005.072c0,.022,0,.044.006.066,0,.055.009.11.015.165,0,.035.008.07.012.1.008.059.018.117.027.176,0,.023.007.046.01.068s.008.048.012.071c.011.058.024.115.038.172s.018.088.029.131c.006.024.013.048.019.072s.016.055.024.082c.013.048.026.1.041.143s.02.063.031.095c.023.069.048.136.073.2.01.028.021.056.032.084.037.092.076.182.118.271l.007.013c.04.084.083.166.127.246.014.026.03.052.044.078q.052.089.106.176l.051.078q.063.094.13.185l.036.049c.057.075.116.148.177.218l.048.053q.07.079.144.155l.066.065c.048.047.1.092.147.137l.062.055c.07.06.142.119.216.174l.021.015c.068.05.137.1.207.144l.074.046q.083.052.169.1a4.353,4.353,0,0,0,2.523.528c.087-.008.176-.017.264-.03a6.368,6.368,0,0,0,5.141-6.259C-3544.457,1445.038-3546.75,1442.882-3549.584,1443.28Zm-.02,10.532a4.323,4.323,0,0,1-.473.041c-.078,0-.155,0-.231,0s-.153-.006-.228-.012l-.016,0-.024,0-.067-.007c-.076-.008-.151-.018-.225-.03l-.054-.009-.058-.01q-.108-.021-.215-.048l-.015,0h0q-.154-.04-.3-.092t-.292-.116c-.082-.036-.161-.077-.24-.119l-.069-.038h0l-.018-.011c-.046-.026-.091-.052-.135-.08l-.042-.026-.025-.015c-.034-.022-.067-.047-.1-.07s-.059-.039-.087-.06l-.018-.012h0c-.066-.05-.131-.1-.195-.157l-.055-.049c-.045-.04-.089-.081-.133-.123h0l-.059-.059c-.045-.045-.088-.092-.131-.14l-.042-.047c-.02-.022-.037-.046-.056-.068-.035-.042-.071-.085-.1-.129l-.031-.043h0l-.047-.067c-.024-.033-.048-.066-.07-.1l-.046-.071q-.049-.078-.1-.159c-.013-.023-.027-.046-.04-.07-.04-.073-.079-.146-.115-.222l-.006-.012c-.038-.079-.073-.161-.106-.244-.01-.025-.019-.05-.029-.076h0c-.014-.036-.026-.073-.04-.11l-.026-.073-.028-.085h0c0-.013-.007-.026-.011-.039-.016-.054-.032-.108-.047-.164l-.016-.058v-.006c-.015-.059-.027-.118-.039-.178-.007-.032-.015-.063-.021-.095s-.007-.043-.011-.064c-.007-.042-.013-.085-.02-.128s-.01-.061-.014-.093a.069.069,0,0,0,0-.01l-.01-.084c-.008-.069-.014-.139-.019-.209,0-.03,0-.059-.006-.089-.005-.1-.009-.2-.009-.3h0c0-.011,0-.022,0-.033,0-.075,0-.149.006-.223,0-.015,0-.031,0-.046s0-.03,0-.044,0-.005,0-.008c0-.052.006-.1.011-.156h0c0-.015,0-.031.005-.046s0-.041.007-.061c.005-.048.01-.1.017-.145h0c.005-.036.011-.071.017-.107v0l.016-.094c0-.015,0-.03.007-.044.007-.036.015-.073.022-.109v0c.009-.045.018-.09.028-.135,0-.019.009-.038.014-.056l.014-.056h0c.011-.044.022-.087.033-.131h0c0-.014.008-.027.012-.041l.022-.074c.013-.042.025-.084.038-.126s.026-.076.039-.114.027-.08.042-.119c.03-.081.064-.161.1-.24.015-.036.029-.073.044-.109h0l.03-.066c.016-.035.034-.068.051-.1.037-.077.073-.154.113-.229l.007-.014,0-.007.024-.044c.042-.076.085-.151.13-.224l.024-.04.016-.027c.043-.069.088-.137.134-.2.013-.02.026-.041.04-.061l.037-.051.005-.007c.045-.063.092-.126.14-.188l.021-.027.035-.045h0c.014-.018.029-.035.043-.052.037-.046.074-.091.113-.136l.007-.008.032-.037h0c.043-.048.088-.095.133-.142.024-.026.048-.052.072-.077l.053-.052q.083-.082.168-.161l.063-.058.048-.043q.1-.083.194-.161l.02-.015c.052-.04.1-.078.157-.116l.078-.058h0l.028-.019.034-.023.07-.048c.082-.054.165-.1.25-.154h0l.026-.015.026-.015c.038-.022.075-.044.114-.064.076-.041.153-.079.23-.116h0l.038-.017c.055-.025.11-.051.167-.074l.088-.034.075-.029c.079-.03.159-.056.239-.082l.057-.02h0l.024-.007c.066-.02.133-.039.2-.056l.082-.018.079-.018h0c.1-.022.207-.042.312-.056a4.149,4.149,0,0,1,1.375.031,3.9,3.9,0,0,1,.425.108c.069.022.137.046.2.071a3.853,3.853,0,0,1,.393.175,3.84,3.84,0,0,1,.543.341,3.939,3.939,0,0,1,.481.428,4.124,4.124,0,0,1,.642.887,4.326,4.326,0,0,1,.194.409,4.565,4.565,0,0,1,.217.665q.057.231.092.475a5.265,5.265,0,0,1,.052.753A5.744,5.744,0,0,1-3549.6,1453.813Z" transform="translate(-21.109 -15.418)"/>
    <path id="Path_2028" data-name="Path 2028" class="cls-3" d="M-3551.366,1438.3c-.051-.173-.111-.34-.176-.5a5.02,5.02,0,0,0-2.3-2.589l-.065-.033c-.026-.014-.054-.026-.083-.039l-.06-.03a.319.319,0,0,1-.037-.018.191.191,0,0,1-.033-.016l-.021-.009h0a0,0,0,0,1,0,0c-.05-.021-.1-.041-.148-.06l-.09-.037c-.058-.021-.118-.042-.18-.062-.021-.007-.042-.016-.064-.021-.083-.026-.165-.051-.25-.072l-.05-.01-.075-.019c-.042-.011-.085-.019-.127-.026-.021-.005-.044-.009-.065-.012l-.007,0c-.062-.01-.123-.021-.187-.03l-.1-.014c-.054-.007-.109-.012-.164-.018h0l-.1-.009c-.053,0-.106-.005-.16-.007-.021,0-.044,0-.065,0a.11.11,0,0,0-.024,0c-.062,0-.125,0-.188,0-.036,0-.071,0-.106,0-.053,0-.1.005-.159.011l-.028,0-.09.005q-.14.013-.28.032c-.131.019-.261.042-.389.07l-.1.021c-.118.028-.234.058-.349.092a.234.234,0,0,1-.033.009c-.123.039-.247.081-.368.127l-.094.037c-.106.042-.211.086-.315.134l-.054.025-.085.042c-.058.028-.115.056-.171.086l-.1.055c-.04.023-.083.046-.121.069a.175.175,0,0,0-.03.017c-.035.019-.068.041-.1.062s-.095.058-.142.09-.067.044-.1.067-.074.051-.111.076c-.1.07-.2.143-.292.217l-.026.021c-.1.081-.2.167-.3.253-.026.025-.053.049-.079.072-.072.065-.141.132-.21.2-.023.021-.046.042-.067.065-.088.088-.173.18-.256.273l-.049.058c-.067.076-.132.153-.194.232-.025.03-.047.06-.072.09-.062.079-.122.16-.179.243-.016.021-.032.042-.046.063-.076.107-.148.217-.217.329-.018.027-.034.055-.051.083-.055.092-.11.185-.16.278a.448.448,0,0,1-.028.049l-.016.032c-.072.136-.141.273-.2.414l-.037.082c-.063.143-.123.287-.178.435l-.053.151-.047.137c-.018.053-.032.108-.05.162s-.028.092-.04.137-.029.111-.042.167-.025.092-.035.137-.023.115-.035.171-.019.09-.028.135-.02.12-.03.178c-.007.039-.012.079-.019.118,0,.005,0,.01,0,.016-.009.063-.014.127-.021.188-.005.042-.01.085-.016.125-.005.069-.01.139-.014.208,0,.037,0,.072-.007.109-.006.106-.009.213-.009.319,0,.125,0,.248.01.372,0,.037,0,.076.007.113,0,.053.009.106.014.16,0,.032.007.065.01.1s.009.077.014.116c.01.093.025.185.041.275,0,.026.009.053.014.079.021.116.046.229.074.34.007.028.016.055.023.081.014.053.028.106.044.159.009.032.018.062.028.093s.023.072.035.107c.025.078.053.153.081.227.012.032.023.063.037.1.041.1.085.2.132.3a.073.073,0,0,0,.007.014c.046.095.093.187.143.276.016.03.034.058.051.088.037.067.078.132.118.2.019.03.039.06.058.088.047.07.1.139.146.208.012.018.024.037.039.055.065.084.13.166.2.245.018.021.037.041.054.06.053.06.106.118.162.174l.074.072c.052.053.109.1.165.155.023.019.046.041.069.062.079.067.159.132.243.2l.021.014c.075.057.155.111.234.162a.818.818,0,0,0,.071.044.042.042,0,0,0,.012.009c.062.039.127.078.19.113s.155.085.236.122a4.848,4.848,0,0,0,2.342.488,5.494,5.494,0,0,0,.553-.049,7.115,7.115,0,0,0,5.726-6.229,6.774,6.774,0,0,0,.047-.8A6.255,6.255,0,0,0-3551.366,1438.3Zm-5.3,8.132c-.071.014-.143.025-.215.035-.088.014-.176.023-.264.03a4.405,4.405,0,0,1-2.1-.319,4.547,4.547,0,0,1-.424-.208c-.011-.005-.021-.012-.03-.017l-.139-.083-.074-.048c-.07-.046-.139-.093-.208-.143l-.021-.016c-.074-.055-.144-.113-.215-.173-.021-.017-.041-.037-.062-.054-.049-.046-.1-.09-.146-.137-.023-.021-.046-.044-.067-.065-.049-.051-.1-.1-.144-.155l-.047-.053c-.062-.07-.12-.143-.178-.218-.01-.016-.023-.033-.035-.049-.032-.044-.065-.088-.1-.134l-.032-.051c-.018-.025-.035-.051-.051-.078-.037-.058-.073-.116-.107-.176-.014-.026-.03-.051-.044-.078-.044-.081-.087-.162-.127-.246l-.007-.012s0,0,0,0c-.041-.086-.079-.176-.116-.268-.01-.028-.021-.056-.031-.083-.025-.067-.05-.136-.072-.2-.01-.032-.021-.062-.032-.094-.014-.047-.028-.095-.04-.144-.009-.026-.016-.053-.025-.081s-.012-.047-.019-.072-.005-.025-.009-.039c-.007-.03-.012-.062-.019-.092-.012-.058-.026-.115-.037-.173-.006-.023-.009-.046-.013-.07l-.01-.069c-.009-.058-.019-.116-.026-.176-.006-.033-.009-.069-.012-.1-.007-.055-.01-.109-.016-.164,0-.023,0-.044-.006-.067s0-.049,0-.072,0-.017,0-.026c0-.042,0-.086,0-.127,0-.025,0-.051,0-.076,0-.042,0-.086,0-.13v-.03c0-.085,0-.169.007-.254,0-.035.006-.07.007-.106,0-.058.007-.118.013-.176,0-.039.008-.076.014-.115s.009-.092.016-.137c.014-.106.03-.21.049-.313.007-.037.016-.076.025-.115s.02-.1.032-.151.019-.083.03-.123l.026-.1c.006-.016.009-.033.014-.049s.018-.056.024-.086l.011-.032c.014-.048.026-.1.042-.143l.021-.058c.007-.021.014-.044.021-.065.016-.044.03-.09.047-.134.039-.105.081-.208.125-.308.012-.026.021-.055.033-.079l.032-.074.095-.2c.063-.125.127-.248.2-.368.094-.16.192-.315.3-.467a.19.19,0,0,1,.014-.021c.014-.019.028-.037.041-.057.026-.037.055-.072.081-.109s.052-.072.079-.108h0c.019-.026.041-.053.062-.079l.052-.067a5.917,5.917,0,0,1,3.237-2.061c.131-.03.261-.053.395-.072a4.641,4.641,0,0,1,1.259-.009,4.212,4.212,0,0,1,1.078.289,4.437,4.437,0,0,1,2.462,2.644,5.072,5.072,0,0,1,.158.523,5.572,5.572,0,0,1,.162,1.372,6.293,6.293,0,0,1-.183,1.479A6.308,6.308,0,0,1-3556.667,1446.432Z" transform="translate(-13.833 -7.529)"/>
    <path id="Path_2029" data-name="Path 2029" class="cls-4" d="M-3537.967,1455.614c0-.026,0-.051-.005-.077-.009-.111-.02-.221-.036-.329,0-.014-.005-.028-.007-.042-.015-.1-.034-.195-.055-.29,0-.022-.009-.044-.014-.065q-.037-.155-.082-.3l-.005-.02c-.005-.018-.011-.036-.017-.054s-.01-.026-.015-.039c-.024-.071-.049-.141-.077-.21,0-.012-.008-.025-.013-.037l-.009-.023-.007-.015-.009-.022-.016-.037-.031-.07-.026-.055-.008-.018,0-.01c-.01-.022-.021-.044-.033-.066l-.021-.042-.024-.046-.009-.016-.013-.024-.027-.051c-.017-.031-.035-.06-.053-.09l-.025-.043-.005-.008-.011-.016c-.051-.082-.1-.16-.16-.237-.007-.01-.013-.02-.02-.029l-.035-.047-.008-.011,0-.006-.052-.066-.022-.026c-.063-.076-.127-.151-.194-.221h0l-.073-.074h0c-.024-.025-.05-.049-.075-.073h0l0,0c-.051-.049-.1-.1-.158-.141l0,0-.073-.061-.039-.029-.037-.027-.062-.047-.042-.031-.06-.041-.006,0-.045-.029c-.031-.021-.062-.041-.094-.061l-.038-.023-.012-.007-.011-.007-.074-.042-.07-.038-.017-.008-.012-.006-.017-.009-.071-.035-.095-.044h0l-.1-.042-.049-.02-.037-.014-.025-.01-.037-.014-.075-.025-.008,0-.092-.031-.025-.008-.1-.029-.026-.006-.1-.025-.079-.019-.04-.008-.026-.005-.04-.008-.043-.006c-.074-.012-.148-.023-.223-.031l-.07-.008c-.086-.008-.173-.013-.26-.015h-.068c-.082,0-.165,0-.248.006l-.079,0c-.1.007-.2.016-.3.03h0c-.1.015-.207.034-.309.056l-.038.007-.114.027-.057.015-.113.031-.028.009-.111.036-.083.027-.028.01-.11.042-.082.031-.055.022c-.1.044-.208.093-.31.144l-.062.031q-.147.077-.29.163l-.018.01-.05.031-.033.022c-.088.056-.175.115-.261.176h0c-.085.062-.168.127-.25.194l-.031.024-.045.038-.013.012q-.179.153-.345.322l-.021.02q-.175.179-.335.374a5.785,5.785,0,0,0-1.327,3.627c0,.133.006.263.015.392l0,.058q.016.183.044.361c0,.01,0,.021,0,.032s.005.024.008.036c.019.111.041.22.067.327a.014.014,0,0,0,0,0c0,.014.008.028.012.042.017.064.034.128.053.19l.005.018c0,.01.007.02.01.03.032.1.067.2.106.3,0,.008.005.017.009.025l.009.023a.092.092,0,0,1,.006.015l.01.023.016.037.031.07.018.039.009.019.008.017c.006.014.013.027.019.041s.015.027.022.041c.032.064.066.128.1.19.007.012.013.025.02.038l.022.038.009.014.036.056c.017.026.032.053.049.079l.02.03.013.019.019.027.032.046c.021.031.044.061.067.091l.019.025,0,0,.04.051.036.041q.045.055.091.108l.03.035.053.057.009.009.05.051c.023.024.046.048.07.071l0,0,.037.034c.054.051.11.1.167.148l.058.046.015.011.055.043.04.031.008.007.071.05.031.021.081.055.078.049.084.05.028.017.082.045.021.011.1.05.083.04.125.054.082.033.066.024.026.01.049.018.071.025c.061.02.123.037.185.053l.017,0h0l.014,0,.052.013.052.01.094.019.075.015.043.009.053.009.019,0,.06.006c.078.01.157.019.237.024l.037,0,.031,0,.111,0h.113l.113,0h0l.057,0,.114-.008.071-.005c.072-.006.146-.014.219-.025.1-.015.207-.034.309-.056l.077-.017.071-.019c.076-.019.151-.037.226-.06h0l.056-.018.111-.037.028-.01.08-.03.029-.011.083-.031.023-.01c.041-.017.081-.036.122-.053l.052-.023.053-.023.008,0,.011,0,.053-.026c.053-.026.1-.052.157-.081s.1-.056.154-.086l.038-.023.025-.015.038-.022c.05-.031.1-.062.15-.1l.031-.022.031-.021.03-.021.047-.033c.023-.016.046-.031.068-.047l.065-.05.049-.038.074-.057.013-.01.021-.017.046-.038.09-.077h0l.044-.039.024-.022,0,0c.094-.084.185-.172.273-.263l.018-.017.023-.024.031-.035c.039-.041.075-.084.112-.126s.1-.1.142-.16c.1-.115.184-.236.27-.359.008-.011.017-.021.024-.032l.01-.012.016-.024c.008-.012.015-.024.022-.036q.108-.161.205-.329c.008-.014.019-.028.026-.043l.009-.015c.03-.053.059-.107.087-.161.042-.08.08-.162.118-.244.008-.017.017-.033.024-.05s.013-.024.018-.037.021-.05.032-.075l.026-.06.015-.034.045-.114c.006-.014.011-.029.016-.043l.011-.029c.005-.014.011-.029.016-.043.014-.039.028-.077.041-.116.007-.019.013-.039.02-.058l0-.009c.008-.024.013-.048.021-.071.024-.078.048-.156.068-.235h0c0-.013.008-.026.011-.04l.016-.06c0-.007,0-.014,0-.02v0c.029-.121.053-.242.075-.365h0c0-.012,0-.023.007-.035s.006-.041.009-.062,0-.014,0-.021v0c.017-.115.03-.23.041-.347h0c0-.024,0-.049,0-.073h0c.009-.121.015-.243.015-.365h0C-3537.954,1455.843-3537.959,1455.728-3537.967,1455.614Z" transform="translate(-28.239 -23.194)"/>
    <path id="Path_2032" data-name="Path 2032" class="cls-5" d="M-3568.818,1427.054c-.03-.016-.062-.03-.092-.046-.07-.036-.14-.072-.212-.1l-.057-.026c-.1-.044-.2-.085-.309-.123l-.068-.023c-.1-.034-.2-.065-.3-.093l-.032-.009-.01,0c-.107-.028-.216-.051-.326-.072l-.074-.013c-.114-.019-.228-.035-.344-.047l-.048,0c-.108-.01-.217-.016-.327-.018l-.062,0c-.119,0-.239,0-.359.009l-.076.005c-.125.009-.25.021-.377.038s-.26.043-.388.07l-.1.022c-.118.027-.235.057-.35.092l-.031.009c-.125.038-.248.081-.369.127l-.094.036q-.159.063-.316.135l-.037.017-.017.007-.086.043c-.057.028-.113.056-.169.086l-.1.054c-.051.028-.1.056-.152.086l-.1.062-.143.09-.1.067-.066.046-.045.031c-.1.07-.2.142-.293.217l-.026.019c-.1.082-.2.167-.3.255l-.032.03-.047.042q-.107.1-.21.2l-.066.066q-.13.133-.255.273l-.012.013-.038.044q-.1.115-.195.234l-.071.089q-.093.119-.181.243l-.035.048-.011.015q-.113.161-.217.329l-.05.083c-.055.092-.109.185-.161.279l-.031.055-.014.025q-.108.2-.2.413l-.037.083c-.063.143-.123.288-.177.435l0,.014c-.017.046-.032.092-.048.138s-.033.092-.048.138-.033.107-.049.161-.028.092-.041.138-.029.11-.042.166-.024.092-.035.138-.024.113-.036.17-.02.092-.028.138-.019.117-.029.175-.015.09-.022.136c-.008.061-.015.122-.022.183,0,.044-.011.087-.015.131-.006.068-.01.136-.015.2,0,.038-.006.075-.008.113-.005.106-.008.212-.008.318a5.39,5.39,0,0,0,2.674,4.881l1.2.655-.051-.03q-.1-.054-.191-.113l-.083-.052c-.079-.052-.157-.105-.234-.162l-.022-.016c-.083-.062-.164-.128-.242-.2-.024-.02-.046-.041-.069-.061q-.085-.075-.165-.154l-.074-.073c-.055-.056-.109-.115-.162-.174l-.054-.059q-.1-.119-.2-.245c-.014-.018-.027-.037-.04-.055-.05-.068-.1-.137-.146-.207l-.057-.089c-.041-.064-.081-.13-.119-.2l-.05-.088c-.05-.09-.1-.182-.143-.276l-.007-.015c-.047-.1-.091-.2-.132-.3-.013-.031-.024-.063-.036-.094q-.043-.112-.082-.228c-.012-.035-.023-.071-.035-.107q-.039-.124-.073-.251c-.007-.027-.015-.054-.022-.081q-.042-.168-.074-.34c-.005-.026-.009-.053-.013-.08q-.024-.136-.042-.274c-.005-.039-.01-.078-.014-.117-.01-.086-.017-.172-.023-.259,0-.038-.006-.075-.008-.112-.006-.123-.011-.246-.01-.372,0-.107,0-.213.008-.318,0-.037.005-.073.008-.11,0-.069.009-.139.015-.207,0-.042.01-.083.015-.125.007-.063.013-.127.022-.189.006-.045.014-.089.021-.133s.018-.119.029-.178.019-.091.028-.136.023-.115.036-.172.023-.091.034-.136.028-.112.043-.167.028-.092.041-.138.031-.108.049-.161.031-.092.048-.138.031-.092.047-.138a.124.124,0,0,0,.006-.013c.054-.147.114-.292.178-.435l.037-.083q.1-.21.2-.413l.013-.026,0-.006.028-.049q.078-.142.161-.279l.05-.083c.07-.112.141-.221.217-.329l.01-.015.036-.048q.088-.124.181-.243l.071-.089q.1-.119.195-.233c.013-.015.025-.03.037-.045l.012-.013q.124-.14.255-.273l.066-.065q.1-.1.209-.2l.045-.043.034-.029c.1-.088.2-.173.3-.255l.026-.02c.1-.075.194-.147.293-.216l.042-.032.068-.045.1-.067c.047-.031.095-.06.143-.09l.1-.062.029-.017.123-.068.1-.054c.056-.03.114-.058.17-.086l.085-.042.016-.008.039-.017c.1-.048.209-.093.315-.135l.094-.037c.122-.046.244-.089.369-.126l.032-.009c.115-.034.232-.064.35-.091l.1-.022c.128-.027.258-.052.388-.07.094-.013.187-.023.28-.032l.091-.006h.005l.077-.005.1-.005.106,0h.212l.066,0,.161.008.1.008h.005l.043,0,.121.014.1.013.119.019.068.012h.006l.065.011c.068.014.135.029.2.046l.05.012h.006l.013,0,.032.009c.067.018.134.036.2.057l.065.022.04.014.068.023.072.025.089.036c.05.02.1.04.148.061h0l.02.008.034.017.037.017c.031.014.062.027.092.042l.052.027.065.034.059.03Z" transform="translate(0 0)"/>
    <path id="Path_2033" data-name="Path 2033" class="cls-6" d="M-3553.841,1435.207l-.065-.033c-.026-.014-.054-.026-.083-.039l-.535.536-7.323,7.325-.537.537c.009.032.018.062.028.093s.023.072.035.107c.025.078.053.153.081.227.012.032.023.063.037.1.041.1.085.2.132.3a.073.073,0,0,0,.007.014c.046.095.093.187.143.276.016.03.034.058.051.088.037.067.078.132.118.2.019.03.039.06.058.088.047.07.1.139.146.208.012.018.024.037.039.055.065.084.13.166.2.245.018.021.037.041.054.06.053.06.106.118.162.174l.074.072c.052.053.109.1.165.155.023.019.046.041.069.062.079.067.159.132.243.2l.021.014c.075.057.155.111.234.162a.818.818,0,0,0,.071.044l.517-.516,7.637-7.638.52-.518A5.02,5.02,0,0,0-3553.841,1435.207Zm-1.286-.454c-.021-.005-.044-.009-.065-.012l-.007,0c-.062-.01-.123-.021-.187-.03l-.1-.014c-.054-.007-.109-.012-.164-.018h0l-.1-.009c-.053,0-.106-.005-.16-.007-.021,0-.044,0-.065,0a.11.11,0,0,0-.024,0c-.062,0-.125,0-.188,0-.036,0-.071,0-.106,0-.053,0-.1.005-.159.011l-.794.793-4.514,4.514-.8.8c0,.005,0,.01,0,.016-.009.063-.014.127-.021.188-.005.042-.01.085-.016.125-.005.069-.01.139-.014.208,0,.037,0,.072-.007.109-.006.106-.009.213-.009.319,0,.125,0,.248.01.372,0,.037,0,.076.007.113,0,.053.009.106.014.16l.606-.6,6.4-6.4.6-.6C-3555.042,1434.769-3555.084,1434.76-3555.126,1434.753Zm3.76,3.547-7.878,7.878-.533.534a4.848,4.848,0,0,0,2.342.488l.768-.768,4.743-4.743.768-.768a6.774,6.774,0,0,0,.047-.8A6.255,6.255,0,0,0-3551.366,1438.3Z" transform="translate(-13.833 -7.529)"/>
    <path id="Path_2034" data-name="Path 2034" class="cls-7" d="M-3512.865,1478.069l-2.308-6.275s-.025-.192-.132-.183-.128.171-.128.171l-2.047,6.3c-.03.192.136.171.136.171l.467,0c.166,0,.157-.132.157-.132l.732-2.06,1.424.029c.377-.008.715.088.731.8s-.731.734-.731.734h-.291v-.842c0-.217-.12-.192-.12-.192h-.591c-.174-.013-.133.175-.133.175v1.343a.152.152,0,0,0,.174.148h2.482A.148.148,0,0,0-3512.865,1478.069Zm-2.368-2.731a.521.521,0,0,1-.453-.569.521.521,0,0,1,.453-.569.521.521,0,0,1,.453.569A.521.521,0,0,1-3515.233,1475.338Z" transform="translate(-55.368 -41.522)"/>
    <path id="Path_2035" data-name="Path 2035" class="cls-8" d="M-3514.894,1478.069l-2.308-6.275s-.025-.192-.132-.183-.128.171-.128.171l-2.047,6.3c-.029.192.136.171.136.171l.468,0c.165,0,.157-.132.157-.132l.732-2.06,1.424.029c.377-.008.715.088.731.8s-.731.734-.731.734h-.291v-.842c0-.217-.12-.192-.12-.192h-.592c-.174-.013-.132.175-.132.175v1.343a.152.152,0,0,0,.174.148h2.482A.148.148,0,0,0-3514.894,1478.069Zm-2.368-2.731a.521.521,0,0,1-.453-.569.521.521,0,0,1,.453-.569.521.521,0,0,1,.453.569A.521.521,0,0,1-3517.262,1475.338Z" transform="translate(-53.501 -41.522)"/>
  </g>
</svg>
