<svg xmlns="http://www.w3.org/2000/svg" xmlns:xlink="http://www.w3.org/1999/xlink" width="78.174" height="78.174" viewBox="0 0 78.174 78.174">
  <defs>
    <filter id="Ellipse_656" x="0" y="0" width="78.174" height="78.174" filterUnits="userSpaceOnUse">
      <feOffset dy="3" input="SourceAlpha"/>
      <feGaussianBlur stdDeviation="3" result="blur"/>
      <feFlood flood-opacity="0.471"/>
      <feComposite operator="in" in2="blur"/>
      <feComposite in="SourceGraphic"/>
    </filter>
  </defs>
  <g id="Group_3568" data-name="Group 3568" transform="translate(-2486.334 -6560.633)">
    <g id="Group_3559" data-name="Group 3559" transform="translate(2515.924 6588.388)">
      <path id="Path_3455" data-name="Path 3455" d="M4818.1-6420.991a.782.782,0,0,1-.386-.1.789.789,0,0,1-.4-.692l.03-15a.8.8,0,0,1,.408-.69.8.8,0,0,1,.8.019l12.183,7.528a.793.793,0,0,1,.376.675.8.8,0,0,1-.378.674l-12.215,7.475A.81.81,0,0,1,4818.1-6420.991Zm.823-14.376-.026,12.169,9.908-6.063Z" transform="translate(-4817.308 6437.576)" fill="#e7e7e7"/>
    </g>
    <g id="Group_3560" data-name="Group 3560" transform="translate(2532.423 6588.424)">
      <path id="Path_3456" data-name="Path 3456" d="M4831.295-6420.961a.794.794,0,0,1-.791-.794l.032-15a.792.792,0,0,1,.794-.79.791.791,0,0,1,.79.793l-.032,15A.794.794,0,0,1,4831.295-6420.961Z" transform="translate(-4830.504 6437.548)" fill="#e7e7e7"/>
    </g>
    <g id="Group_3558" data-name="Group 3558" transform="translate(2492.244 6566.627)">
      <g transform="matrix(1, 0, 0, 1, -5.91, -5.99)" filter="url(#Ellipse_656)" style="mix-blend-mode: overlay;isolation: isolate">
        <circle id="Ellipse_656-2" data-name="Ellipse 656" cx="30.087" cy="30.087" r="30.087" transform="translate(9 6)" fill="#081730"/>
      </g>
      <circle id="Ellipse_657" data-name="Ellipse 657" cx="30.09" cy="30.09" r="30.09" fill="none"/>
    </g>
  </g>
</svg>
