<svg xmlns="http://www.w3.org/2000/svg" xmlns:xlink="http://www.w3.org/1999/xlink" width="78.174" height="78.174" viewBox="0 0 78.174 78.174">
  <defs>
    <filter id="Ellipse_656" x="0" y="0" width="78.174" height="78.174" filterUnits="userSpaceOnUse">
      <feOffset dy="3" input="SourceAlpha"/>
      <feGaussianBlur stdDeviation="3" result="blur"/>
      <feFlood flood-opacity="0.471"/>
      <feComposite operator="in" in2="blur"/>
      <feComposite in="SourceGraphic"/>
    </filter>
  </defs>
  <g id="Group_3567" data-name="Group 3567" transform="translate(-2392.334 -6560.633)">
    <g id="Group_3562" data-name="Group 3562" transform="translate(2418.173 6588.18)">
      <g id="Group_2852" data-name="Group 2852">
        <g id="Group_2849" data-name="Group 2849">
          <path id="Path_3457" data-name="Path 3457" d="M4739.91-6421.158a.785.785,0,0,1-.387-.1.793.793,0,0,1-.4-.692l.032-15a.79.79,0,0,1,.407-.69.8.8,0,0,1,.8.018l12.182,7.527a.792.792,0,0,1,.375.675.793.793,0,0,1-.378.674l-12.215,7.475A.8.8,0,0,1,4739.91-6421.158Zm.823-14.375-.026,12.168,9.909-6.063Z" transform="translate(-4739.12 6437.743)" fill="#e7e7e7"/>
        </g>
        <g id="Group_2850" data-name="Group 2850" transform="translate(18.083 0.038)">
          <path id="Path_3458" data-name="Path 3458" d="M4754.375-6421.125a.8.8,0,0,1-.791-.794l.032-15a.792.792,0,0,1,.794-.79.793.793,0,0,1,.791.793l-.032,15A.8.8,0,0,1,4754.375-6421.125Z" transform="translate(-4753.584 6437.712)" fill="#e7e7e7"/>
        </g>
        <g id="Group_2851" data-name="Group 2851" transform="translate(24.895 0.053)">
          <path id="Path_3459" data-name="Path 3459" d="M4759.822-6421.115a.791.791,0,0,1-.79-.792l.032-15a.793.793,0,0,1,.794-.791.793.793,0,0,1,.791.794l-.033,15A.792.792,0,0,1,4759.822-6421.115Z" transform="translate(-4759.032 6437.7)" fill="#e7e7e7"/>
        </g>
      </g>
    </g>
    <g id="Group_3561" data-name="Group 3561" transform="translate(2398.244 6566.627)">
      <g transform="matrix(1, 0, 0, 1, -5.91, -5.99)" filter="url(#Ellipse_656)" style="mix-blend-mode: overlay;isolation: isolate">
        <circle id="Ellipse_656-2" data-name="Ellipse 656" cx="30.087" cy="30.087" r="30.087" transform="translate(9 6)" fill="#081730"/>
      </g>
      <circle id="Ellipse_657" data-name="Ellipse 657" cx="30.09" cy="30.09" r="30.09" fill="none"/>
    </g>
  </g>
</svg>
