<svg xmlns="http://www.w3.org/2000/svg" xmlns:xlink="http://www.w3.org/1999/xlink" width="78.174" height="78.174" viewBox="0 0 78.174 78.174">
  <defs>
    <filter id="Ellipse_656" x="0" y="0" width="78.174" height="78.174" filterUnits="userSpaceOnUse">
      <feOffset dy="3" input="SourceAlpha"/>
      <feGaussianBlur stdDeviation="3" result="blur"/>
      <feFlood flood-opacity="0.471"/>
      <feComposite operator="in" in2="blur"/>
      <feComposite in="SourceGraphic"/>
    </filter>
  </defs>
  <g id="Group_3566" data-name="Group 3566" transform="translate(-2297.334 -6560.633)">
    <g id="Group_3564" data-name="Group 3564" transform="translate(2330.575 6588.026)">
      <path id="Path_3453" data-name="Path 3453" d="M4678.83-6421.28a.807.807,0,0,1-.415-.119l-12.186-7.527a.8.8,0,0,1-.374-.676.79.79,0,0,1,.377-.673l12.218-7.476a.8.8,0,0,1,.8-.015.8.8,0,0,1,.4.692l-.032,15a.793.793,0,0,1-.408.689A.779.779,0,0,1,4678.83-6421.28Zm-10.673-8.317,9.885,6.106.026-12.169Z" transform="translate(-4665.855 6437.866)" fill="#e7e7e7"/>
    </g>
    <g id="Group_3565" data-name="Group 3565" transform="translate(2326.259 6587.989)">
      <path id="Path_3454" data-name="Path 3454" d="M4663.193-6421.309a.793.793,0,0,1-.791-.794l.033-15a.8.8,0,0,1,.794-.792.793.793,0,0,1,.79.794l-.032,15A.794.794,0,0,1,4663.193-6421.309Z" transform="translate(-4662.402 6437.896)" fill="#e7e7e7"/>
    </g>
    <g id="Group_3563" data-name="Group 3563" transform="translate(2303.244 6566.627)">
      <g transform="matrix(1, 0, 0, 1, -5.91, -5.99)" filter="url(#Ellipse_656)" style="mix-blend-mode: overlay;isolation: isolate">
        <circle id="Ellipse_656-2" data-name="Ellipse 656" cx="30.087" cy="30.087" r="30.087" transform="translate(9 6)" fill="#081730"/>
      </g>
      <circle id="Ellipse_657" data-name="Ellipse 657" cx="30.09" cy="30.09" r="30.09" fill="none"/>
    </g>
  </g>
</svg>
